# Blender 4.2.2 LTS
# www.blender.org
mtllib tri.mtl
o Cube.001
v 1.160411 -0.081220 0.000000
v 0.769440 -0.108856 0.000000
v -0.580205 -0.081220 -1.004945
v -0.404310 -0.108856 -0.677665
v -0.580205 -0.081220 1.004945
v -0.404310 -0.108856 0.677665
v -0.528189 -0.032641 0.914851
v -0.528189 -0.032641 -0.914850
v 1.056378 -0.032641 0.000000
v -0.478937 -0.032641 0.818015
v -0.478937 -0.032641 -0.818015
v 0.937906 -0.032641 0.000000
v 1.160411 -0.205812 0.000000
v -0.580205 -0.205812 -1.004945
v -0.580205 -0.205812 1.004945
vn 0.3413 0.7308 0.5911
vn -0.6825 0.7308 -0.0000
vn 0.3413 0.7308 -0.5911
vn -0.0000 1.0000 -0.0000
vn 0.7145 0.6996 -0.0000
vn -0.3355 0.7415 0.5810
vn -0.3355 0.7415 -0.5810
vn 0.5000 -0.0000 -0.8660
vn -1.0000 -0.0000 -0.0000
vn 0.5000 -0.0000 0.8660
vt 0.375000 0.250000
vt 0.625000 0.250000
vt 0.625000 0.500000
vt 0.375000 0.500000
vt 0.625000 0.750000
vt 0.375000 0.750000
vt 0.625000 1.000000
vt 0.375000 1.000000
vt 0.638345 0.528265
vt 0.638345 0.735080
vt 0.845159 0.735080
vt 0.875000 0.750000
vt 0.651185 0.555462
vt 0.651185 0.720724
vt 0.816448 0.720724
s 0
f 1/1/1 9/2/1 7/3/1 5/4/1
f 5/4/2 7/3/2 8/5/2 3/6/2
f 3/6/3 8/5/3 9/7/3 1/8/3
f 10/9/4 11/10/4 8/5/4 7/3/4
f 11/10/4 12/11/4 9/12/4 8/5/4
f 12/11/4 10/9/4 7/3/4 9/12/4
f 6/13/5 4/14/5 11/10/5 10/9/5
f 4/14/6 2/15/6 12/11/6 11/10/6
f 2/15/7 6/13/7 10/9/7 12/11/7
f 3/6/8 1/8/8 13/8/8 14/6/8
f 5/4/9 3/6/9 14/6/9 15/4/9
f 1/1/10 5/4/10 15/4/10 13/1/10
