# Blender 4.2.2 LTS
# www.blender.org
mtllib triBase.mtl
o Cube.002
v 1.079308 -0.081220 0.000000
v -0.539653 -0.081220 -0.934707
v -0.539653 -0.081220 0.934707
v -0.528189 -0.032641 0.914851
v -0.528189 -0.032641 -0.914850
v 1.056378 -0.032641 0.000000
vn 0.4866 0.2297 0.8429
vn -0.9733 0.2297 -0.0000
vn 0.4866 0.2297 -0.8429
vn -0.0000 -1.0000 -0.0000
vn -0.0000 1.0000 -0.0000
vt 0.375000 0.250000
vt 0.625000 0.250000
vt 0.625000 0.500000
vt 0.375000 0.500000
vt 0.625000 0.750000
vt 0.375000 0.750000
vt 0.625000 1.000000
vt 0.375000 1.000000
vt 0.875000 0.750000
s 0
f 1/1/1 6/2/1 4/3/1 3/4/1
f 3/4/2 4/3/2 5/5/2 2/6/2
f 2/6/3 5/5/3 6/7/3 1/8/3
f 3/4/4 2/6/4 1/8/4
f 5/5/5 4/3/5 6/9/5
