# Blender 4.2.2 LTS
# www.blender.org
mtllib PaperHalf.mtl
o PaperHalf
v -0.023686 0.000000 0.000368
v -0.023654 0.000000 0.001622
v -0.023654 0.001150 0.001622
v -0.023686 0.001150 0.000368
v -0.023561 0.000000 0.002859
v -0.023561 0.001150 0.002859
v -0.023408 0.000000 0.004079
v -0.023408 0.001150 0.004079
v -0.023195 0.000000 0.005279
v -0.023195 0.001150 0.005279
v -0.022926 0.000000 0.006457
v -0.022926 0.001150 0.006457
v -0.022601 0.000000 0.007614
v -0.022601 0.001150 0.007614
v -0.022221 0.000000 0.008746
v -0.022221 0.001150 0.008746
v -0.021789 0.000000 0.009852
v -0.021789 0.001150 0.009852
v -0.021306 0.000000 0.010931
v -0.021306 0.001150 0.010931
v -0.020773 0.000000 0.011982
v -0.020773 0.001150 0.011982
v -0.020192 0.000000 0.013002
v -0.020192 0.001150 0.013002
v -0.019564 0.000000 0.013991
v -0.019564 0.001150 0.013991
v -0.018891 0.000000 0.014946
v -0.018891 0.001150 0.014946
v -0.018175 0.000000 0.015866
v -0.018175 0.001150 0.015866
v -0.017416 0.000000 0.016750
v -0.017416 0.001150 0.016750
v -0.016617 0.000000 0.017597
v -0.016617 0.001150 0.017597
v -0.015779 0.000000 0.018403
v -0.015779 0.001150 0.018403
v -0.014903 0.000000 0.019169
v -0.014903 0.001150 0.019169
v -0.013991 0.000000 0.019892
v -0.013991 0.001150 0.019892
v -0.013045 0.000000 0.020571
v -0.013045 0.001150 0.020571
v -0.012066 0.000000 0.021205
v -0.012066 0.001150 0.021205
v -0.011055 0.000000 0.021792
v -0.011055 0.001150 0.021792
v -0.010015 0.000000 0.022330
v -0.010015 0.001150 0.022330
v -0.008946 0.000000 0.022818
v -0.008946 0.001150 0.022818
v -0.007850 0.000000 0.023254
v -0.007850 0.001150 0.023254
v -0.006728 0.000000 0.023637
v -0.006728 0.001150 0.023637
v -0.005583 0.000000 0.023965
v -0.005583 0.001150 0.023965
v -0.004415 0.000000 0.024237
v -0.004415 0.001150 0.024237
v -0.003227 0.000000 0.024452
v -0.003227 0.001150 0.024452
v -0.002019 0.000000 0.024607
v -0.002019 0.001150 0.024607
v -0.000793 0.000000 0.024701
v -0.000793 0.001150 0.024701
v 0.000449 0.000000 0.024732
v 0.000449 0.001150 0.024732
v 0.001690 0.000000 0.024701
v 0.001690 0.001150 0.024701
v 0.002916 0.000000 0.024607
v 0.002916 0.001150 0.024607
v 0.004124 0.000000 0.024452
v 0.004124 0.001150 0.024452
v 0.005312 0.000000 0.024237
v 0.005312 0.001150 0.024237
v 0.006480 0.000000 0.023965
v 0.006480 0.001150 0.023965
v 0.007625 0.000000 0.023637
v 0.007625 0.001150 0.023637
v 0.008747 0.000000 0.023254
v 0.008747 0.001150 0.023254
v 0.009843 0.000000 0.022818
v 0.009843 0.001150 0.022818
v 0.010912 0.000000 0.022330
v 0.010912 0.001150 0.022330
v 0.011952 0.000000 0.021792
v 0.011952 0.001150 0.021792
v 0.012963 0.000000 0.021205
v 0.012963 0.001150 0.021205
v 0.013942 0.000000 0.020571
v 0.013942 0.001150 0.020571
v 0.014888 0.000000 0.019892
v 0.014888 0.001150 0.019892
v 0.015800 0.000000 0.019169
v 0.015800 0.001150 0.019169
v 0.016676 0.000000 0.018403
v 0.016676 0.001150 0.018403
v 0.017514 0.000000 0.017597
v 0.017514 0.001150 0.017597
v 0.018313 0.000000 0.016750
v 0.018313 0.001150 0.016750
v 0.019072 0.000000 0.015866
v 0.019072 0.001150 0.015866
v 0.019788 0.000000 0.014946
v 0.019788 0.001150 0.014946
v 0.020461 0.000000 0.013991
v 0.020461 0.001150 0.013991
v 0.021089 0.000000 0.013002
v 0.021089 0.001150 0.013002
v 0.021670 0.000000 0.011982
v 0.021670 0.001150 0.011982
v 0.022203 0.000000 0.010931
v 0.022203 0.001150 0.010931
v 0.022686 0.000000 0.009852
v 0.022686 0.001150 0.009852
v 0.023118 0.000000 0.008746
v 0.023118 0.001150 0.008746
v 0.023498 0.000000 0.007614
v 0.023498 0.001150 0.007614
v 0.023823 0.000000 0.006457
v 0.023823 0.001150 0.006457
v 0.024092 0.000000 0.005279
v 0.024092 0.001150 0.005279
v 0.024305 0.000000 0.004079
v 0.024305 0.001150 0.004079
v 0.024458 0.000000 0.002859
v 0.024458 0.001150 0.002859
v 0.024551 0.000000 0.001622
v 0.024551 0.001150 0.001622
v 0.024583 0.000000 0.000368
v 0.024583 0.001150 0.000368
v 0.024551 0.000000 -0.000886
v 0.024551 0.001150 -0.000886
v 0.024458 0.000000 -0.002123
v 0.024458 0.001150 -0.002123
v 0.024305 0.000000 -0.003343
v 0.024305 0.001150 -0.003343
v 0.024092 0.000000 -0.004542
v 0.024092 0.001150 -0.004542
v 0.023823 0.000000 -0.005721
v 0.023823 0.001150 -0.005721
v 0.023498 0.000000 -0.006878
v 0.023498 0.001150 -0.006878
v 0.023118 0.000000 -0.008010
v 0.023118 0.001150 -0.008010
v 0.022686 0.000000 -0.009116
v 0.022686 0.001150 -0.009116
v 0.022203 0.000000 -0.010195
v 0.022203 0.001150 -0.010195
v 0.021670 0.000000 -0.011246
v 0.021670 0.001150 -0.011246
v 0.021089 0.000000 -0.012266
v 0.021089 0.001150 -0.012266
v 0.020461 0.000000 -0.013255
v 0.020461 0.001150 -0.013255
v 0.019788 0.000000 -0.014210
v 0.019788 0.001150 -0.014210
v 0.019072 0.000000 -0.015130
v 0.019072 0.001150 -0.015130
v 0.018313 0.000000 -0.016014
v 0.018313 0.001150 -0.016014
v 0.017514 0.000000 -0.016860
v 0.017514 0.001150 -0.016860
v 0.016676 0.000000 -0.017667
v 0.016676 0.001150 -0.017667
v 0.015800 0.000000 -0.018433
v 0.015800 0.001150 -0.018433
v 0.014888 0.000000 -0.019156
v 0.014888 0.001150 -0.019156
v 0.013942 0.000000 -0.019835
v 0.013942 0.001150 -0.019835
v 0.012963 0.000000 -0.020469
v 0.012963 0.001150 -0.020469
v 0.011952 0.000000 -0.021056
v 0.011952 0.001150 -0.021056
v 0.010912 0.000000 -0.021594
v 0.010912 0.001150 -0.021594
v 0.009843 0.000000 -0.022082
v 0.009843 0.001150 -0.022082
v 0.008747 0.000000 -0.022518
v 0.008747 0.001150 -0.022518
v 0.007625 0.000000 -0.022901
v 0.007625 0.001150 -0.022901
v 0.006480 0.000000 -0.023229
v 0.006480 0.001150 -0.023229
v 0.005312 0.000000 -0.023501
v 0.005312 0.001150 -0.023501
v 0.004124 0.000000 -0.023716
v 0.004124 0.001150 -0.023716
v 0.002916 0.000000 -0.023870
v 0.002916 0.001150 -0.023870
v 0.001690 0.000000 -0.023965
v 0.001690 0.001150 -0.023965
v 0.000449 0.000000 -0.023996
v 0.000449 0.001150 -0.023996
v -0.000793 0.000000 -0.023965
v -0.000793 0.001150 -0.023965
v -0.002019 0.000000 -0.023870
v -0.002019 0.001150 -0.023870
v -0.003227 0.000000 -0.023716
v -0.003227 0.001150 -0.023716
v -0.004415 0.000000 -0.023501
v -0.004415 0.001150 -0.023501
v -0.005583 0.000000 -0.023229
v -0.005583 0.001150 -0.023229
v -0.006728 0.000000 -0.022901
v -0.006728 0.001150 -0.022901
v -0.007850 0.000000 -0.022518
v -0.007850 0.001150 -0.022518
v -0.008946 0.000000 -0.022082
v -0.008946 0.001150 -0.022082
v -0.010015 0.000000 -0.021594
v -0.010015 0.001150 -0.021594
v -0.011055 0.000000 -0.021056
v -0.011055 0.001150 -0.021056
v -0.012066 0.000000 -0.020469
v -0.012066 0.001150 -0.020469
v -0.013045 0.000000 -0.019835
v -0.013045 0.001150 -0.019835
v -0.013991 0.000000 -0.019156
v -0.013991 0.001150 -0.019156
v -0.014903 0.000000 -0.018433
v -0.014903 0.001150 -0.018433
v -0.015779 0.000000 -0.017667
v -0.015779 0.001150 -0.017667
v -0.016617 0.000000 -0.016860
v -0.016617 0.001150 -0.016860
v -0.017416 0.000000 -0.016014
v -0.017416 0.001150 -0.016014
v -0.018175 0.000000 -0.015130
v -0.018175 0.001150 -0.015130
v -0.018891 0.000000 -0.014210
v -0.018891 0.001150 -0.014210
v -0.019564 0.000000 -0.013255
v -0.019564 0.001150 -0.013255
v -0.020192 0.000000 -0.012266
v -0.020192 0.001150 -0.012266
v -0.020773 0.000000 -0.011246
v -0.020773 0.001150 -0.011246
v -0.021306 0.000000 -0.010195
v -0.021306 0.001150 -0.010195
v -0.021789 0.000000 -0.009116
v -0.021789 0.001150 -0.009116
v -0.022221 0.000000 -0.008010
v -0.022221 0.001150 -0.008010
v -0.022601 0.000000 -0.006878
v -0.022601 0.001150 -0.006878
v -0.022926 0.000000 -0.005721
v -0.022926 0.001150 -0.005721
v -0.023195 0.000000 -0.004542
v -0.023195 0.001150 -0.004542
v -0.023408 0.000000 -0.003343
v -0.023408 0.001150 -0.003343
v -0.023561 0.000000 -0.002123
v -0.023561 0.001150 -0.002123
v -0.023654 0.000000 -0.000886
v -0.023654 0.001150 -0.000886
v -0.019390 0.000000 -0.004301
v -0.019390 0.001150 -0.004301
v -0.018084 0.000000 -0.003387
v -0.018084 0.001150 -0.003387
v -0.016805 0.000000 -0.002426
v -0.016805 0.001150 -0.002426
v -0.015600 0.000000 -0.001381
v -0.015600 0.001150 -0.001381
v -0.015039 0.000000 -0.000814
v -0.015039 0.001150 -0.000814
v -0.014514 0.000000 -0.000213
v -0.014514 0.001150 -0.000213
v -0.013851 0.000000 0.001122
v -0.013851 0.001150 0.001122
v -0.013290 0.000000 0.002504
v -0.013290 0.001150 0.002504
v -0.012191 0.000000 0.005279
v -0.012191 0.001150 0.005279
v -0.011904 0.000000 0.005781
v -0.011904 0.001150 0.005781
v -0.011520 0.000000 0.006209
v -0.011520 0.001150 0.006209
v -0.010627 0.000000 0.006946
v -0.010627 0.001150 0.006946
v -0.007734 0.000000 0.009120
v -0.007734 0.001150 0.009120
v -0.006329 0.000000 0.010229
v -0.006329 0.001150 0.010229
v -0.004979 0.000000 0.011405
v -0.004979 0.001150 0.011405
v -0.003622 0.000000 0.012571
v -0.003622 0.001150 0.012571
v -0.002197 0.000000 0.013651
v -0.002197 0.001150 0.013651
v -0.001960 0.000000 0.013779
v -0.001960 0.001150 0.013779
v -0.001715 0.000000 0.013830
v -0.001715 0.001150 0.013830
v -0.001467 0.000000 0.013817
v -0.001467 0.001150 0.013817
v -0.001221 0.000000 0.013753
v -0.001221 0.001150 0.013753
v -0.000745 0.000000 0.013520
v -0.000745 0.001150 0.013520
v -0.000322 0.000000 0.013232
v -0.000322 0.001150 0.013232
v 0.000056 0.000000 0.012852
v 0.000056 0.001150 0.012852
v 0.000389 0.000000 0.012420
v 0.000389 0.001150 0.012420
v 0.000665 0.000000 0.011944
v 0.000665 0.001150 0.011944
v 0.000872 0.000000 0.011438
v 0.000872 0.001150 0.011438
v 0.001001 0.000000 0.010912
v 0.001001 0.001150 0.010912
v 0.001038 0.000000 0.010377
v 0.001038 0.001150 0.010377
v 0.000973 0.000000 0.009845
v 0.000973 0.001150 0.009845
v 0.000794 0.000000 0.009327
v 0.000794 0.001150 0.009327
v 0.000545 0.000000 0.008871
v 0.000545 0.001150 0.008871
v 0.000255 0.000000 0.008445
v 0.000255 0.001150 0.008445
v -0.000413 0.000000 0.007662
v -0.000413 0.001150 0.007662
v -0.001869 0.000000 0.006193
v -0.001869 0.001150 0.006193
v -0.001070 0.000000 0.006521
v -0.001070 0.001150 0.006521
v -0.000318 0.000000 0.006928
v -0.000318 0.001150 0.006928
v 0.001099 0.000000 0.007895
v 0.001099 0.001150 0.007895
v 0.002479 0.000000 0.008927
v 0.002479 0.001150 0.008927
v 0.003187 0.000000 0.009415
v 0.003187 0.001150 0.009415
v 0.003922 0.000000 0.009856
v 0.003922 0.001150 0.009856
v 0.005241 0.000000 0.010516
v 0.005241 0.001150 0.010516
v 0.006606 0.000000 0.011081
v 0.006606 0.001150 0.011081
v 0.008011 0.000000 0.011527
v 0.008011 0.001150 0.011527
v 0.009454 0.000000 0.011834
v 0.009454 0.001150 0.011834
v 0.010464 0.000000 0.011885
v 0.010464 0.001150 0.011885
v 0.010977 0.000000 0.011837
v 0.010977 0.001150 0.011837
v 0.011478 0.000000 0.011732
v 0.011478 0.001150 0.011732
v 0.011952 0.000000 0.011562
v 0.011952 0.001150 0.011562
v 0.012388 0.000000 0.011319
v 0.012388 0.001150 0.011319
v 0.012771 0.000000 0.010996
v 0.012771 0.001150 0.010996
v 0.013088 0.000000 0.010586
v 0.013088 0.001150 0.010586
v 0.013274 0.000000 0.010220
v 0.013274 0.001150 0.010220
v 0.013338 0.000000 0.009822
v 0.013338 0.001150 0.009822
v 0.013295 0.000000 0.009005
v 0.013295 0.001150 0.009005
v 0.014253 0.000000 0.008904
v 0.014253 0.001150 0.008904
v 0.014724 0.000000 0.008792
v 0.014724 0.001150 0.008792
v 0.015181 0.000000 0.008637
v 0.015181 0.001150 0.008637
v 0.015616 0.000000 0.008435
v 0.015616 0.001150 0.008435
v 0.016023 0.000000 0.008183
v 0.016023 0.001150 0.008183
v 0.016394 0.000000 0.007880
v 0.016394 0.001150 0.007880
v 0.016722 0.000000 0.007521
v 0.016722 0.001150 0.007521
v 0.017059 0.000000 0.007003
v 0.017059 0.001150 0.007003
v 0.017332 0.000000 0.006445
v 0.017332 0.001150 0.006445
v 0.017524 0.000000 0.005856
v 0.017524 0.001150 0.005856
v 0.017613 0.000000 0.005244
v 0.017613 0.001150 0.005244
v 0.017375 0.000000 0.005012
v 0.017375 0.001150 0.005012
v 0.017081 0.000000 0.004848
v 0.017081 0.001150 0.004848
v 0.016463 0.000000 0.004572
v 0.016463 0.001150 0.004572
v 0.017241 0.000000 0.003521
v 0.017241 0.001150 0.003521
v 0.017499 0.000000 0.002932
v 0.017499 0.001150 0.002932
v 0.017556 0.000000 0.002617
v 0.017556 0.001150 0.002617
v 0.017550 0.000000 0.002289
v 0.017550 0.001150 0.002289
v 0.017490 0.000000 0.002029
v 0.017490 0.001150 0.002029
v 0.017380 0.000000 0.001801
v 0.017380 0.001150 0.001801
v 0.017050 0.000000 0.001422
v 0.017050 0.001150 0.001422
v 0.016205 0.000000 0.000834
v 0.016205 0.001150 0.000834
v 0.016609 0.000000 0.000305
v 0.016609 0.001150 0.000305
v 0.016926 0.000000 -0.000284
v 0.016926 0.001150 -0.000284
v 0.017027 0.000000 -0.000596
v 0.017027 0.001150 -0.000596
v 0.017076 0.000000 -0.000918
v 0.017076 0.001150 -0.000918
v 0.017064 0.000000 -0.001247
v 0.017064 0.001150 -0.001247
v 0.016981 0.000000 -0.001581
v 0.016981 0.001150 -0.001581
v 0.016669 0.000000 -0.001952
v 0.016669 0.001150 -0.001952
v 0.016302 0.000000 -0.002269
v 0.016302 0.001150 -0.002269
v 0.015514 0.000000 -0.002841
v 0.015514 0.001150 -0.002841
v 0.011696 0.000000 -0.005477
v 0.011696 0.001150 -0.005477
v 0.007849 0.000000 -0.008074
v 0.007849 0.001150 -0.008074
v 0.005666 0.000000 -0.009510
v 0.005666 0.001150 -0.009510
v 0.004540 0.000000 -0.010166
v 0.004540 0.001150 -0.010166
v 0.003347 0.000000 -0.010696
v 0.003347 0.001150 -0.010696
v 0.000825 0.000000 -0.011606
v 0.000825 0.001150 -0.011606
v -0.001713 0.000000 -0.012471
v -0.001713 0.001150 -0.012471
v -0.006808 0.000000 -0.014140
v -0.006808 0.001150 -0.014140
v -0.007853 0.000000 -0.014578
v -0.007853 0.001150 -0.014578
v -0.008833 0.000000 -0.015142
v -0.008833 0.001150 -0.015142
v -0.010684 0.000000 -0.016452
v -0.010684 0.001150 -0.016452
v -0.009911 0.000000 -0.016999
v -0.009911 0.001150 -0.016999
v -0.009100 0.000000 -0.017489
v -0.009100 0.001150 -0.017489
v -0.008258 0.000000 -0.017924
v -0.008258 0.001150 -0.017924
v -0.007390 0.000000 -0.018310
v -0.007390 0.001150 -0.018310
v -0.005597 0.000000 -0.018948
v -0.005597 0.001150 -0.018948
v -0.003766 0.000000 -0.019436
v -0.003766 0.001150 -0.019436
v -0.002705 0.000000 -0.019637
v -0.002705 0.001150 -0.019637
v -0.001634 0.000000 -0.019781
v -0.001634 0.001150 -0.019781
v -0.000557 0.000000 -0.019870
v -0.000557 0.001150 -0.019870
v 0.000523 0.000000 -0.019902
v 0.000523 0.001150 -0.019902
v 0.002324 0.000000 -0.019830
v 0.002324 0.001150 -0.019830
v 0.004112 0.000000 -0.019601
v 0.004112 0.001150 -0.019601
v 0.005873 0.000000 -0.019213
v 0.005873 0.001150 -0.019213
v 0.007590 0.000000 -0.018666
v 0.007590 0.001150 -0.018666
v 0.009312 0.000000 -0.017962
v 0.009312 0.001150 -0.017962
v 0.010960 0.000000 -0.017103
v 0.010960 0.001150 -0.017103
v 0.012522 0.000000 -0.016097
v 0.012522 0.001150 -0.016097
v 0.013988 0.000000 -0.014954
v 0.013988 0.001150 -0.014954
v 0.015346 0.000000 -0.013684
v 0.015346 0.001150 -0.013684
v 0.016584 0.000000 -0.012298
v 0.016584 0.001150 -0.012298
v 0.017690 0.000000 -0.010804
v 0.017690 0.001150 -0.010804
v 0.018654 0.000000 -0.009212
v 0.018654 0.001150 -0.009212
v 0.019435 0.000000 -0.007646
v 0.019435 0.001150 -0.007646
v 0.020077 0.000000 -0.006018
v 0.020077 0.001150 -0.006018
v 0.020578 0.000000 -0.004341
v 0.020578 0.001150 -0.004341
v 0.020935 0.000000 -0.002627
v 0.020935 0.001150 -0.002627
v 0.021147 0.000000 -0.000889
v 0.021147 0.001150 -0.000889
v 0.021210 0.000000 0.000860
v 0.021210 0.001150 0.000860
v 0.021124 0.000000 0.002608
v 0.021124 0.001150 0.002608
v 0.020885 0.000000 0.004342
v 0.020885 0.001150 0.004342
v 0.020508 0.000000 0.006019
v 0.020508 0.001150 0.006019
v 0.019993 0.000000 0.007660
v 0.019993 0.001150 0.007660
v 0.019346 0.000000 0.009254
v 0.019346 0.001150 0.009254
v 0.018571 0.000000 0.010789
v 0.018571 0.001150 0.010789
v 0.017672 0.000000 0.012254
v 0.017672 0.001150 0.012254
v 0.016653 0.000000 0.013638
v 0.016653 0.001150 0.013638
v 0.015518 0.000000 0.014930
v 0.015518 0.001150 0.014930
v 0.014272 0.000000 0.016118
v 0.014272 0.001150 0.016118
v 0.012952 0.000000 0.017210
v 0.012952 0.001150 0.017210
v 0.011542 0.000000 0.018181
v 0.011542 0.001150 0.018181
v 0.010054 0.000000 0.019026
v 0.010054 0.001150 0.019026
v 0.008500 0.000000 0.019744
v 0.008500 0.001150 0.019744
v 0.006892 0.000000 0.020332
v 0.006892 0.001150 0.020332
v 0.005241 0.000000 0.020787
v 0.005241 0.001150 0.020787
v 0.003559 0.000000 0.021107
v 0.003559 0.001150 0.021107
v 0.001857 0.000000 0.021288
v 0.001857 0.001150 0.021288
v 0.000872 0.000000 0.021326
v 0.000872 0.001150 0.021326
v -0.000114 0.000000 0.021315
v -0.000114 0.001150 0.021315
v -0.001098 0.000000 0.021256
v -0.001098 0.001150 0.021256
v -0.002078 0.000000 0.021151
v -0.002078 0.001150 0.021151
v -0.003052 0.000000 0.020998
v -0.003052 0.001150 0.020998
v -0.004017 0.000000 0.020800
v -0.004017 0.001150 0.020800
v -0.004972 0.000000 0.020557
v -0.004972 0.001150 0.020557
v -0.005915 0.000000 0.020268
v -0.005915 0.001150 0.020268
v -0.006842 0.000000 0.019936
v -0.006842 0.001150 0.019936
v -0.007753 0.000000 0.019560
v -0.007753 0.001150 0.019560
v -0.008644 0.000000 0.019141
v -0.008644 0.001150 0.019141
v -0.009515 0.000000 0.018679
v -0.009515 0.001150 0.018679
v -0.010362 0.000000 0.018176
v -0.010362 0.001150 0.018176
v -0.011184 0.000000 0.017632
v -0.011184 0.001150 0.017632
v -0.011978 0.000000 0.017048
v -0.011978 0.001150 0.017048
v -0.012743 0.000000 0.016423
v -0.012743 0.001150 0.016423
v -0.013818 0.000000 0.015468
v -0.013818 0.001150 0.015468
v -0.014814 0.000000 0.014436
v -0.014814 0.001150 0.014436
v -0.015729 0.000000 0.013335
v -0.015729 0.001150 0.013335
v -0.016562 0.000000 0.012170
v -0.016562 0.001150 0.012170
v -0.017310 0.000000 0.010949
v -0.017310 0.001150 0.010949
v -0.017971 0.000000 0.009678
v -0.017971 0.001150 0.009678
v -0.018544 0.000000 0.008364
v -0.018544 0.001150 0.008364
v -0.019026 0.000000 0.007014
v -0.019026 0.001150 0.007014
v -0.019416 0.000000 0.005634
v -0.019416 0.001150 0.005634
v -0.019711 0.000000 0.004231
v -0.019711 0.001150 0.004231
v -0.019910 0.000000 0.002811
v -0.019910 0.001150 0.002811
v -0.020011 0.000000 0.001381
v -0.020011 0.001150 0.001381
v -0.020011 0.000000 -0.000051
v -0.020011 0.001150 -0.000051
v -0.019909 0.000000 -0.001480
v -0.019909 0.001150 -0.001480
v -0.019703 0.000000 -0.002899
v -0.019703 0.001150 -0.002899
vn -0.9997 -0.0000 0.0250
vn -0.9972 -0.0000 0.0751
vn -0.9922 -0.0000 0.1249
vn -0.9847 -0.0000 0.1742
vn -0.9748 -0.0000 0.2229
vn -0.9626 -0.0000 0.2708
vn -0.9482 -0.0000 0.3178
vn -0.9315 -0.0000 0.3638
vn -0.9127 -0.0000 0.4087
vn -0.8918 -0.0000 0.4524
vn -0.8689 -0.0000 0.4949
vn -0.8442 -0.0000 0.5361
vn -0.8175 -0.0000 0.5759
vn -0.7891 -0.0000 0.6143
vn -0.7589 -0.0000 0.6512
vn -0.7270 -0.0000 0.6866
vn -0.6935 -0.0000 0.7205
vn -0.6583 -0.0000 0.7528
vn -0.6215 -0.0000 0.7834
vn -0.5832 -0.0000 0.8124
vn -0.5433 -0.0000 0.8395
vn -0.5020 -0.0000 0.8649
vn -0.4593 -0.0000 0.8883
vn -0.4152 -0.0000 0.9097
vn -0.3698 -0.0000 0.9291
vn -0.3232 -0.0000 0.9463
vn -0.2756 -0.0000 0.9613
vn -0.2269 -0.0000 0.9739
vn -0.1774 -0.0000 0.9841
vn -0.1272 -0.0000 0.9919
vn -0.0765 -0.0000 0.9971
vn -0.0255 -0.0000 0.9997
vn 0.0255 -0.0000 0.9997
vn 0.0765 -0.0000 0.9971
vn 0.1272 -0.0000 0.9919
vn 0.1774 -0.0000 0.9841
vn 0.2269 -0.0000 0.9739
vn 0.2756 -0.0000 0.9613
vn 0.3232 -0.0000 0.9463
vn 0.3698 -0.0000 0.9291
vn 0.4152 -0.0000 0.9097
vn 0.4593 -0.0000 0.8883
vn 0.5020 -0.0000 0.8649
vn 0.5433 -0.0000 0.8395
vn 0.5832 -0.0000 0.8124
vn 0.6215 -0.0000 0.7834
vn 0.6583 -0.0000 0.7528
vn 0.6935 -0.0000 0.7205
vn 0.7270 -0.0000 0.6866
vn 0.7589 -0.0000 0.6512
vn 0.7891 -0.0000 0.6143
vn 0.8175 -0.0000 0.5759
vn 0.8442 -0.0000 0.5361
vn 0.8689 -0.0000 0.4949
vn 0.8918 -0.0000 0.4524
vn 0.9127 -0.0000 0.4087
vn 0.9315 -0.0000 0.3638
vn 0.9482 -0.0000 0.3178
vn 0.9626 -0.0000 0.2708
vn 0.9748 -0.0000 0.2229
vn 0.9847 -0.0000 0.1742
vn 0.9922 -0.0000 0.1249
vn 0.9972 -0.0000 0.0751
vn 0.9997 -0.0000 0.0250
vn 0.9997 -0.0000 -0.0250
vn 0.9972 -0.0000 -0.0751
vn 0.9922 -0.0000 -0.1249
vn 0.9847 -0.0000 -0.1742
vn 0.9748 -0.0000 -0.2229
vn 0.9626 -0.0000 -0.2708
vn 0.9482 -0.0000 -0.3178
vn 0.9315 -0.0000 -0.3638
vn 0.9127 -0.0000 -0.4087
vn 0.8918 -0.0000 -0.4524
vn 0.8689 -0.0000 -0.4949
vn 0.8442 -0.0000 -0.5361
vn 0.8175 -0.0000 -0.5759
vn 0.7891 -0.0000 -0.6143
vn 0.7589 -0.0000 -0.6512
vn 0.7270 -0.0000 -0.6866
vn 0.6935 -0.0000 -0.7205
vn 0.6583 -0.0000 -0.7528
vn 0.6215 -0.0000 -0.7834
vn 0.5832 -0.0000 -0.8124
vn 0.5433 -0.0000 -0.8395
vn 0.5020 -0.0000 -0.8649
vn 0.4593 -0.0000 -0.8883
vn 0.4152 -0.0000 -0.9097
vn 0.3698 -0.0000 -0.9291
vn 0.3232 -0.0000 -0.9463
vn 0.2756 -0.0000 -0.9613
vn 0.2269 -0.0000 -0.9739
vn 0.1774 -0.0000 -0.9841
vn 0.1272 -0.0000 -0.9919
vn 0.0765 -0.0000 -0.9971
vn 0.0255 -0.0000 -0.9997
vn -0.0255 -0.0000 -0.9997
vn -0.0765 -0.0000 -0.9971
vn -0.1272 -0.0000 -0.9919
vn -0.1774 -0.0000 -0.9841
vn -0.2269 -0.0000 -0.9739
vn -0.2756 -0.0000 -0.9613
vn -0.3232 -0.0000 -0.9463
vn -0.3698 -0.0000 -0.9291
vn -0.4152 -0.0000 -0.9097
vn -0.4593 -0.0000 -0.8883
vn -0.5020 -0.0000 -0.8649
vn -0.5433 -0.0000 -0.8395
vn -0.5832 -0.0000 -0.8124
vn -0.6215 -0.0000 -0.7834
vn -0.6583 -0.0000 -0.7528
vn -0.6935 -0.0000 -0.7205
vn -0.7270 -0.0000 -0.6866
vn -0.7589 -0.0000 -0.6512
vn -0.7891 -0.0000 -0.6143
vn -0.8175 -0.0000 -0.5759
vn -0.8442 -0.0000 -0.5361
vn -0.8689 -0.0000 -0.4949
vn -0.8918 -0.0000 -0.4524
vn -0.9127 -0.0000 -0.4087
vn -0.9315 -0.0000 -0.3638
vn -0.9482 -0.0000 -0.3178
vn -0.9626 -0.0000 -0.2708
vn -0.9748 -0.0000 -0.2229
vn -0.9847 -0.0000 -0.1742
vn -0.9922 -0.0000 -0.1249
vn -0.9972 -0.0000 -0.0751
vn -0.9997 -0.0000 -0.0250
vn -0.5736 -0.0000 0.8192
vn -0.6007 -0.0000 0.7995
vn -0.6551 -0.0000 0.7555
vn -0.7105 -0.0000 0.7037
vn -0.7534 -0.0000 0.6576
vn -0.8956 -0.0000 0.4449
vn -0.9266 -0.0000 0.3759
vn -0.9297 -0.0000 0.3683
vn -0.8683 -0.0000 0.4961
vn -0.7447 -0.0000 0.6674
vn -0.6365 -0.0000 0.7713
vn -0.6008 -0.0000 0.7994
vn -0.6194 -0.0000 0.7850
vn -0.6568 -0.0000 0.7540
vn -0.6519 -0.0000 0.7583
vn -0.6039 -0.0000 0.7971
vn -0.4738 -0.0000 0.8807
vn -0.2046 -0.0000 0.9788
vn 0.0518 -0.0000 0.9987
vn 0.2519 -0.0000 0.9677
vn 0.4399 -0.0000 0.8980
vn 0.5632 -0.0000 0.8263
vn 0.7082 -0.0000 0.7060
vn 0.7929 -0.0000 0.6094
vn 0.8648 -0.0000 0.5021
vn 0.9251 -0.0000 0.3796
vn 0.9716 -0.0000 0.2368
vn 0.9976 -0.0000 0.0695
vn 0.9926 -0.0000 -0.1216
vn 0.9451 -0.0000 -0.3267
vn 0.8781 -0.0000 -0.4785
vn 0.8266 -0.0000 -0.5628
vn 0.7607 -0.0000 -0.6492
vn 0.7103 -0.0000 -0.7039
vn -0.3803 -0.0000 0.9249
vn -0.4757 -0.0000 0.8796
vn -0.5637 -0.0000 0.8260
vn -0.5985 -0.0000 0.8011
vn -0.5678 -0.0000 0.8232
vn -0.5149 -0.0000 0.8572
vn -0.4474 -0.0000 0.8943
vn -0.3823 -0.0000 0.9240
vn -0.3029 -0.0000 0.9530
vn -0.2081 -0.0000 0.9781
vn -0.0500 -0.0000 0.9988
vn 0.0918 -0.0000 0.9958
vn 0.2058 -0.0000 0.9786
vn 0.3381 -0.0000 0.9411
vn 0.4872 -0.0000 0.8733
vn 0.6444 -0.0000 0.7647
vn 0.7909 -0.0000 0.6120
vn 0.8914 -0.0000 0.4532
vn 0.9874 -0.0000 0.1585
vn 0.9986 -0.0000 -0.0527
vn 0.1053 -0.0000 0.9944
vn 0.2300 -0.0000 0.9732
vn 0.3221 -0.0000 0.9467
vn 0.4212 -0.0000 0.9070
vn 0.5260 -0.0000 0.8505
vn 0.6332 -0.0000 0.7740
vn 0.7373 -0.0000 0.6756
vn 0.8384 -0.0000 0.5451
vn 0.8980 -0.0000 0.4399
vn 0.9512 -0.0000 0.3085
vn 0.9894 -0.0000 0.1453
vn 0.6975 -0.0000 -0.7165
vn 0.4872 -0.0000 -0.8733
vn 0.4088 -0.0000 -0.9126
vn 0.8037 -0.0000 0.5950
vn 0.9160 -0.0000 0.4012
vn 0.9840 -0.0000 0.1782
vn 0.9998 -0.0000 -0.0186
vn 0.9740 -0.0000 -0.2265
vn 0.9010 -0.0000 -0.4339
vn 0.7537 -0.0000 -0.6572
vn 0.5714 -0.0000 -0.8207
vn 0.7946 -0.0000 0.6071
vn 0.8805 -0.0000 0.4740
vn 0.9514 -0.0000 0.3079
vn 0.9883 -0.0000 0.1522
vn 0.9993 -0.0000 -0.0364
vn 0.9702 -0.0000 -0.2421
vn 0.7658 -0.0000 -0.6430
vn 0.6527 -0.0000 -0.7577
vn 0.5876 -0.0000 -0.8092
vn 0.5681 -0.0000 -0.8230
vn 0.5595 -0.0000 -0.8288
vn 0.5496 -0.0000 -0.8354
vn 0.5034 -0.0000 -0.8641
vn 0.4058 -0.0000 -0.9139
vn 0.3396 -0.0000 -0.9406
vn 0.3224 -0.0000 -0.9466
vn 0.3114 -0.0000 -0.9503
vn 0.3866 -0.0000 -0.9222
vn 0.4983 -0.0000 -0.8670
vn 0.5778 -0.0000 -0.8162
vn 0.5778 -0.0000 0.8162
vn 0.5169 -0.0000 0.8560
vn 0.4059 -0.0000 0.9139
vn 0.3354 -0.0000 0.9421
vn 0.2577 -0.0000 0.9662
vn 0.1858 -0.0000 0.9826
vn 0.1337 -0.0000 0.9910
vn 0.0817 -0.0000 0.9967
vn 0.0299 -0.0000 0.9996
vn -0.0397 -0.0000 0.9992
vn -0.1274 -0.0000 0.9918
vn -0.2153 -0.0000 0.9765
vn -0.3034 -0.0000 0.9529
vn -0.3782 -0.0000 0.9257
vn -0.4625 -0.0000 0.8866
vn -0.5413 -0.0000 0.8408
vn -0.6148 -0.0000 0.7887
vn -0.6830 -0.0000 0.7304
vn -0.7460 -0.0000 0.6659
vn -0.8036 -0.0000 0.5952
vn -0.8554 -0.0000 0.5179
vn -0.8949 -0.0000 0.4462
vn -0.9303 -0.0000 0.3668
vn -0.9582 -0.0000 0.2861
vn -0.9790 -0.0000 0.2041
vn -0.9927 -0.0000 0.1209
vn -0.9993 -0.0000 0.0364
vn -0.9988 -0.0000 -0.0494
vn -0.9907 -0.0000 -0.1364
vn -0.9756 -0.0000 -0.2197
vn -0.9542 -0.0000 -0.2992
vn -0.9266 -0.0000 -0.3761
vn -0.8926 -0.0000 -0.4508
vn -0.8523 -0.0000 -0.5231
vn -0.8053 -0.0000 -0.5928
vn -0.7514 -0.0000 -0.6599
vn -0.6902 -0.0000 -0.7236
vn -0.6375 -0.0000 -0.7705
vn -0.5669 -0.0000 -0.8238
vn -0.4940 -0.0000 -0.8694
vn -0.4194 -0.0000 -0.9078
vn -0.3433 -0.0000 -0.9392
vn -0.2657 -0.0000 -0.9641
vn -0.1866 -0.0000 -0.9824
vn -0.1060 -0.0000 -0.9944
vn -0.0382 -0.0000 -0.9993
vn 0.0108 -0.0000 -0.9999
vn 0.0593 -0.0000 -0.9982
vn 0.1072 -0.0000 -0.9942
vn 0.1545 -0.0000 -0.9880
vn 0.2011 -0.0000 -0.9796
vn 0.2472 -0.0000 -0.9690
vn 0.2926 -0.0000 -0.9562
vn 0.3375 -0.0000 -0.9413
vn 0.3817 -0.0000 -0.9243
vn 0.4253 -0.0000 -0.9051
vn 0.4683 -0.0000 -0.8836
vn 0.5105 -0.0000 -0.8599
vn 0.5521 -0.0000 -0.8338
vn 0.5928 -0.0000 -0.8054
vn 0.6326 -0.0000 -0.7745
vn 0.6643 -0.0000 -0.7475
vn 0.7194 -0.0000 -0.6946
vn 0.7691 -0.0000 -0.6391
vn 0.8135 -0.0000 -0.5816
vn 0.8527 -0.0000 -0.5224
vn 0.8871 -0.0000 -0.4616
vn 0.9167 -0.0000 -0.3996
vn 0.9417 -0.0000 -0.3363
vn 0.9624 -0.0000 -0.2718
vn 0.9786 -0.0000 -0.2059
vn 0.9903 -0.0000 -0.1388
vn 0.9975 -0.0000 -0.0702
vn 1.0000 -0.0000 -0.0002
vn 0.9975 -0.0000 0.0712
vn 0.9896 -0.0000 0.1438
vn 0.9761 -0.0000 0.2175
vn -0.7359 -0.0000 -0.6770
vn -0.0000 1.0000 -0.0000
vn -0.0000 1.0000 -0.0001
s 0
f 1//1 2//1 3//1 4//1
f 2//2 5//2 6//2 3//2
f 5//3 7//3 8//3 6//3
f 7//4 9//4 10//4 8//4
f 9//5 11//5 12//5 10//5
f 11//6 13//6 14//6 12//6
f 13//7 15//7 16//7 14//7
f 15//8 17//8 18//8 16//8
f 17//9 19//9 20//9 18//9
f 19//10 21//10 22//10 20//10
f 21//11 23//11 24//11 22//11
f 23//12 25//12 26//12 24//12
f 25//13 27//13 28//13 26//13
f 27//14 29//14 30//14 28//14
f 29//15 31//15 32//15 30//15
f 31//16 33//16 34//16 32//16
f 33//17 35//17 36//17 34//17
f 35//18 37//18 38//18 36//18
f 37//19 39//19 40//19 38//19
f 39//20 41//20 42//20 40//20
f 41//21 43//21 44//21 42//21
f 43//22 45//22 46//22 44//22
f 45//23 47//23 48//23 46//23
f 47//24 49//24 50//24 48//24
f 49//25 51//25 52//25 50//25
f 51//26 53//26 54//26 52//26
f 53//27 55//27 56//27 54//27
f 55//28 57//28 58//28 56//28
f 57//29 59//29 60//29 58//29
f 59//30 61//30 62//30 60//30
f 61//31 63//31 64//31 62//31
f 63//32 65//32 66//32 64//32
f 65//33 67//33 68//33 66//33
f 67//34 69//34 70//34 68//34
f 69//35 71//35 72//35 70//35
f 71//36 73//36 74//36 72//36
f 73//37 75//37 76//37 74//37
f 75//38 77//38 78//38 76//38
f 77//39 79//39 80//39 78//39
f 79//40 81//40 82//40 80//40
f 81//41 83//41 84//41 82//41
f 83//42 85//42 86//42 84//42
f 85//43 87//43 88//43 86//43
f 87//44 89//44 90//44 88//44
f 89//45 91//45 92//45 90//45
f 91//46 93//46 94//46 92//46
f 93//47 95//47 96//47 94//47
f 95//48 97//48 98//48 96//48
f 97//49 99//49 100//49 98//49
f 99//50 101//50 102//50 100//50
f 101//51 103//51 104//51 102//51
f 103//52 105//52 106//52 104//52
f 105//53 107//53 108//53 106//53
f 107//54 109//54 110//54 108//54
f 109//55 111//55 112//55 110//55
f 111//56 113//56 114//56 112//56
f 113//57 115//57 116//57 114//57
f 115//58 117//58 118//58 116//58
f 117//59 119//59 120//59 118//59
f 119//60 121//60 122//60 120//60
f 121//61 123//61 124//61 122//61
f 123//62 125//62 126//62 124//62
f 125//63 127//63 128//63 126//63
f 127//64 129//64 130//64 128//64
f 129//65 131//65 132//65 130//65
f 131//66 133//66 134//66 132//66
f 133//67 135//67 136//67 134//67
f 135//68 137//68 138//68 136//68
f 137//69 139//69 140//69 138//69
f 139//70 141//70 142//70 140//70
f 141//71 143//71 144//71 142//71
f 143//72 145//72 146//72 144//72
f 145//73 147//73 148//73 146//73
f 147//74 149//74 150//74 148//74
f 149//75 151//75 152//75 150//75
f 151//76 153//76 154//76 152//76
f 153//77 155//77 156//77 154//77
f 155//78 157//78 158//78 156//78
f 157//79 159//79 160//79 158//79
f 159//80 161//80 162//80 160//80
f 161//81 163//81 164//81 162//81
f 163//82 165//82 166//82 164//82
f 165//83 167//83 168//83 166//83
f 167//84 169//84 170//84 168//84
f 169//85 171//85 172//85 170//85
f 171//86 173//86 174//86 172//86
f 173//87 175//87 176//87 174//87
f 175//88 177//88 178//88 176//88
f 177//89 179//89 180//89 178//89
f 179//90 181//90 182//90 180//90
f 181//91 183//91 184//91 182//91
f 183//92 185//92 186//92 184//92
f 185//93 187//93 188//93 186//93
f 187//94 189//94 190//94 188//94
f 189//95 191//95 192//95 190//95
f 191//96 193//96 194//96 192//96
f 193//97 195//97 196//97 194//97
f 195//98 197//98 198//98 196//98
f 197//99 199//99 200//99 198//99
f 199//100 201//100 202//100 200//100
f 201//101 203//101 204//101 202//101
f 203//102 205//102 206//102 204//102
f 205//103 207//103 208//103 206//103
f 207//104 209//104 210//104 208//104
f 209//105 211//105 212//105 210//105
f 211//106 213//106 214//106 212//106
f 213//107 215//107 216//107 214//107
f 215//108 217//108 218//108 216//108
f 217//109 219//109 220//109 218//109
f 219//110 221//110 222//110 220//110
f 221//111 223//111 224//111 222//111
f 223//112 225//112 226//112 224//112
f 225//113 227//113 228//113 226//113
f 227//114 229//114 230//114 228//114
f 229//115 231//115 232//115 230//115
f 231//116 233//116 234//116 232//116
f 233//117 235//117 236//117 234//117
f 235//118 237//118 238//118 236//118
f 237//119 239//119 240//119 238//119
f 239//120 241//120 242//120 240//120
f 241//121 243//121 244//121 242//121
f 243//122 245//122 246//122 244//122
f 245//123 247//123 248//123 246//123
f 247//124 249//124 250//124 248//124
f 249//125 251//125 252//125 250//125
f 251//126 253//126 254//126 252//126
f 253//127 255//127 256//127 254//127
f 255//128 1//128 4//128 256//128
f 257//129 259//129 260//129 258//129
f 259//130 261//130 262//130 260//130
f 261//131 263//131 264//131 262//131
f 263//132 265//132 266//132 264//132
f 265//133 267//133 268//133 266//133
f 267//134 269//134 270//134 268//134
f 269//135 271//135 272//135 270//135
f 271//136 273//136 274//136 272//136
f 273//137 275//137 276//137 274//137
f 275//138 277//138 278//138 276//138
f 277//139 279//139 280//139 278//139
f 279//140 281//140 282//140 280//140
f 281//141 283//141 284//141 282//141
f 283//142 285//142 286//142 284//142
f 285//143 287//143 288//143 286//143
f 287//144 289//144 290//144 288//144
f 289//145 291//145 292//145 290//145
f 291//146 293//146 294//146 292//146
f 293//147 295//147 296//147 294//147
f 295//148 297//148 298//148 296//148
f 297//149 299//149 300//149 298//149
f 299//150 301//150 302//150 300//150
f 301//151 303//151 304//151 302//151
f 303//152 305//152 306//152 304//152
f 305//153 307//153 308//153 306//153
f 307//154 309//154 310//154 308//154
f 309//155 311//155 312//155 310//155
f 311//156 313//156 314//156 312//156
f 313//157 315//157 316//157 314//157
f 315//158 317//158 318//158 316//158
f 317//159 319//159 320//159 318//159
f 319//160 321//160 322//160 320//160
f 321//161 323//161 324//161 322//161
f 323//162 325//162 326//162 324//162
f 325//163 327//163 328//163 326//163
f 327//164 329//164 330//164 328//164
f 329//165 331//165 332//165 330//165
f 331//166 333//166 334//166 332//166
f 333//167 335//167 336//167 334//167
f 335//168 337//168 338//168 336//168
f 337//169 339//169 340//169 338//169
f 339//170 341//170 342//170 340//170
f 341//171 343//171 344//171 342//171
f 343//172 345//172 346//172 344//172
f 345//173 347//173 348//173 346//173
f 347//174 349//174 350//174 348//174
f 349//175 351//175 352//175 350//175
f 351//176 353//176 354//176 352//176
f 353//177 355//177 356//177 354//177
f 355//178 357//178 358//178 356//178
f 357//179 359//179 360//179 358//179
f 359//180 361//180 362//180 360//180
f 361//181 363//181 364//181 362//181
f 363//182 365//182 366//182 364//182
f 365//183 367//183 368//183 366//183
f 367//184 369//184 370//184 368//184
f 369//185 371//185 372//185 370//185
f 371//186 373//186 374//186 372//186
f 373//187 375//187 376//187 374//187
f 375//188 377//188 378//188 376//188
f 377//189 379//189 380//189 378//189
f 379//190 381//190 382//190 380//190
f 381//191 383//191 384//191 382//191
f 383//192 385//192 386//192 384//192
f 385//193 387//193 388//193 386//193
f 387//194 389//194 390//194 388//194
f 389//195 391//195 392//195 390//195
f 391//196 393//196 394//196 392//196
f 393//197 395//197 396//197 394//197
f 395//198 397//198 398//198 396//198
f 397//199 399//199 400//199 398//199
f 399//200 401//200 402//200 400//200
f 401//201 403//201 404//201 402//201
f 403//202 405//202 406//202 404//202
f 405//203 407//203 408//203 406//203
f 407//204 409//204 410//204 408//204
f 409//205 411//205 412//205 410//205
f 411//206 413//206 414//206 412//206
f 413//207 415//207 416//207 414//207
f 415//208 417//208 418//208 416//208
f 417//209 419//209 420//209 418//209
f 419//210 421//210 422//210 420//210
f 421//211 423//211 424//211 422//211
f 423//212 425//212 426//212 424//212
f 425//213 427//213 428//213 426//213
f 427//214 429//214 430//214 428//214
f 429//215 431//215 432//215 430//215
f 431//216 433//216 434//216 432//216
f 433//217 435//217 436//217 434//217
f 435//218 437//218 438//218 436//218
f 437//219 439//219 440//219 438//219
f 439//220 441//220 442//220 440//220
f 441//221 443//221 444//221 442//221
f 443//222 445//222 446//222 444//222
f 445//223 447//223 448//223 446//223
f 447//224 449//224 450//224 448//224
f 449//225 451//225 452//225 450//225
f 451//226 453//226 454//226 452//226
f 453//42 455//42 456//42 454//42
f 455//227 457//227 458//227 456//227
f 457//228 459//228 460//228 458//228
f 459//229 461//229 462//229 460//229
f 461//230 463//230 464//230 462//230
f 463//231 465//231 466//231 464//231
f 465//232 467//232 468//232 466//232
f 467//233 469//233 470//233 468//233
f 469//234 471//234 472//234 470//234
f 471//235 473//235 474//235 472//235
f 473//236 475//236 476//236 474//236
f 475//237 477//237 478//237 476//237
f 477//238 479//238 480//238 478//238
f 479//239 481//239 482//239 480//239
f 481//240 483//240 484//240 482//240
f 483//241 485//241 486//241 484//241
f 485//242 487//242 488//242 486//242
f 487//243 489//243 490//243 488//243
f 489//244 491//244 492//244 490//244
f 491//245 493//245 494//245 492//245
f 493//246 495//246 496//246 494//246
f 495//247 497//247 498//247 496//247
f 497//248 499//248 500//248 498//248
f 499//249 501//249 502//249 500//249
f 501//250 503//250 504//250 502//250
f 503//251 505//251 506//251 504//251
f 505//252 507//252 508//252 506//252
f 507//253 509//253 510//253 508//253
f 509//254 511//254 512//254 510//254
f 511//255 513//255 514//255 512//255
f 513//256 515//256 516//256 514//256
f 515//257 517//257 518//257 516//257
f 517//258 519//258 520//258 518//258
f 519//259 521//259 522//259 520//259
f 521//260 523//260 524//260 522//260
f 523//261 525//261 526//261 524//261
f 525//262 527//262 528//262 526//262
f 527//263 529//263 530//263 528//263
f 529//264 531//264 532//264 530//264
f 531//265 533//265 534//265 532//265
f 533//266 535//266 536//266 534//266
f 535//267 537//267 538//267 536//267
f 537//268 539//268 540//268 538//268
f 539//269 541//269 542//269 540//269
f 541//270 543//270 544//270 542//270
f 543//271 545//271 546//271 544//271
f 545//272 547//272 548//272 546//272
f 547//273 549//273 550//273 548//273
f 549//274 551//274 552//274 550//274
f 551//275 553//275 554//275 552//275
f 553//276 555//276 556//276 554//276
f 555//277 557//277 558//277 556//277
f 557//278 559//278 560//278 558//278
f 559//279 561//279 562//279 560//279
f 561//280 563//280 564//280 562//280
f 563//281 565//281 566//281 564//281
f 565//282 567//282 568//282 566//282
f 567//283 569//283 570//283 568//283
f 569//284 571//284 572//284 570//284
f 571//285 573//285 574//285 572//285
f 573//286 575//286 576//286 574//286
f 575//287 577//287 578//287 576//287
f 577//288 579//288 580//288 578//288
f 579//289 581//289 582//289 580//289
f 581//290 583//290 584//290 582//290
f 583//291 585//291 586//291 584//291
f 585//292 587//292 588//292 586//292
f 587//293 589//293 590//293 588//293
f 589//294 591//294 592//294 590//294
f 591//295 593//295 594//295 592//295
f 593//296 595//296 596//296 594//296
f 595//297 597//297 598//297 596//297
f 597//298 599//298 600//298 598//298
f 599//299 601//299 602//299 600//299
f 601//300 603//300 604//300 602//300
f 603//301 257//301 258//301 604//301
f 257//302 1//302 4//302 258//302
f 604//303 258//303 4//303
f 602//303 604//303 4//303
f 600//303 602//303 4//303
f 598//303 600//303 4//303
f 596//303 598//303 4//303
f 594//303 596//303 4//303
f 592//303 594//303 4//303
f 590//303 592//303 4//303
f 588//303 590//303 4//303
f 586//303 588//303 4//303
f 584//303 586//303 4//303
f 440//303 442//303 444//303
f 438//303 440//303 444//303
f 436//303 438//303 444//303
f 434//303 436//303 444//303
f 432//303 434//303 444//303
f 430//303 432//303 444//303
f 430//303 444//303 446//303
f 428//303 430//303 446//303
f 426//303 428//303 446//303
f 424//303 426//303 446//303
f 422//303 424//303 446//303
f 420//303 422//303 446//303
f 418//303 420//303 446//303
f 416//303 418//303 446//303
f 414//303 416//303 446//303
f 414//304 446//304 448//304
f 412//303 414//303 448//303
f 410//303 412//303 448//303
f 408//303 410//303 448//303
f 406//303 408//303 448//303
f 404//303 406//303 448//303
f 402//303 404//303 448//303
f 400//303 402//303 448//303
f 398//303 400//303 448//303
f 396//303 398//303 448//303
f 396//303 448//303 450//303
f 394//303 396//303 450//303
f 390//303 392//303 394//303
f 388//303 390//303 394//303
f 386//303 388//303 394//303
f 386//303 394//303 450//303
f 384//303 386//303 450//303
f 382//303 384//303 450//303
f 380//303 382//303 450//303
f 378//303 380//303 450//303
f 376//303 378//303 450//303
f 374//303 376//303 450//303
f 372//303 374//303 450//303
f 370//303 372//303 450//303
f 368//303 370//303 450//303
f 366//303 368//303 450//303
f 364//303 366//303 450//303
f 362//303 364//303 450//303
f 360//303 362//303 450//303
f 358//303 360//303 450//303
f 356//303 358//303 450//303
f 354//303 356//303 450//303
f 352//303 354//303 450//303
f 350//303 352//303 450//303
f 348//303 350//303 450//303
f 346//303 348//303 450//303
f 344//303 346//303 450//303
f 342//303 344//303 450//303
f 340//303 342//303 450//303
f 338//303 340//303 450//303
f 336//303 338//303 450//303
f 334//303 336//303 450//303
f 332//303 334//303 450//303
f 330//303 332//303 450//303
f 328//303 330//303 450//303
f 326//303 328//303 450//303
f 322//303 324//303 326//303
f 320//303 322//303 326//303
f 318//303 320//303 326//303
f 316//303 318//303 326//303
f 314//303 316//303 326//303
f 312//303 314//303 326//303
f 310//303 312//303 326//303
f 308//303 310//303 326//303
f 306//303 308//303 326//303
f 306//303 326//303 450//303
f 304//303 306//303 450//303
f 302//303 304//303 450//303
f 300//303 302//303 450//303
f 298//303 300//303 450//303
f 296//303 298//303 450//303
f 294//303 296//303 450//303
f 292//303 294//303 450//303
f 290//303 292//303 450//303
f 288//303 290//303 450//303
f 286//303 288//303 450//303
f 284//303 286//303 450//303
f 282//303 284//303 450//303
f 280//303 282//303 450//303
f 278//303 280//303 450//303
f 276//303 278//303 450//303
f 274//303 276//303 450//303
f 272//303 274//303 450//303
f 270//303 272//303 450//303
f 268//303 270//303 450//303
f 266//303 268//303 450//303
f 264//303 266//303 450//303
f 262//303 264//303 450//303
f 260//303 262//303 450//303
f 258//303 260//303 450//303
f 4//303 258//303 450//303
f 256//303 4//303 450//303
f 254//303 256//303 450//303
f 252//303 254//303 450//303
f 250//303 252//303 450//303
f 248//303 250//303 450//303
f 246//303 248//303 450//303
f 244//303 246//303 450//303
f 242//303 244//303 450//303
f 242//303 450//303 452//303
f 240//303 242//303 452//303
f 240//303 452//303 454//303
f 238//303 240//303 454//303
f 236//303 238//303 454//303
f 236//303 454//303 456//303
f 234//303 236//303 456//303
f 234//303 456//303 458//303
f 232//303 234//303 458//303
f 230//303 232//303 458//303
f 230//303 458//303 460//303
f 228//303 230//303 460//303
f 228//303 460//303 462//303
f 226//303 228//303 462//303
f 224//303 226//303 462//303
f 224//303 462//303 464//303
f 222//303 224//303 464//303
f 222//303 464//303 466//303
f 220//303 222//303 466//303
f 220//303 466//303 468//303
f 218//303 220//303 468//303
f 218//303 468//303 470//303
f 216//303 218//303 470//303
f 216//303 470//303 472//303
f 214//303 216//303 472//303
f 212//303 214//303 472//303
f 212//303 472//303 474//303
f 210//303 212//303 474//303
f 208//303 210//303 474//303
f 208//303 474//303 476//303
f 206//303 208//303 476//303
f 204//303 206//303 476//303
f 204//303 476//303 478//303
f 202//303 204//303 478//303
f 200//303 202//303 478//303
f 200//303 478//303 480//303
f 198//303 200//303 480//303
f 196//303 198//303 480//303
f 196//303 480//303 482//303
f 194//303 196//303 482//303
f 194//303 482//303 484//303
f 192//303 194//303 484//303
f 190//303 192//303 484//303
f 190//303 484//303 486//303
f 188//303 190//303 486//303
f 186//303 188//303 486//303
f 186//303 486//303 488//303
f 184//303 186//303 488//303
f 182//303 184//303 488//303
f 182//303 488//303 490//303
f 180//303 182//303 490//303
f 178//303 180//303 490//303
f 178//303 490//303 492//303
f 176//303 178//303 492//303
f 174//303 176//303 492//303
f 174//303 492//303 494//303
f 172//303 174//303 494//303
f 170//303 172//303 494//303
f 170//303 494//303 496//303
f 168//303 170//303 496//303
f 166//303 168//303 496//303
f 166//303 496//303 498//303
f 164//303 166//303 498//303
f 164//303 498//303 500//303
f 162//303 164//303 500//303
f 160//303 162//303 500//303
f 160//303 500//303 502//303
f 158//303 160//303 502//303
f 156//303 158//303 502//303
f 156//303 502//303 504//303
f 154//303 156//303 504//303
f 152//303 154//303 504//303
f 152//303 504//303 506//303
f 150//303 152//303 506//303
f 148//303 150//303 506//303
f 148//303 506//303 508//303
f 146//303 148//303 508//303
f 144//303 146//303 508//303
f 144//303 508//303 510//303
f 142//303 144//303 510//303
f 142//303 510//303 512//303
f 140//303 142//303 512//303
f 138//303 140//303 512//303
f 138//303 512//303 514//303
f 136//303 138//303 514//303
f 134//303 136//303 514//303
f 134//303 514//303 516//303
f 132//303 134//303 516//303
f 132//303 516//303 518//303
f 130//303 132//303 518//303
f 128//303 130//303 518//303
f 128//303 518//303 520//303
f 126//303 128//303 520//303
f 124//303 126//303 520//303
f 124//303 520//303 522//303
f 122//303 124//303 522//303
f 122//303 522//303 524//303
f 120//303 122//303 524//303
f 118//303 120//303 524//303
f 118//303 524//303 526//303
f 116//303 118//303 526//303
f 114//303 116//303 526//303
f 114//303 526//303 528//303
f 112//303 114//303 528//303
f 112//303 528//303 530//303
f 110//303 112//303 530//303
f 108//303 110//303 530//303
f 108//303 530//303 532//303
f 106//303 108//303 532//303
f 104//303 106//303 532//303
f 104//303 532//303 534//303
f 102//303 104//303 534//303
f 100//303 102//303 534//303
f 100//303 534//303 536//303
f 98//303 100//303 536//303
f 98//303 536//303 538//303
f 96//303 98//303 538//303
f 94//303 96//303 538//303
f 94//303 538//303 540//303
f 92//303 94//303 540//303
f 90//303 92//303 540//303
f 90//303 540//303 542//303
f 88//303 90//303 542//303
f 88//303 542//303 544//303
f 86//303 88//303 544//303
f 86//303 544//303 546//303
f 84//303 86//303 546//303
f 84//303 546//303 548//303
f 82//303 84//303 548//303
f 82//303 548//303 550//303
f 80//303 82//303 550//303
f 80//303 550//303 552//303
f 78//303 80//303 552//303
f 78//303 552//303 554//303
f 76//303 78//303 554//303
f 76//303 554//303 556//303
f 74//303 76//303 556//303
f 74//303 556//303 558//303
f 72//303 74//303 558//303
f 72//303 558//303 560//303
f 70//303 72//303 560//303
f 70//303 560//303 562//303
f 70//303 562//303 564//303
f 68//303 70//303 564//303
f 68//303 564//303 566//303
f 66//303 68//303 566//303
f 66//303 566//303 568//303
f 64//303 66//303 568//303
f 64//303 568//303 570//303
f 62//303 64//303 570//303
f 62//303 570//303 572//303
f 60//303 62//303 572//303
f 60//303 572//303 574//303
f 58//303 60//303 574//303
f 58//303 574//303 576//303
f 56//303 58//303 576//303
f 54//303 56//303 576//303
f 54//303 576//303 578//303
f 52//303 54//303 578//303
f 52//303 578//303 580//303
f 50//303 52//303 580//303
f 48//303 50//303 580//303
f 48//303 580//303 582//303
f 46//303 48//303 582//303
f 46//303 582//303 584//303
f 46//303 584//303 4//303
f 44//303 46//303 4//303
f 42//303 44//303 4//303
f 40//303 42//303 4//303
f 38//303 40//303 4//303
f 36//303 38//303 4//303
f 34//303 36//303 4//303
f 32//303 34//303 4//303
f 30//303 32//303 4//303
f 28//303 30//303 4//303
f 26//303 28//303 4//303
f 24//303 26//303 4//303
f 22//303 24//303 4//303
f 20//303 22//303 4//303
f 18//303 20//303 4//303
f 16//303 18//303 4//303
f 14//303 16//303 4//303
f 12//303 14//303 4//303
f 10//303 12//303 4//303
f 8//303 10//303 4//303
f 6//303 8//303 4//303
f 4//303 3//303 6//303
