# Blender 4.2.2 LTS
# www.blender.org
mtllib Paper.mtl
o Paper
v -0.021345 0.000000 -0.007153
v -0.017585 0.000000 -0.004639
v -0.017585 0.002300 -0.004639
v -0.021345 0.002300 -0.007153
v -0.016677 0.000000 -0.003966
v -0.016677 0.002300 -0.003966
v -0.015800 0.000000 -0.003258
v -0.015800 0.002300 -0.003258
v -0.014961 0.000000 -0.002504
v -0.014961 0.002300 -0.002504
v -0.014169 0.000000 -0.001696
v -0.014169 0.002300 -0.001696
v -0.013577 0.000000 -0.000904
v -0.013577 0.002300 -0.000904
v -0.013063 0.000000 -0.000066
v -0.013063 0.002300 -0.000066
v -0.012608 0.000000 0.000806
v -0.012608 0.002300 0.000806
v -0.012194 0.000000 0.001702
v -0.012194 0.002300 0.001702
v -0.011410 0.000000 0.003518
v -0.011410 0.002300 0.003518
v -0.010563 0.000000 0.005296
v -0.010563 0.002300 0.005296
v -0.007247 0.000000 0.007938
v -0.007247 0.002300 0.007938
v -0.005591 0.000000 0.009264
v -0.005591 0.002300 0.009264
v -0.003985 0.000000 0.010650
v -0.003985 0.002300 0.010650
v -0.002822 0.000000 0.011691
v -0.002822 0.002300 0.011691
v -0.002211 0.000000 0.012173
v -0.002211 0.002300 0.012173
v -0.001541 0.000000 0.012570
v -0.001541 0.002300 0.012570
v -0.001210 0.000000 0.012267
v -0.001210 0.002300 0.012267
v -0.000925 0.000000 0.011917
v -0.000925 0.002300 0.011917
v -0.000694 0.000000 0.011529
v -0.000694 0.002300 0.011529
v -0.000524 0.000000 0.011113
v -0.000524 0.002300 0.011113
v -0.000423 0.000000 0.010678
v -0.000423 0.002300 0.010678
v -0.000399 0.000000 0.010235
v -0.000399 0.002300 0.010235
v -0.000459 0.000000 0.009793
v -0.000459 0.002300 0.009793
v -0.000610 0.000000 0.009362
v -0.000610 0.002300 0.009362
v -0.000927 0.000000 0.008807
v -0.000927 0.002300 0.008807
v -0.001284 0.000000 0.008281
v -0.001284 0.002300 0.008281
v -0.002089 0.000000 0.007297
v -0.002089 0.002300 0.007297
v -0.003876 0.000000 0.005480
v -0.003876 0.002300 0.005480
v -0.004974 0.000000 0.004484
v -0.004974 0.002300 0.004484
v -0.005574 0.000000 0.004052
v -0.005574 0.002300 0.004052
v -0.006222 0.000000 0.003692
v -0.006222 0.002300 0.003692
v -0.006046 0.000000 0.003601
v -0.006046 0.002300 0.003601
v -0.005860 0.000000 0.003566
v -0.005860 0.002300 0.003566
v -0.005480 0.000000 0.003634
v -0.005480 0.002300 0.003634
v -0.003400 0.000000 0.004388
v -0.003400 0.002300 0.004388
v -0.001363 0.000000 0.005252
v -0.001363 0.002300 0.005252
v 0.000612 0.000000 0.006246
v 0.000612 0.002300 0.006246
v 0.002507 0.000000 0.007389
v 0.002507 0.002300 0.007389
v 0.004115 0.000000 0.008408
v 0.004115 0.002300 0.008408
v 0.004955 0.000000 0.008858
v 0.004955 0.002300 0.008858
v 0.005817 0.000000 0.009266
v 0.005817 0.002300 0.009266
v 0.006698 0.000000 0.009627
v 0.006698 0.002300 0.009627
v 0.007597 0.000000 0.009941
v 0.007597 0.002300 0.009941
v 0.008513 0.000000 0.010204
v 0.008513 0.002300 0.010204
v 0.009442 0.000000 0.010414
v 0.009442 0.002300 0.010414
v 0.010109 0.000000 0.010503
v 0.010109 0.002300 0.010503
v 0.010800 0.000000 0.010504
v 0.010800 0.002300 0.010504
v 0.011132 0.000000 0.010447
v 0.011132 0.002300 0.010447
v 0.011445 0.000000 0.010338
v 0.011445 0.002300 0.010338
v 0.011730 0.000000 0.010167
v 0.011730 0.002300 0.010167
v 0.011978 0.000000 0.009925
v 0.011978 0.002300 0.009925
v 0.012161 0.000000 0.009404
v 0.012161 0.002300 0.009404
v 0.012182 0.000000 0.008837
v 0.012182 0.002300 0.008837
v 0.012117 0.000000 0.008569
v 0.012117 0.002300 0.008569
v 0.011997 0.000000 0.008328
v 0.011997 0.002300 0.008328
v 0.011814 0.000000 0.008128
v 0.011814 0.002300 0.008128
v 0.011564 0.000000 0.007981
v 0.011564 0.002300 0.007981
v 0.001886 0.000000 0.002243
v 0.001886 0.002300 0.002243
v 0.002010 0.000000 0.002093
v 0.002010 0.002300 0.002093
v 0.002153 0.000000 0.002023
v 0.002153 0.002300 0.002023
v 0.002308 0.000000 0.002034
v 0.002308 0.002300 0.002034
v 0.002473 0.000000 0.002128
v 0.002473 0.002300 0.002128
v 0.007292 0.000000 0.004808
v 0.007292 0.002300 0.004808
v 0.009718 0.000000 0.006117
v 0.009718 0.002300 0.006117
v 0.012174 0.000000 0.007372
v 0.012174 0.002300 0.007372
v 0.012719 0.000000 0.007602
v 0.012719 0.002300 0.007602
v 0.013297 0.000000 0.007706
v 0.013297 0.002300 0.007706
v 0.013889 0.000000 0.007717
v 0.013889 0.002300 0.007717
v 0.014479 0.000000 0.007671
v 0.014479 0.002300 0.007671
v 0.014886 0.000000 0.007607
v 0.014886 0.002300 0.007607
v 0.015270 0.000000 0.007460
v 0.015270 0.002300 0.007460
v 0.015620 0.000000 0.007240
v 0.015620 0.002300 0.007240
v 0.015927 0.000000 0.006959
v 0.015927 0.002300 0.006959
v 0.016183 0.000000 0.006630
v 0.016183 0.002300 0.006630
v 0.016377 0.000000 0.006263
v 0.016377 0.002300 0.006263
v 0.016501 0.000000 0.005870
v 0.016501 0.002300 0.005870
v 0.016544 0.000000 0.005463
v 0.016544 0.002300 0.005463
v 0.003703 0.000000 -0.001346
v 0.003703 0.002300 -0.001346
v 0.003819 0.000000 -0.001889
v 0.003819 0.002300 -0.001889
v 0.003925 0.000000 -0.002139
v 0.003925 0.002300 -0.002139
v 0.004112 0.000000 -0.002346
v 0.004112 0.002300 -0.002346
v 0.004239 0.000000 -0.001801
v 0.004239 0.002300 -0.001801
v 0.004363 0.000000 -0.001564
v 0.004363 0.002300 -0.001564
v 0.004600 0.000000 -0.001415
v 0.004600 0.002300 -0.001415
v 0.015198 0.000000 0.003922
v 0.015198 0.002300 0.003922
v 0.015365 0.000000 0.003999
v 0.015365 0.002300 0.003999
v 0.015520 0.000000 0.004006
v 0.015520 0.002300 0.004006
v 0.015793 0.000000 0.003866
v 0.015793 0.002300 0.003866
v 0.016205 0.000000 0.003335
v 0.016205 0.002300 0.003335
v 0.016355 0.000000 0.002961
v 0.016355 0.002300 0.002961
v 0.016427 0.000000 0.002547
v 0.016427 0.002300 0.002547
v 0.016356 0.000000 0.002160
v 0.016356 0.002300 0.002160
v 0.016247 0.000000 0.001998
v 0.016247 0.002300 0.001998
v 0.016078 0.000000 0.001869
v 0.016078 0.002300 0.001869
v 0.010563 0.000000 -0.001438
v 0.010563 0.002300 -0.001438
v 0.005072 0.000000 -0.004790
v 0.005072 0.002300 -0.004790
v 0.005152 0.000000 -0.005523
v 0.005152 0.002300 -0.005523
v 0.005222 0.000000 -0.005883
v 0.005222 0.002300 -0.005883
v 0.005336 0.000000 -0.006233
v 0.005336 0.002300 -0.006233
v 0.005630 0.000000 -0.004945
v 0.005630 0.002300 -0.004945
v 0.015187 0.000000 0.000299
v 0.015187 0.002300 0.000299
v 0.015442 0.000000 -0.000024
v 0.015442 0.002300 -0.000024
v 0.015626 0.000000 -0.000385
v 0.015626 0.002300 -0.000385
v 0.015741 0.000000 -0.000775
v 0.015741 0.002300 -0.000775
v 0.015790 0.000000 -0.001185
v 0.015790 0.002300 -0.001185
v 0.009996 0.000000 -0.005147
v 0.009996 0.002300 -0.005147
v 0.007069 0.000000 -0.007084
v 0.007069 0.002300 -0.007084
v 0.004071 0.000000 -0.008907
v 0.004071 0.002300 -0.008907
v 0.000993 0.000000 -0.010074
v 0.000993 0.002300 -0.010074
v -0.002126 0.000000 -0.011128
v -0.002126 0.002300 -0.011128
v -0.008384 0.000000 -0.013180
v -0.008384 0.002300 -0.013180
v -0.009933 0.000000 -0.014047
v -0.009933 0.002300 -0.014047
v -0.011394 0.000000 -0.015058
v -0.011394 0.002300 -0.015058
v -0.012766 0.000000 -0.016192
v -0.012766 0.002300 -0.016192
v -0.014042 0.000000 -0.017424
v -0.014042 0.002300 -0.017424
v -0.012466 0.000000 -0.018590
v -0.012466 0.002300 -0.018590
v -0.010797 0.000000 -0.019617
v -0.010797 0.002300 -0.019617
v -0.009048 0.000000 -0.020499
v -0.009048 0.002300 -0.020499
v -0.007230 0.000000 -0.021234
v -0.007230 0.002300 -0.021234
v -0.005359 0.000000 -0.021816
v -0.005359 0.002300 -0.021816
v -0.003446 0.000000 -0.022241
v -0.003446 0.002300 -0.022241
v -0.001504 0.000000 -0.022505
v -0.001504 0.002300 -0.022505
v 0.000454 0.000000 -0.022605
v 0.000454 0.002300 -0.022605
v 0.001518 0.000000 -0.022586
v 0.001518 0.002300 -0.022586
v 0.002579 0.000000 -0.022517
v 0.002579 0.002300 -0.022517
v 0.003635 0.000000 -0.022398
v 0.003635 0.002300 -0.022398
v 0.004685 0.000000 -0.022232
v 0.004685 0.002300 -0.022232
v 0.005726 0.000000 -0.022018
v 0.005726 0.002300 -0.022018
v 0.006757 0.000000 -0.021757
v 0.006757 0.002300 -0.021757
v 0.007774 0.000000 -0.021450
v 0.007774 0.002300 -0.021450
v 0.008777 0.000000 -0.021097
v 0.008777 0.002300 -0.021097
v 0.009763 0.000000 -0.020700
v 0.009763 0.002300 -0.020700
v 0.010731 0.000000 -0.020259
v 0.010731 0.002300 -0.020259
v 0.011677 0.000000 -0.019775
v 0.011677 0.002300 -0.019775
v 0.012600 0.000000 -0.019249
v 0.012600 0.002300 -0.019249
v 0.013498 0.000000 -0.018681
v 0.013498 0.002300 -0.018681
v 0.014369 0.000000 -0.018072
v 0.014369 0.002300 -0.018072
v 0.015210 0.000000 -0.017422
v 0.015210 0.002300 -0.017422
v 0.016020 0.000000 -0.016734
v 0.016020 0.002300 -0.016734
v 0.017406 0.000000 -0.015414
v 0.017406 0.002300 -0.015414
v 0.018673 0.000000 -0.013981
v 0.018673 0.002300 -0.013981
v 0.019817 0.000000 -0.012448
v 0.019817 0.002300 -0.012448
v 0.020831 0.000000 -0.010825
v 0.020831 0.002300 -0.010825
v 0.021709 0.000000 -0.009125
v 0.021709 0.002300 -0.009125
v 0.022445 0.000000 -0.007358
v 0.022445 0.002300 -0.007358
v 0.023033 0.000000 -0.005538
v 0.023033 0.002300 -0.005538
v 0.023467 0.000000 -0.003674
v 0.023467 0.002300 -0.003674
v 0.023739 0.000000 -0.001973
v 0.023739 0.002300 -0.001973
v 0.023878 0.000000 -0.000257
v 0.023878 0.002300 -0.000257
v 0.023886 0.000000 0.001464
v 0.023886 0.002300 0.001464
v 0.023765 0.000000 0.003181
v 0.023765 0.002300 0.003181
v 0.023516 0.000000 0.004885
v 0.023516 0.002300 0.004885
v 0.023142 0.000000 0.006566
v 0.023142 0.002300 0.006566
v 0.022644 0.000000 0.008215
v 0.022644 0.002300 0.008215
v 0.022024 0.000000 0.009822
v 0.022024 0.002300 0.009822
v 0.021598 0.000000 0.010770
v 0.021598 0.002300 0.010770
v 0.021130 0.000000 0.011698
v 0.021130 0.002300 0.011698
v 0.020619 0.000000 0.012603
v 0.020619 0.002300 0.012603
v 0.020068 0.000000 0.013484
v 0.020068 0.002300 0.013484
v 0.019478 0.000000 0.014340
v 0.019478 0.002300 0.014340
v 0.018851 0.000000 0.015168
v 0.018851 0.002300 0.015168
v 0.017488 0.000000 0.016738
v 0.017488 0.002300 0.016738
v 0.015993 0.000000 0.018182
v 0.015993 0.002300 0.018182
v 0.015199 0.000000 0.018853
v 0.015199 0.002300 0.018853
v 0.014376 0.000000 0.019488
v 0.014376 0.002300 0.019488
v 0.013525 0.000000 0.020086
v 0.013525 0.002300 0.020086
v 0.012648 0.000000 0.020645
v 0.012648 0.002300 0.020645
v 0.011747 0.000000 0.021163
v 0.011747 0.002300 0.021163
v 0.010822 0.000000 0.021639
v 0.010822 0.002300 0.021639
v 0.009068 0.000000 0.022408
v 0.009068 0.002300 0.022408
v 0.007257 0.000000 0.023032
v 0.007257 0.002300 0.023032
v 0.005400 0.000000 0.023507
v 0.005400 0.002300 0.023507
v 0.003511 0.000000 0.023830
v 0.003511 0.002300 0.023830
v 0.001603 0.000000 0.023997
v 0.001603 0.002300 0.023997
v -0.000312 0.000000 0.024005
v -0.000312 0.002300 0.024005
v -0.002221 0.000000 0.023851
v -0.002221 0.002300 0.023851
v -0.004112 0.000000 0.023530
v -0.004112 0.002300 0.023530
v -0.005945 0.000000 0.023074
v -0.005945 0.002300 0.023074
v -0.007736 0.000000 0.022469
v -0.007736 0.002300 0.022469
v -0.009472 0.000000 0.021721
v -0.009472 0.002300 0.021721
v -0.011142 0.000000 0.020837
v -0.011142 0.002300 0.020837
v -0.012736 0.000000 0.019821
v -0.012736 0.002300 0.019821
v -0.014242 0.000000 0.018680
v -0.014242 0.002300 0.018680
v -0.015649 0.000000 0.017419
v -0.015649 0.002300 0.017419
v -0.016946 0.000000 0.016043
v -0.016946 0.002300 0.016043
v -0.018070 0.000000 0.014664
v -0.018070 0.002300 0.014664
v -0.019080 0.000000 0.013200
v -0.019080 0.002300 0.013200
v -0.019974 0.000000 0.011661
v -0.019974 0.002300 0.011661
v -0.020748 0.000000 0.010059
v -0.020748 0.002300 0.010059
v -0.021399 0.000000 0.008403
v -0.021399 0.002300 0.008403
v -0.021924 0.000000 0.006702
v -0.021924 0.002300 0.006702
v -0.022322 0.000000 0.004967
v -0.022322 0.002300 0.004967
v -0.022587 0.000000 0.003209
v -0.022587 0.002300 0.003209
v -0.022693 0.000000 0.001897
v -0.022693 0.002300 0.001897
v -0.022722 0.000000 0.000582
v -0.022722 0.002300 0.000582
v -0.022675 0.000000 -0.000732
v -0.022675 0.002300 -0.000732
v -0.022553 0.000000 -0.002041
v -0.022553 0.002300 -0.002041
v -0.022358 0.000000 -0.003342
v -0.022358 0.002300 -0.003342
v -0.022091 0.000000 -0.004631
v -0.022091 0.002300 -0.004631
v -0.021753 0.000000 -0.005902
v -0.021753 0.002300 -0.005902
v -0.021811 0.000000 -0.010052
v -0.021811 0.002300 -0.010052
v -0.022276 0.000000 -0.009046
v -0.022276 0.002300 -0.009046
v -0.022696 0.000000 -0.008021
v -0.022696 0.002300 -0.008021
v -0.023068 0.000000 -0.006977
v -0.023068 0.002300 -0.006977
v -0.023392 0.000000 -0.005918
v -0.023392 0.002300 -0.005918
v -0.023664 0.000000 -0.004846
v -0.023664 0.002300 -0.004846
v -0.023883 0.000000 -0.003762
v -0.023883 0.002300 -0.003762
v -0.024046 0.000000 -0.002669
v -0.024046 0.002300 -0.002669
v -0.024152 0.000000 -0.001570
v -0.024152 0.002300 -0.001570
v -0.024231 0.000000 0.000630
v -0.024231 0.002300 0.000630
v -0.024152 0.000000 0.002829
v -0.024152 0.002300 0.002829
v -0.024034 0.000000 0.003983
v -0.024034 0.002300 0.003983
v -0.023857 0.000000 0.005128
v -0.023857 0.002300 0.005128
v -0.023623 0.000000 0.006262
v -0.023623 0.002300 0.006262
v -0.023333 0.000000 0.007384
v -0.023333 0.002300 0.007384
v -0.022988 0.000000 0.008491
v -0.022988 0.002300 0.008491
v -0.022590 0.000000 0.009580
v -0.022590 0.002300 0.009580
v -0.022140 0.000000 0.010650
v -0.022140 0.002300 0.010650
v -0.021640 0.000000 0.011698
v -0.021640 0.002300 0.011698
v -0.021092 0.000000 0.012722
v -0.021092 0.002300 0.012722
v -0.020496 0.000000 0.013719
v -0.020496 0.002300 0.013719
v -0.019853 0.000000 0.014688
v -0.019853 0.002300 0.014688
v -0.019167 0.000000 0.015626
v -0.019167 0.002300 0.015626
v -0.018437 0.000000 0.016530
v -0.018437 0.002300 0.016530
v -0.017665 0.000000 0.017399
v -0.017665 0.002300 0.017399
v -0.016854 0.000000 0.018231
v -0.016854 0.002300 0.018231
v -0.016003 0.000000 0.019022
v -0.016003 0.002300 0.019022
v -0.014420 0.000000 0.020335
v -0.014420 0.002300 0.020335
v -0.012731 0.000000 0.021505
v -0.012731 0.002300 0.021505
v -0.010950 0.000000 0.022527
v -0.010950 0.002300 0.022527
v -0.009090 0.000000 0.023400
v -0.009090 0.002300 0.023400
v -0.007165 0.000000 0.024117
v -0.007165 0.002300 0.024117
v -0.005187 0.000000 0.024676
v -0.005187 0.002300 0.024676
v -0.003170 0.000000 0.025072
v -0.003170 0.002300 0.025072
v -0.001127 0.000000 0.025302
v -0.001127 0.002300 0.025302
v 0.002116 0.000000 0.025302
v 0.002116 0.002300 0.025302
v 0.003688 0.000000 0.025135
v 0.003688 0.002300 0.025135
v 0.005246 0.000000 0.024873
v 0.005246 0.002300 0.024873
v 0.006784 0.000000 0.024517
v 0.006784 0.002300 0.024517
v 0.008297 0.000000 0.024066
v 0.008297 0.002300 0.024066
v 0.009778 0.000000 0.023521
v 0.009778 0.002300 0.023521
v 0.011221 0.000000 0.022884
v 0.011221 0.002300 0.022884
v 0.012622 0.000000 0.022154
v 0.012622 0.002300 0.022154
v 0.013973 0.000000 0.021334
v 0.013973 0.002300 0.021334
v 0.014892 0.000000 0.020708
v 0.014892 0.002300 0.020708
v 0.015780 0.000000 0.020041
v 0.015780 0.002300 0.020041
v 0.016637 0.000000 0.019335
v 0.016637 0.002300 0.019335
v 0.017461 0.000000 0.018590
v 0.017461 0.002300 0.018590
v 0.018250 0.000000 0.017809
v 0.018250 0.002300 0.017809
v 0.019005 0.000000 0.016994
v 0.019005 0.002300 0.016994
v 0.019722 0.000000 0.016146
v 0.019722 0.002300 0.016146
v 0.020401 0.000000 0.015267
v 0.020401 0.002300 0.015267
v 0.021040 0.000000 0.014359
v 0.021040 0.002300 0.014359
v 0.021639 0.000000 0.013423
v 0.021639 0.002300 0.013423
v 0.022195 0.000000 0.012462
v 0.022195 0.002300 0.012462
v 0.022707 0.000000 0.011477
v 0.022707 0.002300 0.011477
v 0.023174 0.000000 0.010469
v 0.023174 0.002300 0.010469
v 0.023594 0.000000 0.009442
v 0.023594 0.002300 0.009442
v 0.023966 0.000000 0.008395
v 0.023966 0.002300 0.008395
v 0.024290 0.000000 0.007332
v 0.024290 0.002300 0.007332
v 0.024705 0.000000 0.005637
v 0.024705 0.002300 0.005637
v 0.024997 0.000000 0.003917
v 0.024997 0.002300 0.003917
v 0.025168 0.000000 0.002182
v 0.025168 0.002300 0.002182
v 0.025217 0.000000 0.000440
v 0.025217 0.002300 0.000440
v 0.025145 0.000000 -0.001302
v 0.025145 0.002300 -0.001302
v 0.024950 0.000000 -0.003035
v 0.024950 0.002300 -0.003035
v 0.024635 0.000000 -0.004751
v 0.024635 0.002300 -0.004751
v 0.024198 0.000000 -0.006440
v 0.024198 0.002300 -0.006440
v 0.023825 0.000000 -0.007592
v 0.023825 0.002300 -0.007592
v 0.023396 0.000000 -0.008722
v 0.023396 0.002300 -0.008722
v 0.022911 0.000000 -0.009830
v 0.022911 0.002300 -0.009830
v 0.022371 0.000000 -0.010912
v 0.022371 0.002300 -0.010912
v 0.021780 0.000000 -0.011967
v 0.021780 0.002300 -0.011967
v 0.021138 0.000000 -0.012991
v 0.021138 0.002300 -0.012991
v 0.020448 0.000000 -0.013984
v 0.020448 0.002300 -0.013984
v 0.019711 0.000000 -0.014942
v 0.019711 0.002300 -0.014942
v 0.018928 0.000000 -0.015864
v 0.018928 0.002300 -0.015864
v 0.018102 0.000000 -0.016747
v 0.018102 0.002300 -0.016747
v 0.017234 0.000000 -0.017588
v 0.017234 0.002300 -0.017588
v 0.016326 0.000000 -0.018386
v 0.016326 0.002300 -0.018386
v 0.015380 0.000000 -0.019138
v 0.015380 0.002300 -0.019138
v 0.014397 0.000000 -0.019843
v 0.014397 0.002300 -0.019843
v 0.013379 0.000000 -0.020497
v 0.013379 0.002300 -0.020497
v 0.012329 0.000000 -0.021098
v 0.012329 0.002300 -0.021098
v 0.010962 0.000000 -0.021803
v 0.010962 0.002300 -0.021803
v 0.009553 0.000000 -0.022410
v 0.009553 0.002300 -0.022410
v 0.008107 0.000000 -0.022921
v 0.008107 0.002300 -0.022921
v 0.006631 0.000000 -0.023339
v 0.006631 0.002300 -0.023339
v 0.005131 0.000000 -0.023668
v 0.005131 0.002300 -0.023668
v 0.003614 0.000000 -0.023911
v 0.003614 0.002300 -0.023911
v 0.002085 0.000000 -0.024071
v 0.002085 0.002300 -0.024071
v 0.000552 0.000000 -0.024152
v 0.000552 0.002300 -0.024152
v 0.000449 0.000000 -0.024152
v 0.000449 0.002300 -0.024152
v -0.000795 0.000000 -0.024093
v -0.000795 0.002300 -0.024093
v -0.002035 0.000000 -0.023983
v -0.002035 0.002300 -0.023983
v -0.003269 0.000000 -0.023821
v -0.003269 0.002300 -0.023821
v -0.004494 0.000000 -0.023603
v -0.004494 0.002300 -0.023603
v -0.005706 0.000000 -0.023327
v -0.005706 0.002300 -0.023327
v -0.006903 0.000000 -0.022990
v -0.006903 0.002300 -0.022990
v -0.008080 0.000000 -0.022589
v -0.008080 0.002300 -0.022589
v -0.009235 0.000000 -0.022122
v -0.009235 0.002300 -0.022122
v -0.010250 0.000000 -0.021663
v -0.010250 0.002300 -0.021663
v -0.011242 0.000000 -0.021157
v -0.011242 0.002300 -0.021157
v -0.012209 0.000000 -0.020606
v -0.012209 0.002300 -0.020606
v -0.013151 0.000000 -0.020012
v -0.013151 0.002300 -0.020012
v -0.014064 0.000000 -0.019376
v -0.014064 0.002300 -0.019376
v -0.014948 0.000000 -0.018699
v -0.014948 0.002300 -0.018699
v -0.015800 0.000000 -0.017983
v -0.015800 0.002300 -0.017983
v -0.016620 0.000000 -0.017230
v -0.016620 0.002300 -0.017230
v -0.017406 0.000000 -0.016442
v -0.017406 0.002300 -0.016442
v -0.018156 0.000000 -0.015619
v -0.018156 0.002300 -0.015619
v -0.018868 0.000000 -0.014764
v -0.018868 0.002300 -0.014764
v -0.019541 0.000000 -0.013877
v -0.019541 0.002300 -0.013877
v -0.020174 0.000000 -0.012961
v -0.020174 0.002300 -0.012961
v -0.020764 0.000000 -0.012017
v -0.020764 0.002300 -0.012017
v -0.021310 0.000000 -0.011047
v -0.021310 0.002300 -0.011047
vn -0.5559 -0.0000 0.8312
vn -0.5951 -0.0000 0.8036
vn -0.6280 -0.0000 0.7782
vn -0.6682 -0.0000 0.7440
vn -0.7143 -0.0000 0.6998
vn -0.8013 -0.0000 0.5982
vn -0.8524 -0.0000 0.5229
vn -0.8866 -0.0000 0.4625
vn -0.9074 -0.0000 0.4203
vn -0.9183 -0.0000 0.3960
vn -0.9028 -0.0000 0.4300
vn -0.6232 -0.0000 0.7821
vn -0.6248 -0.0000 0.7808
vn -0.6533 -0.0000 0.7571
vn -0.6670 -0.0000 0.7451
vn -0.6194 -0.0000 0.7851
vn -0.5103 -0.0000 0.8600
vn 0.6749 -0.0000 0.7379
vn 0.7759 -0.0000 0.6309
vn 0.8593 -0.0000 0.5115
vn 0.9260 -0.0000 0.3776
vn 0.9741 -0.0000 0.2260
vn 0.9985 -0.0000 0.0549
vn 0.9910 -0.0000 -0.1335
vn 0.9438 -0.0000 -0.3305
vn 0.8676 -0.0000 -0.4972
vn 0.8274 -0.0000 -0.5616
vn 0.7739 -0.0000 -0.6333
vn 0.7131 -0.0000 -0.7010
vn 0.6718 -0.0000 -0.7407
vn 0.5845 -0.0000 -0.8114
vn 0.4858 -0.0000 -0.8741
vn 0.4598 -0.0000 0.8880
vn 0.1861 -0.0000 0.9825
vn -0.1782 -0.0000 0.9840
vn -0.3405 -0.0000 0.9403
vn -0.3907 -0.0000 0.9205
vn -0.4497 -0.0000 0.8932
vn -0.5164 -0.0000 0.8564
vn -0.5352 -0.0000 0.8448
vn -0.4724 -0.0000 0.8814
vn -0.4275 -0.0000 0.9040
vn -0.3799 -0.0000 0.9250
vn -0.3295 -0.0000 0.9442
vn -0.2762 -0.0000 0.9611
vn -0.2200 -0.0000 0.9755
vn -0.1326 -0.0000 0.9912
vn -0.0015 -0.0000 1.0000
vn 0.1697 -0.0000 0.9855
vn 0.3290 -0.0000 0.9443
vn 0.5141 -0.0000 0.8578
vn 0.6986 -0.0000 0.7155
vn 0.9435 -0.0000 0.3313
vn 0.9993 -0.0000 0.0361
vn 0.9726 -0.0000 -0.2325
vn 0.8938 -0.0000 -0.4485
vn 0.7384 -0.0000 -0.6744
vn 0.5058 -0.0000 -0.8626
vn 0.5101 -0.0000 -0.8601
vn 0.7685 -0.0000 0.6399
vn 0.4435 -0.0000 0.8963
vn -0.0687 -0.0000 0.9976
vn -0.4961 -0.0000 0.8683
vn -0.4860 -0.0000 0.8740
vn -0.4750 -0.0000 0.8800
vn -0.4550 -0.0000 0.8905
vn -0.3889 -0.0000 0.9213
vn -0.1766 -0.0000 0.9843
vn -0.0192 -0.0000 0.9998
vn 0.0785 -0.0000 0.9969
vn 0.1550 -0.0000 0.9879
vn 0.3594 -0.0000 0.9332
vn 0.5317 -0.0000 0.8470
vn 0.6737 -0.0000 0.7390
vn 0.7901 -0.0000 0.6130
vn 0.8839 -0.0000 0.4678
vn 0.9540 -0.0000 0.2997
vn 0.9944 -0.0000 0.1056
vn 0.4685 -0.0000 -0.8835
vn 0.9782 -0.0000 0.2075
vn 0.9201 -0.0000 0.3918
vn 0.7428 -0.0000 0.6695
vn -0.9735 -0.0000 0.2285
vn -0.8875 -0.0000 0.4608
vn -0.5321 -0.0000 0.8467
vn -0.4194 -0.0000 0.9078
vn -0.0483 -0.0000 0.9988
vn 0.4581 -0.0000 0.8889
vn 0.7900 -0.0000 0.6131
vn 0.9281 -0.0000 0.3723
vn 0.9852 -0.0000 0.1717
vn 0.9838 -0.0000 -0.1795
vn 0.8291 -0.0000 -0.5590
vn 0.6077 -0.0000 -0.7941
vn 0.5143 -0.0000 -0.8576
vn 0.5210 -0.0000 -0.8535
vn 0.9940 -0.0000 0.1092
vn 0.9819 -0.0000 0.1896
vn 0.9505 -0.0000 0.3107
vn -0.9750 -0.0000 0.2220
vn -0.4811 -0.0000 0.8767
vn 0.7851 -0.0000 0.6194
vn 0.8908 -0.0000 0.4543
vn 0.9588 -0.0000 0.2840
vn 0.9928 -0.0000 0.1196
vn 0.5644 -0.0000 -0.8255
vn 0.5519 -0.0000 -0.8339
vn 0.5197 -0.0000 -0.8544
vn 0.3545 -0.0000 -0.9350
vn 0.3200 -0.0000 -0.9474
vn 0.3115 -0.0000 -0.9502
vn 0.4885 -0.0000 -0.8726
vn 0.5691 -0.0000 -0.8223
vn 0.6371 -0.0000 -0.7708
vn 0.6943 -0.0000 -0.7197
vn 0.5950 -0.0000 0.8037
vn 0.5239 -0.0000 0.8518
vn 0.4504 -0.0000 0.8928
vn 0.3747 -0.0000 0.9272
vn 0.2969 -0.0000 0.9549
vn 0.2170 -0.0000 0.9762
vn 0.1349 -0.0000 0.9909
vn 0.0507 -0.0000 0.9987
vn -0.0180 -0.0000 0.9998
vn -0.0649 -0.0000 0.9979
vn -0.1111 -0.0000 0.9938
vn -0.1566 -0.0000 0.9877
vn -0.2014 -0.0000 0.9795
vn -0.2455 -0.0000 0.9694
vn -0.2888 -0.0000 0.9574
vn -0.3315 -0.0000 0.9434
vn -0.3735 -0.0000 0.9276
vn -0.4149 -0.0000 0.9099
vn -0.4555 -0.0000 0.8902
vn -0.4955 -0.0000 0.8686
vn -0.5347 -0.0000 0.8450
vn -0.5732 -0.0000 0.8194
vn -0.6108 -0.0000 0.7918
vn -0.6476 -0.0000 0.7620
vn -0.6897 -0.0000 0.7241
vn -0.7489 -0.0000 0.6627
vn -0.8016 -0.0000 0.5978
vn -0.8481 -0.0000 0.5298
vn -0.8886 -0.0000 0.4587
vn -0.9231 -0.0000 0.3846
vn -0.9516 -0.0000 0.3074
vn -0.9739 -0.0000 0.2270
vn -0.9875 -0.0000 0.1579
vn -0.9967 -0.0000 0.0808
vn -1.0000 -0.0000 0.0047
vn -0.9975 -0.0000 -0.0704
vn -0.9895 -0.0000 -0.1444
vn -0.9761 -0.0000 -0.2173
vn -0.9573 -0.0000 -0.2892
vn -0.9329 -0.0000 -0.3601
vn -0.9125 -0.0000 -0.4091
vn -0.8926 -0.0000 -0.4509
vn -0.8710 -0.0000 -0.4913
vn -0.8479 -0.0000 -0.5302
vn -0.8232 -0.0000 -0.5677
vn -0.7971 -0.0000 -0.6038
vn -0.7553 -0.0000 -0.6554
vn -0.6946 -0.0000 -0.7194
vn -0.6454 -0.0000 -0.7638
vn -0.6108 -0.0000 -0.7917
vn -0.5748 -0.0000 -0.8183
vn -0.5373 -0.0000 -0.8434
vn -0.4983 -0.0000 -0.8670
vn -0.4577 -0.0000 -0.8891
vn -0.4017 -0.0000 -0.9158
vn -0.3257 -0.0000 -0.9455
vn -0.2479 -0.0000 -0.9688
vn -0.1685 -0.0000 -0.9857
vn -0.0873 -0.0000 -0.9962
vn -0.0042 -0.0000 -1.0000
vn 0.0806 -0.0000 -0.9967
vn 0.1671 -0.0000 -0.9859
vn 0.2416 -0.0000 -0.9704
vn 0.3201 -0.0000 -0.9474
vn 0.3956 -0.0000 -0.9184
vn 0.4680 -0.0000 -0.8837
vn 0.5375 -0.0000 -0.8433
vn 0.6040 -0.0000 -0.7970
vn 0.6674 -0.0000 -0.7447
vn 0.7274 -0.0000 -0.6862
vn 0.7753 -0.0000 -0.6316
vn 0.8231 -0.0000 -0.5679
vn 0.8647 -0.0000 -0.5022
vn 0.9005 -0.0000 -0.4348
vn 0.9307 -0.0000 -0.3658
vn 0.9554 -0.0000 -0.2953
vn 0.9748 -0.0000 -0.2232
vn 0.9888 -0.0000 -0.1495
vn 0.9968 -0.0000 -0.0805
vn 0.9998 -0.0000 -0.0218
vn 0.9994 -0.0000 0.0359
vn 0.9957 -0.0000 0.0926
vn 0.9889 -0.0000 0.1484
vn 0.9792 -0.0000 0.2031
vn 0.9665 -0.0000 0.2568
vn 0.9509 -0.0000 0.3096
vn 0.9873 -0.0000 -0.1587
vn -0.9077 -0.0000 -0.4196
vn -0.9255 -0.0000 -0.3788
vn -0.9417 -0.0000 -0.3364
vn -0.9564 -0.0000 -0.2921
vn -0.9693 -0.0000 -0.2460
vn -0.9802 -0.0000 -0.1979
vn -0.9890 -0.0000 -0.1478
vn -0.9954 -0.0000 -0.0956
vn -0.9993 -0.0000 -0.0361
vn -0.9993 -0.0000 0.0362
vn -0.9948 -0.0000 0.1016
vn -0.9883 -0.0000 0.1525
vn -0.9794 -0.0000 0.2021
vn -0.9681 -0.0000 0.2504
vn -0.9547 -0.0000 0.2974
vn -0.9393 -0.0000 0.3431
vn -0.9219 -0.0000 0.3875
vn -0.9026 -0.0000 0.4306
vn -0.8814 -0.0000 0.4724
vn -0.8584 -0.0000 0.5130
vn -0.8335 -0.0000 0.5525
vn -0.8068 -0.0000 0.5908
vn -0.7783 -0.0000 0.6279
vn -0.7479 -0.0000 0.6638
vn -0.7155 -0.0000 0.6986
vn -0.6812 -0.0000 0.7321
vn -0.6381 -0.0000 0.7699
vn -0.5694 -0.0000 0.8221
vn -0.4981 -0.0000 0.8671
vn -0.4246 -0.0000 0.9054
vn -0.3492 -0.0000 0.9370
vn -0.2719 -0.0000 0.9623
vn -0.1927 -0.0000 0.9813
vn -0.1116 -0.0000 0.9937
vn -0.0000 -0.0000 1.0000
vn 0.1052 -0.0000 0.9945
vn 0.1658 -0.0000 0.9862
vn 0.2260 -0.0000 0.9741
vn 0.2858 -0.0000 0.9583
vn 0.3451 -0.0000 0.9386
vn 0.4038 -0.0000 0.9148
vn 0.4619 -0.0000 0.8869
vn 0.5190 -0.0000 0.8548
vn 0.5630 -0.0000 0.8265
vn 0.6005 -0.0000 0.7996
vn 0.6363 -0.0000 0.7714
vn 0.6705 -0.0000 0.7419
vn 0.7031 -0.0000 0.7111
vn 0.7340 -0.0000 0.6791
vn 0.7635 -0.0000 0.6458
vn 0.7913 -0.0000 0.6114
vn 0.8177 -0.0000 0.5757
vn 0.8425 -0.0000 0.5388
vn 0.8657 -0.0000 0.5006
vn 0.8873 -0.0000 0.4612
vn 0.9073 -0.0000 0.4205
vn 0.9256 -0.0000 0.3785
vn 0.9421 -0.0000 0.3353
vn 0.9568 -0.0000 0.2907
vn 0.9713 -0.0000 0.2378
vn 0.9858 -0.0000 0.1679
vn 0.9952 -0.0000 0.0980
vn 0.9996 -0.0000 0.0281
vn 0.9991 -0.0000 -0.0417
vn 0.9938 -0.0000 -0.1114
vn 0.9835 -0.0000 -0.1810
vn 0.9681 -0.0000 -0.2504
vn 0.9515 -0.0000 -0.3076
vn 0.9348 -0.0000 -0.3552
vn 0.9160 -0.0000 -0.4013
vn 0.8951 -0.0000 -0.4459
vn 0.8722 -0.0000 -0.4891
vn 0.8475 -0.0000 -0.5308
vn 0.8209 -0.0000 -0.5710
vn 0.7925 -0.0000 -0.6099
vn 0.7622 -0.0000 -0.6473
vn 0.7301 -0.0000 -0.6834
vn 0.6961 -0.0000 -0.7180
vn 0.6602 -0.0000 -0.7511
vn 0.6223 -0.0000 -0.7828
vn 0.5825 -0.0000 -0.8128
vn 0.5407 -0.0000 -0.8412
vn 0.4969 -0.0000 -0.8678
vn 0.4586 -0.0000 -0.8887
vn 0.3953 -0.0000 -0.9186
vn 0.3331 -0.0000 -0.9429
vn 0.2727 -0.0000 -0.9621
vn 0.2144 -0.0000 -0.9768
vn 0.1582 -0.0000 -0.9874
vn 0.1042 -0.0000 -0.9946
vn 0.0523 -0.0000 -0.9986
vn -0.0000 -0.0000 -1.0000
vn -0.0473 -0.0000 -0.9989
vn -0.0877 -0.0000 -0.9961
vn -0.1304 -0.0000 -0.9915
vn -0.1752 -0.0000 -0.9845
vn -0.2222 -0.0000 -0.9750
vn -0.2713 -0.0000 -0.9625
vn -0.3223 -0.0000 -0.9466
vn -0.3749 -0.0000 -0.9271
vn -0.4120 -0.0000 -0.9112
vn -0.4542 -0.0000 -0.8909
vn -0.4948 -0.0000 -0.8690
vn -0.5340 -0.0000 -0.8455
vn -0.5717 -0.0000 -0.8205
vn -0.6080 -0.0000 -0.7940
vn -0.6428 -0.0000 -0.7660
vn -0.6763 -0.0000 -0.7366
vn -0.7084 -0.0000 -0.7058
vn -0.7391 -0.0000 -0.6736
vn -0.7685 -0.0000 -0.6399
vn -0.7964 -0.0000 -0.6048
vn -0.8229 -0.0000 -0.5682
vn -0.8479 -0.0000 -0.5301
vn -0.8714 -0.0000 -0.4906
vn -0.8933 -0.0000 -0.4495
vn -0.0000 1.0000 -0.0000
vn -0.0000 1.0000 0.0001
s 0
f 1//1 2//1 3//1 4//1
f 2//2 5//2 6//2 3//2
f 5//3 7//3 8//3 6//3
f 7//4 9//4 10//4 8//4
f 9//5 11//5 12//5 10//5
f 11//6 13//6 14//6 12//6
f 13//7 15//7 16//7 14//7
f 15//8 17//8 18//8 16//8
f 17//9 19//9 20//9 18//9
f 19//10 21//10 22//10 20//10
f 21//11 23//11 24//11 22//11
f 23//12 25//12 26//12 24//12
f 25//13 27//13 28//13 26//13
f 27//14 29//14 30//14 28//14
f 29//15 31//15 32//15 30//15
f 31//16 33//16 34//16 32//16
f 33//17 35//17 36//17 34//17
f 35//18 37//18 38//18 36//18
f 37//19 39//19 40//19 38//19
f 39//20 41//20 42//20 40//20
f 41//21 43//21 44//21 42//21
f 43//22 45//22 46//22 44//22
f 45//23 47//23 48//23 46//23
f 47//24 49//24 50//24 48//24
f 49//25 51//25 52//25 50//25
f 51//26 53//26 54//26 52//26
f 53//27 55//27 56//27 54//27
f 55//28 57//28 58//28 56//28
f 57//29 59//29 60//29 58//29
f 59//30 61//30 62//30 60//30
f 61//31 63//31 64//31 62//31
f 63//32 65//32 66//32 64//32
f 65//33 67//33 68//33 66//33
f 67//34 69//34 70//34 68//34
f 69//35 71//35 72//35 70//35
f 71//36 73//36 74//36 72//36
f 73//37 75//37 76//37 74//37
f 75//38 77//38 78//38 76//38
f 77//39 79//39 80//39 78//39
f 79//40 81//40 82//40 80//40
f 81//41 83//41 84//41 82//41
f 83//42 85//42 86//42 84//42
f 85//43 87//43 88//43 86//43
f 87//44 89//44 90//44 88//44
f 89//45 91//45 92//45 90//45
f 91//46 93//46 94//46 92//46
f 93//47 95//47 96//47 94//47
f 95//48 97//48 98//48 96//48
f 97//49 99//49 100//49 98//49
f 99//50 101//50 102//50 100//50
f 101//51 103//51 104//51 102//51
f 103//52 105//52 106//52 104//52
f 105//53 107//53 108//53 106//53
f 107//54 109//54 110//54 108//54
f 109//55 111//55 112//55 110//55
f 111//56 113//56 114//56 112//56
f 113//57 115//57 116//57 114//57
f 115//58 117//58 118//58 116//58
f 117//59 119//59 120//59 118//59
f 119//60 121//60 122//60 120//60
f 121//61 123//61 124//61 122//61
f 123//62 125//62 126//62 124//62
f 125//63 127//63 128//63 126//63
f 127//64 129//64 130//64 128//64
f 129//65 131//65 132//65 130//65
f 131//66 133//66 134//66 132//66
f 133//67 135//67 136//67 134//67
f 135//68 137//68 138//68 136//68
f 137//69 139//69 140//69 138//69
f 139//70 141//70 142//70 140//70
f 141//71 143//71 144//71 142//71
f 143//72 145//72 146//72 144//72
f 145//73 147//73 148//73 146//73
f 147//74 149//74 150//74 148//74
f 149//75 151//75 152//75 150//75
f 151//76 153//76 154//76 152//76
f 153//77 155//77 156//77 154//77
f 155//78 157//78 158//78 156//78
f 157//79 159//79 160//79 158//79
f 159//80 161//80 162//80 160//80
f 161//81 163//81 164//81 162//81
f 163//82 165//82 166//82 164//82
f 165//83 167//83 168//83 166//83
f 167//84 169//84 170//84 168//84
f 169//85 171//85 172//85 170//85
f 171//38 173//38 174//38 172//38
f 173//86 175//86 176//86 174//86
f 175//87 177//87 178//87 176//87
f 177//88 179//88 180//88 178//88
f 179//89 181//89 182//89 180//89
f 181//90 183//90 184//90 182//90
f 183//91 185//91 186//91 184//91
f 185//92 187//92 188//92 186//92
f 187//93 189//93 190//93 188//93
f 189//94 191//94 192//94 190//94
f 191//95 193//95 194//95 192//95
f 193//96 195//96 196//96 194//96
f 195//97 197//97 198//97 196//97
f 197//98 199//98 200//98 198//98
f 199//99 201//99 202//99 200//99
f 201//100 203//100 204//100 202//100
f 203//101 205//101 206//101 204//101
f 205//102 207//102 208//102 206//102
f 207//103 209//103 210//103 208//103
f 209//104 211//104 212//104 210//104
f 211//105 213//105 214//105 212//105
f 213//106 215//106 216//106 214//106
f 215//107 217//107 218//107 216//107
f 217//108 219//108 220//108 218//108
f 219//109 221//109 222//109 220//109
f 221//110 223//110 224//110 222//110
f 223//111 225//111 226//111 224//111
f 225//112 227//112 228//112 226//112
f 227//113 229//113 230//113 228//113
f 229//114 231//114 232//114 230//114
f 231//115 233//115 234//115 232//115
f 233//116 235//116 236//116 234//116
f 235//117 237//117 238//117 236//117
f 237//118 239//118 240//118 238//118
f 239//119 241//119 242//119 240//119
f 241//120 243//120 244//120 242//120
f 243//121 245//121 246//121 244//121
f 245//122 247//122 248//122 246//122
f 247//123 249//123 250//123 248//123
f 249//124 251//124 252//124 250//124
f 251//125 253//125 254//125 252//125
f 253//126 255//126 256//126 254//126
f 255//127 257//127 258//127 256//127
f 257//128 259//128 260//128 258//128
f 259//129 261//129 262//129 260//129
f 261//130 263//130 264//130 262//130
f 263//131 265//131 266//131 264//131
f 265//132 267//132 268//132 266//132
f 267//133 269//133 270//133 268//133
f 269//134 271//134 272//134 270//134
f 271//135 273//135 274//135 272//135
f 273//136 275//136 276//136 274//136
f 275//137 277//137 278//137 276//137
f 277//138 279//138 280//138 278//138
f 279//139 281//139 282//139 280//139
f 281//140 283//140 284//140 282//140
f 283//141 285//141 286//141 284//141
f 285//142 287//142 288//142 286//142
f 287//143 289//143 290//143 288//143
f 289//144 291//144 292//144 290//144
f 291//145 293//145 294//145 292//145
f 293//146 295//146 296//146 294//146
f 295//147 297//147 298//147 296//147
f 297//148 299//148 300//148 298//148
f 299//149 301//149 302//149 300//149
f 301//150 303//150 304//150 302//150
f 303//151 305//151 306//151 304//151
f 305//152 307//152 308//152 306//152
f 307//153 309//153 310//153 308//153
f 309//154 311//154 312//154 310//154
f 311//155 313//155 314//155 312//155
f 313//156 315//156 316//156 314//156
f 315//157 317//157 318//157 316//157
f 317//158 319//158 320//158 318//158
f 319//159 321//159 322//159 320//159
f 321//160 323//160 324//160 322//160
f 323//161 325//161 326//161 324//161
f 325//162 327//162 328//162 326//162
f 327//163 329//163 330//163 328//163
f 329//164 331//164 332//164 330//164
f 331//165 333//165 334//165 332//165
f 333//166 335//166 336//166 334//166
f 335//167 337//167 338//167 336//167
f 337//168 339//168 340//168 338//168
f 339//169 341//169 342//169 340//169
f 341//170 343//170 344//170 342//170
f 343//171 345//171 346//171 344//171
f 345//172 347//172 348//172 346//172
f 347//173 349//173 350//173 348//173
f 349//174 351//174 352//174 350//174
f 351//175 353//175 354//175 352//175
f 353//176 355//176 356//176 354//176
f 355//177 357//177 358//177 356//177
f 357//178 359//178 360//178 358//178
f 359//179 361//179 362//179 360//179
f 361//180 363//180 364//180 362//180
f 363//181 365//181 366//181 364//181
f 365//182 367//182 368//182 366//182
f 367//183 369//183 370//183 368//183
f 369//184 371//184 372//184 370//184
f 371//185 373//185 374//185 372//185
f 373//186 375//186 376//186 374//186
f 375//187 377//187 378//187 376//187
f 377//188 379//188 380//188 378//188
f 379//189 381//189 382//189 380//189
f 381//190 383//190 384//190 382//190
f 383//191 385//191 386//191 384//191
f 385//192 387//192 388//192 386//192
f 387//193 389//193 390//193 388//193
f 389//194 391//194 392//194 390//194
f 391//195 393//195 394//195 392//195
f 393//196 395//196 396//196 394//196
f 395//197 397//197 398//197 396//197
f 397//198 399//198 400//198 398//198
f 399//199 401//199 402//199 400//199
f 401//200 403//200 404//200 402//200
f 403//201 1//201 4//201 404//201
f 1//202 405//202 406//202 4//202
f 405//203 407//203 408//203 406//203
f 407//204 409//204 410//204 408//204
f 409//205 411//205 412//205 410//205
f 411//206 413//206 414//206 412//206
f 413//207 415//207 416//207 414//207
f 415//208 417//208 418//208 416//208
f 417//209 419//209 420//209 418//209
f 419//210 421//210 422//210 420//210
f 421//211 423//211 424//211 422//211
f 423//212 425//212 426//212 424//212
f 425//213 427//213 428//213 426//213
f 427//214 429//214 430//214 428//214
f 429//215 431//215 432//215 430//215
f 431//216 433//216 434//216 432//216
f 433//217 435//217 436//217 434//217
f 435//218 437//218 438//218 436//218
f 437//219 439//219 440//219 438//219
f 439//220 441//220 442//220 440//220
f 441//221 443//221 444//221 442//221
f 443//222 445//222 446//222 444//222
f 445//223 447//223 448//223 446//223
f 447//224 449//224 450//224 448//224
f 449//225 451//225 452//225 450//225
f 451//226 453//226 454//226 452//226
f 453//227 455//227 456//227 454//227
f 455//228 457//228 458//228 456//228
f 457//229 459//229 460//229 458//229
f 459//230 461//230 462//230 460//230
f 461//231 463//231 464//231 462//231
f 463//232 465//232 466//232 464//232
f 465//233 467//233 468//233 466//233
f 467//234 469//234 470//234 468//234
f 469//235 471//235 472//235 470//235
f 471//236 473//236 474//236 472//236
f 473//237 475//237 476//237 474//237
f 475//238 477//238 478//238 476//238
f 477//239 479//239 480//239 478//239
f 479//240 481//240 482//240 480//240
f 481//241 483//241 484//241 482//241
f 483//242 485//242 486//242 484//242
f 485//243 487//243 488//243 486//243
f 487//244 489//244 490//244 488//244
f 489//245 491//245 492//245 490//245
f 491//246 493//246 494//246 492//246
f 493//247 495//247 496//247 494//247
f 495//248 497//248 498//248 496//248
f 497//249 499//249 500//249 498//249
f 499//250 501//250 502//250 500//250
f 501//251 503//251 504//251 502//251
f 503//252 505//252 506//252 504//252
f 505//253 507//253 508//253 506//253
f 507//254 509//254 510//254 508//254
f 509//255 511//255 512//255 510//255
f 511//256 513//256 514//256 512//256
f 513//257 515//257 516//257 514//257
f 515//258 517//258 518//258 516//258
f 517//259 519//259 520//259 518//259
f 519//260 521//260 522//260 520//260
f 521//261 523//261 524//261 522//261
f 523//262 525//262 526//262 524//262
f 525//263 527//263 528//263 526//263
f 527//264 529//264 530//264 528//264
f 529//265 531//265 532//265 530//265
f 531//266 533//266 534//266 532//266
f 533//267 535//267 536//267 534//267
f 535//268 537//268 538//268 536//268
f 537//269 539//269 540//269 538//269
f 539//270 541//270 542//270 540//270
f 541//271 543//271 544//271 542//271
f 543//272 545//272 546//272 544//272
f 545//273 547//273 548//273 546//273
f 547//274 549//274 550//274 548//274
f 549//275 551//275 552//275 550//275
f 551//276 553//276 554//276 552//276
f 553//277 555//277 556//277 554//277
f 555//278 557//278 558//278 556//278
f 557//279 559//279 560//279 558//279
f 559//280 561//280 562//280 560//280
f 561//281 563//281 564//281 562//281
f 563//282 565//282 566//282 564//282
f 565//283 567//283 568//283 566//283
f 567//284 569//284 570//284 568//284
f 569//285 571//285 572//285 570//285
f 571//286 573//286 574//286 572//286
f 573//287 575//287 576//287 574//287
f 575//288 577//288 578//288 576//288
f 577//289 579//289 580//289 578//289
f 579//290 581//290 582//290 580//290
f 581//291 583//291 584//291 582//291
f 583//292 585//292 586//292 584//292
f 585//293 587//293 588//293 586//293
f 587//294 589//294 590//294 588//294
f 589//295 591//295 592//295 590//295
f 591//296 593//296 594//296 592//296
f 593//297 595//297 596//297 594//297
f 595//298 597//298 598//298 596//298
f 597//299 599//299 600//299 598//299
f 599//300 601//300 602//300 600//300
f 601//301 603//301 604//301 602//301
f 603//302 605//302 606//302 604//302
f 605//303 607//303 608//303 606//303
f 607//304 609//304 610//304 608//304
f 609//305 611//305 612//305 610//305
f 611//306 613//306 614//306 612//306
f 613//307 615//307 616//307 614//307
f 615//308 617//308 618//308 616//308
f 617//309 619//309 620//309 618//309
f 619//310 621//310 622//310 620//310
f 621//311 623//311 624//311 622//311
f 623//312 625//312 626//312 624//312
f 625//313 627//313 628//313 626//313
f 627//314 629//314 630//314 628//314
f 629//315 631//315 632//315 630//315
f 631//316 633//316 634//316 632//316
f 633//317 635//317 636//317 634//317
f 635//318 405//318 406//318 636//318
f 636//319 406//319 4//319
f 634//319 636//319 4//319
f 632//319 634//319 4//319
f 630//319 632//319 4//319
f 628//319 630//319 4//319
f 626//319 628//319 4//319
f 624//319 626//319 4//319
f 622//319 624//319 4//319
f 620//319 622//319 4//319
f 618//319 620//319 4//319
f 616//319 618//319 4//319
f 614//319 616//319 4//319
f 612//319 614//319 4//319
f 608//319 610//319 612//319
f 606//319 608//319 612//319
f 604//319 606//319 612//319
f 602//319 604//319 612//319
f 600//319 602//319 612//319
f 598//319 600//319 612//319
f 596//319 598//319 612//319
f 594//319 596//319 612//319
f 592//319 594//319 612//319
f 590//319 592//319 612//319
f 588//319 590//319 612//319
f 586//319 588//319 612//319
f 584//319 586//319 612//319
f 580//319 582//319 584//319
f 578//319 580//319 584//319
f 576//319 578//319 584//319
f 574//319 576//319 584//319
f 572//319 574//319 584//319
f 570//319 572//319 584//319
f 568//319 570//319 584//319
f 566//319 568//319 584//319
f 564//319 566//319 584//319
f 562//319 564//319 584//319
f 560//319 562//319 584//319
f 556//319 558//319 560//319
f 554//319 556//319 560//319
f 552//319 554//319 560//319
f 550//319 552//319 560//319
f 548//319 550//319 560//319
f 546//319 548//319 560//319
f 544//319 546//319 560//319
f 542//319 544//319 560//319
f 540//319 542//319 560//319
f 538//319 540//319 560//319
f 536//319 538//319 560//319
f 532//319 534//319 536//319
f 530//319 532//319 536//319
f 528//319 530//319 536//319
f 526//319 528//319 536//319
f 524//319 526//319 536//319
f 522//319 524//319 536//319
f 520//319 522//319 536//319
f 518//319 520//319 536//319
f 516//319 518//319 536//319
f 514//319 516//319 536//319
f 510//319 512//319 514//319
f 508//319 510//319 514//319
f 506//319 508//319 514//319
f 504//319 506//319 514//319
f 502//319 504//319 514//319
f 500//319 502//319 514//319
f 498//319 500//319 514//319
f 496//319 498//319 514//319
f 494//319 496//319 514//319
f 492//319 494//319 514//319
f 490//319 492//319 514//319
f 488//319 490//319 514//319
f 484//319 486//319 488//319
f 482//319 484//319 488//319
f 480//319 482//319 488//319
f 478//319 480//319 488//319
f 476//319 478//319 488//319
f 474//319 476//319 488//319
f 472//319 474//319 488//319
f 468//319 470//319 472//319
f 466//319 468//319 472//319
f 464//319 466//319 472//319
f 462//319 464//319 472//319
f 460//319 462//319 472//319
f 458//319 460//319 472//319
f 456//319 458//319 472//319
f 454//319 456//319 472//319
f 450//319 452//319 454//319
f 448//319 450//319 454//319
f 446//319 448//319 454//319
f 444//319 446//319 454//319
f 442//319 444//319 454//319
f 440//319 442//319 454//319
f 438//319 440//319 454//319
f 436//319 438//319 454//319
f 434//319 436//319 454//319
f 432//319 434//319 454//319
f 430//319 432//319 454//319
f 428//319 430//319 454//319
f 426//319 428//319 454//319
f 422//319 424//319 426//319
f 420//319 422//319 426//319
f 418//319 420//319 426//319
f 416//319 418//319 426//319
f 414//319 416//319 426//319
f 412//319 414//319 426//319
f 410//319 412//319 426//319
f 408//319 410//319 426//319
f 406//319 408//319 426//319
f 404//319 4//319 406//319
f 404//319 406//319 426//319
f 402//319 404//319 426//319
f 400//319 402//319 426//319
f 398//319 400//319 426//319
f 396//319 398//319 426//319
f 394//319 396//319 426//319
f 392//319 394//319 426//319
f 390//319 392//319 426//319
f 388//319 390//319 426//319
f 386//319 388//319 426//319
f 384//319 386//319 426//319
f 382//319 384//319 426//319
f 382//319 426//319 454//319
f 380//319 382//319 454//319
f 378//319 380//319 454//319
f 376//319 378//319 454//319
f 374//319 376//319 454//319
f 372//319 374//319 454//319
f 370//319 372//319 454//319
f 368//319 370//319 454//319
f 366//319 368//319 454//319
f 366//319 454//319 472//319
f 364//320 366//320 472//320
f 362//319 364//319 472//319
f 360//319 362//319 472//319
f 358//319 360//319 472//319
f 356//319 358//319 472//319
f 354//319 356//319 472//319
f 352//319 354//319 472//319
f 350//319 352//319 472//319
f 350//319 472//319 488//319
f 348//319 350//319 488//319
f 346//319 348//319 488//319
f 344//319 346//319 488//319
f 342//319 344//319 488//319
f 340//319 342//319 488//319
f 338//319 340//319 488//319
f 336//319 338//319 488//319
f 334//319 336//319 488//319
f 332//319 334//319 488//319
f 330//319 332//319 488//319
f 330//319 488//319 514//319
f 328//319 330//319 514//319
f 326//319 328//319 514//319
f 324//319 326//319 514//319
f 322//319 324//319 514//319
f 320//319 322//319 514//319
f 318//319 320//319 514//319
f 316//319 318//319 514//319
f 314//319 316//319 514//319
f 312//319 314//319 514//319
f 310//319 312//319 514//319
f 308//319 310//319 514//319
f 308//319 514//319 536//319
f 306//319 308//319 536//319
f 304//319 306//319 536//319
f 302//319 304//319 536//319
f 300//319 302//319 536//319
f 298//319 300//319 536//319
f 296//319 298//319 536//319
f 294//319 296//319 536//319
f 292//319 294//319 536//319
f 292//319 536//319 560//319
f 290//319 292//319 560//319
f 288//319 290//319 560//319
f 286//319 288//319 560//319
f 284//319 286//319 560//319
f 282//319 284//319 560//319
f 280//319 282//319 560//319
f 278//319 280//319 560//319
f 276//319 278//319 560//319
f 274//319 276//319 560//319
f 272//319 274//319 560//319
f 272//319 560//319 584//319
f 270//319 272//319 584//319
f 268//319 270//319 584//319
f 266//319 268//319 584//319
f 264//319 266//319 584//319
f 262//319 264//319 584//319
f 260//319 262//319 584//319
f 258//319 260//319 584//319
f 256//319 258//319 584//319
f 254//319 256//319 584//319
f 252//319 254//319 584//319
f 250//319 252//319 584//319
f 248//319 250//319 584//319
f 246//319 248//319 584//319
f 246//319 584//319 612//319
f 244//319 246//319 612//319
f 242//319 244//319 612//319
f 240//319 242//319 612//319
f 238//319 240//319 612//319
f 236//319 238//319 612//319
f 234//319 236//319 612//319
f 234//319 612//319 4//319
f 232//319 234//319 4//319
f 230//319 232//319 4//319
f 228//319 230//319 4//319
f 226//319 228//319 4//319
f 224//319 226//319 4//319
f 222//319 224//319 4//319
f 220//319 222//319 4//319
f 218//319 220//319 4//319
f 214//319 216//319 218//319
f 212//319 214//319 218//319
f 210//319 212//319 218//319
f 208//319 210//319 218//319
f 206//319 208//319 218//319
f 204//319 206//319 218//319
f 202//319 204//319 218//319
f 202//319 218//319 4//319
f 200//319 202//319 4//319
f 198//319 200//319 4//319
f 196//319 198//319 4//319
f 194//319 196//319 4//319
f 190//319 192//319 194//319
f 188//319 190//319 194//319
f 186//319 188//319 194//319
f 184//319 186//319 194//319
f 182//319 184//319 194//319
f 180//319 182//319 194//319
f 178//319 180//319 194//319
f 176//319 178//319 194//319
f 174//319 176//319 194//319
f 172//319 174//319 194//319
f 170//319 172//319 194//319
f 168//319 170//319 194//319
f 166//319 168//319 194//319
f 166//319 194//319 4//319
f 164//319 166//319 4//319
f 162//319 164//319 4//319
f 160//319 162//319 4//319
f 158//319 160//319 4//319
f 156//319 158//319 4//319
f 154//319 156//319 4//319
f 152//319 154//319 4//319
f 150//319 152//319 4//319
f 146//319 148//319 150//319
f 144//319 146//319 150//319
f 142//319 144//319 150//319
f 140//319 142//319 150//319
f 138//319 140//319 150//319
f 136//319 138//319 150//319
f 134//319 136//319 150//319
f 132//319 134//319 150//319
f 130//319 132//319 150//319
f 128//319 130//319 150//319
f 126//319 128//319 150//319
f 126//319 150//319 4//319
f 124//319 126//319 4//319
f 122//319 124//319 4//319
f 120//319 122//319 4//319
f 118//319 120//319 4//319
f 116//319 118//319 4//319
f 114//319 116//319 4//319
f 112//319 114//319 4//319
f 110//319 112//319 4//319
f 108//319 110//319 4//319
f 106//319 108//319 4//319
f 104//319 106//319 4//319
f 102//319 104//319 4//319
f 100//319 102//319 4//319
f 98//319 100//319 4//319
f 96//319 98//319 4//319
f 94//319 96//319 4//319
f 92//319 94//319 4//319
f 90//319 92//319 4//319
f 88//319 90//319 4//319
f 86//319 88//319 4//319
f 84//319 86//319 4//319
f 80//319 82//319 84//319
f 80//319 84//319 4//319
f 78//319 80//319 4//319
f 76//319 78//319 4//319
f 74//319 76//319 4//319
f 62//319 64//319 66//319
f 60//319 62//319 66//319
f 58//319 60//319 66//319
f 56//319 58//319 66//319
f 54//319 56//319 66//319
f 52//319 54//319 66//319
f 50//319 52//319 66//319
f 48//319 50//319 66//319
f 46//319 48//319 66//319
f 44//319 46//319 66//319
f 42//319 44//319 66//319
f 40//319 42//319 66//319
f 38//319 40//319 66//319
f 36//319 38//319 66//319
f 34//319 36//319 66//319
f 32//319 34//319 66//319
f 30//319 32//319 66//319
f 28//319 30//319 66//319
f 26//319 28//319 66//319
f 24//319 26//319 66//319
f 24//319 66//319 68//319
f 22//319 24//319 68//319
f 22//319 68//319 70//319
f 20//319 22//319 70//319
f 20//319 70//319 72//319
f 18//319 20//319 72//319
f 18//319 72//319 74//319
f 16//319 18//319 74//319
f 14//319 16//319 74//319
f 12//319 14//319 74//319
f 10//319 12//319 74//319
f 8//319 10//319 74//319
f 6//319 8//319 74//319
f 3//319 6//319 74//319
f 4//319 3//319 74//319
