# Blender 4.2.2 LTS
# www.blender.org
mtllib RockHalf.mtl
o RockHalf
v 0.024583 0.000000 0.000650
v 0.024552 0.000000 -0.000592
v 0.024552 0.001150 -0.000592
v 0.024583 0.001150 0.000650
v 0.024459 0.000000 -0.001818
v 0.024459 0.001150 -0.001818
v 0.024306 0.000000 -0.003026
v 0.024306 0.001150 -0.003026
v 0.024095 0.000000 -0.004214
v 0.024095 0.001150 -0.004214
v 0.023826 0.000000 -0.005382
v 0.023826 0.001150 -0.005382
v 0.023502 0.000000 -0.006527
v 0.023502 0.001150 -0.006527
v 0.023125 0.000000 -0.007648
v 0.023125 0.001150 -0.007648
v 0.022694 0.000000 -0.008744
v 0.022694 0.001150 -0.008744
v 0.022213 0.000000 -0.009813
v 0.022213 0.001150 -0.009813
v 0.021682 0.000000 -0.010854
v 0.021682 0.001150 -0.010854
v 0.021104 0.000000 -0.011865
v 0.021104 0.001150 -0.011865
v 0.020479 0.000000 -0.012844
v 0.020479 0.001150 -0.012844
v 0.019809 0.000000 -0.013790
v 0.019809 0.001150 -0.013790
v 0.019095 0.000000 -0.014702
v 0.019095 0.001150 -0.014702
v 0.018340 0.000000 -0.015578
v 0.018340 0.001150 -0.015578
v 0.017544 0.000000 -0.016416
v 0.017544 0.001150 -0.016416
v 0.016710 0.000000 -0.017215
v 0.016710 0.001150 -0.017215
v 0.015838 0.000000 -0.017973
v 0.015838 0.001150 -0.017973
v 0.014930 0.000000 -0.018690
v 0.014930 0.001150 -0.018690
v 0.013988 0.000000 -0.019363
v 0.013988 0.001150 -0.019363
v 0.013013 0.000000 -0.019990
v 0.013013 0.001150 -0.019990
v 0.012007 0.000000 -0.020572
v 0.012007 0.001150 -0.020572
v 0.010970 0.000000 -0.021105
v 0.010970 0.001150 -0.021105
v 0.009906 0.000000 -0.021588
v 0.009906 0.001150 -0.021588
v 0.008815 0.000000 -0.022020
v 0.008815 0.001150 -0.022020
v 0.007698 0.000000 -0.022399
v 0.007698 0.001150 -0.022399
v 0.006558 0.000000 -0.022725
v 0.006558 0.001150 -0.022725
v 0.005395 0.000000 -0.022994
v 0.005395 0.001150 -0.022994
v 0.004212 0.000000 -0.023206
v 0.004212 0.001150 -0.023206
v 0.003009 0.000000 -0.023360
v 0.003009 0.001150 -0.023360
v 0.001789 0.000000 -0.023453
v 0.001789 0.001150 -0.023453
v 0.000552 0.000000 -0.023484
v 0.000552 0.001150 -0.023484
v -0.000685 0.000000 -0.023453
v -0.000685 0.001150 -0.023453
v -0.001905 0.000000 -0.023360
v -0.001905 0.001150 -0.023360
v -0.003108 0.000000 -0.023206
v -0.003108 0.001150 -0.023206
v -0.004291 0.000000 -0.022994
v -0.004291 0.001150 -0.022994
v -0.005454 0.000000 -0.022725
v -0.005454 0.001150 -0.022725
v -0.006595 0.000000 -0.022399
v -0.006595 0.001150 -0.022399
v -0.007711 0.000000 -0.022020
v -0.007711 0.001150 -0.022020
v -0.008803 0.000000 -0.021588
v -0.008803 0.001150 -0.021588
v -0.009867 0.000000 -0.021105
v -0.009867 0.001150 -0.021105
v -0.010904 0.000000 -0.020572
v -0.010904 0.001150 -0.020572
v -0.011910 0.000000 -0.019990
v -0.011910 0.001150 -0.019990
v -0.012886 0.000000 -0.019363
v -0.012886 0.001150 -0.019363
v -0.013828 0.000000 -0.018690
v -0.013828 0.001150 -0.018690
v -0.014736 0.000000 -0.017973
v -0.014736 0.001150 -0.017973
v -0.015608 0.000000 -0.017215
v -0.015608 0.001150 -0.017215
v -0.016443 0.000000 -0.016416
v -0.016443 0.001150 -0.016416
v -0.017239 0.000000 -0.015578
v -0.017239 0.001150 -0.015578
v -0.017995 0.000000 -0.014702
v -0.017995 0.001150 -0.014702
v -0.018708 0.000000 -0.013790
v -0.018708 0.001150 -0.013790
v -0.019379 0.000000 -0.012844
v -0.019379 0.001150 -0.012844
v -0.020004 0.000000 -0.011865
v -0.020004 0.001150 -0.011865
v -0.020583 0.000000 -0.010854
v -0.020583 0.001150 -0.010854
v -0.021114 0.000000 -0.009813
v -0.021114 0.001150 -0.009813
v -0.021595 0.000000 -0.008744
v -0.021595 0.001150 -0.008744
v -0.022026 0.000000 -0.007648
v -0.022026 0.001150 -0.007648
v -0.022404 0.000000 -0.006527
v -0.022404 0.001150 -0.006527
v -0.022728 0.000000 -0.005382
v -0.022728 0.001150 -0.005382
v -0.022996 0.000000 -0.004214
v -0.022996 0.001150 -0.004214
v -0.023207 0.000000 -0.003026
v -0.023207 0.001150 -0.003026
v -0.023360 0.000000 -0.001818
v -0.023360 0.001150 -0.001818
v -0.023453 0.000000 -0.000592
v -0.023453 0.001150 -0.000592
v -0.023484 0.000000 0.000650
v -0.023484 0.001150 0.000650
v -0.023453 0.000000 0.001892
v -0.023453 0.001150 0.001892
v -0.023360 0.000000 0.003117
v -0.023360 0.001150 0.003117
v -0.023207 0.000000 0.004325
v -0.023207 0.001150 0.004325
v -0.022996 0.000000 0.005514
v -0.022996 0.001150 0.005514
v -0.022728 0.000000 0.006681
v -0.022728 0.001150 0.006681
v -0.022404 0.000000 0.007827
v -0.022404 0.001150 0.007827
v -0.022026 0.000000 0.008948
v -0.022026 0.001150 0.008948
v -0.021595 0.000000 0.010044
v -0.021595 0.001150 0.010044
v -0.021114 0.000000 0.011113
v -0.021114 0.001150 0.011113
v -0.020583 0.000000 0.012154
v -0.020583 0.001150 0.012154
v -0.020004 0.000000 0.013164
v -0.020004 0.001150 0.013164
v -0.019379 0.000000 0.014143
v -0.019379 0.001150 0.014143
v -0.018708 0.000000 0.015090
v -0.018708 0.001150 0.015090
v -0.017995 0.000000 0.016001
v -0.017995 0.001150 0.016001
v -0.017239 0.000000 0.016877
v -0.017239 0.001150 0.016877
v -0.016443 0.000000 0.017715
v -0.016443 0.001150 0.017715
v -0.015608 0.000000 0.018514
v -0.015608 0.001150 0.018514
v -0.014736 0.000000 0.019273
v -0.014736 0.001150 0.019273
v -0.013828 0.000000 0.019989
v -0.013828 0.001150 0.019989
v -0.012886 0.000000 0.020662
v -0.012886 0.001150 0.020662
v -0.011910 0.000000 0.021290
v -0.011910 0.001150 0.021290
v -0.010904 0.000000 0.021871
v -0.010904 0.001150 0.021871
v -0.009867 0.000000 0.022404
v -0.009867 0.001150 0.022404
v -0.008803 0.000000 0.022887
v -0.008803 0.001150 0.022887
v -0.007711 0.000000 0.023320
v -0.007711 0.001150 0.023320
v -0.006595 0.000000 0.023699
v -0.006595 0.001150 0.023699
v -0.005454 0.000000 0.024024
v -0.005454 0.001150 0.024024
v -0.004291 0.000000 0.024294
v -0.004291 0.001150 0.024294
v -0.003108 0.000000 0.024506
v -0.003108 0.001150 0.024506
v -0.001905 0.000000 0.024659
v -0.001905 0.001150 0.024659
v -0.000685 0.000000 0.024753
v -0.000685 0.001150 0.024753
v 0.000552 0.000000 0.024784
v 0.000552 0.001150 0.024784
v 0.001789 0.000000 0.024753
v 0.001789 0.001150 0.024753
v 0.003009 0.000000 0.024659
v 0.003009 0.001150 0.024659
v 0.004212 0.000000 0.024506
v 0.004212 0.001150 0.024506
v 0.005395 0.000000 0.024294
v 0.005395 0.001150 0.024294
v 0.006558 0.000000 0.024024
v 0.006558 0.001150 0.024024
v 0.007698 0.000000 0.023699
v 0.007698 0.001150 0.023699
v 0.008815 0.000000 0.023320
v 0.008815 0.001150 0.023320
v 0.009906 0.000000 0.022887
v 0.009906 0.001150 0.022887
v 0.010970 0.000000 0.022404
v 0.010970 0.001150 0.022404
v 0.012007 0.000000 0.021871
v 0.012007 0.001150 0.021871
v 0.013013 0.000000 0.021290
v 0.013013 0.001150 0.021290
v 0.013988 0.000000 0.020662
v 0.013988 0.001150 0.020662
v 0.014930 0.000000 0.019989
v 0.014930 0.001150 0.019989
v 0.015838 0.000000 0.019273
v 0.015838 0.001150 0.019273
v 0.016710 0.000000 0.018514
v 0.016710 0.001150 0.018514
v 0.017544 0.000000 0.017715
v 0.017544 0.001150 0.017715
v 0.018340 0.000000 0.016877
v 0.018340 0.001150 0.016877
v 0.019095 0.000000 0.016001
v 0.019095 0.001150 0.016001
v 0.019809 0.000000 0.015090
v 0.019809 0.001150 0.015090
v 0.020479 0.000000 0.014143
v 0.020479 0.001150 0.014143
v 0.021104 0.000000 0.013164
v 0.021104 0.001150 0.013164
v 0.021682 0.000000 0.012154
v 0.021682 0.001150 0.012154
v 0.022213 0.000000 0.011113
v 0.022213 0.001150 0.011113
v 0.022694 0.000000 0.010044
v 0.022694 0.001150 0.010044
v 0.023125 0.000000 0.008948
v 0.023125 0.001150 0.008948
v 0.023502 0.000000 0.007827
v 0.023502 0.001150 0.007827
v 0.023826 0.000000 0.006681
v 0.023826 0.001150 0.006681
v 0.024095 0.000000 0.005514
v 0.024095 0.001150 0.005514
v 0.024306 0.000000 0.004325
v 0.024306 0.001150 0.004325
v 0.024459 0.000000 0.003117
v 0.024459 0.001150 0.003117
v 0.024552 0.000000 0.001892
v 0.024552 0.001150 0.001892
v 0.020598 0.000000 -0.004186
v 0.020598 0.001150 -0.004186
v 0.020948 0.000000 -0.002530
v 0.020948 0.001150 -0.002530
v 0.021152 0.000000 -0.000851
v 0.021152 0.001150 -0.000851
v 0.021212 0.000000 0.000840
v 0.021212 0.001150 0.000840
v 0.021130 0.000000 0.002531
v 0.021130 0.001150 0.002531
v 0.020911 0.000000 0.004211
v 0.020911 0.001150 0.004211
v 0.020555 0.000000 0.005867
v 0.020555 0.001150 0.005867
v 0.020067 0.000000 0.007488
v 0.020067 0.001150 0.007488
v 0.019448 0.000000 0.009063
v 0.019448 0.001150 0.009063
v 0.018609 0.000000 0.010736
v 0.018609 0.001150 0.010736
v 0.017620 0.000000 0.012326
v 0.017620 0.001150 0.012326
v 0.016490 0.000000 0.013820
v 0.016490 0.001150 0.013820
v 0.015232 0.000000 0.015208
v 0.015232 0.001150 0.015208
v 0.013855 0.000000 0.016478
v 0.013855 0.001150 0.016478
v 0.012370 0.000000 0.017619
v 0.012370 0.001150 0.017619
v 0.010788 0.000000 0.018620
v 0.010788 0.001150 0.018620
v 0.009120 0.000000 0.019471
v 0.009120 0.001150 0.019471
v 0.007850 0.000000 0.020001
v 0.007850 0.001150 0.020001
v 0.006548 0.000000 0.020438
v 0.006548 0.001150 0.020438
v 0.005220 0.000000 0.020783
v 0.005220 0.001150 0.020783
v 0.003871 0.000000 0.021039
v 0.003871 0.001150 0.021039
v 0.002507 0.000000 0.021206
v 0.002507 0.001150 0.021206
v 0.001135 0.000000 0.021287
v 0.001135 0.001150 0.021287
v -0.000239 0.000000 0.021283
v -0.000239 0.001150 0.021283
v -0.001610 0.000000 0.021196
v -0.001610 0.001150 0.021196
v -0.003289 0.000000 0.020940
v -0.003289 0.001150 0.020940
v -0.004941 0.000000 0.020548
v -0.004941 0.001150 0.020548
v -0.006556 0.000000 0.020021
v -0.006556 0.001150 0.020021
v -0.008123 0.000000 0.019366
v -0.008123 0.001150 0.019366
v -0.009631 0.000000 0.018586
v -0.009631 0.001150 0.018586
v -0.011070 0.000000 0.017685
v -0.011070 0.001150 0.017685
v -0.012429 0.000000 0.016668
v -0.012429 0.001150 0.016668
v -0.013697 0.000000 0.015537
v -0.013697 0.001150 0.015537
v -0.014856 0.000000 0.014337
v -0.014856 0.001150 0.014337
v -0.015911 0.000000 0.013043
v -0.015911 0.001150 0.013043
v -0.016857 0.000000 0.011668
v -0.016857 0.001150 0.011668
v -0.017688 0.000000 0.010220
v -0.017688 0.001150 0.010220
v -0.018400 0.000000 0.008710
v -0.018400 0.001150 0.008710
v -0.018988 0.000000 0.007148
v -0.018988 0.001150 0.007148
v -0.019446 0.000000 0.005542
v -0.019446 0.001150 0.005542
v -0.019770 0.000000 0.003904
v -0.019770 0.001150 0.003904
v -0.019935 0.000000 0.002457
v -0.019935 0.001150 0.002457
v -0.020003 0.000000 0.001000
v -0.020003 0.001150 0.001000
v -0.019973 0.000000 -0.000459
v -0.019973 0.001150 -0.000459
v -0.019843 0.000000 -0.001913
v -0.019843 0.001150 -0.001913
v -0.019613 0.000000 -0.003353
v -0.019613 0.001150 -0.003353
v -0.019282 0.000000 -0.004773
v -0.019282 0.001150 -0.004773
v -0.018848 0.000000 -0.006165
v -0.018848 0.001150 -0.006165
v -0.018309 0.000000 -0.007521
v -0.018309 0.001150 -0.007521
v -0.017857 0.000000 -0.008503
v -0.017857 0.001150 -0.008503
v -0.017352 0.000000 -0.009458
v -0.017352 0.001150 -0.009458
v -0.016796 0.000000 -0.010383
v -0.016796 0.001150 -0.010383
v -0.016190 0.000000 -0.011276
v -0.016190 0.001150 -0.011276
v -0.015538 0.000000 -0.012137
v -0.015538 0.001150 -0.012137
v -0.014842 0.000000 -0.012962
v -0.014842 0.001150 -0.012962
v -0.014103 0.000000 -0.013751
v -0.014103 0.001150 -0.013751
v -0.013325 0.000000 -0.014500
v -0.013325 0.001150 -0.014500
v -0.012509 0.000000 -0.015208
v -0.012509 0.001150 -0.015208
v -0.011658 0.000000 -0.015874
v -0.011658 0.001150 -0.015874
v -0.010773 0.000000 -0.016495
v -0.010773 0.001150 -0.016495
v -0.009858 0.000000 -0.017069
v -0.009858 0.001150 -0.017069
v -0.008914 0.000000 -0.017595
v -0.008914 0.001150 -0.017595
v -0.007944 0.000000 -0.018070
v -0.007944 0.001150 -0.018070
v -0.006950 0.000000 -0.018493
v -0.006950 0.001150 -0.018493
v -0.005934 0.000000 -0.018861
v -0.005934 0.001150 -0.018861
v -0.004328 0.000000 -0.019327
v -0.004328 0.001150 -0.019327
v -0.002692 0.000000 -0.019656
v -0.002692 0.001150 -0.019656
v -0.001035 0.000000 -0.019849
v -0.001035 0.001150 -0.019849
v 0.000633 0.000000 -0.019908
v 0.000633 0.001150 -0.019908
v 0.001852 0.000000 -0.019866
v 0.001852 0.001150 -0.019866
v 0.003068 0.000000 -0.019755
v 0.003068 0.001150 -0.019755
v 0.004276 0.000000 -0.019574
v 0.004276 0.001150 -0.019574
v 0.005472 0.000000 -0.019323
v 0.005472 0.001150 -0.019323
v 0.006651 0.000000 -0.019005
v 0.006651 0.001150 -0.019005
v 0.007810 0.000000 -0.018619
v 0.007810 0.001150 -0.018619
v 0.008945 0.000000 -0.018167
v 0.008945 0.001150 -0.018167
v 0.010052 0.000000 -0.017648
v 0.010052 0.001150 -0.017648
v 0.005543 0.000000 -0.013318
v 0.005543 0.001150 -0.013318
v 0.005382 0.000000 -0.013155
v 0.005382 0.001150 -0.013155
v 0.005200 0.000000 -0.013036
v 0.005200 0.001150 -0.013036
v 0.004789 0.000000 -0.012901
v 0.004789 0.001150 -0.012901
v 0.003904 0.000000 -0.012823
v 0.003904 0.001150 -0.012823
v 0.002016 0.000000 -0.012690
v 0.002016 0.001150 -0.012690
v 0.000136 0.000000 -0.012469
v 0.000136 0.001150 -0.012469
v -0.003600 0.000000 -0.011851
v -0.003600 0.001150 -0.011851
v -0.005319 0.000000 -0.011495
v -0.005319 0.001150 -0.011495
v -0.007027 0.000000 -0.011078
v -0.007027 0.001150 -0.011078
v -0.008696 0.000000 -0.010542
v -0.008696 0.001150 -0.010542
v -0.009508 0.000000 -0.010211
v -0.009508 0.001150 -0.010211
v -0.010299 0.000000 -0.009827
v -0.010299 0.001150 -0.009827
v -0.011004 0.000000 -0.009380
v -0.011004 0.001150 -0.009380
v -0.011652 0.000000 -0.008834
v -0.011652 0.001150 -0.008834
v -0.011921 0.000000 -0.008518
v -0.011921 0.001150 -0.008518
v -0.012135 0.000000 -0.008167
v -0.012135 0.001150 -0.008167
v -0.012281 0.000000 -0.007781
v -0.012281 0.001150 -0.007781
v -0.012346 0.000000 -0.007355
v -0.012346 0.001150 -0.007355
v -0.012744 0.000000 -0.002416
v -0.012744 0.001150 -0.002416
v -0.012872 0.000000 0.000058
v -0.012872 0.001150 0.000058
v -0.012950 0.000000 0.002536
v -0.012950 0.001150 0.002536
v -0.012930 0.000000 0.003376
v -0.012930 0.001150 0.003376
v -0.012854 0.000000 0.003786
v -0.012854 0.001150 0.003786
v -0.012674 0.000000 0.004163
v -0.012674 0.001150 0.004163
v -0.012301 0.000000 0.004630
v -0.012301 0.001150 0.004630
v -0.011873 0.000000 0.005047
v -0.011873 0.001150 0.005047
v -0.010960 0.000000 0.005819
v -0.010960 0.001150 0.005819
v -0.010881 0.000000 0.006867
v -0.010881 0.001150 0.006867
v -0.010795 0.000000 0.007383
v -0.010795 0.001150 0.007383
v -0.010627 0.000000 0.007878
v -0.010627 0.001150 0.007878
v -0.010263 0.000000 0.008374
v -0.010263 0.001150 0.008374
v -0.009811 0.000000 0.008789
v -0.009811 0.001150 0.008789
v -0.009302 0.000000 0.009140
v -0.009302 0.001150 0.009140
v -0.008769 0.000000 0.009448
v -0.008769 0.001150 0.009448
v -0.008443 0.000000 0.009633
v -0.008443 0.001150 0.009633
v -0.008165 0.000000 0.009870
v -0.008165 0.001150 0.009870
v -0.007697 0.000000 0.010440
v -0.007697 0.001150 0.010440
v -0.007244 0.000000 0.011031
v -0.007244 0.001150 0.011031
v -0.006986 0.000000 0.011295
v -0.006986 0.001150 0.011295
v -0.006688 0.000000 0.011518
v -0.006688 0.001150 0.011518
v -0.006309 0.000000 0.011789
v -0.006309 0.001150 0.011789
v -0.005903 0.000000 0.011998
v -0.005903 0.001150 0.011998
v -0.005475 0.000000 0.012152
v -0.005475 0.001150 0.012152
v -0.005031 0.000000 0.012257
v -0.005031 0.001150 0.012257
v -0.004116 0.000000 0.012345
v -0.004116 0.001150 0.012345
v -0.003197 0.000000 0.012317
v -0.003197 0.001150 0.012317
v -0.002909 0.000000 0.012307
v -0.002909 0.001150 0.012307
v -0.002638 0.000000 0.012355
v -0.002638 0.001150 0.012355
v -0.002133 0.000000 0.012576
v -0.002133 0.001150 0.012576
v -0.001167 0.000000 0.013157
v -0.001167 0.001150 0.013157
v -0.000718 0.000000 0.013327
v -0.000718 0.001150 0.013327
v -0.000242 0.000000 0.013380
v -0.000242 0.001150 0.013380
v 0.000725 0.000000 0.013364
v 0.000725 0.001150 0.013364
v 0.001177 0.000000 0.014247
v 0.001177 0.001150 0.014247
v 0.001459 0.000000 0.014644
v 0.001459 0.001150 0.014644
v 0.001642 0.000000 0.014796
v 0.001642 0.001150 0.014796
v 0.001863 0.000000 0.014905
v 0.001863 0.001150 0.014905
v 0.006132 0.000000 0.013491
v 0.006132 0.001150 0.013491
v 0.010379 0.000000 0.012007
v 0.010379 0.001150 0.012007
v 0.010641 0.000000 0.011909
v 0.010641 0.001150 0.011909
v 0.010871 0.000000 0.011770
v 0.010871 0.001150 0.011770
v 0.011255 0.000000 0.011398
v 0.011255 0.001150 0.011398
v 0.011857 0.000000 0.010489
v 0.011857 0.001150 0.010489
v 0.013058 0.000000 0.008452
v 0.013058 0.001150 0.008452
v 0.014215 0.000000 0.006389
v 0.014215 0.001150 0.006389
v 0.014396 0.000000 0.005940
v 0.014396 0.001150 0.005940
v 0.014493 0.000000 0.005468
v 0.014493 0.001150 0.005468
v 0.014571 0.000000 0.004503
v 0.014571 0.001150 0.004503
v 0.014836 0.000000 0.000523
v 0.014836 0.001150 0.000523
v 0.017702 0.000000 -0.001851
v 0.017702 0.001150 -0.001851
vn 0.9997 -0.0000 -0.0252
vn 0.9971 -0.0000 -0.0755
vn 0.9921 -0.0000 -0.1255
vn 0.9846 -0.0000 -0.1751
vn 0.9746 -0.0000 -0.2240
vn 0.9623 -0.0000 -0.2721
vn 0.9477 -0.0000 -0.3193
vn 0.9308 -0.0000 -0.3654
vn 0.9119 -0.0000 -0.4105
vn 0.8908 -0.0000 -0.4543
vn 0.8678 -0.0000 -0.4969
vn 0.8429 -0.0000 -0.5381
vn 0.8161 -0.0000 -0.5779
vn 0.7876 -0.0000 -0.6162
vn 0.7572 -0.0000 -0.6531
vn 0.7252 -0.0000 -0.6885
vn 0.6916 -0.0000 -0.7223
vn 0.6563 -0.0000 -0.7545
vn 0.6195 -0.0000 -0.7850
vn 0.5812 -0.0000 -0.8138
vn 0.5413 -0.0000 -0.8408
vn 0.5001 -0.0000 -0.8660
vn 0.4574 -0.0000 -0.8893
vn 0.4134 -0.0000 -0.9105
vn 0.3682 -0.0000 -0.9298
vn 0.3218 -0.0000 -0.9468
vn 0.2743 -0.0000 -0.9617
vn 0.2258 -0.0000 -0.9742
vn 0.1765 -0.0000 -0.9843
vn 0.1266 -0.0000 -0.9920
vn 0.0761 -0.0000 -0.9971
vn 0.0254 -0.0000 -0.9997
vn -0.0254 -0.0000 -0.9997
vn -0.0761 -0.0000 -0.9971
vn -0.1266 -0.0000 -0.9920
vn -0.1765 -0.0000 -0.9843
vn -0.2258 -0.0000 -0.9742
vn -0.2742 -0.0000 -0.9617
vn -0.3217 -0.0000 -0.9468
vn -0.3681 -0.0000 -0.9298
vn -0.4134 -0.0000 -0.9106
vn -0.4573 -0.0000 -0.8893
vn -0.5000 -0.0000 -0.8660
vn -0.5413 -0.0000 -0.8409
vn -0.5811 -0.0000 -0.8138
vn -0.6194 -0.0000 -0.7851
vn -0.6562 -0.0000 -0.7546
vn -0.6915 -0.0000 -0.7224
vn -0.7251 -0.0000 -0.6886
vn -0.7571 -0.0000 -0.6533
vn -0.7874 -0.0000 -0.6164
vn -0.8160 -0.0000 -0.5780
vn -0.8428 -0.0000 -0.5382
vn -0.8677 -0.0000 -0.4970
vn -0.8908 -0.0000 -0.4545
vn -0.9118 -0.0000 -0.4106
vn -0.9308 -0.0000 -0.3656
vn -0.9476 -0.0000 -0.3194
vn -0.9622 -0.0000 -0.2722
vn -0.9746 -0.0000 -0.2241
vn -0.9845 -0.0000 -0.1752
vn -0.9921 -0.0000 -0.1256
vn -0.9971 -0.0000 -0.0755
vn -0.9997 -0.0000 -0.0252
vn -0.9997 -0.0000 0.0252
vn -0.9971 -0.0000 0.0755
vn -0.9921 -0.0000 0.1256
vn -0.9845 -0.0000 0.1752
vn -0.9746 -0.0000 0.2241
vn -0.9622 -0.0000 0.2722
vn -0.9476 -0.0000 0.3194
vn -0.9308 -0.0000 0.3656
vn -0.9118 -0.0000 0.4106
vn -0.8908 -0.0000 0.4545
vn -0.8677 -0.0000 0.4970
vn -0.8428 -0.0000 0.5382
vn -0.8160 -0.0000 0.5780
vn -0.7874 -0.0000 0.6164
vn -0.7571 -0.0000 0.6533
vn -0.7251 -0.0000 0.6886
vn -0.6915 -0.0000 0.7224
vn -0.6562 -0.0000 0.7546
vn -0.6194 -0.0000 0.7851
vn -0.5811 -0.0000 0.8138
vn -0.5413 -0.0000 0.8409
vn -0.5000 -0.0000 0.8660
vn -0.4573 -0.0000 0.8893
vn -0.4134 -0.0000 0.9106
vn -0.3681 -0.0000 0.9298
vn -0.3217 -0.0000 0.9468
vn -0.2742 -0.0000 0.9617
vn -0.2258 -0.0000 0.9742
vn -0.1765 -0.0000 0.9843
vn -0.1266 -0.0000 0.9920
vn -0.0761 -0.0000 0.9971
vn -0.0254 -0.0000 0.9997
vn 0.0254 -0.0000 0.9997
vn 0.0761 -0.0000 0.9971
vn 0.1266 -0.0000 0.9920
vn 0.1765 -0.0000 0.9843
vn 0.2258 -0.0000 0.9742
vn 0.2743 -0.0000 0.9617
vn 0.3218 -0.0000 0.9468
vn 0.3682 -0.0000 0.9298
vn 0.4134 -0.0000 0.9105
vn 0.4574 -0.0000 0.8893
vn 0.5001 -0.0000 0.8660
vn 0.5413 -0.0000 0.8408
vn 0.5812 -0.0000 0.8138
vn 0.6195 -0.0000 0.7850
vn 0.6563 -0.0000 0.7545
vn 0.6916 -0.0000 0.7223
vn 0.7252 -0.0000 0.6885
vn 0.7572 -0.0000 0.6531
vn 0.7876 -0.0000 0.6162
vn 0.8161 -0.0000 0.5779
vn 0.8429 -0.0000 0.5381
vn 0.8678 -0.0000 0.4969
vn 0.8908 -0.0000 0.4543
vn 0.9119 -0.0000 0.4105
vn 0.9308 -0.0000 0.3654
vn 0.9477 -0.0000 0.3193
vn 0.9623 -0.0000 0.2721
vn 0.9746 -0.0000 0.2240
vn 0.9846 -0.0000 0.1751
vn 0.9921 -0.0000 0.1255
vn 0.9971 -0.0000 0.0755
vn 0.9997 -0.0000 0.0252
vn -0.9784 -0.0000 0.2069
vn -0.9927 -0.0000 0.1204
vn -0.9994 -0.0000 0.0354
vn -0.9988 -0.0000 -0.0480
vn -0.9915 -0.0000 -0.1297
vn -0.9777 -0.0000 -0.2099
vn -0.9575 -0.0000 -0.2885
vn -0.9307 -0.0000 -0.3658
vn -0.8940 -0.0000 -0.4480
vn -0.8490 -0.0000 -0.5284
vn -0.7978 -0.0000 -0.6030
vn -0.7408 -0.0000 -0.6718
vn -0.6780 -0.0000 -0.7351
vn -0.6094 -0.0000 -0.7928
vn -0.5349 -0.0000 -0.8449
vn -0.4541 -0.0000 -0.8909
vn -0.3852 -0.0000 -0.9228
vn -0.3181 -0.0000 -0.9481
vn -0.2517 -0.0000 -0.9678
vn -0.1862 -0.0000 -0.9825
vn -0.1219 -0.0000 -0.9925
vn -0.0589 -0.0000 -0.9983
vn 0.0029 -0.0000 -1.0000
vn 0.0636 -0.0000 -0.9980
vn 0.1504 -0.0000 -0.9886
vn 0.2313 -0.0000 -0.9729
vn 0.3097 -0.0000 -0.9508
vn 0.3858 -0.0000 -0.9226
vn 0.4594 -0.0000 -0.8882
vn 0.5307 -0.0000 -0.8476
vn 0.5994 -0.0000 -0.8004
vn 0.6653 -0.0000 -0.7466
vn 0.7196 -0.0000 -0.6944
vn 0.7749 -0.0000 -0.6321
vn 0.8240 -0.0000 -0.5666
vn 0.8672 -0.0000 -0.4980
vn 0.9045 -0.0000 -0.4265
vn 0.9360 -0.0000 -0.3520
vn 0.9616 -0.0000 -0.2744
vn 0.9811 -0.0000 -0.1937
vn 0.9936 -0.0000 -0.1132
vn 0.9989 -0.0000 -0.0467
vn 0.9998 -0.0000 0.0206
vn 0.9961 -0.0000 0.0887
vn 0.9875 -0.0000 0.1576
vn 0.9738 -0.0000 0.2274
vn 0.9546 -0.0000 0.2979
vn 0.9294 -0.0000 0.3690
vn 0.9084 -0.0000 0.4180
vn 0.8838 -0.0000 0.4679
vn 0.8569 -0.0000 0.5155
vn 0.8279 -0.0000 0.5608
vn 0.7970 -0.0000 0.6039
vn 0.7643 -0.0000 0.6449
vn 0.7298 -0.0000 0.6837
vn 0.6935 -0.0000 0.7204
vn 0.6556 -0.0000 0.7551
vn 0.6159 -0.0000 0.7878
vn 0.5746 -0.0000 0.8184
vn 0.5315 -0.0000 0.8471
vn 0.4866 -0.0000 0.8736
vn 0.4399 -0.0000 0.8980
vn 0.3914 -0.0000 0.9202
vn 0.3410 -0.0000 0.9401
vn 0.2788 -0.0000 0.9604
vn 0.1970 -0.0000 0.9804
vn 0.1157 -0.0000 0.9933
vn 0.0351 -0.0000 0.9994
vn -0.0339 -0.0000 0.9994
vn -0.0914 -0.0000 0.9958
vn -0.1484 -0.0000 0.9889
vn -0.2048 -0.0000 0.9788
vn -0.2606 -0.0000 0.9655
vn -0.3158 -0.0000 0.9488
vn -0.3705 -0.0000 0.9288
vn -0.4245 -0.0000 0.9054
vn -0.6927 -0.0000 -0.7212
vn -0.7104 -0.0000 -0.7038
vn -0.5458 -0.0000 -0.8379
vn -0.3141 -0.0000 -0.9494
vn -0.0871 -0.0000 -0.9962
vn -0.0706 -0.0000 -0.9975
vn -0.1168 -0.0000 -0.9932
vn -0.1630 -0.0000 -0.9866
vn -0.2032 -0.0000 -0.9791
vn -0.2368 -0.0000 -0.9716
vn -0.3056 -0.0000 -0.9521
vn -0.3781 -0.0000 -0.9258
vn -0.4364 -0.0000 -0.8998
vn -0.5359 -0.0000 -0.8443
vn -0.6441 -0.0000 -0.7650
vn -0.7625 -0.0000 -0.6469
vn -0.8531 -0.0000 -0.5218
vn -0.9353 -0.0000 -0.3538
vn -0.9886 -0.0000 -0.1507
vn -0.9968 -0.0000 -0.0803
vn -0.9987 -0.0000 -0.0518
vn -0.9995 -0.0000 -0.0314
vn -0.9997 -0.0000 0.0236
vn -0.9834 -0.0000 0.1815
vn -0.9021 -0.0000 0.4315
vn -0.7815 -0.0000 0.6239
vn -0.6973 -0.0000 0.7168
vn -0.6461 -0.0000 0.7632
vn -0.9972 -0.0000 0.0750
vn -0.9861 -0.0000 0.1660
vn -0.9471 -0.0000 0.3210
vn -0.8066 -0.0000 0.5910
vn -0.6759 -0.0000 0.7370
vn -0.5687 -0.0000 0.8226
vn -0.4995 -0.0000 0.8663
vn -0.4927 -0.0000 0.8702
vn -0.6499 -0.0000 0.7600
vn -0.7724 -0.0000 0.6352
vn -0.7941 -0.0000 0.6078
vn -0.7161 -0.0000 0.6980
vn -0.5977 -0.0000 0.8018
vn -0.5818 -0.0000 0.8133
vn -0.4580 -0.0000 0.8890
vn -0.3382 -0.0000 0.9411
vn -0.2295 -0.0000 0.9733
vn -0.0965 -0.0000 0.9953
vn 0.0306 -0.0000 0.9995
vn 0.0362 -0.0000 0.9993
vn -0.1750 -0.0000 0.9846
vn -0.4004 -0.0000 0.9164
vn -0.5155 -0.0000 0.8569
vn -0.3545 -0.0000 0.9350
vn -0.1106 -0.0000 0.9939
vn 0.0170 -0.0000 0.9999
vn -0.8903 -0.0000 0.4554
vn -0.8139 -0.0000 0.5810
vn -0.6402 -0.0000 0.7682
vn -0.4419 -0.0000 0.8971
vn 0.3144 -0.0000 0.9493
vn 0.3299 -0.0000 0.9440
vn 0.3513 -0.0000 0.9363
vn 0.5177 -0.0000 0.8556
vn 0.6948 -0.0000 0.7192
vn 0.8339 -0.0000 0.5520
vn 0.8614 -0.0000 0.5080
vn 0.8723 -0.0000 0.4890
vn 0.9272 -0.0000 0.3745
vn 0.9795 -0.0000 0.2015
vn 0.9967 -0.0000 0.0807
vn 0.9978 -0.0000 0.0663
vn 0.6380 -0.0000 0.7701
vn 0.6277 -0.0000 0.7784
vn -0.7717 -0.0000 0.6359
vn -0.0000 1.0000 -0.0000
vn -0.0000 1.0000 -0.0003
s 0
f 1//1 2//1 3//1 4//1
f 2//2 5//2 6//2 3//2
f 5//3 7//3 8//3 6//3
f 7//4 9//4 10//4 8//4
f 9//5 11//5 12//5 10//5
f 11//6 13//6 14//6 12//6
f 13//7 15//7 16//7 14//7
f 15//8 17//8 18//8 16//8
f 17//9 19//9 20//9 18//9
f 19//10 21//10 22//10 20//10
f 21//11 23//11 24//11 22//11
f 23//12 25//12 26//12 24//12
f 25//13 27//13 28//13 26//13
f 27//14 29//14 30//14 28//14
f 29//15 31//15 32//15 30//15
f 31//16 33//16 34//16 32//16
f 33//17 35//17 36//17 34//17
f 35//18 37//18 38//18 36//18
f 37//19 39//19 40//19 38//19
f 39//20 41//20 42//20 40//20
f 41//21 43//21 44//21 42//21
f 43//22 45//22 46//22 44//22
f 45//23 47//23 48//23 46//23
f 47//24 49//24 50//24 48//24
f 49//25 51//25 52//25 50//25
f 51//26 53//26 54//26 52//26
f 53//27 55//27 56//27 54//27
f 55//28 57//28 58//28 56//28
f 57//29 59//29 60//29 58//29
f 59//30 61//30 62//30 60//30
f 61//31 63//31 64//31 62//31
f 63//32 65//32 66//32 64//32
f 65//33 67//33 68//33 66//33
f 67//34 69//34 70//34 68//34
f 69//35 71//35 72//35 70//35
f 71//36 73//36 74//36 72//36
f 73//37 75//37 76//37 74//37
f 75//38 77//38 78//38 76//38
f 77//39 79//39 80//39 78//39
f 79//40 81//40 82//40 80//40
f 81//41 83//41 84//41 82//41
f 83//42 85//42 86//42 84//42
f 85//43 87//43 88//43 86//43
f 87//44 89//44 90//44 88//44
f 89//45 91//45 92//45 90//45
f 91//46 93//46 94//46 92//46
f 93//47 95//47 96//47 94//47
f 95//48 97//48 98//48 96//48
f 97//49 99//49 100//49 98//49
f 99//50 101//50 102//50 100//50
f 101//51 103//51 104//51 102//51
f 103//52 105//52 106//52 104//52
f 105//53 107//53 108//53 106//53
f 107//54 109//54 110//54 108//54
f 109//55 111//55 112//55 110//55
f 111//56 113//56 114//56 112//56
f 113//57 115//57 116//57 114//57
f 115//58 117//58 118//58 116//58
f 117//59 119//59 120//59 118//59
f 119//60 121//60 122//60 120//60
f 121//61 123//61 124//61 122//61
f 123//62 125//62 126//62 124//62
f 125//63 127//63 128//63 126//63
f 127//64 129//64 130//64 128//64
f 129//65 131//65 132//65 130//65
f 131//66 133//66 134//66 132//66
f 133//67 135//67 136//67 134//67
f 135//68 137//68 138//68 136//68
f 137//69 139//69 140//69 138//69
f 139//70 141//70 142//70 140//70
f 141//71 143//71 144//71 142//71
f 143//72 145//72 146//72 144//72
f 145//73 147//73 148//73 146//73
f 147//74 149//74 150//74 148//74
f 149//75 151//75 152//75 150//75
f 151//76 153//76 154//76 152//76
f 153//77 155//77 156//77 154//77
f 155//78 157//78 158//78 156//78
f 157//79 159//79 160//79 158//79
f 159//80 161//80 162//80 160//80
f 161//81 163//81 164//81 162//81
f 163//82 165//82 166//82 164//82
f 165//83 167//83 168//83 166//83
f 167//84 169//84 170//84 168//84
f 169//85 171//85 172//85 170//85
f 171//86 173//86 174//86 172//86
f 173//87 175//87 176//87 174//87
f 175//88 177//88 178//88 176//88
f 177//89 179//89 180//89 178//89
f 179//90 181//90 182//90 180//90
f 181//91 183//91 184//91 182//91
f 183//92 185//92 186//92 184//92
f 185//93 187//93 188//93 186//93
f 187//94 189//94 190//94 188//94
f 189//95 191//95 192//95 190//95
f 191//96 193//96 194//96 192//96
f 193//97 195//97 196//97 194//97
f 195//98 197//98 198//98 196//98
f 197//99 199//99 200//99 198//99
f 199//100 201//100 202//100 200//100
f 201//101 203//101 204//101 202//101
f 203//102 205//102 206//102 204//102
f 205//103 207//103 208//103 206//103
f 207//104 209//104 210//104 208//104
f 209//105 211//105 212//105 210//105
f 211//106 213//106 214//106 212//106
f 213//107 215//107 216//107 214//107
f 215//108 217//108 218//108 216//108
f 217//109 219//109 220//109 218//109
f 219//110 221//110 222//110 220//110
f 221//111 223//111 224//111 222//111
f 223//112 225//112 226//112 224//112
f 225//113 227//113 228//113 226//113
f 227//114 229//114 230//114 228//114
f 229//115 231//115 232//115 230//115
f 231//116 233//116 234//116 232//116
f 233//117 235//117 236//117 234//117
f 235//118 237//118 238//118 236//118
f 237//119 239//119 240//119 238//119
f 239//120 241//120 242//120 240//120
f 241//121 243//121 244//121 242//121
f 243//122 245//122 246//122 244//122
f 245//123 247//123 248//123 246//123
f 247//124 249//124 250//124 248//124
f 249//125 251//125 252//125 250//125
f 251//126 253//126 254//126 252//126
f 253//127 255//127 256//127 254//127
f 255//128 1//128 4//128 256//128
f 257//129 259//129 260//129 258//129
f 259//130 261//130 262//130 260//130
f 261//131 263//131 264//131 262//131
f 263//132 265//132 266//132 264//132
f 265//133 267//133 268//133 266//133
f 267//134 269//134 270//134 268//134
f 269//135 271//135 272//135 270//135
f 271//136 273//136 274//136 272//136
f 273//137 275//137 276//137 274//137
f 275//138 277//138 278//138 276//138
f 277//139 279//139 280//139 278//139
f 279//140 281//140 282//140 280//140
f 281//141 283//141 284//141 282//141
f 283//142 285//142 286//142 284//142
f 285//143 287//143 288//143 286//143
f 287//144 289//144 290//144 288//144
f 289//145 291//145 292//145 290//145
f 291//146 293//146 294//146 292//146
f 293//147 295//147 296//147 294//147
f 295//148 297//148 298//148 296//148
f 297//149 299//149 300//149 298//149
f 299//150 301//150 302//150 300//150
f 301//151 303//151 304//151 302//151
f 303//152 305//152 306//152 304//152
f 305//153 307//153 308//153 306//153
f 307//154 309//154 310//154 308//154
f 309//155 311//155 312//155 310//155
f 311//156 313//156 314//156 312//156
f 313//157 315//157 316//157 314//157
f 315//158 317//158 318//158 316//158
f 317//159 319//159 320//159 318//159
f 319//160 321//160 322//160 320//160
f 321//161 323//161 324//161 322//161
f 323//162 325//162 326//162 324//162
f 325//163 327//163 328//163 326//163
f 327//164 329//164 330//164 328//164
f 329//165 331//165 332//165 330//165
f 331//166 333//166 334//166 332//166
f 333//167 335//167 336//167 334//167
f 335//168 337//168 338//168 336//168
f 337//169 339//169 340//169 338//169
f 339//170 341//170 342//170 340//170
f 341//171 343//171 344//171 342//171
f 343//172 345//172 346//172 344//172
f 345//173 347//173 348//173 346//173
f 347//174 349//174 350//174 348//174
f 349//175 351//175 352//175 350//175
f 351//176 353//176 354//176 352//176
f 353//177 355//177 356//177 354//177
f 355//178 357//178 358//178 356//178
f 357//179 359//179 360//179 358//179
f 359//180 361//180 362//180 360//180
f 361//181 363//181 364//181 362//181
f 363//182 365//182 366//182 364//182
f 365//183 367//183 368//183 366//183
f 367//184 369//184 370//184 368//184
f 369//185 371//185 372//185 370//185
f 371//186 373//186 374//186 372//186
f 373//187 375//187 376//187 374//187
f 375//188 377//188 378//188 376//188
f 377//189 379//189 380//189 378//189
f 379//190 381//190 382//190 380//190
f 381//191 383//191 384//191 382//191
f 383//192 385//192 386//192 384//192
f 385//193 387//193 388//193 386//193
f 387//194 389//194 390//194 388//194
f 389//195 391//195 392//195 390//195
f 391//196 393//196 394//196 392//196
f 393//197 395//197 396//197 394//197
f 395//198 397//198 398//198 396//198
f 397//199 399//199 400//199 398//199
f 399//200 401//200 402//200 400//200
f 401//201 403//201 404//201 402//201
f 403//202 405//202 406//202 404//202
f 405//203 407//203 408//203 406//203
f 407//204 409//204 410//204 408//204
f 409//205 411//205 412//205 410//205
f 411//206 413//206 414//206 412//206
f 413//207 415//207 416//207 414//207
f 415//208 417//208 418//208 416//208
f 417//209 419//209 420//209 418//209
f 419//210 421//210 422//210 420//210
f 421//211 423//211 424//211 422//211
f 423//212 425//212 426//212 424//212
f 425//213 427//213 428//213 426//213
f 427//214 429//214 430//214 428//214
f 429//215 431//215 432//215 430//215
f 431//216 433//216 434//216 432//216
f 433//217 435//217 436//217 434//217
f 435//218 437//218 438//218 436//218
f 437//219 439//219 440//219 438//219
f 439//220 441//220 442//220 440//220
f 441//221 443//221 444//221 442//221
f 443//222 445//222 446//222 444//222
f 445//223 447//223 448//223 446//223
f 447//224 449//224 450//224 448//224
f 449//225 451//225 452//225 450//225
f 451//226 453//226 454//226 452//226
f 453//227 455//227 456//227 454//227
f 455//228 457//228 458//228 456//228
f 457//229 459//229 460//229 458//229
f 459//230 461//230 462//230 460//230
f 461//231 463//231 464//231 462//231
f 463//232 465//232 466//232 464//232
f 465//233 467//233 468//233 466//233
f 467//234 469//234 470//234 468//234
f 469//235 471//235 472//235 470//235
f 471//236 473//236 474//236 472//236
f 473//237 475//237 476//237 474//237
f 475//238 477//238 478//238 476//238
f 477//239 479//239 480//239 478//239
f 479//240 481//240 482//240 480//240
f 481//241 483//241 484//241 482//241
f 483//242 485//242 486//242 484//242
f 485//243 487//243 488//243 486//243
f 487//244 489//244 490//244 488//244
f 489//245 491//245 492//245 490//245
f 491//246 493//246 494//246 492//246
f 493//247 495//247 496//247 494//247
f 495//248 497//248 498//248 496//248
f 497//249 499//249 500//249 498//249
f 499//250 501//250 502//250 500//250
f 501//251 503//251 504//251 502//251
f 503//252 505//252 506//252 504//252
f 505//253 507//253 508//253 506//253
f 507//254 509//254 510//254 508//254
f 509//255 511//255 512//255 510//255
f 511//256 513//256 514//256 512//256
f 513//257 515//257 516//257 514//257
f 515//258 517//258 518//258 516//258
f 517//259 519//259 520//259 518//259
f 519//260 521//260 522//260 520//260
f 521//261 523//261 524//261 522//261
f 523//262 525//262 526//262 524//262
f 525//263 527//263 528//263 526//263
f 527//264 529//264 530//264 528//264
f 529//265 531//265 532//265 530//265
f 531//266 533//266 534//266 532//266
f 533//267 535//267 536//267 534//267
f 535//268 537//268 538//268 536//268
f 537//269 539//269 540//269 538//269
f 539//270 541//270 542//270 540//270
f 541//271 543//271 544//271 542//271
f 543//272 545//272 546//272 544//272
f 545//273 547//273 548//273 546//273
f 547//274 549//274 550//274 548//274
f 549//275 551//275 552//275 550//275
f 551//276 257//276 258//276 552//276
f 257//277 1//277 4//277 258//277
f 546//278 548//278 550//278
f 544//278 546//278 550//278
f 542//278 544//278 550//278
f 540//278 542//278 550//278
f 538//278 540//278 550//278
f 536//278 538//278 550//278
f 534//278 536//278 550//278
f 532//278 534//278 550//278
f 530//278 532//278 550//278
f 528//278 530//278 550//278
f 526//278 528//278 550//278
f 524//278 526//278 550//278
f 522//278 524//278 550//278
f 520//278 522//278 550//278
f 518//278 520//278 550//278
f 516//278 518//278 550//278
f 514//278 516//278 550//278
f 514//278 550//278 552//278
f 512//278 514//278 552//278
f 512//278 552//278 258//278
f 510//278 512//278 258//278
f 508//278 510//278 258//278
f 506//278 508//278 258//278
f 504//278 506//278 258//278
f 502//278 504//278 258//278
f 500//278 502//278 258//278
f 498//278 500//278 258//278
f 496//278 498//278 258//278
f 494//278 496//278 258//278
f 492//278 494//278 258//278
f 490//278 492//278 258//278
f 488//278 490//278 258//278
f 486//278 488//278 258//278
f 484//278 486//278 258//278
f 482//278 484//278 258//278
f 480//278 482//278 258//278
f 478//278 480//278 258//278
f 476//278 478//278 258//278
f 474//278 476//278 258//278
f 472//278 474//278 258//278
f 470//278 472//278 258//278
f 468//278 470//278 258//278
f 466//278 468//278 258//278
f 464//278 466//278 258//278
f 462//278 464//278 258//278
f 460//278 462//278 258//278
f 458//278 460//278 258//278
f 456//278 458//278 258//278
f 454//278 456//278 258//278
f 452//278 454//278 258//278
f 450//278 452//278 258//278
f 448//278 450//278 258//278
f 446//278 448//278 258//278
f 444//278 446//278 258//278
f 442//278 444//278 258//278
f 440//278 442//278 258//278
f 438//278 440//278 258//278
f 436//278 438//278 258//278
f 434//278 436//278 258//278
f 432//278 434//278 258//278
f 430//278 432//278 258//278
f 428//278 430//278 258//278
f 426//278 428//278 258//278
f 424//278 426//278 258//278
f 422//278 424//278 258//278
f 420//278 422//278 258//278
f 418//278 420//278 258//278
f 416//278 418//278 258//278
f 414//278 416//278 258//278
f 412//278 414//278 258//278
f 410//278 412//278 258//278
f 410//278 258//278 4//278
f 4//278 258//278 260//278
f 4//278 260//278 262//278
f 4//278 262//278 264//278
f 4//278 264//278 266//278
f 4//278 266//278 268//278
f 4//278 268//278 270//278
f 4//278 270//278 272//278
f 4//278 272//278 274//278
f 4//278 274//278 276//278
f 256//278 4//278 276//278
f 256//278 276//278 278//278
f 254//278 256//278 278//278
f 252//278 254//278 278//278
f 252//278 278//278 280//278
f 250//278 252//278 280//278
f 250//278 280//278 282//278
f 248//278 250//278 282//278
f 246//278 248//278 282//278
f 246//278 282//278 284//278
f 244//278 246//278 284//278
f 242//278 244//278 284//278
f 242//278 284//278 286//278
f 240//278 242//278 286//278
f 238//278 240//278 286//278
f 238//278 286//278 288//278
f 236//278 238//278 288//278
f 234//278 236//278 288//278
f 234//278 288//278 290//278
f 232//278 234//278 290//278
f 232//278 290//278 292//278
f 230//278 232//278 292//278
f 228//278 230//278 292//278
f 228//278 292//278 294//278
f 226//278 228//278 294//278
f 226//278 294//278 296//278
f 224//278 226//278 296//278
f 222//278 224//278 296//278
f 222//278 296//278 298//278
f 220//278 222//278 298//278
f 220//278 298//278 300//278
f 218//278 220//278 300//278
f 218//278 300//278 302//278
f 216//278 218//278 302//278
f 214//278 216//278 302//278
f 214//278 302//278 304//278
f 212//278 214//278 304//278
f 212//278 304//278 306//278
f 210//278 212//278 306//278
f 208//278 210//278 306//278
f 208//278 306//278 308//278
f 206//278 208//278 308//278
f 206//278 308//278 310//278
f 204//278 206//278 310//278
f 202//278 204//278 310//278
f 202//278 310//278 312//278
f 200//278 202//278 312//278
f 198//278 200//278 312//278
f 198//278 312//278 314//278
f 196//278 198//278 314//278
f 196//278 314//278 316//278
f 194//278 196//278 316//278
f 192//278 194//278 316//278
f 192//278 316//278 318//278
f 190//278 192//278 318//278
f 190//278 318//278 320//278
f 188//278 190//278 320//278
f 186//278 188//278 320//278
f 186//278 320//278 322//278
f 184//278 186//278 322//278
f 182//278 184//278 322//278
f 182//278 322//278 324//278
f 180//278 182//278 324//278
f 180//278 324//278 326//278
f 178//278 180//278 326//278
f 176//278 178//278 326//278
f 176//278 326//278 328//278
f 174//278 176//278 328//278
f 172//278 174//278 328//278
f 172//278 328//278 330//278
f 170//278 172//278 330//278
f 170//278 330//278 332//278
f 168//278 170//278 332//278
f 166//278 168//278 332//278
f 166//278 332//278 334//278
f 164//278 166//278 334//278
f 162//278 164//278 334//278
f 162//278 334//278 336//278
f 160//278 162//278 336//278
f 160//278 336//278 338//278
f 158//278 160//278 338//278
f 156//278 158//278 338//278
f 156//278 338//278 340//278
f 154//278 156//278 340//278
f 152//278 154//278 340//278
f 152//278 340//278 342//278
f 150//278 152//278 342//278
f 150//278 342//278 344//278
f 148//278 150//278 344//278
f 148//278 344//278 346//278
f 146//278 148//278 346//278
f 144//278 146//278 346//278
f 144//278 346//278 348//278
f 142//278 144//278 348//278
f 142//278 348//278 350//278
f 140//278 142//278 350//278
f 138//278 140//278 350//278
f 138//278 350//278 352//278
f 136//278 138//278 352//278
f 136//278 352//278 354//278
f 134//278 136//278 354//278
f 134//278 354//278 356//278
f 132//278 134//278 356//278
f 132//278 356//278 358//278
f 130//278 132//278 358//278
f 130//278 358//278 360//278
f 128//278 130//278 360//278
f 128//278 360//278 362//278
f 126//278 128//278 362//278
f 126//279 362//279 364//279
f 124//278 126//278 364//278
f 122//278 124//278 364//278
f 122//278 364//278 366//278
f 120//278 122//278 366//278
f 120//278 366//278 368//278
f 118//278 120//278 368//278
f 118//278 368//278 370//278
f 116//278 118//278 370//278
f 116//278 370//278 372//278
f 114//278 116//278 372//278
f 114//278 372//278 374//278
f 112//278 114//278 374//278
f 112//278 374//278 376//278
f 110//278 112//278 376//278
f 110//278 376//278 378//278
f 108//278 110//278 378//278
f 108//278 378//278 380//278
f 106//278 108//278 380//278
f 106//278 380//278 382//278
f 104//278 106//278 382//278
f 104//278 382//278 384//278
f 102//278 104//278 384//278
f 102//278 384//278 386//278
f 100//278 102//278 386//278
f 98//278 100//278 386//278
f 98//278 386//278 388//278
f 96//278 98//278 388//278
f 96//278 388//278 390//278
f 94//278 96//278 390//278
f 92//278 94//278 390//278
f 92//278 390//278 392//278
f 90//278 92//278 392//278
f 88//278 90//278 392//278
f 88//278 392//278 394//278
f 86//278 88//278 394//278
f 86//278 394//278 396//278
f 84//278 86//278 396//278
f 84//278 396//278 398//278
f 82//278 84//278 398//278
f 82//278 398//278 400//278
f 80//278 82//278 400//278
f 78//278 80//278 400//278
f 78//278 400//278 402//278
f 76//278 78//278 402//278
f 76//278 402//278 404//278
f 74//278 76//278 404//278
f 74//278 404//278 406//278
f 72//278 74//278 406//278
f 72//278 406//278 408//278
f 70//278 72//278 408//278
f 70//278 408//278 410//278
f 68//278 70//278 410//278
f 66//278 68//278 410//278
f 64//278 66//278 410//278
f 62//278 64//278 410//278
f 60//278 62//278 410//278
f 58//278 60//278 410//278
f 56//278 58//278 410//278
f 56//278 410//278 4//278
f 54//278 56//278 4//278
f 52//278 54//278 4//278
f 50//278 52//278 4//278
f 48//278 50//278 4//278
f 46//278 48//278 4//278
f 44//278 46//278 4//278
f 42//278 44//278 4//278
f 40//278 42//278 4//278
f 38//278 40//278 4//278
f 36//278 38//278 4//278
f 34//278 36//278 4//278
f 32//278 34//278 4//278
f 30//278 32//278 4//278
f 28//278 30//278 4//278
f 26//278 28//278 4//278
f 24//278 26//278 4//278
f 22//278 24//278 4//278
f 20//278 22//278 4//278
f 18//278 20//278 4//278
f 16//278 18//278 4//278
f 14//278 16//278 4//278
f 12//278 14//278 4//278
f 10//278 12//278 4//278
f 8//278 10//278 4//278
f 6//278 8//278 4//278
f 4//278 3//278 6//278
