# Blender 4.2.2 LTS
# www.blender.org
mtllib Rock.mtl
o Rock
v 0.023007 0.000000 -0.009615
v 0.022506 0.000000 -0.010660
v 0.022506 0.002300 -0.010660
v 0.023007 0.002300 -0.009615
v 0.021955 0.000000 -0.011680
v 0.021955 0.002300 -0.011680
v 0.021355 0.000000 -0.012671
v 0.021355 0.002300 -0.012671
v 0.020709 0.000000 -0.013632
v 0.020709 0.002300 -0.013632
v 0.020019 0.000000 -0.014562
v 0.020019 0.002300 -0.014562
v 0.019285 0.000000 -0.015458
v 0.019285 0.002300 -0.015458
v 0.018511 0.000000 -0.016320
v 0.018511 0.002300 -0.016320
v 0.017698 0.000000 -0.017144
v 0.017698 0.002300 -0.017144
v 0.016847 0.000000 -0.017931
v 0.016847 0.002300 -0.017931
v 0.015961 0.000000 -0.018677
v 0.015961 0.002300 -0.018677
v 0.015041 0.000000 -0.019382
v 0.015041 0.002300 -0.019382
v 0.014090 0.000000 -0.020043
v 0.014090 0.002300 -0.020043
v 0.013109 0.000000 -0.020659
v 0.013109 0.002300 -0.020659
v 0.012100 0.000000 -0.021228
v 0.012100 0.002300 -0.021228
v 0.011065 0.000000 -0.021749
v 0.011065 0.002300 -0.021749
v 0.010006 0.000000 -0.022219
v 0.010006 0.002300 -0.022219
v 0.008875 0.000000 -0.022666
v 0.008875 0.002300 -0.022666
v 0.007723 0.000000 -0.023047
v 0.007723 0.002300 -0.023047
v 0.006554 0.000000 -0.023366
v 0.006554 0.002300 -0.023366
v 0.005369 0.000000 -0.023625
v 0.005369 0.002300 -0.023625
v 0.004173 0.000000 -0.023830
v 0.004173 0.002300 -0.023830
v 0.002968 0.000000 -0.023984
v 0.002968 0.002300 -0.023984
v 0.000546 0.000000 -0.024152
v 0.000546 0.002300 -0.024152
v 0.000483 0.000000 -0.024152
v 0.000483 0.002300 -0.024152
v -0.000763 0.000000 -0.024094
v -0.000763 0.002300 -0.024094
v -0.002006 0.000000 -0.023986
v -0.002006 0.002300 -0.023986
v -0.003243 0.000000 -0.023824
v -0.003243 0.002300 -0.023824
v -0.004471 0.000000 -0.023607
v -0.004471 0.002300 -0.023607
v -0.005686 0.000000 -0.023331
v -0.005686 0.002300 -0.023331
v -0.006886 0.000000 -0.022994
v -0.006886 0.002300 -0.022994
v -0.008066 0.000000 -0.022594
v -0.008066 0.002300 -0.022594
v -0.009224 0.000000 -0.022127
v -0.009224 0.002300 -0.022127
v -0.010239 0.000000 -0.021668
v -0.010239 0.002300 -0.021668
v -0.011231 0.000000 -0.021163
v -0.011231 0.002300 -0.021163
v -0.012198 0.000000 -0.020612
v -0.012198 0.002300 -0.020612
v -0.013140 0.000000 -0.020017
v -0.013140 0.002300 -0.020017
v -0.014053 0.000000 -0.019381
v -0.014053 0.002300 -0.019381
v -0.014937 0.000000 -0.018704
v -0.014937 0.002300 -0.018704
v -0.015790 0.000000 -0.017988
v -0.015790 0.002300 -0.017988
v -0.016611 0.000000 -0.017235
v -0.016611 0.002300 -0.017235
v -0.017397 0.000000 -0.016447
v -0.017397 0.002300 -0.016447
v -0.018147 0.000000 -0.015624
v -0.018147 0.002300 -0.015624
v -0.018860 0.000000 -0.014768
v -0.018860 0.002300 -0.014768
v -0.019534 0.000000 -0.013882
v -0.019534 0.002300 -0.013882
v -0.020167 0.000000 -0.012966
v -0.020167 0.002300 -0.012966
v -0.020757 0.000000 -0.012022
v -0.020757 0.002300 -0.012022
v -0.021304 0.000000 -0.011052
v -0.021304 0.002300 -0.011052
v -0.021805 0.000000 -0.010057
v -0.021805 0.002300 -0.010057
v -0.022271 0.000000 -0.009048
v -0.022271 0.002300 -0.009048
v -0.022692 0.000000 -0.008018
v -0.022692 0.002300 -0.008018
v -0.023067 0.000000 -0.006970
v -0.023067 0.002300 -0.006970
v -0.023392 0.000000 -0.005907
v -0.023392 0.002300 -0.005907
v -0.023665 0.000000 -0.004830
v -0.023665 0.002300 -0.004830
v -0.023884 0.000000 -0.003742
v -0.023884 0.002300 -0.003742
v -0.024047 0.000000 -0.002645
v -0.024047 0.002300 -0.002645
v -0.024152 0.000000 -0.001541
v -0.024152 0.002300 -0.001541
v -0.024227 0.000000 0.000624
v -0.024227 0.002300 0.000624
v -0.024152 0.000000 0.002789
v -0.024152 0.002300 0.002789
v -0.024040 0.000000 0.003913
v -0.024040 0.002300 0.003913
v -0.023873 0.000000 0.005030
v -0.023873 0.002300 0.005030
v -0.023650 0.000000 0.006137
v -0.023650 0.002300 0.006137
v -0.023374 0.000000 0.007232
v -0.023374 0.002300 0.007232
v -0.023046 0.000000 0.008313
v -0.023046 0.002300 0.008313
v -0.022667 0.000000 0.009378
v -0.022667 0.002300 0.009378
v -0.022239 0.000000 0.010424
v -0.022239 0.002300 0.010424
v -0.021763 0.000000 0.011450
v -0.021763 0.002300 0.011450
v -0.021240 0.000000 0.012454
v -0.021240 0.002300 0.012454
v -0.020671 0.000000 0.013434
v -0.020671 0.002300 0.013434
v -0.020059 0.000000 0.014386
v -0.020059 0.002300 0.014386
v -0.019403 0.000000 0.015310
v -0.019403 0.002300 0.015310
v -0.018707 0.000000 0.016203
v -0.018707 0.002300 0.016203
v -0.017970 0.000000 0.017064
v -0.017970 0.002300 0.017064
v -0.017195 0.000000 0.017889
v -0.017195 0.002300 0.017889
v -0.016383 0.000000 0.018677
v -0.016383 0.002300 0.018677
v -0.015593 0.000000 0.019388
v -0.015593 0.002300 0.019388
v -0.014773 0.000000 0.020062
v -0.014773 0.002300 0.020062
v -0.013925 0.000000 0.020699
v -0.013925 0.002300 0.020699
v -0.013050 0.000000 0.021297
v -0.013050 0.002300 0.021297
v -0.011226 0.000000 0.022379
v -0.011226 0.002300 0.022379
v -0.009317 0.000000 0.023301
v -0.009317 0.002300 0.023301
v -0.007337 0.000000 0.024060
v -0.007337 0.002300 0.024060
v -0.005299 0.000000 0.024649
v -0.005299 0.002300 0.024649
v -0.003219 0.000000 0.025065
v -0.003219 0.002300 0.025065
v -0.001110 0.000000 0.025302
v -0.001110 0.002300 0.025302
v 0.002099 0.000000 0.025302
v 0.002099 0.002300 0.025302
v 0.003959 0.000000 0.025098
v 0.003959 0.002300 0.025098
v 0.005799 0.000000 0.024757
v 0.005799 0.002300 0.024757
v 0.007608 0.000000 0.024283
v 0.007608 0.002300 0.024283
v 0.009377 0.000000 0.023676
v 0.009377 0.002300 0.023676
v 0.011095 0.000000 0.022940
v 0.011095 0.002300 0.022940
v 0.012753 0.000000 0.022076
v 0.012753 0.002300 0.022076
v 0.014341 0.000000 0.021088
v 0.014341 0.002300 0.021088
v 0.015848 0.000000 0.019977
v 0.015848 0.002300 0.019977
v 0.016718 0.000000 0.019258
v 0.016718 0.002300 0.019258
v 0.017553 0.000000 0.018500
v 0.017553 0.002300 0.018500
v 0.018351 0.000000 0.017704
v 0.018351 0.002300 0.017704
v 0.019113 0.000000 0.016872
v 0.019113 0.002300 0.016872
v 0.019835 0.000000 0.016006
v 0.019835 0.002300 0.016006
v 0.020518 0.000000 0.015108
v 0.020518 0.002300 0.015108
v 0.021159 0.000000 0.014180
v 0.021159 0.002300 0.014180
v 0.021758 0.000000 0.013224
v 0.021758 0.002300 0.013224
v 0.022312 0.000000 0.012243
v 0.022312 0.002300 0.012243
v 0.022822 0.000000 0.011237
v 0.022822 0.002300 0.011237
v 0.023285 0.000000 0.010209
v 0.023285 0.002300 0.010209
v 0.023701 0.000000 0.009161
v 0.023701 0.002300 0.009161
v 0.024067 0.000000 0.008095
v 0.024067 0.002300 0.008095
v 0.024383 0.000000 0.007012
v 0.024383 0.002300 0.007012
v 0.024647 0.000000 0.005916
v 0.024647 0.002300 0.005916
v 0.024859 0.000000 0.004807
v 0.024859 0.002300 0.004807
v 0.025106 0.000000 0.002980
v 0.025106 0.002300 0.002980
v 0.025214 0.000000 0.001139
v 0.025214 0.002300 0.001139
v 0.025185 0.000000 -0.000706
v 0.025185 0.002300 -0.000706
v 0.025018 0.000000 -0.002543
v 0.025018 0.002300 -0.002543
v 0.024716 0.000000 -0.004364
v 0.024716 0.002300 -0.004364
v 0.024279 0.000000 -0.006156
v 0.024279 0.002300 -0.006156
v 0.023709 0.000000 -0.007910
v 0.023709 0.002300 -0.007910
v 0.022323 0.000000 -0.007763
v 0.022323 0.002300 -0.007763
v 0.022845 0.000000 -0.006247
v 0.022845 0.002300 -0.006247
v 0.023266 0.000000 -0.004700
v 0.023266 0.002300 -0.004700
v 0.023583 0.000000 -0.003127
v 0.023583 0.002300 -0.003127
v 0.023795 0.000000 -0.001538
v 0.023795 0.002300 -0.001538
v 0.023898 0.000000 0.000062
v 0.023898 0.002300 0.000062
v 0.023889 0.000000 0.001664
v 0.023889 0.002300 0.001664
v 0.023765 0.000000 0.003262
v 0.023765 0.002300 0.003262
v 0.023525 0.000000 0.004848
v 0.023525 0.002300 0.004848
v 0.023313 0.000000 0.005899
v 0.023313 0.002300 0.005899
v 0.023050 0.000000 0.006938
v 0.023050 0.002300 0.006938
v 0.022739 0.000000 0.007964
v 0.022739 0.002300 0.007964
v 0.022381 0.000000 0.008974
v 0.022381 0.002300 0.008974
v 0.021976 0.000000 0.009967
v 0.021976 0.002300 0.009967
v 0.021525 0.000000 0.010939
v 0.021525 0.002300 0.010939
v 0.021031 0.000000 0.011890
v 0.021031 0.002300 0.011890
v 0.020494 0.000000 0.012818
v 0.020494 0.002300 0.012818
v 0.019915 0.000000 0.013720
v 0.019915 0.002300 0.013720
v 0.019295 0.000000 0.014595
v 0.019295 0.002300 0.014595
v 0.018637 0.000000 0.015441
v 0.018637 0.002300 0.015441
v 0.017940 0.000000 0.016255
v 0.017940 0.002300 0.016255
v 0.017206 0.000000 0.017036
v 0.017206 0.002300 0.017036
v 0.016437 0.000000 0.017782
v 0.016437 0.002300 0.017782
v 0.015633 0.000000 0.018491
v 0.015633 0.002300 0.018491
v 0.014796 0.000000 0.019160
v 0.014796 0.002300 0.019160
v 0.013223 0.000000 0.020274
v 0.013223 0.002300 0.020274
v 0.011563 0.000000 0.021252
v 0.011563 0.002300 0.021252
v 0.009828 0.000000 0.022090
v 0.009828 0.002300 0.022090
v 0.008030 0.000000 0.022781
v 0.008030 0.002300 0.022781
v 0.006180 0.000000 0.023322
v 0.006180 0.002300 0.023322
v 0.004293 0.000000 0.023707
v 0.004293 0.002300 0.023707
v 0.002380 0.000000 0.023932
v 0.002380 0.002300 0.023932
v 0.000454 0.000000 0.023990
v 0.000454 0.002300 0.023990
v -0.001499 0.000000 0.023904
v -0.001499 0.002300 0.023904
v -0.003438 0.000000 0.023647
v -0.003438 0.002300 0.023647
v -0.005347 0.000000 0.023225
v -0.005347 0.002300 0.023225
v -0.007215 0.000000 0.022644
v -0.007215 0.002300 0.022644
v -0.009028 0.000000 0.021909
v -0.009028 0.002300 0.021909
v -0.010773 0.000000 0.021025
v -0.010773 0.002300 0.021025
v -0.012438 0.000000 0.019998
v -0.012438 0.002300 0.019998
v -0.014008 0.000000 0.018832
v -0.014008 0.002300 0.018832
v -0.015361 0.000000 0.017656
v -0.015361 0.002300 0.017656
v -0.016619 0.000000 0.016378
v -0.016619 0.002300 0.016378
v -0.017775 0.000000 0.015007
v -0.017775 0.002300 0.015007
v -0.018824 0.000000 0.013552
v -0.018824 0.002300 0.013552
v -0.019758 0.000000 0.012021
v -0.019758 0.002300 0.012021
v -0.020572 0.000000 0.010423
v -0.020572 0.002300 0.010423
v -0.021258 0.000000 0.008767
v -0.021258 0.002300 0.008767
v -0.021811 0.000000 0.007061
v -0.021811 0.002300 0.007061
v -0.022258 0.000000 0.005222
v -0.022258 0.002300 0.005222
v -0.022551 0.000000 0.003353
v -0.022551 0.002300 0.003353
v -0.022690 0.000000 0.001466
v -0.022690 0.002300 0.001466
v -0.022676 0.000000 -0.000427
v -0.022676 0.002300 -0.000427
v -0.022509 0.000000 -0.002312
v -0.022509 0.002300 -0.002312
v -0.022190 0.000000 -0.004177
v -0.022190 0.002300 -0.004177
v -0.021720 0.000000 -0.006010
v -0.021720 0.002300 -0.006010
v -0.021098 0.000000 -0.007797
v -0.021098 0.002300 -0.007797
v -0.020647 0.000000 -0.008876
v -0.020647 0.002300 -0.008876
v -0.020140 0.000000 -0.009929
v -0.020140 0.002300 -0.009929
v -0.019580 0.000000 -0.010955
v -0.019580 0.002300 -0.010955
v -0.018968 0.000000 -0.011950
v -0.018968 0.002300 -0.011950
v -0.018307 0.000000 -0.012913
v -0.018307 0.002300 -0.012913
v -0.017598 0.000000 -0.013842
v -0.017598 0.002300 -0.013842
v -0.016844 0.000000 -0.014735
v -0.016844 0.002300 -0.014735
v -0.016047 0.000000 -0.015590
v -0.016047 0.002300 -0.015590
v -0.015208 0.000000 -0.016404
v -0.015208 0.002300 -0.016404
v -0.014331 0.000000 -0.017176
v -0.014331 0.002300 -0.017176
v -0.013416 0.000000 -0.017904
v -0.013416 0.002300 -0.017904
v -0.012467 0.000000 -0.018585
v -0.012467 0.002300 -0.018585
v -0.011485 0.000000 -0.019218
v -0.011485 0.002300 -0.019218
v -0.010471 0.000000 -0.019800
v -0.010471 0.002300 -0.019800
v -0.009430 0.000000 -0.020330
v -0.009430 0.002300 -0.020330
v -0.008361 0.000000 -0.020805
v -0.008361 0.002300 -0.020805
v -0.007291 0.000000 -0.021228
v -0.007291 0.002300 -0.021228
v -0.006202 0.000000 -0.021595
v -0.006202 0.002300 -0.021595
v -0.005096 0.000000 -0.021905
v -0.005096 0.002300 -0.021905
v -0.003975 0.000000 -0.022158
v -0.003975 0.002300 -0.022158
v -0.002843 0.000000 -0.022354
v -0.002843 0.002300 -0.022354
v -0.001703 0.000000 -0.022494
v -0.001703 0.002300 -0.022494
v -0.000557 0.000000 -0.022577
v -0.000557 0.002300 -0.022577
v 0.000592 0.000000 -0.022605
v 0.000592 0.002300 -0.022605
v 0.002271 0.000000 -0.022544
v 0.002271 0.002300 -0.022544
v 0.003941 0.000000 -0.022365
v 0.003941 0.002300 -0.022365
v 0.005593 0.000000 -0.022067
v 0.005593 0.002300 -0.022067
v 0.007219 0.000000 -0.021652
v 0.007219 0.002300 -0.021652
v 0.008810 0.000000 -0.021120
v 0.008810 0.002300 -0.021120
v 0.010356 0.000000 -0.020471
v 0.010356 0.002300 -0.020471
v 0.011851 0.000000 -0.019707
v 0.011851 0.002300 -0.019707
v 0.013283 0.000000 -0.018827
v 0.013283 0.002300 -0.018827
v 0.013276 0.000000 -0.018620
v 0.013276 0.002300 -0.018620
v 0.013175 0.000000 -0.018452
v 0.013175 0.002300 -0.018452
v 0.012881 0.000000 -0.018165
v 0.012881 0.002300 -0.018165
v 0.009631 0.000000 -0.015200
v 0.009631 0.002300 -0.015200
v 0.006343 0.000000 -0.012277
v 0.006343 0.002300 -0.012277
v 0.006093 0.000000 -0.012065
v 0.006093 0.002300 -0.012065
v 0.005819 0.000000 -0.011908
v 0.005819 0.002300 -0.011908
v 0.005216 0.000000 -0.011722
v 0.005216 0.002300 -0.011722
v 0.003939 0.000000 -0.011581
v 0.003939 0.002300 -0.011581
v 0.000570 0.000000 -0.011198
v 0.000570 0.002300 -0.011198
v -0.001109 0.000000 -0.010953
v -0.001109 0.002300 -0.010953
v -0.002780 0.000000 -0.010660
v -0.002780 0.002300 -0.010660
v -0.004439 0.000000 -0.010311
v -0.004439 0.002300 -0.010311
v -0.006082 0.000000 -0.009897
v -0.006082 0.002300 -0.009897
v -0.007705 0.000000 -0.009409
v -0.007705 0.002300 -0.009409
v -0.009304 0.000000 -0.008838
v -0.009304 0.002300 -0.008838
v -0.009645 0.000000 -0.008686
v -0.009645 0.002300 -0.008686
v -0.009956 0.000000 -0.008484
v -0.009956 0.002300 -0.008484
v -0.010238 0.000000 -0.008241
v -0.010238 0.002300 -0.008241
v -0.010489 0.000000 -0.007963
v -0.010489 0.002300 -0.007963
v -0.010895 0.000000 -0.007331
v -0.010895 0.002300 -0.007331
v -0.011167 0.000000 -0.006642
v -0.011167 0.002300 -0.006642
v -0.011536 0.000000 -0.001684
v -0.011536 0.002300 -0.001684
v -0.011857 0.000000 0.003278
v -0.011857 0.002300 0.003278
v -0.010650 0.000000 0.004520
v -0.010650 0.002300 0.004520
v -0.009997 0.000000 0.000182
v -0.009997 0.002300 0.000182
v -0.009672 0.000000 -0.001987
v -0.009672 0.002300 -0.001987
v -0.009281 0.000000 -0.004140
v -0.009281 0.002300 -0.004140
v -0.008821 0.000000 -0.004284
v -0.008821 0.002300 -0.004284
v -0.009781 0.000000 0.005975
v -0.009781 0.002300 0.005975
v -0.009788 0.000000 0.006431
v -0.009788 0.002300 0.006431
v -0.009679 0.000000 0.006847
v -0.009679 0.002300 0.006847
v -0.009475 0.000000 0.007225
v -0.009475 0.002300 0.007225
v -0.009199 0.000000 0.007569
v -0.009199 0.002300 0.007569
v -0.008513 0.000000 0.008170
v -0.008513 0.002300 0.008170
v -0.007792 0.000000 0.008677
v -0.007792 0.002300 0.008677
v -0.007160 0.000000 0.003819
v -0.007160 0.002300 0.003819
v -0.006440 0.000000 -0.001024
v -0.006440 0.002300 -0.001024
v -0.005940 0.000000 -0.001162
v -0.005940 0.002300 -0.001162
v -0.006401 0.000000 0.004295
v -0.006401 0.002300 0.004295
v -0.006814 0.000000 0.009753
v -0.006814 0.002300 0.009753
v -0.006543 0.000000 0.010072
v -0.006543 0.002300 0.010072
v -0.006241 0.000000 0.010349
v -0.006241 0.002300 0.010349
v -0.005559 0.000000 0.010791
v -0.005559 0.002300 0.010791
v -0.004804 0.000000 0.011106
v -0.004804 0.002300 0.011106
v -0.004008 0.000000 0.011322
v -0.004008 0.002300 0.011322
v -0.004104 0.000000 0.010597
v -0.004104 0.002300 0.010597
v -0.004083 0.000000 0.009868
v -0.004083 0.002300 0.009868
v -0.003105 0.000000 0.001265
v -0.003105 0.002300 0.001265
v -0.002593 0.000000 0.001271
v -0.002593 0.002300 0.001271
v -0.003036 0.000000 0.010609
v -0.003036 0.002300 0.010609
v -0.002163 0.000000 0.011253
v -0.002163 0.002300 0.011253
v -0.001214 0.000000 0.011818
v -0.001214 0.002300 0.011818
v -0.000713 0.000000 0.012020
v -0.000713 0.002300 0.012020
v -0.000196 0.000000 0.012141
v -0.000196 0.002300 0.012141
v 0.000337 0.000000 0.012158
v 0.000337 0.002300 0.012158
v 0.000886 0.000000 0.012053
v 0.000886 0.002300 0.012053
v 0.001509 0.000000 0.011912
v 0.001509 0.002300 0.011912
v 0.002101 0.000000 0.011700
v 0.002101 0.002300 0.011700
v 0.002668 0.000000 0.011431
v 0.002668 0.002300 0.011431
v 0.003214 0.000000 0.011117
v 0.003214 0.002300 0.011117
v 0.005296 0.000000 0.009678
v 0.005296 0.002300 0.009678
v 0.005835 0.000000 0.009271
v 0.005835 0.002300 0.009271
v 0.006062 0.000000 0.009030
v 0.006062 0.002300 0.009030
v 0.006193 0.000000 0.008723
v 0.006193 0.002300 0.008723
v 0.006518 0.000000 0.007115
v 0.006518 0.002300 0.007115
v 0.006699 0.000000 0.005486
v 0.006699 0.002300 0.005486
v 0.006430 0.000000 0.004790
v 0.006430 0.002300 0.004790
v 0.006086 0.000000 0.004127
v 0.006086 0.002300 0.004127
v 0.005359 0.000000 0.002818
v 0.005359 0.002300 0.002818
v 0.005002 0.000000 0.003375
v 0.005002 0.002300 0.003375
v 0.004579 0.000000 0.003878
v 0.004579 0.002300 0.003878
v 0.004095 0.000000 0.004322
v 0.004095 0.002300 0.004322
v 0.003554 0.000000 0.004704
v 0.003554 0.002300 0.004704
v 0.004176 0.000000 0.005890
v 0.004176 0.002300 0.005890
v 0.004390 0.000000 0.006518
v 0.004390 0.002300 0.006518
v 0.004443 0.000000 0.006845
v 0.004443 0.002300 0.006845
v 0.004451 0.000000 0.007182
v 0.004451 0.002300 0.007182
v 0.003421 0.000000 0.005474
v 0.003421 0.002300 0.005474
v 0.003330 0.000000 0.005954
v 0.003330 0.002300 0.005954
v 0.003169 0.000000 0.006416
v 0.003169 0.002300 0.006416
v 0.002945 0.000000 0.006855
v 0.002945 0.002300 0.006855
v 0.002665 0.000000 0.007263
v 0.002665 0.002300 0.007263
v 0.002337 0.000000 0.007635
v 0.002337 0.002300 0.007635
v 0.001968 0.000000 0.007964
v 0.001968 0.002300 0.007964
v 0.001566 0.000000 0.008245
v 0.001566 0.002300 0.008245
v 0.001139 0.000000 0.008470
v 0.001139 0.002300 0.008470
v 0.001878 0.000000 0.007223
v 0.001878 0.002300 0.007223
v 0.002230 0.000000 0.006592
v 0.002230 0.002300 0.006592
v 0.002473 0.000000 0.005911
v 0.002473 0.002300 0.005911
v 0.002570 0.000000 0.004807
v 0.002570 0.002300 0.004807
v 0.002544 0.000000 0.003703
v 0.002544 0.002300 0.003703
v 0.002375 0.000000 0.001495
v 0.002375 0.002300 0.001495
v 0.002602 0.000000 0.001730
v 0.002602 0.002300 0.001730
v 0.002778 0.000000 0.001993
v 0.002778 0.002300 0.001993
v 0.003008 0.000000 0.002580
v 0.003008 0.002300 0.002580
v 0.003203 0.000000 0.003847
v 0.003203 0.002300 0.003847
v 0.003736 0.000000 0.003551
v 0.003736 0.002300 0.003551
v 0.004230 0.000000 0.003197
v 0.004230 0.002300 0.003197
v 0.004683 0.000000 0.002792
v 0.004683 0.002300 0.002792
v 0.005095 0.000000 0.002340
v 0.005095 0.002300 0.002340
v 0.004549 0.000000 0.001254
v 0.004549 0.002300 0.001254
v 0.005177 0.000000 0.001880
v 0.005177 0.002300 0.001880
v 0.005748 0.000000 0.002558
v 0.005748 0.002300 0.002558
v 0.006849 0.000000 0.003950
v 0.006849 0.002300 0.003950
v 0.007370 0.000000 0.004607
v 0.007370 0.002300 0.004607
v 0.007608 0.000000 0.004952
v 0.007608 0.002300 0.004952
v 0.007797 0.000000 0.005325
v 0.007797 0.002300 0.005325
v 0.007680 0.000000 0.006174
v 0.007680 0.002300 0.006174
v 0.007498 0.000000 0.007013
v 0.007498 0.002300 0.007013
v 0.007096 0.000000 0.008683
v 0.007096 0.002300 0.008683
v 0.006900 0.000000 0.009465
v 0.006900 0.002300 0.009465
v 0.006734 0.000000 0.009822
v 0.006734 0.002300 0.009822
v 0.006446 0.000000 0.010098
v 0.006446 0.002300 0.010098
v 0.005354 0.000000 0.010812
v 0.005354 0.002300 0.010812
v 0.004233 0.000000 0.011479
v 0.004233 0.002300 0.011479
v 0.001921 0.000000 0.012691
v 0.001921 0.002300 0.012691
v 0.002214 0.000000 0.013352
v 0.002214 0.002300 0.013352
v 0.006295 0.000000 0.011908
v 0.006295 0.002300 0.011908
v 0.010356 0.000000 0.010408
v 0.010356 0.002300 0.010408
v 0.012570 0.000000 0.006360
v 0.012570 0.002300 0.006360
v 0.012965 0.000000 0.005629
v 0.012965 0.002300 0.005629
v 0.013219 0.000000 0.004859
v 0.013219 0.002300 0.004859
v 0.013370 0.000000 0.004061
v 0.013370 0.002300 0.004061
v 0.013450 0.000000 0.003242
v 0.013450 0.002300 0.003242
v 0.013545 0.000000 0.001585
v 0.013545 0.002300 0.001585
v 0.013628 0.000000 0.000766
v 0.013628 0.002300 0.000766
v 0.013784 0.000000 -0.000035
v 0.013784 0.002300 -0.000035
v 0.013951 0.000000 -0.000309
v 0.013951 0.002300 -0.000309
v 0.014157 0.000000 -0.000555
v 0.014157 0.002300 -0.000555
v 0.014617 0.000000 -0.001006
v 0.014617 0.002300 -0.001006
v 0.017746 0.000000 -0.003762
v 0.017746 0.002300 -0.003762
v 0.020931 0.000000 -0.006452
v 0.020931 0.002300 -0.006452
v 0.021647 0.000000 -0.007085
v 0.021647 0.002300 -0.007085
vn 0.9018 -0.0000 -0.4321
vn 0.8796 -0.0000 -0.4757
vn 0.8556 -0.0000 -0.5176
vn 0.8300 -0.0000 -0.5578
vn 0.8027 -0.0000 -0.5963
vn 0.7740 -0.0000 -0.6332
vn 0.7437 -0.0000 -0.6685
vn 0.7120 -0.0000 -0.7022
vn 0.6789 -0.0000 -0.7343
vn 0.6443 -0.0000 -0.7648
vn 0.6083 -0.0000 -0.7937
vn 0.5708 -0.0000 -0.8211
vn 0.5318 -0.0000 -0.8469
vn 0.4913 -0.0000 -0.8710
vn 0.4493 -0.0000 -0.8934
vn 0.4058 -0.0000 -0.9140
vn 0.3677 -0.0000 -0.9299
vn 0.3140 -0.0000 -0.9494
vn 0.2626 -0.0000 -0.9649
vn 0.2141 -0.0000 -0.9768
vn 0.1687 -0.0000 -0.9857
vn 0.1264 -0.0000 -0.9920
vn 0.0692 -0.0000 -0.9976
vn -0.0000 -0.0000 -1.0000
vn -0.0460 -0.0000 -0.9989
vn -0.0867 -0.0000 -0.9962
vn -0.1295 -0.0000 -0.9916
vn -0.1744 -0.0000 -0.9847
vn -0.2214 -0.0000 -0.9752
vn -0.2704 -0.0000 -0.9627
vn -0.3213 -0.0000 -0.9470
vn -0.3737 -0.0000 -0.9276
vn -0.4120 -0.0000 -0.9112
vn -0.4542 -0.0000 -0.8909
vn -0.4948 -0.0000 -0.8690
vn -0.5339 -0.0000 -0.8455
vn -0.5716 -0.0000 -0.8205
vn -0.6079 -0.0000 -0.7940
vn -0.6427 -0.0000 -0.7661
vn -0.6762 -0.0000 -0.7367
vn -0.7082 -0.0000 -0.7060
vn -0.7389 -0.0000 -0.6738
vn -0.7682 -0.0000 -0.6402
vn -0.7962 -0.0000 -0.6051
vn -0.8226 -0.0000 -0.5686
vn -0.8477 -0.0000 -0.5305
vn -0.8712 -0.0000 -0.4910
vn -0.8931 -0.0000 -0.4499
vn -0.9080 -0.0000 -0.4189
vn -0.9256 -0.0000 -0.3785
vn -0.9417 -0.0000 -0.3364
vn -0.9564 -0.0000 -0.2922
vn -0.9693 -0.0000 -0.2460
vn -0.9803 -0.0000 -0.1976
vn -0.9891 -0.0000 -0.1470
vn -0.9956 -0.0000 -0.0941
vn -0.9994 -0.0000 -0.0351
vn -0.9994 -0.0000 0.0351
vn -0.9951 -0.0000 0.0986
vn -0.9889 -0.0000 0.1484
vn -0.9804 -0.0000 0.1970
vn -0.9697 -0.0000 0.2443
vn -0.9569 -0.0000 0.2904
vn -0.9421 -0.0000 0.3352
vn -0.9255 -0.0000 0.3787
vn -0.9070 -0.0000 0.4210
vn -0.8868 -0.0000 0.4621
vn -0.8648 -0.0000 0.5020
vn -0.8411 -0.0000 0.5408
vn -0.8157 -0.0000 0.5784
vn -0.7886 -0.0000 0.6150
vn -0.7596 -0.0000 0.6504
vn -0.7289 -0.0000 0.6846
vn -0.6963 -0.0000 0.7177
vn -0.6691 -0.0000 0.7432
vn -0.6351 -0.0000 0.7724
vn -0.6003 -0.0000 0.7998
vn -0.5647 -0.0000 0.8253
vn -0.5101 -0.0000 0.8601
vn -0.4350 -0.0000 0.9004
vn -0.3576 -0.0000 0.9339
vn -0.2779 -0.0000 0.9606
vn -0.1959 -0.0000 0.9806
vn -0.1116 -0.0000 0.9938
vn -0.0000 -0.0000 1.0000
vn 0.1088 -0.0000 0.9941
vn 0.1819 -0.0000 0.9833
vn 0.2538 -0.0000 0.9673
vn 0.3245 -0.0000 0.9459
vn 0.3939 -0.0000 0.9192
vn 0.4620 -0.0000 0.8869
vn 0.5285 -0.0000 0.8489
vn 0.5933 -0.0000 0.8050
vn 0.6368 -0.0000 0.7710
vn 0.6723 -0.0000 0.7403
vn 0.7060 -0.0000 0.7083
vn 0.7378 -0.0000 0.6751
vn 0.7678 -0.0000 0.6407
vn 0.7961 -0.0000 0.6052
vn 0.8227 -0.0000 0.5685
vn 0.8475 -0.0000 0.5308
vn 0.8706 -0.0000 0.4919
vn 0.8921 -0.0000 0.4519
vn 0.9117 -0.0000 0.4108
vn 0.9296 -0.0000 0.3685
vn 0.9457 -0.0000 0.3250
vn 0.9599 -0.0000 0.2803
vn 0.9721 -0.0000 0.2344
vn 0.9823 -0.0000 0.1874
vn 0.9910 -0.0000 0.1342
vn 0.9983 -0.0000 0.0587
vn 0.9999 -0.0000 -0.0161
vn 0.9959 -0.0000 -0.0903
vn 0.9865 -0.0000 -0.1638
vn 0.9716 -0.0000 -0.2367
vn 0.9510 -0.0000 -0.3091
vn 0.9247 -0.0000 -0.3808
vn -0.9456 -0.0000 0.3254
vn -0.9649 -0.0000 0.2625
vn -0.9802 -0.0000 0.1981
vn -0.9913 -0.0000 0.1320
vn -0.9979 -0.0000 0.0641
vn -1.0000 -0.0000 -0.0056
vn -0.9970 -0.0000 -0.0770
vn -0.9887 -0.0000 -0.1500
vn -0.9802 -0.0000 -0.1978
vn -0.9696 -0.0000 -0.2445
vn -0.9570 -0.0000 -0.2902
vn -0.9424 -0.0000 -0.3346
vn -0.9258 -0.0000 -0.3779
vn -0.9075 -0.0000 -0.4201
vn -0.8873 -0.0000 -0.4612
vn -0.8654 -0.0000 -0.5012
vn -0.8416 -0.0000 -0.5400
vn -0.8161 -0.0000 -0.5778
vn -0.7889 -0.0000 -0.6146
vn -0.7598 -0.0000 -0.6502
vn -0.7288 -0.0000 -0.6847
vn -0.6960 -0.0000 -0.7180
vn -0.6613 -0.0000 -0.7501
vn -0.6246 -0.0000 -0.7809
vn -0.5781 -0.0000 -0.8160
vn -0.5076 -0.0000 -0.8616
vn -0.4346 -0.0000 -0.9006
vn -0.3590 -0.0000 -0.9334
vn -0.2808 -0.0000 -0.9598
vn -0.2000 -0.0000 -0.9798
vn -0.1165 -0.0000 -0.9932
vn -0.0305 -0.0000 -0.9995
vn 0.0444 -0.0000 -0.9990
vn 0.1314 -0.0000 -0.9913
vn 0.2156 -0.0000 -0.9765
vn 0.2970 -0.0000 -0.9549
vn 0.3758 -0.0000 -0.9267
vn 0.4518 -0.0000 -0.8921
vn 0.5252 -0.0000 -0.8510
vn 0.5959 -0.0000 -0.8030
vn 0.6563 -0.0000 -0.7545
vn 0.7127 -0.0000 -0.7015
vn 0.7644 -0.0000 -0.6448
vn 0.8113 -0.0000 -0.5847
vn 0.8535 -0.0000 -0.5210
vn 0.8911 -0.0000 -0.4538
vn 0.9238 -0.0000 -0.3829
vn 0.9513 -0.0000 -0.3083
vn 0.9717 -0.0000 -0.2362
vn 0.9880 -0.0000 -0.1547
vn 0.9973 -0.0000 -0.0735
vn 1.0000 -0.0000 0.0075
vn 0.9961 -0.0000 0.0882
vn 0.9857 -0.0000 0.1686
vn 0.9686 -0.0000 0.2487
vn 0.9445 -0.0000 0.3284
vn 0.9226 -0.0000 0.3858
vn 0.9011 -0.0000 0.4337
vn 0.8775 -0.0000 0.4796
vn 0.8519 -0.0000 0.5238
vn 0.8244 -0.0000 0.5660
vn 0.7951 -0.0000 0.6065
vn 0.7641 -0.0000 0.6451
vn 0.7313 -0.0000 0.6821
vn 0.6968 -0.0000 0.7173
vn 0.6606 -0.0000 0.7507
vn 0.6227 -0.0000 0.7825
vn 0.5830 -0.0000 0.8125
vn 0.5415 -0.0000 0.8407
vn 0.4982 -0.0000 0.8670
vn 0.4531 -0.0000 0.8915
vn 0.4061 -0.0000 0.9138
vn 0.3681 -0.0000 0.9298
vn 0.3189 -0.0000 0.9478
vn 0.2696 -0.0000 0.9630
vn 0.2202 -0.0000 0.9754
vn 0.1710 -0.0000 0.9853
vn 0.1218 -0.0000 0.9926
vn 0.0727 -0.0000 0.9974
vn 0.0237 -0.0000 0.9997
vn -0.0361 -0.0000 0.9993
vn -0.1068 -0.0000 0.9943
vn -0.1772 -0.0000 0.9842
vn -0.2473 -0.0000 0.9689
vn -0.3172 -0.0000 0.9483
vn -0.3867 -0.0000 0.9222
vn -0.4556 -0.0000 0.8902
vn -0.5234 -0.0000 0.8521
vn -0.8576 -0.0000 -0.5144
vn -0.6976 -0.0000 -0.7165
vn -0.6741 -0.0000 -0.7387
vn -0.6644 -0.0000 -0.7474
vn -0.6476 -0.0000 -0.7619
vn -0.4957 -0.0000 -0.8685
vn -0.2951 -0.0000 -0.9555
vn -0.1097 -0.0000 -0.9940
vn -0.1131 -0.0000 -0.9936
vn -0.1445 -0.0000 -0.9895
vn -0.1725 -0.0000 -0.9850
vn -0.2059 -0.0000 -0.9786
vn -0.2444 -0.0000 -0.9697
vn -0.2879 -0.0000 -0.9577
vn -0.3361 -0.0000 -0.9418
vn -0.4090 -0.0000 -0.9125
vn -0.5426 -0.0000 -0.8400
vn -0.6530 -0.0000 -0.7573
vn -0.7419 -0.0000 -0.6705
vn -0.8415 -0.0000 -0.5403
vn -0.9303 -0.0000 -0.3669
vn -0.9973 -0.0000 -0.0741
vn -0.9979 -0.0000 -0.0647
vn -0.7170 -0.0000 0.6971
vn 0.9889 -0.0000 0.1487
vn 0.9889 -0.0000 0.1484
vn 0.9839 -0.0000 0.1785
vn 0.2983 -0.0000 0.9545
vn -0.9956 -0.0000 -0.0932
vn -0.9999 -0.0000 -0.0144
vn -0.9672 -0.0000 0.2541
vn -0.8806 -0.0000 0.4738
vn -0.7799 -0.0000 0.6260
vn -0.6590 -0.0000 0.7522
vn -0.5752 -0.0000 0.8180
vn 0.9917 -0.0000 0.1289
vn 0.9891 -0.0000 0.1470
vn 0.2659 -0.0000 0.9640
vn -0.9964 -0.0000 -0.0842
vn -0.9972 -0.0000 -0.0754
vn -0.7627 -0.0000 0.6467
vn -0.6759 -0.0000 0.7370
vn -0.5440 -0.0000 0.8391
vn -0.3848 -0.0000 0.9230
vn -0.2622 -0.0000 0.9650
vn 0.9914 -0.0000 -0.1312
vn 0.9996 -0.0000 0.0292
vn 0.9936 -0.0000 0.1129
vn -0.0112 -0.0000 0.9999
vn -0.9989 -0.0000 -0.0474
vn -0.5930 -0.0000 0.8052
vn -0.5122 -0.0000 0.8588
vn -0.3740 -0.0000 0.9274
vn -0.2264 -0.0000 0.9740
vn -0.0332 -0.0000 0.9994
vn 0.1892 -0.0000 0.9819
vn 0.2203 -0.0000 0.9754
vn 0.3364 -0.0000 0.9417
vn 0.4292 -0.0000 0.9032
vn 0.4982 -0.0000 0.8671
vn 0.5687 -0.0000 0.8226
vn 0.6021 -0.0000 0.7984
vn 0.7277 -0.0000 0.6859
vn 0.9200 -0.0000 0.3919
vn 0.9802 -0.0000 0.1978
vn 0.9939 -0.0000 0.1107
vn 0.9324 -0.0000 -0.3614
vn 0.8881 -0.0000 -0.4596
vn 0.8743 -0.0000 -0.4854
vn -0.8420 -0.0000 -0.5396
vn -0.7652 -0.0000 -0.6437
vn -0.6760 -0.0000 -0.7369
vn -0.5763 -0.0000 -0.8173
vn -0.8853 -0.0000 0.4650
vn -0.9471 -0.0000 0.3210
vn -0.9868 -0.0000 0.1618
vn -0.9997 -0.0000 0.0225
vn 0.8565 -0.0000 -0.5162
vn -0.9824 -0.0000 -0.1866
vn -0.9441 -0.0000 -0.3297
vn -0.8902 -0.0000 -0.4556
vn -0.8248 -0.0000 -0.5654
vn -0.7501 -0.0000 -0.6613
vn -0.6663 -0.0000 -0.7457
vn -0.5724 -0.0000 -0.8200
vn -0.4663 -0.0000 -0.8847
vn 0.8602 -0.0000 0.5099
vn 0.8734 -0.0000 0.4870
vn 0.9418 -0.0000 0.3361
vn 0.9962 -0.0000 0.0875
vn 0.9997 -0.0000 -0.0235
vn 0.9971 -0.0000 -0.0762
vn -0.7190 -0.0000 0.6950
vn -0.8311 -0.0000 0.5561
vn -0.9311 -0.0000 0.3646
vn -0.9884 -0.0000 0.1521
vn 0.4858 -0.0000 0.8741
vn 0.5820 -0.0000 0.8132
vn 0.6664 -0.0000 0.7456
vn 0.7391 -0.0000 0.6735
vn 0.8935 -0.0000 -0.4491
vn -0.7063 -0.0000 0.7079
vn -0.7647 -0.0000 0.6444
vn -0.7844 -0.0000 0.6202
vn -0.7835 -0.0000 0.6213
vn -0.8225 -0.0000 0.5687
vn -0.8913 -0.0000 0.4533
vn -0.9906 -0.0000 -0.1369
vn -0.9773 -0.0000 -0.2118
vn -0.9722 -0.0000 -0.2343
vn -0.9698 -0.0000 -0.2437
vn -0.9078 -0.0000 -0.4193
vn -0.6909 -0.0000 -0.7230
vn -0.5474 -0.0000 -0.8369
vn -0.5111 -0.0000 -0.8595
vn -0.4644 -0.0000 -0.8856
vn -0.9141 -0.0000 0.4054
vn 0.3336 -0.0000 0.9427
vn 0.3464 -0.0000 0.9381
vn 0.8774 -0.0000 0.4798
vn 0.8800 -0.0000 0.4750
vn 0.9494 -0.0000 0.3142
vn 0.9828 -0.0000 0.1847
vn 0.9952 -0.0000 0.0982
vn 0.9984 -0.0000 0.0567
vn 0.9948 -0.0000 0.1018
vn 0.9817 -0.0000 0.1905
vn 0.8538 -0.0000 0.5206
vn 0.7661 -0.0000 0.6427
vn 0.7004 -0.0000 0.7138
vn 0.6610 -0.0000 0.7504
vn 0.6452 -0.0000 0.7640
vn 0.6626 -0.0000 0.7490
vn 0.7082 -0.0000 0.7061
vn 0.9380 -0.0000 0.3466
vn -0.0000 1.0000 -0.0000
vn -0.0000 1.0000 0.0001
vn -0.0000 1.0000 -0.0003
vn -0.0000 1.0000 0.0002
s 0
f 1//1 2//1 3//1 4//1
f 2//2 5//2 6//2 3//2
f 5//3 7//3 8//3 6//3
f 7//4 9//4 10//4 8//4
f 9//5 11//5 12//5 10//5
f 11//6 13//6 14//6 12//6
f 13//7 15//7 16//7 14//7
f 15//8 17//8 18//8 16//8
f 17//9 19//9 20//9 18//9
f 19//10 21//10 22//10 20//10
f 21//11 23//11 24//11 22//11
f 23//12 25//12 26//12 24//12
f 25//13 27//13 28//13 26//13
f 27//14 29//14 30//14 28//14
f 29//15 31//15 32//15 30//15
f 31//16 33//16 34//16 32//16
f 33//17 35//17 36//17 34//17
f 35//18 37//18 38//18 36//18
f 37//19 39//19 40//19 38//19
f 39//20 41//20 42//20 40//20
f 41//21 43//21 44//21 42//21
f 43//22 45//22 46//22 44//22
f 45//23 47//23 48//23 46//23
f 47//24 49//24 50//24 48//24
f 49//25 51//25 52//25 50//25
f 51//26 53//26 54//26 52//26
f 53//27 55//27 56//27 54//27
f 55//28 57//28 58//28 56//28
f 57//29 59//29 60//29 58//29
f 59//30 61//30 62//30 60//30
f 61//31 63//31 64//31 62//31
f 63//32 65//32 66//32 64//32
f 65//33 67//33 68//33 66//33
f 67//34 69//34 70//34 68//34
f 69//35 71//35 72//35 70//35
f 71//36 73//36 74//36 72//36
f 73//37 75//37 76//37 74//37
f 75//38 77//38 78//38 76//38
f 77//39 79//39 80//39 78//39
f 79//40 81//40 82//40 80//40
f 81//41 83//41 84//41 82//41
f 83//42 85//42 86//42 84//42
f 85//43 87//43 88//43 86//43
f 87//44 89//44 90//44 88//44
f 89//45 91//45 92//45 90//45
f 91//46 93//46 94//46 92//46
f 93//47 95//47 96//47 94//47
f 95//48 97//48 98//48 96//48
f 97//49 99//49 100//49 98//49
f 99//50 101//50 102//50 100//50
f 101//51 103//51 104//51 102//51
f 103//52 105//52 106//52 104//52
f 105//53 107//53 108//53 106//53
f 107//54 109//54 110//54 108//54
f 109//55 111//55 112//55 110//55
f 111//56 113//56 114//56 112//56
f 113//57 115//57 116//57 114//57
f 115//58 117//58 118//58 116//58
f 117//59 119//59 120//59 118//59
f 119//60 121//60 122//60 120//60
f 121//61 123//61 124//61 122//61
f 123//62 125//62 126//62 124//62
f 125//63 127//63 128//63 126//63
f 127//64 129//64 130//64 128//64
f 129//65 131//65 132//65 130//65
f 131//66 133//66 134//66 132//66
f 133//67 135//67 136//67 134//67
f 135//68 137//68 138//68 136//68
f 137//69 139//69 140//69 138//69
f 139//70 141//70 142//70 140//70
f 141//71 143//71 144//71 142//71
f 143//72 145//72 146//72 144//72
f 145//73 147//73 148//73 146//73
f 147//74 149//74 150//74 148//74
f 149//75 151//75 152//75 150//75
f 151//76 153//76 154//76 152//76
f 153//77 155//77 156//77 154//77
f 155//78 157//78 158//78 156//78
f 157//79 159//79 160//79 158//79
f 159//80 161//80 162//80 160//80
f 161//81 163//81 164//81 162//81
f 163//82 165//82 166//82 164//82
f 165//83 167//83 168//83 166//83
f 167//84 169//84 170//84 168//84
f 169//85 171//85 172//85 170//85
f 171//86 173//86 174//86 172//86
f 173//87 175//87 176//87 174//87
f 175//88 177//88 178//88 176//88
f 177//89 179//89 180//89 178//89
f 179//90 181//90 182//90 180//90
f 181//91 183//91 184//91 182//91
f 183//92 185//92 186//92 184//92
f 185//93 187//93 188//93 186//93
f 187//94 189//94 190//94 188//94
f 189//95 191//95 192//95 190//95
f 191//96 193//96 194//96 192//96
f 193//97 195//97 196//97 194//97
f 195//98 197//98 198//98 196//98
f 197//99 199//99 200//99 198//99
f 199//100 201//100 202//100 200//100
f 201//101 203//101 204//101 202//101
f 203//102 205//102 206//102 204//102
f 205//103 207//103 208//103 206//103
f 207//104 209//104 210//104 208//104
f 209//105 211//105 212//105 210//105
f 211//106 213//106 214//106 212//106
f 213//107 215//107 216//107 214//107
f 215//108 217//108 218//108 216//108
f 217//109 219//109 220//109 218//109
f 219//110 221//110 222//110 220//110
f 221//111 223//111 224//111 222//111
f 223//112 225//112 226//112 224//112
f 225//113 227//113 228//113 226//113
f 227//114 229//114 230//114 228//114
f 229//115 231//115 232//115 230//115
f 231//116 233//116 234//116 232//116
f 233//117 1//117 4//117 234//117
f 235//118 237//118 238//118 236//118
f 237//119 239//119 240//119 238//119
f 239//120 241//120 242//120 240//120
f 241//121 243//121 244//121 242//121
f 243//122 245//122 246//122 244//122
f 245//123 247//123 248//123 246//123
f 247//124 249//124 250//124 248//124
f 249//125 251//125 252//125 250//125
f 251//126 253//126 254//126 252//126
f 253//127 255//127 256//127 254//127
f 255//128 257//128 258//128 256//128
f 257//129 259//129 260//129 258//129
f 259//130 261//130 262//130 260//130
f 261//131 263//131 264//131 262//131
f 263//132 265//132 266//132 264//132
f 265//133 267//133 268//133 266//133
f 267//134 269//134 270//134 268//134
f 269//135 271//135 272//135 270//135
f 271//136 273//136 274//136 272//136
f 273//137 275//137 276//137 274//137
f 275//138 277//138 278//138 276//138
f 277//139 279//139 280//139 278//139
f 279//140 281//140 282//140 280//140
f 281//141 283//141 284//141 282//141
f 283//142 285//142 286//142 284//142
f 285//143 287//143 288//143 286//143
f 287//144 289//144 290//144 288//144
f 289//145 291//145 292//145 290//145
f 291//146 293//146 294//146 292//146
f 293//147 295//147 296//147 294//147
f 295//148 297//148 298//148 296//148
f 297//149 299//149 300//149 298//149
f 299//150 301//150 302//150 300//150
f 301//151 303//151 304//151 302//151
f 303//152 305//152 306//152 304//152
f 305//153 307//153 308//153 306//153
f 307//154 309//154 310//154 308//154
f 309//155 311//155 312//155 310//155
f 311//156 313//156 314//156 312//156
f 313//157 315//157 316//157 314//157
f 315//158 317//158 318//158 316//158
f 317//159 319//159 320//159 318//159
f 319//160 321//160 322//160 320//160
f 321//161 323//161 324//161 322//161
f 323//162 325//162 326//162 324//162
f 325//163 327//163 328//163 326//163
f 327//164 329//164 330//164 328//164
f 329//165 331//165 332//165 330//165
f 331//166 333//166 334//166 332//166
f 333//167 335//167 336//167 334//167
f 335//168 337//168 338//168 336//168
f 337//169 339//169 340//169 338//169
f 339//170 341//170 342//170 340//170
f 341//171 343//171 344//171 342//171
f 343//172 345//172 346//172 344//172
f 345//173 347//173 348//173 346//173
f 347//174 349//174 350//174 348//174
f 349//175 351//175 352//175 350//175
f 351//176 353//176 354//176 352//176
f 353//177 355//177 356//177 354//177
f 355//178 357//178 358//178 356//178
f 357//179 359//179 360//179 358//179
f 359//180 361//180 362//180 360//180
f 361//181 363//181 364//181 362//181
f 363//182 365//182 366//182 364//182
f 365//183 367//183 368//183 366//183
f 367//184 369//184 370//184 368//184
f 369//185 371//185 372//185 370//185
f 371//186 373//186 374//186 372//186
f 373//187 375//187 376//187 374//187
f 375//188 377//188 378//188 376//188
f 377//189 379//189 380//189 378//189
f 379//190 381//190 382//190 380//190
f 381//191 383//191 384//191 382//191
f 383//192 385//192 386//192 384//192
f 385//193 387//193 388//193 386//193
f 387//194 389//194 390//194 388//194
f 389//195 391//195 392//195 390//195
f 391//196 393//196 394//196 392//196
f 393//197 395//197 396//197 394//197
f 395//198 397//198 398//198 396//198
f 397//199 399//199 400//199 398//199
f 399//200 401//200 402//200 400//200
f 401//201 403//201 404//201 402//201
f 403//202 405//202 406//202 404//202
f 405//203 407//203 408//203 406//203
f 407//204 409//204 410//204 408//204
f 409//205 411//205 412//205 410//205
f 411//57 413//57 414//57 412//57
f 413//206 415//206 416//206 414//206
f 415//207 417//207 418//207 416//207
f 417//208 419//208 420//208 418//208
f 419//209 421//209 422//209 420//209
f 421//210 423//210 424//210 422//210
f 423//211 425//211 426//211 424//211
f 425//212 427//212 428//212 426//212
f 427//213 429//213 430//213 428//213
f 429//214 431//214 432//214 430//214
f 431//215 433//215 434//215 432//215
f 433//216 435//216 436//216 434//216
f 435//217 437//217 438//217 436//217
f 437//218 439//218 440//218 438//218
f 439//219 441//219 442//219 440//219
f 441//220 443//220 444//220 442//220
f 443//221 445//221 446//221 444//221
f 445//222 447//222 448//222 446//222
f 447//223 449//223 450//223 448//223
f 449//224 451//224 452//224 450//224
f 451//225 453//225 454//225 452//225
f 453//226 455//226 456//226 454//226
f 455//227 457//227 458//227 456//227
f 457//228 459//228 460//228 458//228
f 459//229 461//229 462//229 460//229
f 461//230 463//230 464//230 462//230
f 463//231 465//231 466//231 464//231
f 465//232 467//232 468//232 466//232
f 467//233 469//233 470//233 468//233
f 469//234 471//234 472//234 470//234
f 471//235 473//235 474//235 472//235
f 473//236 475//236 476//236 474//236
f 475//237 477//237 478//237 476//237
f 477//238 479//238 480//238 478//238
f 479//239 481//239 482//239 480//239
f 481//240 483//240 484//240 482//240
f 483//241 485//241 486//241 484//241
f 485//242 487//242 488//242 486//242
f 487//243 489//243 490//243 488//243
f 489//244 491//244 492//244 490//244
f 491//245 493//245 494//245 492//245
f 493//246 495//246 496//246 494//246
f 495//247 497//247 498//247 496//247
f 497//248 499//248 500//248 498//248
f 499//249 501//249 502//249 500//249
f 501//250 503//250 504//250 502//250
f 503//251 505//251 506//251 504//251
f 505//252 507//252 508//252 506//252
f 507//253 509//253 510//253 508//253
f 509//254 511//254 512//254 510//254
f 511//255 513//255 514//255 512//255
f 513//256 515//256 516//256 514//256
f 515//257 517//257 518//257 516//257
f 517//258 519//258 520//258 518//258
f 519//259 521//259 522//259 520//259
f 521//260 523//260 524//260 522//260
f 523//261 525//261 526//261 524//261
f 525//262 527//262 528//262 526//262
f 527//263 529//263 530//263 528//263
f 529//264 531//264 532//264 530//264
f 531//265 533//265 534//265 532//265
f 533//266 535//266 536//266 534//266
f 535//267 537//267 538//267 536//267
f 537//268 539//268 540//268 538//268
f 539//269 541//269 542//269 540//269
f 541//270 543//270 544//270 542//270
f 543//271 545//271 546//271 544//271
f 545//272 547//272 548//272 546//272
f 547//273 549//273 550//273 548//273
f 549//274 551//274 552//274 550//274
f 551//275 553//275 554//275 552//275
f 553//276 555//276 556//276 554//276
f 555//277 557//277 558//277 556//277
f 557//278 559//278 560//278 558//278
f 559//279 561//279 562//279 560//279
f 561//280 563//280 564//280 562//280
f 563//281 565//281 566//281 564//281
f 565//282 567//282 568//282 566//282
f 567//283 569//283 570//283 568//283
f 569//284 571//284 572//284 570//284
f 571//285 573//285 574//285 572//285
f 573//286 575//286 576//286 574//286
f 575//287 577//287 578//287 576//287
f 577//288 579//288 580//288 578//288
f 579//289 581//289 582//289 580//289
f 581//290 583//290 584//290 582//290
f 583//291 585//291 586//291 584//291
f 585//292 587//292 588//292 586//292
f 587//293 589//293 590//293 588//293
f 589//294 591//294 592//294 590//294
f 591//295 593//295 594//295 592//295
f 593//296 595//296 596//296 594//296
f 595//297 597//297 598//297 596//297
f 597//298 599//298 600//298 598//298
f 599//299 601//299 602//299 600//299
f 601//300 603//300 604//300 602//300
f 603//301 605//301 606//301 604//301
f 605//302 607//302 608//302 606//302
f 607//303 609//303 610//303 608//303
f 609//304 611//304 612//304 610//304
f 611//305 613//305 614//305 612//305
f 613//306 615//306 616//306 614//306
f 615//307 617//307 618//307 616//307
f 617//308 619//308 620//308 618//308
f 619//309 621//309 622//309 620//309
f 621//310 623//310 624//310 622//310
f 623//311 625//311 626//311 624//311
f 625//312 627//312 628//312 626//312
f 627//313 629//313 630//313 628//313
f 629//314 631//314 632//314 630//314
f 631//315 633//315 634//315 632//315
f 633//316 635//316 636//316 634//316
f 635//317 637//317 638//317 636//317
f 637//318 639//318 640//318 638//318
f 639//319 641//319 642//319 640//319
f 641//320 643//320 644//320 642//320
f 643//321 645//321 646//321 644//321
f 645//322 647//322 648//322 646//322
f 647//323 649//323 650//323 648//323
f 649//324 651//324 652//324 650//324
f 651//325 653//325 654//325 652//325
f 653//326 655//326 656//326 654//326
f 655//327 657//327 658//327 656//327
f 657//328 659//328 660//328 658//328
f 659//329 661//329 662//329 660//329
f 661//330 663//330 664//330 662//330
f 663//331 665//331 666//331 664//331
f 665//332 667//332 668//332 666//332
f 667//333 669//333 670//333 668//333
f 669//334 671//334 672//334 670//334
f 671//335 673//335 674//335 672//335
f 673//336 675//336 676//336 674//336
f 675//337 677//337 678//337 676//337
f 677//338 679//338 680//338 678//338
f 679//339 235//339 236//339 680//339
f 235//340 1//340 4//340 236//340
f 680//341 236//341 4//341
f 678//341 680//341 4//341
f 676//341 678//341 4//341
f 674//341 676//341 4//341
f 672//341 674//341 4//341
f 660//341 662//341 664//341
f 658//341 660//341 664//341
f 656//341 658//341 664//341
f 656//341 664//341 666//341
f 654//341 656//341 666//341
f 652//341 654//341 666//341
f 652//341 666//341 668//341
f 650//341 652//341 668//341
f 650//341 668//341 670//341
f 646//341 648//341 650//341
f 644//341 646//341 650//341
f 642//341 644//341 650//341
f 640//341 642//341 650//341
f 638//341 640//341 650//341
f 638//341 650//341 670//341
f 636//341 638//341 670//341
f 634//341 636//341 670//341
f 632//341 634//341 670//341
f 632//341 670//341 672//341
f 630//341 632//341 672//341
f 628//341 630//341 672//341
f 628//341 672//341 4//341
f 626//341 628//341 4//341
f 624//341 626//341 4//341
f 622//341 624//341 4//341
f 620//341 622//341 4//341
f 618//341 620//341 4//341
f 616//341 618//341 4//341
f 612//341 614//341 616//341
f 610//341 612//341 616//341
f 608//341 610//341 616//341
f 606//341 608//341 616//341
f 604//341 606//341 616//341
f 602//341 604//341 616//341
f 602//341 616//341 4//341
f 600//341 602//341 4//341
f 598//341 600//341 4//341
f 594//341 596//341 598//341
f 592//341 594//341 598//341
f 590//341 592//341 598//341
f 588//341 590//341 598//341
f 586//341 588//341 598//341
f 568//341 570//341 572//341
f 568//341 572//341 574//341
f 568//341 574//341 576//341
f 568//341 576//341 578//341
f 568//341 578//341 580//341
f 568//341 580//341 582//341
f 568//341 582//341 584//341
f 568//341 584//341 586//341
f 558//341 560//341 562//341
f 558//341 562//341 564//341
f 558//341 564//341 566//341
f 556//341 558//341 566//341
f 556//341 566//341 568//341
f 554//341 556//341 568//341
f 552//341 554//341 568//341
f 550//341 552//341 568//341
f 548//341 550//341 568//341
f 546//341 548//341 568//341
f 544//341 546//341 568//341
f 544//341 568//341 586//341
f 542//341 544//341 586//341
f 540//341 542//341 586//341
f 538//341 540//341 586//341
f 536//341 538//341 586//341
f 534//341 536//341 586//341
f 532//341 534//341 586//341
f 530//341 532//341 586//341
f 528//341 530//341 586//341
f 526//341 528//341 586//341
f 524//341 526//341 586//341
f 524//341 586//341 598//341
f 522//341 524//341 598//341
f 520//341 522//341 598//341
f 518//341 520//341 598//341
f 516//341 518//341 598//341
f 514//341 516//341 598//341
f 512//341 514//341 598//341
f 512//341 598//341 4//341
f 510//341 512//341 4//341
f 502//341 504//341 506//341
f 502//341 506//341 508//341
f 502//341 508//341 510//341
f 500//341 502//341 510//341
f 498//341 500//341 510//341
f 496//341 498//341 510//341
f 494//341 496//341 510//341
f 492//341 494//341 510//341
f 490//341 492//341 510//341
f 490//341 510//341 4//341
f 488//342 490//342 4//342
f 482//341 484//341 486//341
f 482//341 486//341 488//341
f 480//341 482//341 488//341
f 478//341 480//341 488//341
f 476//341 478//341 488//341
f 474//341 476//341 488//341
f 472//341 474//341 488//341
f 470//341 472//341 488//341
f 470//341 488//341 4//341
f 462//342 464//342 466//342
f 460//341 462//341 466//341
f 460//341 466//341 468//341
f 458//341 460//341 468//341
f 456//341 458//341 468//341
f 456//341 468//341 470//341
f 456//341 470//341 4//341
f 454//341 456//341 4//341
f 452//341 454//341 4//341
f 450//341 452//341 4//341
f 448//341 450//341 4//341
f 446//341 448//341 4//341
f 444//341 446//341 4//341
f 442//341 444//341 4//341
f 440//341 442//341 4//341
f 438//341 440//341 4//341
f 436//341 438//341 4//341
f 434//341 436//341 4//341
f 432//341 434//341 4//341
f 430//341 432//341 4//341
f 428//341 430//341 4//341
f 426//341 428//341 4//341
f 424//341 426//341 4//341
f 422//341 424//341 4//341
f 420//341 422//341 4//341
f 418//341 420//341 4//341
f 416//341 418//341 4//341
f 414//341 416//341 4//341
f 412//341 414//341 4//341
f 4//341 236//341 238//341
f 4//341 238//341 240//341
f 4//341 240//341 242//341
f 4//341 242//341 244//341
f 234//341 4//341 244//341
f 234//341 244//341 246//341
f 232//341 234//341 246//341
f 232//341 246//341 248//341
f 230//341 232//341 248//341
f 230//341 248//341 250//341
f 228//341 230//341 250//341
f 228//341 250//341 252//341
f 228//341 252//341 254//341
f 226//341 228//341 254//341
f 226//341 254//341 256//341
f 224//341 226//341 256//341
f 224//341 256//341 258//341
f 224//341 258//341 260//341
f 222//341 224//341 260//341
f 222//341 260//341 262//341
f 220//341 222//341 262//341
f 220//341 262//341 264//341
f 220//341 264//341 266//341
f 218//341 220//341 266//341
f 218//341 266//341 268//341
f 216//341 218//341 268//341
f 216//341 268//341 270//341
f 214//341 216//341 270//341
f 214//341 270//341 272//341
f 212//341 214//341 272//341
f 212//341 272//341 274//341
f 210//341 212//341 274//341
f 210//341 274//341 276//341
f 208//341 210//341 276//341
f 208//341 276//341 278//341
f 206//341 208//341 278//341
f 206//341 278//341 280//341
f 204//341 206//341 280//341
f 204//341 280//341 282//341
f 202//341 204//341 282//341
f 202//341 282//341 284//341
f 200//341 202//341 284//341
f 200//343 284//343 286//343
f 198//341 200//341 286//341
f 196//341 198//341 286//341
f 196//341 286//341 288//341
f 194//341 196//341 288//341
f 192//341 194//341 288//341
f 192//341 288//341 290//341
f 190//341 192//341 290//341
f 188//341 190//341 290//341
f 188//341 290//341 292//341
f 186//341 188//341 292//341
f 186//341 292//341 294//341
f 184//341 186//341 294//341
f 184//341 294//341 296//341
f 182//341 184//341 296//341
f 182//341 296//341 298//341
f 180//341 182//341 298//341
f 178//341 180//341 298//341
f 178//341 298//341 300//341
f 176//341 178//341 300//341
f 176//341 300//341 302//341
f 174//341 176//341 302//341
f 174//341 302//341 304//341
f 172//341 174//341 304//341
f 172//341 304//341 306//341
f 170//341 172//341 306//341
f 170//341 306//341 308//341
f 170//341 308//341 310//341
f 168//341 170//341 310//341
f 168//341 310//341 312//341
f 166//341 168//341 312//341
f 166//341 312//341 314//341
f 164//341 166//341 314//341
f 164//341 314//341 316//341
f 162//341 164//341 316//341
f 162//341 316//341 318//341
f 160//341 162//341 318//341
f 160//341 318//341 320//341
f 158//341 160//341 320//341
f 158//341 320//341 322//341
f 156//341 158//341 322//341
f 156//341 322//341 324//341
f 154//341 156//341 324//341
f 152//341 154//341 324//341
f 152//341 324//341 326//341
f 150//341 152//341 326//341
f 150//341 326//341 328//341
f 148//341 150//341 328//341
f 146//341 148//341 328//341
f 146//341 328//341 330//341
f 144//341 146//341 330//341
f 142//341 144//341 330//341
f 142//341 330//341 332//341
f 140//341 142//341 332//341
f 140//341 332//341 334//341
f 138//341 140//341 334//341
f 136//341 138//341 334//341
f 136//341 334//341 336//341
f 134//341 136//341 336//341
f 132//341 134//341 336//341
f 132//341 336//341 338//341
f 130//341 132//341 338//341
f 128//341 130//341 338//341
f 128//341 338//341 340//341
f 126//341 128//341 340//341
f 126//341 340//341 342//341
f 124//341 126//341 342//341
f 122//341 124//341 342//341
f 122//341 342//341 344//341
f 120//341 122//341 344//341
f 118//341 120//341 344//341
f 118//341 344//341 346//341
f 116//341 118//341 346//341
f 116//341 346//341 348//341
f 114//341 116//341 348//341
f 114//341 348//341 350//341
f 112//341 114//341 350//341
f 112//341 350//341 352//341
f 110//341 112//341 352//341
f 110//341 352//341 354//341
f 108//341 110//341 354//341
f 108//341 354//341 356//341
f 106//341 108//341 356//341
f 106//341 356//341 358//341
f 104//341 106//341 358//341
f 104//341 358//341 360//341
f 102//341 104//341 360//341
f 102//341 360//341 362//341
f 100//341 102//341 362//341
f 100//341 362//341 364//341
f 98//341 100//341 364//341
f 98//341 364//341 366//341
f 96//341 98//341 366//341
f 96//344 366//344 368//344
f 94//341 96//341 368//341
f 92//341 94//341 368//341
f 92//341 368//341 370//341
f 90//341 92//341 370//341
f 90//341 370//341 372//341
f 88//341 90//341 372//341
f 88//341 372//341 374//341
f 86//341 88//341 374//341
f 86//341 374//341 376//341
f 84//341 86//341 376//341
f 84//341 376//341 378//341
f 82//341 84//341 378//341
f 82//341 378//341 380//341
f 80//341 82//341 380//341
f 80//341 380//341 382//341
f 78//341 80//341 382//341
f 78//341 382//341 384//341
f 76//341 78//341 384//341
f 74//341 76//341 384//341
f 74//341 384//341 386//341
f 72//341 74//341 386//341
f 72//341 386//341 388//341
f 70//341 72//341 388//341
f 70//341 388//341 390//341
f 68//341 70//341 390//341
f 68//341 390//341 392//341
f 66//341 68//341 392//341
f 66//341 392//341 394//341
f 64//341 66//341 394//341
f 64//341 394//341 396//341
f 62//341 64//341 396//341
f 62//341 396//341 398//341
f 60//341 62//341 398//341
f 58//341 60//341 398//341
f 58//341 398//341 400//341
f 56//341 58//341 400//341
f 56//341 400//341 402//341
f 54//341 56//341 402//341
f 52//341 54//341 402//341
f 52//341 402//341 404//341
f 50//341 52//341 404//341
f 50//341 404//341 406//341
f 48//341 50//341 406//341
f 46//341 48//341 406//341
f 46//341 406//341 408//341
f 44//341 46//341 408//341
f 44//341 408//341 410//341
f 42//341 44//341 410//341
f 40//341 42//341 410//341
f 40//341 410//341 412//341
f 38//341 40//341 412//341
f 36//341 38//341 412//341
f 34//341 36//341 412//341
f 34//341 412//341 4//341
f 32//341 34//341 4//341
f 30//341 32//341 4//341
f 28//341 30//341 4//341
f 26//341 28//341 4//341
f 24//341 26//341 4//341
f 22//341 24//341 4//341
f 20//341 22//341 4//341
f 18//341 20//341 4//341
f 16//341 18//341 4//341
f 14//341 16//341 4//341
f 12//341 14//341 4//341
f 10//341 12//341 4//341
f 8//341 10//341 4//341
f 6//341 8//341 4//341
f 4//341 3//341 6//341
