# Blender 4.2.2 LTS
# www.blender.org
mtllib Scissors.mtl
o Scissors
v 0.024824 0.000000 0.005003
v 0.025090 0.000000 0.003150
v 0.025090 0.002300 0.003150
v 0.024824 0.002300 0.005003
v 0.025212 0.000000 0.001282
v 0.025212 0.002300 0.001282
v 0.025192 0.000000 -0.000590
v 0.025192 0.002300 -0.000590
v 0.025031 0.000000 -0.002454
v 0.025031 0.002300 -0.002454
v 0.024730 0.000000 -0.004301
v 0.024730 0.002300 -0.004301
v 0.024290 0.000000 -0.006121
v 0.024290 0.002300 -0.006121
v 0.023714 0.000000 -0.007901
v 0.023714 0.002300 -0.007901
v 0.023001 0.000000 -0.009632
v 0.023001 0.002300 -0.009632
v 0.022087 0.000000 -0.011444
v 0.022087 0.002300 -0.011444
v 0.021025 0.000000 -0.013173
v 0.021025 0.002300 -0.013173
v 0.019824 0.000000 -0.014808
v 0.019824 0.002300 -0.014808
v 0.018493 0.000000 -0.016340
v 0.018493 0.002300 -0.016340
v 0.017042 0.000000 -0.017759
v 0.017042 0.002300 -0.017759
v 0.015481 0.000000 -0.019055
v 0.015481 0.002300 -0.019055
v 0.013818 0.000000 -0.020220
v 0.013818 0.002300 -0.020220
v 0.012064 0.000000 -0.021242
v 0.012064 0.002300 -0.021242
v 0.010721 0.000000 -0.021915
v 0.010721 0.002300 -0.021915
v 0.009339 0.000000 -0.022492
v 0.009339 0.002300 -0.022492
v 0.007922 0.000000 -0.022979
v 0.007922 0.002300 -0.022979
v 0.006478 0.000000 -0.023377
v 0.006478 0.002300 -0.023377
v 0.005012 0.000000 -0.023690
v 0.005012 0.002300 -0.023690
v 0.003530 0.000000 -0.023922
v 0.003530 0.002300 -0.023922
v 0.002038 0.000000 -0.024074
v 0.002038 0.002300 -0.024074
v 0.000541 0.000000 -0.024152
v 0.000541 0.002300 -0.024152
v 0.000466 0.000000 -0.024152
v 0.000466 0.002300 -0.024152
v -0.000780 0.000000 -0.024093
v -0.000780 0.002300 -0.024093
v -0.002024 0.000000 -0.023984
v -0.002024 0.002300 -0.023984
v -0.003261 0.000000 -0.023822
v -0.003261 0.002300 -0.023822
v -0.004488 0.000000 -0.023603
v -0.004488 0.002300 -0.023603
v -0.005704 0.000000 -0.023326
v -0.005704 0.002300 -0.023326
v -0.006903 0.000000 -0.022987
v -0.006903 0.002300 -0.022987
v -0.008083 0.000000 -0.022585
v -0.008083 0.002300 -0.022585
v -0.009241 0.000000 -0.022116
v -0.009241 0.002300 -0.022116
v -0.010255 0.000000 -0.021657
v -0.010255 0.002300 -0.021657
v -0.011246 0.000000 -0.021152
v -0.011246 0.002300 -0.021152
v -0.012212 0.000000 -0.020602
v -0.012212 0.002300 -0.020602
v -0.013153 0.000000 -0.020008
v -0.013153 0.002300 -0.020008
v -0.014065 0.000000 -0.019372
v -0.014065 0.002300 -0.019372
v -0.014948 0.000000 -0.018695
v -0.014948 0.002300 -0.018695
v -0.015799 0.000000 -0.017980
v -0.015799 0.002300 -0.017980
v -0.016619 0.000000 -0.017228
v -0.016619 0.002300 -0.017228
v -0.017403 0.000000 -0.016440
v -0.017403 0.002300 -0.016440
v -0.018153 0.000000 -0.015618
v -0.018153 0.002300 -0.015618
v -0.018864 0.000000 -0.014763
v -0.018864 0.002300 -0.014763
v -0.019537 0.000000 -0.013877
v -0.019537 0.002300 -0.013877
v -0.020169 0.000000 -0.012962
v -0.020169 0.002300 -0.012962
v -0.020759 0.000000 -0.012020
v -0.020759 0.002300 -0.012020
v -0.021305 0.000000 -0.011051
v -0.021305 0.002300 -0.011051
v -0.021805 0.000000 -0.010057
v -0.021805 0.002300 -0.010057
v -0.022270 0.000000 -0.009050
v -0.022270 0.002300 -0.009050
v -0.022691 0.000000 -0.008022
v -0.022691 0.002300 -0.008022
v -0.023065 0.000000 -0.006978
v -0.023065 0.002300 -0.006978
v -0.023390 0.000000 -0.005917
v -0.023390 0.002300 -0.005917
v -0.023663 0.000000 -0.004844
v -0.023663 0.002300 -0.004844
v -0.023883 0.000000 -0.003759
v -0.023883 0.002300 -0.003759
v -0.024046 0.000000 -0.002665
v -0.024046 0.002300 -0.002665
v -0.024152 0.000000 -0.001564
v -0.024152 0.002300 -0.001564
v -0.024230 0.000000 0.000633
v -0.024230 0.002300 0.000633
v -0.024152 0.000000 0.002829
v -0.024152 0.002300 0.002829
v -0.024043 0.000000 0.003911
v -0.024043 0.002300 0.003911
v -0.023883 0.000000 0.004985
v -0.023883 0.002300 0.004985
v -0.023672 0.000000 0.006050
v -0.023672 0.002300 0.006050
v -0.023412 0.000000 0.007104
v -0.023412 0.002300 0.007104
v -0.023103 0.000000 0.008145
v -0.023103 0.002300 0.008145
v -0.022747 0.000000 0.009172
v -0.022747 0.002300 0.009172
v -0.022345 0.000000 0.010181
v -0.022345 0.002300 0.010181
v -0.021898 0.000000 0.011173
v -0.021898 0.002300 0.011173
v -0.021408 0.000000 0.012144
v -0.021408 0.002300 0.012144
v -0.020876 0.000000 0.013093
v -0.020876 0.002300 0.013093
v -0.020302 0.000000 0.014019
v -0.020302 0.002300 0.014019
v -0.019689 0.000000 0.014918
v -0.019689 0.002300 0.014918
v -0.019036 0.000000 0.015790
v -0.019036 0.002300 0.015790
v -0.018347 0.000000 0.016633
v -0.018347 0.002300 0.016633
v -0.017621 0.000000 0.017445
v -0.017621 0.002300 0.017445
v -0.016860 0.000000 0.018223
v -0.016860 0.002300 0.018223
v -0.016059 0.000000 0.018981
v -0.016059 0.002300 0.018981
v -0.015225 0.000000 0.019701
v -0.015225 0.002300 0.019701
v -0.014359 0.000000 0.020381
v -0.014359 0.002300 0.020381
v -0.013463 0.000000 0.021021
v -0.013463 0.002300 0.021021
v -0.012540 0.000000 0.021620
v -0.012540 0.002300 0.021620
v -0.011591 0.000000 0.022178
v -0.011591 0.002300 0.022178
v -0.010618 0.000000 0.022693
v -0.010618 0.002300 0.022693
v -0.009624 0.000000 0.023166
v -0.009624 0.002300 0.023166
v -0.008609 0.000000 0.023594
v -0.008609 0.002300 0.023594
v -0.007577 0.000000 0.023978
v -0.007577 0.002300 0.023978
v -0.006529 0.000000 0.024316
v -0.006529 0.002300 0.024316
v -0.005468 0.000000 0.024609
v -0.005468 0.002300 0.024609
v -0.004394 0.000000 0.024854
v -0.004394 0.002300 0.024854
v -0.003310 0.000000 0.025052
v -0.003310 0.002300 0.025052
v -0.002219 0.000000 0.025201
v -0.002219 0.002300 0.025201
v -0.001121 0.000000 0.025302
v -0.001121 0.002300 0.025302
v 0.002116 0.000000 0.025302
v 0.002116 0.002300 0.025302
v 0.003994 0.000000 0.025093
v 0.003994 0.002300 0.025093
v 0.005851 0.000000 0.024746
v 0.005851 0.002300 0.024746
v 0.007677 0.000000 0.024263
v 0.007677 0.002300 0.024263
v 0.009462 0.000000 0.023645
v 0.009462 0.002300 0.023645
v 0.011194 0.000000 0.022896
v 0.011194 0.002300 0.022896
v 0.012864 0.000000 0.022017
v 0.012864 0.002300 0.022017
v 0.014461 0.000000 0.021010
v 0.014461 0.002300 0.021010
v 0.015974 0.000000 0.019879
v 0.015974 0.002300 0.019879
v 0.016822 0.000000 0.019169
v 0.016822 0.002300 0.019169
v 0.017636 0.000000 0.018422
v 0.017636 0.002300 0.018422
v 0.018415 0.000000 0.017638
v 0.018415 0.002300 0.017638
v 0.019159 0.000000 0.016820
v 0.019159 0.002300 0.016820
v 0.019865 0.000000 0.015969
v 0.019865 0.002300 0.015969
v 0.020532 0.000000 0.015088
v 0.020532 0.002300 0.015088
v 0.021160 0.000000 0.014178
v 0.021160 0.002300 0.014178
v 0.021748 0.000000 0.013241
v 0.021748 0.002300 0.013241
v 0.022293 0.000000 0.012280
v 0.022293 0.002300 0.012280
v 0.022794 0.000000 0.011295
v 0.022794 0.002300 0.011295
v 0.023251 0.000000 0.010288
v 0.023251 0.002300 0.010288
v 0.023662 0.000000 0.009263
v 0.023662 0.002300 0.009263
v 0.024027 0.000000 0.008220
v 0.024027 0.002300 0.008220
v 0.024342 0.000000 0.007161
v 0.024342 0.002300 0.007161
v 0.024609 0.000000 0.006088
v 0.024609 0.002300 0.006088
v 0.011777 0.000000 0.002565
v 0.011777 0.002300 0.002565
v 0.011621 0.000000 0.003036
v 0.011621 0.002300 0.003036
v 0.011036 0.000000 0.003039
v 0.011036 0.002300 0.003039
v 0.010448 0.000000 0.002980
v 0.010448 0.002300 0.002980
v 0.009869 0.000000 0.002858
v 0.009869 0.002300 0.002858
v 0.009309 0.000000 0.002673
v 0.009309 0.002300 0.002673
v 0.008777 0.000000 0.002422
v 0.008777 0.002300 0.002422
v 0.008285 0.000000 0.002106
v 0.008285 0.002300 0.002106
v 0.007842 0.000000 0.001722
v 0.007842 0.002300 0.001722
v 0.007458 0.000000 0.001271
v 0.007458 0.002300 0.001271
v 0.007068 0.000000 0.000638
v 0.007068 0.002300 0.000638
v 0.006775 0.000000 -0.000042
v 0.006775 0.002300 -0.000042
v 0.006580 0.000000 -0.000755
v 0.006580 0.002300 -0.000755
v 0.006483 0.000000 -0.001488
v 0.006483 0.002300 -0.001488
v 0.006485 0.000000 -0.002227
v 0.006485 0.002300 -0.002227
v 0.006586 0.000000 -0.002960
v 0.006586 0.002300 -0.002960
v 0.006788 0.000000 -0.003673
v 0.006788 0.002300 -0.003673
v 0.007090 0.000000 -0.004353
v 0.007090 0.002300 -0.004353
v 0.005365 0.000000 -0.004054
v 0.005365 0.002300 -0.004054
v 0.005296 0.000000 -0.002190
v 0.005296 0.002300 -0.002190
v 0.005180 0.000000 -0.001265
v 0.005180 0.002300 -0.001265
v 0.004974 0.000000 -0.000357
v 0.004974 0.002300 -0.000357
v 0.004747 0.000000 0.000091
v 0.004747 0.002300 0.000091
v 0.004449 0.000000 0.000481
v 0.004449 0.002300 0.000481
v 0.004091 0.000000 0.000814
v 0.004091 0.002300 0.000814
v 0.003684 0.000000 0.001092
v 0.003684 0.002300 0.001092
v 0.003241 0.000000 0.001318
v 0.003241 0.002300 0.001318
v 0.002772 0.000000 0.001494
v 0.002772 0.002300 0.001494
v 0.001806 0.000000 0.001702
v 0.001806 0.002300 0.001702
v 0.001294 0.000000 0.001449
v 0.001294 0.002300 0.001449
v 0.001031 0.000000 0.000649
v 0.001031 0.002300 0.000649
v 0.000848 0.000000 -0.000171
v 0.000848 0.002300 -0.000171
v 0.000495 0.000000 -0.001817
v 0.000495 0.002300 -0.001817
v 0.000001 0.000000 -0.003730
v 0.000001 0.002300 -0.003730
v -0.000203 0.000000 -0.004694
v -0.000203 0.002300 -0.004694
v -0.000299 0.000000 -0.005676
v -0.000299 0.002300 -0.005676
v -0.007435 0.000000 -0.007751
v -0.007435 0.002300 -0.007751
v -0.010993 0.000000 -0.008825
v -0.010993 0.002300 -0.008825
v -0.014531 0.000000 -0.009960
v -0.014531 0.002300 -0.009960
v -0.014823 0.000000 -0.009465
v -0.014823 0.002300 -0.009465
v -0.015014 0.000000 -0.008927
v -0.015014 0.002300 -0.008927
v -0.015085 0.000000 -0.008362
v -0.015085 0.002300 -0.008362
v -0.015020 0.000000 -0.007792
v -0.015020 0.002300 -0.007792
v -0.014723 0.000000 -0.007382
v -0.014723 0.002300 -0.007382
v -0.014327 0.000000 -0.007064
v -0.014327 0.002300 -0.007064
v -0.013450 0.000000 -0.006532
v -0.013450 0.002300 -0.006532
v -0.010576 0.000000 -0.005034
v -0.010576 0.002300 -0.005034
v -0.007651 0.000000 -0.003635
v -0.007651 0.002300 -0.003635
v -0.001725 0.000000 -0.000995
v -0.001725 0.002300 -0.000995
v -0.001654 0.000000 -0.000359
v -0.001654 0.002300 -0.000359
v -0.001700 0.000000 -0.000048
v -0.001700 0.002300 -0.000048
v -0.001840 0.000000 0.000242
v -0.001840 0.002300 0.000242
v -0.002057 0.000000 0.000471
v -0.002057 0.002300 0.000471
v -0.002349 0.000000 0.000585
v -0.002349 0.002300 0.000585
v -0.002984 0.000000 0.000696
v -0.002984 0.002300 0.000696
v -0.010353 0.000000 0.001594
v -0.010353 0.002300 0.001594
v -0.017728 0.000000 0.002438
v -0.017728 0.002300 0.002438
v -0.017771 0.000000 0.003129
v -0.017771 0.002300 0.003129
v -0.017689 0.000000 0.003828
v -0.017689 0.002300 0.003828
v -0.017585 0.000000 0.004158
v -0.017585 0.002300 0.004158
v -0.017429 0.000000 0.004461
v -0.017429 0.002300 0.004461
v -0.017217 0.000000 0.004729
v -0.017217 0.002300 0.004729
v -0.016941 0.000000 0.004951
v -0.016941 0.002300 0.004951
v -0.016000 0.000000 0.005157
v -0.016000 0.002300 0.005157
v -0.015038 0.000000 0.005229
v -0.015038 0.002300 0.005229
v -0.013105 0.000000 0.005239
v -0.013105 0.002300 0.005239
v -0.009251 0.000000 0.005151
v -0.009251 0.002300 0.005151
v -0.005402 0.000000 0.004936
v -0.005402 0.002300 0.004936
v -0.001559 0.000000 0.004624
v -0.001559 0.002300 0.004624
v 0.002277 0.000000 0.004244
v 0.002277 0.002300 0.004244
v 0.003224 0.000000 0.004161
v 0.003224 0.002300 0.004161
v 0.004185 0.000000 0.004136
v 0.004185 0.002300 0.004136
v 0.005128 0.000000 0.004249
v 0.005128 0.002300 0.004249
v 0.005582 0.000000 0.004381
v 0.005582 0.002300 0.004381
v 0.006021 0.000000 0.004577
v 0.006021 0.002300 0.004577
v 0.006239 0.000000 0.004766
v 0.006239 0.002300 0.004766
v 0.006399 0.000000 0.004988
v 0.006399 0.002300 0.004988
v 0.006501 0.000000 0.005235
v 0.006501 0.002300 0.005235
v 0.006547 0.000000 0.005498
v 0.006547 0.002300 0.005498
v 0.006541 0.000000 0.005768
v 0.006541 0.002300 0.005768
v 0.006483 0.000000 0.006036
v 0.006483 0.002300 0.006036
v 0.006376 0.000000 0.006292
v 0.006376 0.002300 0.006292
v 0.006222 0.000000 0.006527
v 0.006222 0.002300 0.006527
v 0.006596 0.000000 0.006644
v 0.006596 0.002300 0.006644
v 0.006963 0.000000 0.006814
v 0.006963 0.002300 0.006814
v 0.007307 0.000000 0.007032
v 0.007307 0.002300 0.007032
v 0.007611 0.000000 0.007297
v 0.007611 0.002300 0.007297
v 0.007857 0.000000 0.007603
v 0.007857 0.002300 0.007603
v 0.008027 0.000000 0.007949
v 0.008027 0.002300 0.007949
v 0.008105 0.000000 0.008331
v 0.008105 0.002300 0.008331
v 0.008074 0.000000 0.008746
v 0.008074 0.002300 0.008746
v 0.007718 0.000000 0.009347
v 0.007718 0.002300 0.009347
v 0.007288 0.000000 0.009897
v 0.007288 0.002300 0.009897
v 0.006320 0.000000 0.010908
v 0.006320 0.002300 0.010908
v 0.007472 0.000000 0.011160
v 0.007472 0.002300 0.011160
v 0.008646 0.000000 0.011356
v 0.008646 0.002300 0.011356
v 0.009235 0.000000 0.011401
v 0.009235 0.002300 0.011401
v 0.009821 0.000000 0.011395
v 0.009821 0.002300 0.011395
v 0.010403 0.000000 0.011325
v 0.010403 0.002300 0.011325
v 0.010977 0.000000 0.011179
v 0.010977 0.002300 0.011179
v 0.011677 0.000000 0.010784
v 0.011677 0.002300 0.010784
v 0.012314 0.000000 0.010312
v 0.012314 0.002300 0.010312
v 0.012904 0.000000 0.009780
v 0.012904 0.002300 0.009780
v 0.013461 0.000000 0.009208
v 0.013461 0.002300 0.009208
v 0.014534 0.000000 0.008015
v 0.014534 0.002300 0.008015
v 0.015652 0.000000 0.006877
v 0.015652 0.002300 0.006877
v 0.015902 0.000000 0.006715
v 0.015902 0.002300 0.006715
v 0.016180 0.000000 0.006613
v 0.016180 0.002300 0.006613
v 0.016768 0.000000 0.006504
v 0.016768 0.002300 0.006504
v 0.018372 0.000000 0.006370
v 0.018372 0.002300 0.006370
v 0.019981 0.000000 0.006338
v 0.019981 0.002300 0.006338
v 0.021590 0.000000 0.006389
v 0.021590 0.002300 0.006389
v 0.023197 0.000000 0.006504
v 0.023197 0.002300 0.006504
v 0.022641 0.000000 0.008355
v 0.022641 0.002300 0.008355
v 0.021930 0.000000 0.010152
v 0.021930 0.002300 0.010152
v 0.021070 0.000000 0.011884
v 0.021070 0.002300 0.011884
v 0.020071 0.000000 0.013539
v 0.020071 0.002300 0.013539
v 0.018939 0.000000 0.015107
v 0.018939 0.002300 0.015107
v 0.017682 0.000000 0.016577
v 0.017682 0.002300 0.016577
v 0.016308 0.000000 0.017937
v 0.016308 0.002300 0.017937
v 0.014824 0.000000 0.019177
v 0.014824 0.002300 0.019177
v 0.013201 0.000000 0.020318
v 0.013201 0.002300 0.020318
v 0.011484 0.000000 0.021312
v 0.011484 0.002300 0.021312
v 0.009688 0.000000 0.022156
v 0.009688 0.002300 0.022156
v 0.007827 0.000000 0.022845
v 0.007827 0.002300 0.022845
v 0.005914 0.000000 0.023376
v 0.005914 0.002300 0.023376
v 0.003963 0.000000 0.023745
v 0.003963 0.002300 0.023745
v 0.001989 0.000000 0.023947
v 0.001989 0.002300 0.023947
v 0.000006 0.000000 0.023979
v 0.000006 0.002300 0.023979
v -0.001043 0.000000 0.023925
v -0.001043 0.002300 0.023925
v -0.002088 0.000000 0.023823
v -0.002088 0.002300 0.023823
v -0.003127 0.000000 0.023673
v -0.003127 0.002300 0.023673
v -0.004158 0.000000 0.023477
v -0.004158 0.002300 0.023477
v -0.005180 0.000000 0.023235
v -0.005180 0.002300 0.023235
v -0.006190 0.000000 0.022947
v -0.006190 0.002300 0.022947
v -0.007186 0.000000 0.022615
v -0.007186 0.002300 0.022615
v -0.008167 0.000000 0.022240
v -0.008167 0.002300 0.022240
v -0.009129 0.000000 0.021821
v -0.009129 0.002300 0.021821
v -0.010072 0.000000 0.021359
v -0.010072 0.002300 0.021359
v -0.010994 0.000000 0.020856
v -0.010994 0.002300 0.020856
v -0.011891 0.000000 0.020312
v -0.011891 0.002300 0.020312
v -0.012763 0.000000 0.019728
v -0.012763 0.002300 0.019728
v -0.013607 0.000000 0.019104
v -0.013607 0.002300 0.019104
v -0.014421 0.000000 0.018441
v -0.014421 0.002300 0.018441
v -0.015204 0.000000 0.017740
v -0.015204 0.002300 0.017740
v -0.016303 0.000000 0.016655
v -0.016303 0.002300 0.016655
v -0.017326 0.000000 0.015498
v -0.017326 0.002300 0.015498
v -0.018268 0.000000 0.014274
v -0.018268 0.002300 0.014274
v -0.019127 0.000000 0.012991
v -0.019127 0.002300 0.012991
v -0.019898 0.000000 0.011653
v -0.019898 0.002300 0.011653
v -0.020579 0.000000 0.010266
v -0.020579 0.002300 0.010266
v -0.021166 0.000000 0.008837
v -0.021166 0.002300 0.008837
v -0.021656 0.000000 0.007372
v -0.021656 0.002300 0.007372
v -0.022142 0.000000 0.005514
v -0.022142 0.002300 0.005514
v -0.022467 0.000000 0.003623
v -0.022467 0.002300 0.003623
v -0.022631 0.000000 0.001711
v -0.022631 0.002300 0.001711
v -0.022636 0.000000 -0.000208
v -0.022636 0.002300 -0.000208
v -0.022483 0.000000 -0.002122
v -0.022483 0.002300 -0.002122
v -0.022171 0.000000 -0.004016
v -0.022171 0.002300 -0.004016
v -0.021704 0.000000 -0.005878
v -0.021704 0.002300 -0.005878
v -0.021081 0.000000 -0.007694
v -0.021081 0.002300 -0.007694
v -0.020285 0.000000 -0.009530
v -0.020285 0.002300 -0.009530
v -0.019332 0.000000 -0.011288
v -0.019332 0.002300 -0.011288
v -0.018231 0.000000 -0.012957
v -0.018231 0.002300 -0.012957
v -0.016992 0.000000 -0.014526
v -0.016992 0.002300 -0.014526
v -0.015624 0.000000 -0.015984
v -0.015624 0.002300 -0.015984
v -0.014137 0.000000 -0.017320
v -0.014137 0.002300 -0.017320
v -0.012541 0.000000 -0.018525
v -0.012541 0.002300 -0.018525
v -0.010845 0.000000 -0.019586
v -0.010845 0.002300 -0.019586
v -0.009517 0.000000 -0.020285
v -0.009517 0.002300 -0.020285
v -0.008146 0.000000 -0.020896
v -0.008146 0.002300 -0.020896
v -0.006738 0.000000 -0.021418
v -0.006738 0.002300 -0.021418
v -0.005300 0.000000 -0.021847
v -0.005300 0.002300 -0.021847
v -0.003837 0.000000 -0.022185
v -0.003837 0.002300 -0.022185
v -0.002355 0.000000 -0.022428
v -0.002355 0.002300 -0.022428
v -0.000862 0.000000 -0.022576
v -0.000862 0.002300 -0.022576
v 0.000638 0.000000 -0.022628
v 0.000638 0.002300 -0.022628
v 0.002024 0.000000 -0.022587
v 0.002024 0.002300 -0.022587
v 0.003404 0.000000 -0.022461
v 0.003404 0.002300 -0.022461
v 0.004468 0.000000 -0.022309
v 0.004468 0.002300 -0.022309
v 0.005523 0.000000 -0.022107
v 0.005523 0.002300 -0.022107
v 0.006567 0.000000 -0.021856
v 0.006567 0.002300 -0.021856
v 0.007599 0.000000 -0.021557
v 0.007599 0.002300 -0.021557
v 0.008616 0.000000 -0.021211
v 0.008616 0.002300 -0.021211
v 0.009616 0.000000 -0.020819
v 0.009616 0.002300 -0.020819
v 0.010598 0.000000 -0.020382
v 0.010598 0.002300 -0.020382
v 0.011559 0.000000 -0.019901
v 0.011559 0.002300 -0.019901
v 0.012497 0.000000 -0.019378
v 0.012497 0.002300 -0.019378
v 0.013410 0.000000 -0.018812
v 0.013410 0.002300 -0.018812
v 0.014296 0.000000 -0.018205
v 0.014296 0.002300 -0.018205
v 0.015153 0.000000 -0.017558
v 0.015153 0.002300 -0.017558
v 0.015979 0.000000 -0.016872
v 0.015979 0.002300 -0.016872
v 0.016773 0.000000 -0.016147
v 0.016773 0.002300 -0.016147
v 0.017531 0.000000 -0.015386
v 0.017531 0.002300 -0.015386
v 0.018252 0.000000 -0.014589
v 0.018252 0.002300 -0.014589
v 0.019065 0.000000 -0.013601
v 0.019065 0.002300 -0.013601
v 0.019820 0.000000 -0.012569
v 0.019820 0.002300 -0.012569
v 0.020517 0.000000 -0.011497
v 0.020517 0.002300 -0.011497
v 0.021154 0.000000 -0.010388
v 0.021154 0.002300 -0.010388
v 0.021731 0.000000 -0.009246
v 0.021731 0.002300 -0.009246
v 0.022246 0.000000 -0.008075
v 0.022246 0.002300 -0.008075
v 0.022699 0.000000 -0.006878
v 0.022699 0.002300 -0.006878
v 0.023088 0.000000 -0.005658
v 0.023088 0.002300 -0.005658
v 0.019237 0.000000 -0.005808
v 0.019237 0.002300 -0.005808
v 0.017313 0.000000 -0.005897
v 0.017313 0.002300 -0.005897
v 0.015394 0.000000 -0.006044
v 0.015394 0.002300 -0.006044
v 0.014574 0.000000 -0.006154
v 0.014574 0.002300 -0.006154
v 0.014181 0.000000 -0.006270
v 0.014181 0.002300 -0.006270
v 0.013824 0.000000 -0.006475
v 0.013824 0.002300 -0.006475
v 0.012552 0.000000 -0.007360
v 0.012552 0.002300 -0.007360
v 0.011245 0.000000 -0.008190
v 0.011245 0.002300 -0.008190
v 0.009900 0.000000 -0.008956
v 0.009900 0.002300 -0.008956
v 0.008516 0.000000 -0.009649
v 0.008516 0.002300 -0.009649
v 0.007423 0.000000 -0.010049
v 0.007423 0.002300 -0.010049
v 0.006855 0.000000 -0.010113
v 0.006855 0.002300 -0.010113
v 0.006572 0.000000 -0.010077
v 0.006572 0.002300 -0.010077
v 0.006291 0.000000 -0.009983
v 0.006291 0.002300 -0.009983
v 0.005599 0.000000 -0.009664
v 0.005599 0.002300 -0.009664
v 0.004939 0.000000 -0.009291
v 0.004939 0.002300 -0.009291
v 0.004309 0.000000 -0.008871
v 0.004309 0.002300 -0.008871
v 0.003705 0.000000 -0.008412
v 0.003705 0.002300 -0.008412
v 0.002562 0.000000 -0.007406
v 0.002562 0.002300 -0.007406
v 0.001484 0.000000 -0.006337
v 0.001484 0.002300 -0.006337
v 0.000859 0.000000 -0.005699
v 0.000859 0.002300 -0.005699
v 0.000615 0.000000 -0.005338
v 0.000615 0.002300 -0.005338
v 0.000551 0.000000 -0.005134
v 0.000551 0.002300 -0.005134
v 0.000541 0.000000 -0.004911
v 0.000541 0.002300 -0.004911
v 0.001834 0.000000 0.000656
v 0.001834 0.002300 0.000656
v 0.002563 0.000000 0.000536
v 0.002563 0.002300 0.000536
v 0.003251 0.000000 0.000255
v 0.003251 0.002300 0.000255
v 0.003851 0.000000 -0.000177
v 0.003851 0.002300 -0.000177
v 0.004105 0.000000 -0.000445
v 0.004105 0.002300 -0.000445
v 0.004319 0.000000 -0.000748
v 0.004319 0.002300 -0.000748
v 0.004580 0.000000 -0.001705
v 0.004580 0.002300 -0.001705
v 0.004694 0.000000 -0.002691
v 0.004694 0.002300 -0.002691
v 0.004708 0.000000 -0.003689
v 0.004708 0.002300 -0.003689
v 0.004669 0.000000 -0.004681
v 0.004669 0.002300 -0.004681
v 0.007930 0.000000 -0.005520
v 0.007930 0.002300 -0.005520
v 0.007740 0.000000 -0.004772
v 0.007740 0.002300 -0.004772
v 0.007596 0.000000 -0.004004
v 0.007596 0.002300 -0.004004
v 0.007507 0.000000 -0.003224
v 0.007507 0.002300 -0.003224
v 0.007481 0.000000 -0.002441
v 0.007481 0.002300 -0.002441
v 0.007529 0.000000 -0.001664
v 0.007529 0.002300 -0.001664
v 0.007659 0.000000 -0.000900
v 0.007659 0.002300 -0.000900
v 0.007882 0.000000 -0.000159
v 0.007882 0.002300 -0.000159
v 0.008206 0.000000 0.000552
v 0.008206 0.002300 0.000552
v 0.008499 0.000000 0.001007
v 0.008499 0.002300 0.001007
v 0.008857 0.000000 0.001396
v 0.008857 0.002300 0.001396
v 0.009271 0.000000 0.001723
v 0.009271 0.002300 0.001723
v 0.009728 0.000000 0.001991
v 0.009728 0.002300 0.001991
v 0.010218 0.000000 0.002206
v 0.010218 0.002300 0.002206
v 0.010731 0.000000 0.002370
v 0.010731 0.002300 0.002370
v -0.006691 0.000000 0.005829
v -0.006753 0.000000 0.006316
v -0.006753 0.002300 0.006316
v -0.006691 0.002300 0.005829
v -0.006731 0.000000 0.006813
v -0.006731 0.002300 0.006813
v -0.006627 0.000000 0.007301
v -0.006627 0.002300 0.007301
v -0.006442 0.000000 0.007758
v -0.006442 0.002300 0.007758
v -0.006178 0.000000 0.008165
v -0.006178 0.002300 0.008165
v -0.005838 0.000000 0.008503
v -0.005838 0.002300 0.008503
v -0.005421 0.000000 0.008751
v -0.005421 0.002300 0.008751
v -0.004932 0.000000 0.008890
v -0.004932 0.002300 0.008890
v -0.003692 0.000000 0.008974
v -0.003692 0.002300 0.008974
v -0.002446 0.000000 0.008956
v -0.002446 0.002300 0.008956
v -0.001212 0.000000 0.008804
v -0.001212 0.002300 0.008804
v -0.000607 0.000000 0.008667
v -0.000607 0.002300 0.008667
v -0.000012 0.000000 0.008485
v -0.000012 0.002300 0.008485
v 0.002175 0.000000 0.007720
v 0.002175 0.002300 0.007720
v 0.004331 0.000000 0.006877
v 0.004331 0.002300 0.006877
v 0.005115 0.000000 0.006471
v 0.005115 0.002300 0.006471
v 0.005423 0.000000 0.006172
v 0.005423 0.002300 0.006172
v 0.005527 0.000000 0.005984
v 0.005527 0.002300 0.005984
v 0.005585 0.000000 0.005764
v 0.005585 0.002300 0.005764
v 0.005514 0.000000 0.005455
v 0.005514 0.002300 0.005455
v 0.005385 0.000000 0.005162
v 0.005385 0.002300 0.005162
v 0.005183 0.000000 0.004925
v 0.005183 0.002300 0.004925
v 0.004895 0.000000 0.004787
v 0.004895 0.002300 0.004787
v 0.004319 0.000000 0.004672
v 0.004319 0.002300 0.004672
v 0.003732 0.000000 0.004654
v 0.003732 0.002300 0.004654
v 0.002555 0.000000 0.004745
v 0.002555 0.002300 0.004745
v -0.003084 0.000000 0.009799
v -0.003088 0.000000 0.011004
v -0.003088 0.002300 0.011004
v -0.003084 0.002300 0.009799
v -0.002970 0.000000 0.011586
v -0.002970 0.002300 0.011586
v -0.002843 0.000000 0.011850
v -0.002843 0.002300 0.011850
v -0.002657 0.000000 0.012087
v -0.002657 0.002300 0.012087
v -0.002155 0.000000 0.012296
v -0.002155 0.002300 0.012296
v -0.001637 0.000000 0.012446
v -0.001637 0.002300 0.012446
v -0.000567 0.000000 0.012609
v -0.000567 0.002300 0.012609
v 0.000525 0.000000 0.012650
v 0.000525 0.002300 0.012650
v 0.001608 0.000000 0.012642
v 0.001608 0.002300 0.012642
v 0.002024 0.000000 0.012624
v 0.002024 0.002300 0.012624
v 0.002423 0.000000 0.012527
v 0.002423 0.002300 0.012527
v 0.002799 0.000000 0.012360
v 0.002799 0.002300 0.012360
v 0.003147 0.000000 0.012131
v 0.003147 0.002300 0.012131
v 0.005327 0.000000 0.010555
v 0.005327 0.002300 0.010555
v 0.006358 0.000000 0.009695
v 0.006358 0.002300 0.009695
v 0.007291 0.000000 0.008727
v 0.007291 0.002300 0.008727
v 0.007221 0.000000 0.008403
v 0.007221 0.002300 0.008403
v 0.007096 0.000000 0.008105
v 0.007096 0.002300 0.008105
v 0.006922 0.000000 0.007837
v 0.006922 0.002300 0.007837
v 0.006704 0.000000 0.007604
v 0.006704 0.002300 0.007604
v 0.006450 0.000000 0.007413
v 0.006450 0.002300 0.007413
v 0.006164 0.000000 0.007269
v 0.006164 0.002300 0.007269
v 0.005854 0.000000 0.007178
v 0.005854 0.002300 0.007178
v 0.005525 0.000000 0.007144
v 0.005525 0.002300 0.007144
v 0.001312 0.000000 0.008820
v 0.001312 0.002300 0.008820
v 0.000242 0.000000 0.009190
v 0.000242 0.002300 0.009190
v -0.000843 0.000000 0.009493
v -0.000843 0.002300 0.009493
v -0.001951 0.000000 0.009704
v -0.001951 0.002300 0.009704
vn 0.9899 -0.0000 0.1420
vn 0.9979 -0.0000 0.0653
vn 0.9999 -0.0000 -0.0108
vn 0.9963 -0.0000 -0.0862
vn 0.9870 -0.0000 -0.1608
vn 0.9720 -0.0000 -0.2348
vn 0.9514 -0.0000 -0.3081
vn 0.9248 -0.0000 -0.3806
vn 0.8929 -0.0000 -0.4503
vn 0.8520 -0.0000 -0.5236
vn 0.8059 -0.0000 -0.5921
vn 0.7549 -0.0000 -0.6558
vn 0.6992 -0.0000 -0.7149
vn 0.6388 -0.0000 -0.7693
vn 0.5736 -0.0000 -0.8191
vn 0.5035 -0.0000 -0.8640
vn 0.4478 -0.0000 -0.8941
vn 0.3857 -0.0000 -0.9226
vn 0.3249 -0.0000 -0.9458
vn 0.2659 -0.0000 -0.9640
vn 0.2089 -0.0000 -0.9779
vn 0.1542 -0.0000 -0.9880
vn 0.1017 -0.0000 -0.9948
vn 0.0515 -0.0000 -0.9987
vn -0.0000 -0.0000 -1.0000
vn -0.0467 -0.0000 -0.9989
vn -0.0874 -0.0000 -0.9962
vn -0.1303 -0.0000 -0.9915
vn -0.1753 -0.0000 -0.9845
vn -0.2225 -0.0000 -0.9749
vn -0.2717 -0.0000 -0.9624
vn -0.3227 -0.0000 -0.9465
vn -0.3753 -0.0000 -0.9269
vn -0.4120 -0.0000 -0.9112
vn -0.4542 -0.0000 -0.8909
vn -0.4949 -0.0000 -0.8689
vn -0.5341 -0.0000 -0.8454
vn -0.5719 -0.0000 -0.8203
vn -0.6082 -0.0000 -0.7938
vn -0.6430 -0.0000 -0.7659
vn -0.6765 -0.0000 -0.7365
vn -0.7085 -0.0000 -0.7057
vn -0.7392 -0.0000 -0.6735
vn -0.7685 -0.0000 -0.6399
vn -0.7963 -0.0000 -0.6049
vn -0.8228 -0.0000 -0.5684
vn -0.8477 -0.0000 -0.5304
vn -0.8712 -0.0000 -0.4910
vn -0.8930 -0.0000 -0.4500
vn -0.9080 -0.0000 -0.4191
vn -0.9254 -0.0000 -0.3790
vn -0.9415 -0.0000 -0.3370
vn -0.9561 -0.0000 -0.2929
vn -0.9691 -0.0000 -0.2468
vn -0.9801 -0.0000 -0.1984
vn -0.9890 -0.0000 -0.1478
vn -0.9955 -0.0000 -0.0950
vn -0.9994 -0.0000 -0.0357
vn -0.9994 -0.0000 0.0357
vn -0.9950 -0.0000 0.0994
vn -0.9891 -0.0000 0.1474
vn -0.9810 -0.0000 0.1942
vn -0.9708 -0.0000 0.2399
vn -0.9587 -0.0000 0.2844
vn -0.9448 -0.0000 0.3277
vn -0.9291 -0.0000 0.3698
vn -0.9117 -0.0000 0.4108
vn -0.8927 -0.0000 0.4506
vn -0.8721 -0.0000 0.4893
vn -0.8499 -0.0000 0.5269
vn -0.8262 -0.0000 0.5634
vn -0.8008 -0.0000 0.5989
vn -0.7739 -0.0000 0.6333
vn -0.7453 -0.0000 0.6667
vn -0.7151 -0.0000 0.6990
vn -0.6875 -0.0000 0.7261
vn -0.6531 -0.0000 0.7573
vn -0.6177 -0.0000 0.7864
vn -0.5815 -0.0000 0.8136
vn -0.5444 -0.0000 0.8388
vn -0.5067 -0.0000 0.8621
vn -0.4681 -0.0000 0.8836
vn -0.4290 -0.0000 0.9033
vn -0.3891 -0.0000 0.9212
vn -0.3485 -0.0000 0.9373
vn -0.3073 -0.0000 0.9516
vn -0.2654 -0.0000 0.9641
vn -0.2229 -0.0000 0.9749
vn -0.1796 -0.0000 0.9837
vn -0.1356 -0.0000 0.9908
vn -0.0910 -0.0000 0.9958
vn -0.0000 -0.0000 1.0000
vn 0.1102 -0.0000 0.9939
vn 0.1837 -0.0000 0.9830
vn 0.2559 -0.0000 0.9667
vn 0.3271 -0.0000 0.9450
vn 0.3971 -0.0000 0.9178
vn 0.4658 -0.0000 0.8849
vn 0.5332 -0.0000 0.8460
vn 0.5987 -0.0000 0.8010
vn 0.6420 -0.0000 0.7667
vn 0.6765 -0.0000 0.7365
vn 0.7092 -0.0000 0.7050
vn 0.7401 -0.0000 0.6725
vn 0.7694 -0.0000 0.6387
vn 0.7970 -0.0000 0.6039
vn 0.8230 -0.0000 0.5681
vn 0.8473 -0.0000 0.5311
vn 0.8700 -0.0000 0.4930
vn 0.8911 -0.0000 0.4538
vn 0.9105 -0.0000 0.4135
vn 0.9282 -0.0000 0.3721
vn 0.9441 -0.0000 0.3295
vn 0.9583 -0.0000 0.2858
vn 0.9705 -0.0000 0.2409
vn 0.9808 -0.0000 0.1949
vn -0.9498 -0.0000 -0.3128
vn -0.0051 -0.0000 -1.0000
vn 0.0998 -0.0000 -0.9950
vn 0.2058 -0.0000 -0.9786
vn 0.3146 -0.0000 -0.9492
vn 0.4265 -0.0000 -0.9045
vn 0.5407 -0.0000 -0.8412
vn 0.6544 -0.0000 -0.7561
vn 0.7621 -0.0000 -0.6474
vn 0.8515 -0.0000 -0.5243
vn 0.9184 -0.0000 -0.3957
vn 0.9645 -0.0000 -0.2642
vn 0.9914 -0.0000 -0.1312
vn 1.0000 -0.0000 0.0025
vn 0.9906 -0.0000 0.1370
vn 0.9623 -0.0000 0.2719
vn 0.9138 -0.0000 0.4061
vn -0.1708 -0.0000 -0.9853
vn -0.9993 -0.0000 -0.0373
vn -0.9923 -0.0000 -0.1239
vn -0.9752 -0.0000 -0.2212
vn -0.8921 -0.0000 -0.4518
vn -0.7938 -0.0000 -0.6082
vn -0.6806 -0.0000 -0.7326
vn -0.5649 -0.0000 -0.8251
vn -0.4541 -0.0000 -0.8909
vn -0.3510 -0.0000 -0.9364
vn -0.2109 -0.0000 -0.9775
vn 0.4432 -0.0000 -0.8964
vn 0.9502 -0.0000 -0.3117
vn 0.9760 -0.0000 -0.2177
vn 0.9777 -0.0000 -0.2102
vn 0.9683 -0.0000 -0.2498
vn 0.9782 -0.0000 -0.2077
vn 0.9953 -0.0000 -0.0969
vn 0.2793 -0.0000 -0.9602
vn 0.2889 -0.0000 -0.9574
vn 0.3054 -0.0000 -0.9522
vn -0.8612 -0.0000 -0.5083
vn -0.9427 -0.0000 -0.3336
vn -0.9920 -0.0000 -0.1259
vn -0.9935 -0.0000 0.1137
vn -0.8092 -0.0000 0.5875
vn -0.6273 -0.0000 0.7788
vn -0.5181 -0.0000 0.8553
vn -0.4624 -0.0000 0.8867
vn -0.4313 -0.0000 0.9022
vn -0.4070 -0.0000 0.9134
vn -0.9938 -0.0000 0.1111
vn -0.9895 -0.0000 -0.1445
vn -0.8996 -0.0000 -0.4367
vn -0.7256 -0.0000 -0.6881
vn -0.3650 -0.0000 -0.9310
vn -0.1717 -0.0000 -0.9851
vn -0.1210 -0.0000 -0.9927
vn -0.1138 -0.0000 -0.9935
vn -0.9981 -0.0000 -0.0619
vn -0.9932 -0.0000 0.1167
vn -0.9534 -0.0000 0.3019
vn -0.8903 -0.0000 0.4555
vn -0.7831 -0.0000 0.6219
vn -0.6269 -0.0000 0.7791
vn -0.2136 -0.0000 0.9769
vn -0.0744 -0.0000 0.9972
vn -0.0052 -0.0000 1.0000
vn 0.0227 -0.0000 0.9997
vn 0.0558 -0.0000 0.9984
vn 0.0810 -0.0000 0.9967
vn 0.0985 -0.0000 0.9951
vn 0.0874 -0.0000 0.9962
vn 0.0254 -0.0000 0.9997
vn -0.1187 -0.0000 0.9929
vn -0.2794 -0.0000 0.9602
vn -0.4083 -0.0000 0.9128
vn -0.6522 -0.0000 0.7580
vn -0.8129 -0.0000 0.5825
vn -0.9246 -0.0000 0.3810
vn -0.9847 -0.0000 0.1744
vn -0.9997 -0.0000 -0.0247
vn -0.9774 -0.0000 -0.2114
vn -0.9226 -0.0000 -0.3858
vn -0.8365 -0.0000 -0.5480
vn -0.3003 -0.0000 0.9538
vn -0.4191 -0.0000 0.9079
vn -0.5359 -0.0000 0.8443
vn -0.6564 -0.0000 0.7544
vn -0.7804 -0.0000 0.6253
vn -0.8970 -0.0000 0.4421
vn -0.9798 -0.0000 0.2002
vn -0.9971 -0.0000 -0.0761
vn -0.8606 -0.0000 -0.5093
vn -0.7879 -0.0000 -0.6158
vn -0.7222 -0.0000 -0.6916
vn -0.2135 -0.0000 0.9769
vn -0.1643 -0.0000 0.9864
vn -0.0770 -0.0000 0.9970
vn 0.0103 -0.0000 0.9999
vn 0.1195 -0.0000 0.9928
vn 0.2471 -0.0000 0.9690
vn 0.4915 -0.0000 0.8709
vn 0.5953 -0.0000 0.8035
vn 0.6694 -0.0000 0.7429
vn 0.7166 -0.0000 0.6974
vn 0.7435 -0.0000 0.6688
vn 0.7131 -0.0000 0.7011
vn 0.5466 -0.0000 0.8374
vn 0.3437 -0.0000 0.9391
vn 0.1827 -0.0000 0.9832
vn 0.0828 -0.0000 0.9966
vn 0.0201 -0.0000 0.9998
vn -0.0313 -0.0000 0.9995
vn -0.0715 -0.0000 0.9974
vn -0.9578 -0.0000 -0.2875
vn -0.9298 -0.0000 -0.3681
vn -0.8958 -0.0000 -0.4446
vn -0.8560 -0.0000 -0.5170
vn -0.8107 -0.0000 -0.5854
vn -0.7600 -0.0000 -0.6500
vn -0.7036 -0.0000 -0.7106
vn -0.6415 -0.0000 -0.7672
vn -0.5749 -0.0000 -0.8182
vn -0.5011 -0.0000 -0.8654
vn -0.4252 -0.0000 -0.9051
vn -0.3472 -0.0000 -0.9378
vn -0.2674 -0.0000 -0.9636
vn -0.1857 -0.0000 -0.9826
vn -0.1019 -0.0000 -0.9948
vn -0.0162 -0.0000 -0.9999
vn 0.0973 -0.0000 -0.9953
vn 0.1424 -0.0000 -0.9898
vn 0.1869 -0.0000 -0.9824
vn 0.2307 -0.0000 -0.9730
vn 0.2737 -0.0000 -0.9618
vn 0.3162 -0.0000 -0.9487
vn 0.3579 -0.0000 -0.9338
vn 0.3990 -0.0000 -0.9169
vn 0.4395 -0.0000 -0.8983
vn 0.4793 -0.0000 -0.8777
vn 0.5184 -0.0000 -0.8551
vn 0.5568 -0.0000 -0.8306
vn 0.5945 -0.0000 -0.8041
vn 0.6313 -0.0000 -0.7755
vn 0.6672 -0.0000 -0.7448
vn 0.7024 -0.0000 -0.7117
vn 0.7493 -0.0000 -0.6622
vn 0.7922 -0.0000 -0.6102
vn 0.8312 -0.0000 -0.5560
vn 0.8663 -0.0000 -0.4995
vn 0.8976 -0.0000 -0.4408
vn 0.9250 -0.0000 -0.3800
vn 0.9485 -0.0000 -0.3169
vn 0.9674 -0.0000 -0.2533
vn 0.9856 -0.0000 -0.1693
vn 0.9963 -0.0000 -0.0856
vn 1.0000 -0.0000 -0.0025
vn 0.9968 -0.0000 0.0801
vn 0.9868 -0.0000 0.1621
vn 0.9699 -0.0000 0.2436
vn 0.9459 -0.0000 0.3245
vn 0.9176 -0.0000 0.3975
vn 0.8791 -0.0000 0.4766
vn 0.8347 -0.0000 0.5507
vn 0.7847 -0.0000 0.6199
vn 0.7293 -0.0000 0.6842
vn 0.6685 -0.0000 0.7437
vn 0.6023 -0.0000 0.7983
vn 0.5304 -0.0000 0.8477
vn 0.4660 -0.0000 0.8848
vn 0.4071 -0.0000 0.9134
vn 0.3471 -0.0000 0.9378
vn 0.2863 -0.0000 0.9581
vn 0.2246 -0.0000 0.9744
vn 0.1621 -0.0000 0.9868
vn 0.0987 -0.0000 0.9951
vn 0.0344 -0.0000 0.9994
vn -0.0297 -0.0000 0.9996
vn -0.0906 -0.0000 0.9959
vn -0.1416 -0.0000 0.9899
vn -0.1881 -0.0000 0.9822
vn -0.2337 -0.0000 0.9723
vn -0.2783 -0.0000 0.9605
vn -0.3220 -0.0000 0.9467
vn -0.3647 -0.0000 0.9311
vn -0.4066 -0.0000 0.9136
vn -0.4475 -0.0000 0.8943
vn -0.4876 -0.0000 0.8731
vn -0.5268 -0.0000 0.8500
vn -0.5651 -0.0000 0.8250
vn -0.6024 -0.0000 0.7982
vn -0.6388 -0.0000 0.7693
vn -0.6742 -0.0000 0.7385
vn -0.7086 -0.0000 0.7056
vn -0.7418 -0.0000 0.6707
vn -0.7719 -0.0000 0.6357
vn -0.8068 -0.0000 0.5908
vn -0.8385 -0.0000 0.5449
vn -0.8671 -0.0000 0.4982
vn -0.8927 -0.0000 0.4507
vn -0.9154 -0.0000 0.4025
vn -0.9354 -0.0000 0.3536
vn -0.9527 -0.0000 0.3040
vn 0.0388 -0.0000 -0.9992
vn 0.0461 -0.0000 -0.9989
vn 0.0763 -0.0000 -0.9971
vn 0.1335 -0.0000 -0.9910
vn 0.2837 -0.0000 -0.9589
vn 0.4969 -0.0000 -0.8678
vn 0.5712 -0.0000 -0.8208
vn 0.5360 -0.0000 -0.8442
vn 0.4950 -0.0000 -0.8689
vn 0.4479 -0.0000 -0.8941
vn 0.3432 -0.0000 -0.9393
vn 0.1124 -0.0000 -0.9937
vn -0.1259 -0.0000 -0.9920
vn -0.3182 -0.0000 -0.9480
vn -0.4176 -0.0000 -0.9086
vn -0.4924 -0.0000 -0.8704
vn -0.5549 -0.0000 -0.8319
vn -0.6056 -0.0000 -0.7958
vn -0.6606 -0.0000 -0.7507
vn -0.7039 -0.0000 -0.7103
vn -0.7143 -0.0000 -0.6998
vn -0.8296 -0.0000 -0.5584
vn -0.9537 -0.0000 -0.3008
vn -0.9989 -0.0000 -0.0479
vn -0.9740 -0.0000 0.2264
vn 0.1616 -0.0000 0.9869
vn 0.3784 -0.0000 0.9256
vn 0.5836 -0.0000 0.8121
vn 0.7279 -0.0000 0.6857
vn 0.8161 -0.0000 0.5779
vn 0.9647 -0.0000 0.2633
vn 0.9933 -0.0000 0.1152
vn 0.9999 -0.0000 0.0143
vn 0.9992 -0.0000 -0.0393
vn 0.2494 -0.0000 0.9684
vn -0.9695 -0.0000 -0.2452
vn -0.9829 -0.0000 -0.1843
vn -0.9935 -0.0000 -0.1141
vn -0.9995 -0.0000 -0.0327
vn -0.9981 -0.0000 0.0613
vn -0.9857 -0.0000 0.1683
vn -0.9578 -0.0000 0.2874
vn -0.9099 -0.0000 0.4147
vn -0.8411 -0.0000 0.5408
vn -0.7351 -0.0000 0.6779
vn -0.6198 -0.0000 0.7848
vn -0.5061 -0.0000 0.8625
vn -0.4004 -0.0000 0.9163
vn -0.3053 -0.0000 0.9522
vn -0.1831 -0.0000 0.9831
vn -0.1837 -0.0000 0.9830
vn -0.0000 1.0000 -0.0000
vn -0.0000 0.9992 0.0400
vn -0.0000 1.0000 -0.0001
vn -0.9921 -0.0000 -0.1258
vn -0.9990 -0.0000 0.0443
vn -0.9779 -0.0000 0.2093
vn -0.9271 -0.0000 0.3747
vn -0.8396 -0.0000 0.5433
vn -0.7040 -0.0000 0.7102
vn -0.5123 -0.0000 0.8588
vn -0.2728 -0.0000 0.9621
vn -0.0675 -0.0000 0.9977
vn 0.0145 -0.0000 0.9999
vn 0.1225 -0.0000 0.9925
vn 0.2198 -0.0000 0.9756
vn 0.2925 -0.0000 0.9563
vn 0.3302 -0.0000 0.9439
vn 0.3641 -0.0000 0.9314
vn 0.4604 -0.0000 0.8877
vn 0.6958 -0.0000 0.7182
vn 0.8765 -0.0000 0.4814
vn 0.9667 -0.0000 0.2559
vn 0.9747 -0.0000 -0.2236
vn 0.9152 -0.0000 -0.4030
vn 0.7609 -0.0000 -0.6489
vn 0.4330 -0.0000 -0.9014
vn 0.1951 -0.0000 -0.9808
vn 0.0312 -0.0000 -0.9995
vn -0.0775 -0.0000 -0.9970
vn -0.1164 -0.0000 -0.9932
vn -1.0000 -0.0000 -0.0029
vn -0.9800 -0.0000 0.1988
vn -0.9013 -0.0000 0.4332
vn -0.7867 -0.0000 0.6173
vn -0.3837 -0.0000 0.9234
vn -0.2789 -0.0000 0.9603
vn -0.1507 -0.0000 0.9886
vn -0.0373 -0.0000 0.9993
vn 0.0078 -0.0000 1.0000
vn 0.0432 -0.0000 0.9991
vn 0.2355 -0.0000 0.9719
vn 0.4058 -0.0000 0.9140
vn 0.5501 -0.0000 0.8351
vn 0.5859 -0.0000 0.8104
vn 0.6405 -0.0000 0.7680
vn 0.7199 -0.0000 0.6941
vn 0.9773 -0.0000 -0.2121
vn 0.9221 -0.0000 -0.3871
vn 0.8383 -0.0000 -0.5452
vn 0.7301 -0.0000 -0.6833
vn 0.6003 -0.0000 -0.7998
vn 0.4506 -0.0000 -0.8927
vn 0.2830 -0.0000 -0.9591
vn 0.1012 -0.0000 -0.9949
vn -0.3696 -0.0000 -0.9292
vn -0.3274 -0.0000 -0.9449
vn -0.2686 -0.0000 -0.9632
vn -0.1870 -0.0000 -0.9824
vn -0.0832 -0.0000 -0.9965
s 0
f 1//1 2//1 3//1 4//1
f 2//2 5//2 6//2 3//2
f 5//3 7//3 8//3 6//3
f 7//4 9//4 10//4 8//4
f 9//5 11//5 12//5 10//5
f 11//6 13//6 14//6 12//6
f 13//7 15//7 16//7 14//7
f 15//8 17//8 18//8 16//8
f 17//9 19//9 20//9 18//9
f 19//10 21//10 22//10 20//10
f 21//11 23//11 24//11 22//11
f 23//12 25//12 26//12 24//12
f 25//13 27//13 28//13 26//13
f 27//14 29//14 30//14 28//14
f 29//15 31//15 32//15 30//15
f 31//16 33//16 34//16 32//16
f 33//17 35//17 36//17 34//17
f 35//18 37//18 38//18 36//18
f 37//19 39//19 40//19 38//19
f 39//20 41//20 42//20 40//20
f 41//21 43//21 44//21 42//21
f 43//22 45//22 46//22 44//22
f 45//23 47//23 48//23 46//23
f 47//24 49//24 50//24 48//24
f 49//25 51//25 52//25 50//25
f 51//26 53//26 54//26 52//26
f 53//27 55//27 56//27 54//27
f 55//28 57//28 58//28 56//28
f 57//29 59//29 60//29 58//29
f 59//30 61//30 62//30 60//30
f 61//31 63//31 64//31 62//31
f 63//32 65//32 66//32 64//32
f 65//33 67//33 68//33 66//33
f 67//34 69//34 70//34 68//34
f 69//35 71//35 72//35 70//35
f 71//36 73//36 74//36 72//36
f 73//37 75//37 76//37 74//37
f 75//38 77//38 78//38 76//38
f 77//39 79//39 80//39 78//39
f 79//40 81//40 82//40 80//40
f 81//41 83//41 84//41 82//41
f 83//42 85//42 86//42 84//42
f 85//43 87//43 88//43 86//43
f 87//44 89//44 90//44 88//44
f 89//45 91//45 92//45 90//45
f 91//46 93//46 94//46 92//46
f 93//47 95//47 96//47 94//47
f 95//48 97//48 98//48 96//48
f 97//49 99//49 100//49 98//49
f 99//50 101//50 102//50 100//50
f 101//51 103//51 104//51 102//51
f 103//52 105//52 106//52 104//52
f 105//53 107//53 108//53 106//53
f 107//54 109//54 110//54 108//54
f 109//55 111//55 112//55 110//55
f 111//56 113//56 114//56 112//56
f 113//57 115//57 116//57 114//57
f 115//58 117//58 118//58 116//58
f 117//59 119//59 120//59 118//59
f 119//60 121//60 122//60 120//60
f 121//61 123//61 124//61 122//61
f 123//62 125//62 126//62 124//62
f 125//63 127//63 128//63 126//63
f 127//64 129//64 130//64 128//64
f 129//65 131//65 132//65 130//65
f 131//66 133//66 134//66 132//66
f 133//67 135//67 136//67 134//67
f 135//68 137//68 138//68 136//68
f 137//69 139//69 140//69 138//69
f 139//70 141//70 142//70 140//70
f 141//71 143//71 144//71 142//71
f 143//72 145//72 146//72 144//72
f 145//73 147//73 148//73 146//73
f 147//74 149//74 150//74 148//74
f 149//75 151//75 152//75 150//75
f 151//76 153//76 154//76 152//76
f 153//77 155//77 156//77 154//77
f 155//78 157//78 158//78 156//78
f 157//79 159//79 160//79 158//79
f 159//80 161//80 162//80 160//80
f 161//81 163//81 164//81 162//81
f 163//82 165//82 166//82 164//82
f 165//83 167//83 168//83 166//83
f 167//84 169//84 170//84 168//84
f 169//85 171//85 172//85 170//85
f 171//86 173//86 174//86 172//86
f 173//87 175//87 176//87 174//87
f 175//88 177//88 178//88 176//88
f 177//89 179//89 180//89 178//89
f 179//90 181//90 182//90 180//90
f 181//91 183//91 184//91 182//91
f 183//92 185//92 186//92 184//92
f 185//93 187//93 188//93 186//93
f 187//94 189//94 190//94 188//94
f 189//95 191//95 192//95 190//95
f 191//96 193//96 194//96 192//96
f 193//97 195//97 196//97 194//97
f 195//98 197//98 198//98 196//98
f 197//99 199//99 200//99 198//99
f 199//100 201//100 202//100 200//100
f 201//101 203//101 204//101 202//101
f 203//102 205//102 206//102 204//102
f 205//103 207//103 208//103 206//103
f 207//104 209//104 210//104 208//104
f 209//105 211//105 212//105 210//105
f 211//106 213//106 214//106 212//106
f 213//107 215//107 216//107 214//107
f 215//108 217//108 218//108 216//108
f 217//109 219//109 220//109 218//109
f 219//110 221//110 222//110 220//110
f 221//111 223//111 224//111 222//111
f 223//112 225//112 226//112 224//112
f 225//113 227//113 228//113 226//113
f 227//114 229//114 230//114 228//114
f 229//115 231//115 232//115 230//115
f 231//116 1//116 4//116 232//116
f 233//117 235//117 236//117 234//117
f 235//118 237//118 238//118 236//118
f 237//119 239//119 240//119 238//119
f 239//120 241//120 242//120 240//120
f 241//121 243//121 244//121 242//121
f 243//122 245//122 246//122 244//122
f 245//123 247//123 248//123 246//123
f 247//124 249//124 250//124 248//124
f 249//125 251//125 252//125 250//125
f 251//126 253//126 254//126 252//126
f 253//127 255//127 256//127 254//127
f 255//128 257//128 258//128 256//128
f 257//129 259//129 260//129 258//129
f 259//130 261//130 262//130 260//130
f 261//131 263//131 264//131 262//131
f 263//132 265//132 266//132 264//132
f 265//133 267//133 268//133 266//133
f 267//134 269//134 270//134 268//134
f 269//135 271//135 272//135 270//135
f 271//136 273//136 274//136 272//136
f 273//137 275//137 276//137 274//137
f 275//138 277//138 278//138 276//138
f 277//139 279//139 280//139 278//139
f 279//140 281//140 282//140 280//140
f 281//141 283//141 284//141 282//141
f 283//142 285//142 286//142 284//142
f 285//143 287//143 288//143 286//143
f 287//144 289//144 290//144 288//144
f 289//145 291//145 292//145 290//145
f 291//146 293//146 294//146 292//146
f 293//147 295//147 296//147 294//147
f 295//148 297//148 298//148 296//148
f 297//149 299//149 300//149 298//149
f 299//150 301//150 302//150 300//150
f 301//151 303//151 304//151 302//151
f 303//152 305//152 306//152 304//152
f 305//153 307//153 308//153 306//153
f 307//154 309//154 310//154 308//154
f 309//155 311//155 312//155 310//155
f 311//156 313//156 314//156 312//156
f 313//157 315//157 316//157 314//157
f 315//158 317//158 318//158 316//158
f 317//159 319//159 320//159 318//159
f 319//160 321//160 322//160 320//160
f 321//161 323//161 324//161 322//161
f 323//162 325//162 326//162 324//162
f 325//163 327//163 328//163 326//163
f 327//164 329//164 330//164 328//164
f 329//165 331//165 332//165 330//165
f 331//166 333//166 334//166 332//166
f 333//167 335//167 336//167 334//167
f 335//168 337//168 338//168 336//168
f 337//169 339//169 340//169 338//169
f 339//170 341//170 342//170 340//170
f 341//171 343//171 344//171 342//171
f 343//172 345//172 346//172 344//172
f 345//173 347//173 348//173 346//173
f 347//174 349//174 350//174 348//174
f 349//175 351//175 352//175 350//175
f 351//176 353//176 354//176 352//176
f 353//177 355//177 356//177 354//177
f 355//178 357//178 358//178 356//178
f 357//179 359//179 360//179 358//179
f 359//180 361//180 362//180 360//180
f 361//181 363//181 364//181 362//181
f 363//182 365//182 366//182 364//182
f 365//183 367//183 368//183 366//183
f 367//184 369//184 370//184 368//184
f 369//185 371//185 372//185 370//185
f 371//186 373//186 374//186 372//186
f 373//187 375//187 376//187 374//187
f 375//188 377//188 378//188 376//188
f 377//189 379//189 380//189 378//189
f 379//190 381//190 382//190 380//190
f 381//191 383//191 384//191 382//191
f 383//192 385//192 386//192 384//192
f 385//193 387//193 388//193 386//193
f 387//194 389//194 390//194 388//194
f 389//195 391//195 392//195 390//195
f 391//196 393//196 394//196 392//196
f 393//197 395//197 396//197 394//197
f 395//198 397//198 398//198 396//198
f 397//199 399//199 400//199 398//199
f 399//200 401//200 402//200 400//200
f 401//201 403//201 404//201 402//201
f 403//202 405//202 406//202 404//202
f 405//203 407//203 408//203 406//203
f 407//204 409//204 410//204 408//204
f 409//205 411//205 412//205 410//205
f 411//206 413//206 414//206 412//206
f 413//207 415//207 416//207 414//207
f 415//208 417//208 418//208 416//208
f 417//209 419//209 420//209 418//209
f 419//210 421//210 422//210 420//210
f 421//211 423//211 424//211 422//211
f 423//212 425//212 426//212 424//212
f 425//213 427//213 428//213 426//213
f 427//214 429//214 430//214 428//214
f 429//215 431//215 432//215 430//215
f 431//216 433//216 434//216 432//216
f 433//217 435//217 436//217 434//217
f 435//218 437//218 438//218 436//218
f 437//219 439//219 440//219 438//219
f 439//220 441//220 442//220 440//220
f 441//221 443//221 444//221 442//221
f 443//222 445//222 446//222 444//222
f 445//223 447//223 448//223 446//223
f 447//224 449//224 450//224 448//224
f 449//225 451//225 452//225 450//225
f 451//226 453//226 454//226 452//226
f 453//227 455//227 456//227 454//227
f 455//228 457//228 458//228 456//228
f 457//229 459//229 460//229 458//229
f 459//230 461//230 462//230 460//230
f 461//231 463//231 464//231 462//231
f 463//232 465//232 466//232 464//232
f 465//233 467//233 468//233 466//233
f 467//234 469//234 470//234 468//234
f 469//235 471//235 472//235 470//235
f 471//236 473//236 474//236 472//236
f 473//237 475//237 476//237 474//237
f 475//238 477//238 478//238 476//238
f 477//239 479//239 480//239 478//239
f 479//240 481//240 482//240 480//240
f 481//241 483//241 484//241 482//241
f 483//242 485//242 486//242 484//242
f 485//243 487//243 488//243 486//243
f 487//244 489//244 490//244 488//244
f 489//24 491//24 492//24 490//24
f 491//245 493//245 494//245 492//245
f 493//246 495//246 496//246 494//246
f 495//247 497//247 498//247 496//247
f 497//248 499//248 500//248 498//248
f 499//249 501//249 502//249 500//249
f 501//250 503//250 504//250 502//250
f 503//251 505//251 506//251 504//251
f 505//252 507//252 508//252 506//252
f 507//253 509//253 510//253 508//253
f 509//254 511//254 512//254 510//254
f 511//255 513//255 514//255 512//255
f 513//256 515//256 516//256 514//256
f 515//257 517//257 518//257 516//257
f 517//258 519//258 520//258 518//258
f 519//259 521//259 522//259 520//259
f 521//260 523//260 524//260 522//260
f 523//261 525//261 526//261 524//261
f 525//262 527//262 528//262 526//262
f 527//263 529//263 530//263 528//263
f 529//264 531//264 532//264 530//264
f 531//265 533//265 534//265 532//265
f 533//266 535//266 536//266 534//266
f 535//267 537//267 538//267 536//267
f 537//268 539//268 540//268 538//268
f 539//269 541//269 542//269 540//269
f 541//270 543//270 544//270 542//270
f 543//271 545//271 546//271 544//271
f 545//272 547//272 548//272 546//272
f 547//273 549//273 550//273 548//273
f 549//274 551//274 552//274 550//274
f 551//275 553//275 554//275 552//275
f 553//276 555//276 556//276 554//276
f 555//277 557//277 558//277 556//277
f 557//278 559//278 560//278 558//278
f 559//279 561//279 562//279 560//279
f 561//280 563//280 564//280 562//280
f 563//281 565//281 566//281 564//281
f 565//282 567//282 568//282 566//282
f 567//283 569//283 570//283 568//283
f 569//284 571//284 572//284 570//284
f 571//285 573//285 574//285 572//285
f 573//286 575//286 576//286 574//286
f 575//287 577//287 578//287 576//287
f 577//288 579//288 580//288 578//288
f 579//289 581//289 582//289 580//289
f 581//290 583//290 584//290 582//290
f 583//291 585//291 586//291 584//291
f 585//292 587//292 588//292 586//292
f 587//293 589//293 590//293 588//293
f 589//294 591//294 592//294 590//294
f 591//295 593//295 594//295 592//295
f 593//296 595//296 596//296 594//296
f 595//297 597//297 598//297 596//297
f 597//298 599//298 600//298 598//298
f 599//299 601//299 602//299 600//299
f 601//300 603//300 604//300 602//300
f 603//301 605//301 606//301 604//301
f 605//302 607//302 608//302 606//302
f 607//303 609//303 610//303 608//303
f 609//304 611//304 612//304 610//304
f 611//305 613//305 614//305 612//305
f 613//306 615//306 616//306 614//306
f 615//307 617//307 618//307 616//307
f 617//308 619//308 620//308 618//308
f 619//309 621//309 622//309 620//309
f 621//310 623//310 624//310 622//310
f 623//311 625//311 626//311 624//311
f 625//312 627//312 628//312 626//312
f 627//313 629//313 630//313 628//313
f 629//314 631//314 632//314 630//314
f 631//315 633//315 634//315 632//315
f 633//316 635//316 636//316 634//316
f 635//317 637//317 638//317 636//317
f 637//318 639//318 640//318 638//318
f 639//319 641//319 642//319 640//319
f 641//320 643//320 644//320 642//320
f 643//321 645//321 646//321 644//321
f 645//322 647//322 648//322 646//322
f 647//323 649//323 650//323 648//323
f 649//324 651//324 652//324 650//324
f 651//325 653//325 654//325 652//325
f 653//326 655//326 656//326 654//326
f 655//327 657//327 658//327 656//327
f 657//328 659//328 660//328 658//328
f 659//329 661//329 662//329 660//329
f 661//330 663//330 664//330 662//330
f 663//331 665//331 666//331 664//331
f 665//332 667//332 668//332 666//332
f 667//333 669//333 670//333 668//333
f 669//334 671//334 672//334 670//334
f 671//335 673//335 674//335 672//335
f 673//336 675//336 676//336 674//336
f 675//337 677//337 678//337 676//337
f 677//338 679//338 680//338 678//338
f 679//339 681//339 682//339 680//339
f 681//340 683//340 684//340 682//340
f 683//341 685//341 686//341 684//341
f 685//342 687//342 688//342 686//342
f 687//343 689//343 690//343 688//343
f 689//344 691//344 692//344 690//344
f 691//345 693//345 694//345 692//345
f 693//346 695//346 696//346 694//346
f 695//347 697//347 698//347 696//347
f 697//348 699//348 700//348 698//348
f 699//349 701//349 702//349 700//349
f 701//350 703//350 704//350 702//350
f 703//351 705//351 706//351 704//351
f 705//352 707//352 708//352 706//352
f 707//353 709//353 710//353 708//353
f 709//354 711//354 712//354 710//354
f 711//355 713//355 714//355 712//355
f 713//356 715//356 716//356 714//356
f 715//357 717//357 718//357 716//357
f 717//358 719//358 720//358 718//358
f 719//359 721//359 722//359 720//359
f 721//360 723//360 724//360 722//360
f 723//361 725//361 726//361 724//361
f 725//362 727//362 728//362 726//362
f 727//363 729//363 730//363 728//363
f 729//364 731//364 732//364 730//364
f 731//365 733//365 734//365 732//365
f 733//366 735//366 736//366 734//366
f 735//367 233//367 234//367 736//367
f 233//368 1//368 4//368 234//368
f 734//369 736//369 234//369
f 734//369 234//369 4//369
f 732//369 734//369 4//369
f 730//369 732//369 4//369
f 728//369 730//369 4//369
f 726//369 728//369 4//369
f 724//369 726//369 4//369
f 722//369 724//369 4//369
f 720//369 722//369 4//369
f 718//369 720//369 4//369
f 716//369 718//369 4//369
f 714//369 716//369 4//369
f 712//369 714//369 4//369
f 710//369 712//369 4//369
f 708//369 710//369 4//369
f 702//369 704//369 706//369
f 700//369 702//369 706//369
f 698//369 700//369 706//369
f 696//369 698//369 706//369
f 694//369 696//369 706//369
f 692//369 694//369 706//369
f 690//369 692//369 706//369
f 688//369 690//369 706//369
f 686//369 688//369 706//369
f 686//369 706//369 708//369
f 684//369 686//369 708//369
f 682//369 684//369 708//369
f 680//369 682//369 708//369
f 678//369 680//369 708//369
f 676//369 678//369 708//369
f 674//369 676//369 708//369
f 674//369 708//369 4//369
f 672//369 674//369 4//369
f 670//369 672//369 4//369
f 668//369 670//369 4//369
f 666//369 668//369 4//369
f 664//369 666//369 4//369
f 662//369 664//369 4//369
f 660//369 662//369 4//369
f 658//369 660//369 4//369
f 656//369 658//369 4//369
f 654//369 656//369 4//369
f 652//369 654//369 4//369
f 650//369 652//369 4//369
f 648//369 650//369 4//369
f 646//369 648//369 4//369
f 644//369 646//369 4//369
f 642//369 644//369 4//369
f 640//369 642//369 4//369
f 638//369 640//369 4//369
f 438//369 440//369 442//369
f 436//369 438//369 442//369
f 434//369 436//369 442//369
f 434//369 442//369 444//369
f 432//369 434//369 444//369
f 430//369 432//369 444//369
f 428//369 430//369 444//369
f 426//369 428//369 444//369
f 424//369 426//369 444//369
f 424//369 444//369 446//369
f 422//369 424//369 446//369
f 420//369 422//369 446//369
f 418//369 420//369 446//369
f 416//369 418//369 446//369
f 416//369 446//369 448//369
f 414//369 416//369 448//369
f 412//369 414//369 448//369
f 410//369 412//369 448//369
f 410//369 448//369 450//369
f 408//369 410//369 450//369
f 406//369 408//369 450//369
f 404//369 406//369 450//369
f 404//369 450//369 452//369
f 402//369 404//369 452//369
f 400//369 402//369 452//369
f 398//369 400//369 452//369
f 398//369 452//369 454//369
f 396//369 398//369 454//369
f 394//369 396//369 454//369
f 392//369 394//369 454//369
f 392//369 454//369 456//369
f 390//369 392//369 456//369
f 388//369 390//369 456//369
f 388//369 456//369 458//369
f 386//369 388//369 458//369
f 384//369 386//369 458//369
f 382//369 384//369 458//369
f 380//369 382//369 458//369
f 378//369 380//369 458//369
f 368//369 370//369 372//369
f 366//369 368//369 372//369
f 366//369 372//369 374//369
f 364//369 366//369 374//369
f 362//369 364//369 374//369
f 360//369 362//369 374//369
f 358//369 360//369 374//369
f 356//369 358//369 374//369
f 354//369 356//369 374//369
f 354//369 374//369 376//369
f 352//369 354//369 376//369
f 350//369 352//369 376//369
f 348//369 350//369 376//369
f 346//369 348//369 376//369
f 344//369 346//369 376//369
f 344//369 376//369 378//369
f 344//369 378//369 458//369
f 342//369 344//369 458//369
f 326//369 328//369 330//369
f 324//369 326//369 330//369
f 322//369 324//369 330//369
f 320//369 322//369 330//369
f 318//369 320//369 330//369
f 316//369 318//369 330//369
f 314//369 316//369 330//369
f 312//369 314//369 330//369
f 310//369 312//369 330//369
f 308//369 310//369 330//369
f 306//369 308//369 330//369
f 304//369 306//369 330//369
f 304//369 330//369 332//369
f 304//369 332//369 334//369
f 302//369 304//369 334//369
f 300//369 302//369 334//369
f 298//369 300//369 334//369
f 298//369 334//369 336//369
f 298//369 336//369 338//369
f 296//369 298//369 338//369
f 296//369 338//369 340//369
f 294//369 296//369 340//369
f 294//369 340//369 342//369
f 292//369 294//369 342//369
f 290//369 292//369 342//369
f 290//369 342//369 458//369
f 288//369 290//369 458//369
f 286//369 288//369 458//369
f 268//369 270//369 272//369
f 268//369 272//369 274//369
f 268//369 274//369 276//369
f 268//369 276//369 278//369
f 266//369 268//369 278//369
f 264//369 266//369 278//369
f 262//369 264//369 278//369
f 260//369 262//369 278//369
f 260//369 278//369 280//369
f 258//369 260//369 280//369
f 258//369 280//369 282//369
f 258//369 282//369 284//369
f 256//369 258//369 284//369
f 256//369 284//369 286//369
f 254//369 256//369 286//369
f 252//369 254//369 286//369
f 250//369 252//369 286//369
f 248//369 250//369 286//369
f 246//369 248//369 286//369
f 244//369 246//369 286//369
f 242//369 244//369 286//369
f 242//369 286//369 458//369
f 240//369 242//369 458//369
f 238//369 240//369 458//369
f 236//369 238//369 458//369
f 234//369 236//369 458//369
f 4//369 234//369 458//369
f 4//369 458//369 460//369
f 4//369 460//369 462//369
f 4//369 462//369 464//369
f 232//369 4//369 464//369
f 232//369 464//369 466//369
f 230//369 232//369 466//369
f 228//369 230//369 466//369
f 228//369 466//369 468//369
f 226//369 228//369 468//369
f 224//369 226//369 468//369
f 224//369 468//369 470//369
f 222//369 224//369 470//369
f 220//369 222//369 470//369
f 220//369 470//369 472//369
f 218//369 220//369 472//369
f 216//369 218//369 472//369
f 216//369 472//369 474//369
f 214//369 216//369 474//369
f 212//369 214//369 474//369
f 212//369 474//369 476//369
f 210//369 212//369 476//369
f 208//369 210//369 476//369
f 208//369 476//369 478//369
f 206//369 208//369 478//369
f 204//369 206//369 478//369
f 204//369 478//369 480//369
f 202//369 204//369 480//369
f 202//369 480//369 482//369
f 200//369 202//369 482//369
f 200//369 482//369 484//369
f 198//369 200//369 484//369
f 196//369 198//369 484//369
f 196//369 484//369 486//369
f 194//369 196//369 486//369
f 194//369 486//369 488//369
f 192//369 194//369 488//369
f 192//369 488//369 490//369
f 190//369 192//369 490//369
f 190//369 490//369 492//369
f 190//369 492//369 494//369
f 188//369 190//369 494//369
f 188//369 494//369 496//369
f 188//369 496//369 498//369
f 186//369 188//369 498//369
f 186//369 498//369 500//369
f 184//369 186//369 500//369
f 184//369 500//369 502//369
f 184//369 502//369 504//369
f 184//369 504//369 506//369
f 182//369 184//369 506//369
f 182//369 506//369 508//369
f 180//369 182//369 508//369
f 180//369 508//369 510//369
f 180//370 510//370 512//370
f 178//369 180//369 512//369
f 176//369 178//369 512//369
f 176//369 512//369 514//369
f 174//369 176//369 514//369
f 174//369 514//369 516//369
f 172//369 174//369 516//369
f 172//369 516//369 518//369
f 170//369 172//369 518//369
f 170//369 518//369 520//369
f 168//369 170//369 520//369
f 168//369 520//369 522//369
f 166//369 168//369 522//369
f 166//369 522//369 524//369
f 164//369 166//369 524//369
f 164//369 524//369 526//369
f 162//369 164//369 526//369
f 160//369 162//369 526//369
f 160//369 526//369 528//369
f 158//369 160//369 528//369
f 158//369 528//369 530//369
f 156//369 158//369 530//369
f 154//369 156//369 530//369
f 154//369 530//369 532//369
f 152//369 154//369 532//369
f 152//369 532//369 534//369
f 150//369 152//369 534//369
f 148//369 150//369 534//369
f 148//369 534//369 536//369
f 146//369 148//369 536//369
f 146//369 536//369 538//369
f 144//369 146//369 538//369
f 144//369 538//369 540//369
f 142//369 144//369 540//369
f 140//369 142//369 540//369
f 140//369 540//369 542//369
f 138//369 140//369 542//369
f 136//369 138//369 542//369
f 136//369 542//369 544//369
f 134//369 136//369 544//369
f 132//369 134//369 544//369
f 132//369 544//369 546//369
f 130//369 132//369 546//369
f 128//369 130//369 546//369
f 128//369 546//369 548//369
f 126//369 128//369 548//369
f 124//369 126//369 548//369
f 124//369 548//369 550//369
f 122//369 124//369 550//369
f 120//369 122//369 550//369
f 120//369 550//369 552//369
f 118//369 120//369 552//369
f 118//369 552//369 554//369
f 116//369 118//369 554//369
f 116//369 554//369 556//369
f 114//369 116//369 556//369
f 114//369 556//369 558//369
f 112//369 114//369 558//369
f 110//369 112//369 558//369
f 110//369 558//369 560//369
f 108//369 110//369 560//369
f 106//369 108//369 560//369
f 106//369 560//369 562//369
f 104//369 106//369 562//369
f 102//369 104//369 562//369
f 102//369 562//369 564//369
f 100//369 102//369 564//369
f 98//369 100//369 564//369
f 98//369 564//369 566//369
f 96//369 98//369 566//369
f 94//369 96//369 566//369
f 94//369 566//369 568//369
f 92//369 94//369 568//369
f 90//369 92//369 568//369
f 90//369 568//369 570//369
f 88//369 90//369 570//369
f 86//369 88//369 570//369
f 86//369 570//369 572//369
f 84//369 86//369 572//369
f 84//369 572//369 574//369
f 82//369 84//369 574//369
f 80//369 82//369 574//369
f 80//369 574//369 576//369
f 78//369 80//369 576//369
f 78//369 576//369 578//369
f 76//369 78//369 578//369
f 74//369 76//369 578//369
f 74//369 578//369 580//369
f 72//369 74//369 580//369
f 72//369 580//369 582//369
f 70//369 72//369 582//369
f 70//371 582//371 584//371
f 68//369 70//369 584//369
f 66//369 68//369 584//369
f 66//369 584//369 586//369
f 64//369 66//369 586//369
f 64//369 586//369 588//369
f 62//369 64//369 588//369
f 62//369 588//369 590//369
f 60//369 62//369 590//369
f 60//369 590//369 592//369
f 58//369 60//369 592//369
f 58//369 592//369 594//369
f 56//369 58//369 594//369
f 56//369 594//369 596//369
f 54//369 56//369 596//369
f 54//369 596//369 598//369
f 52//369 54//369 598//369
f 52//369 598//369 600//369
f 50//369 52//369 600//369
f 48//369 50//369 600//369
f 48//369 600//369 602//369
f 46//369 48//369 602//369
f 46//369 602//369 604//369
f 46//369 604//369 606//369
f 44//369 46//369 606//369
f 44//369 606//369 608//369
f 42//369 44//369 608//369
f 42//369 608//369 610//369
f 40//369 42//369 610//369
f 40//369 610//369 612//369
f 38//369 40//369 612//369
f 38//369 612//369 614//369
f 38//369 614//369 616//369
f 36//369 38//369 616//369
f 36//369 616//369 618//369
f 34//369 36//369 618//369
f 34//369 618//369 620//369
f 32//369 34//369 620//369
f 32//369 620//369 622//369
f 32//369 622//369 624//369
f 30//369 32//369 624//369
f 30//369 624//369 626//369
f 28//369 30//369 626//369
f 28//369 626//369 628//369
f 28//369 628//369 630//369
f 26//369 28//369 630//369
f 26//369 630//369 632//369
f 24//369 26//369 632//369
f 24//369 632//369 634//369
f 24//369 634//369 636//369
f 22//369 24//369 636//369
f 22//369 636//369 638//369
f 20//369 22//369 638//369
f 18//369 20//369 638//369
f 18//369 638//369 4//369
f 16//369 18//369 4//369
f 14//369 16//369 4//369
f 12//369 14//369 4//369
f 10//369 12//369 4//369
f 8//369 10//369 4//369
f 6//369 8//369 4//369
f 4//369 3//369 6//369
f 737//372 738//372 739//372 740//372
f 738//373 741//373 742//373 739//373
f 741//374 743//374 744//374 742//374
f 743//375 745//375 746//375 744//375
f 745//376 747//376 748//376 746//376
f 747//377 749//377 750//377 748//377
f 749//378 751//378 752//378 750//378
f 751//379 753//379 754//379 752//379
f 753//380 755//380 756//380 754//380
f 755//381 757//381 758//381 756//381
f 757//382 759//382 760//382 758//382
f 759//383 761//383 762//383 760//383
f 761//384 763//384 764//384 762//384
f 763//385 765//385 766//385 764//385
f 765//386 767//386 768//386 766//386
f 767//387 769//387 770//387 768//387
f 769//388 771//388 772//388 770//388
f 771//389 773//389 774//389 772//389
f 773//390 775//390 776//390 774//390
f 775//391 777//391 778//391 776//391
f 777//392 779//392 780//392 778//392
f 779//393 781//393 782//393 780//393
f 781//394 783//394 784//394 782//394
f 783//395 785//395 786//395 784//395
f 785//396 787//396 788//396 786//396
f 787//397 789//397 790//397 788//397
f 789//398 737//398 740//398 790//398
f 788//369 790//369 740//369
f 786//369 788//369 740//369
f 784//369 786//369 740//369
f 782//369 784//369 740//369
f 780//369 782//369 740//369
f 778//369 780//369 740//369
f 776//369 778//369 740//369
f 774//369 776//369 740//369
f 772//369 774//369 740//369
f 770//369 772//369 740//369
f 768//369 770//369 740//369
f 766//369 768//369 740//369
f 764//369 766//369 740//369
f 762//369 764//369 740//369
f 760//369 762//369 740//369
f 758//369 760//369 740//369
f 756//369 758//369 740//369
f 754//369 756//369 740//369
f 752//369 754//369 740//369
f 750//369 752//369 740//369
f 748//369 750//369 740//369
f 746//369 748//369 740//369
f 744//369 746//369 740//369
f 742//369 744//369 740//369
f 739//369 742//369 740//369
f 793//369 796//369 794//369
f 791//399 792//399 793//399 794//399
f 792//400 795//400 796//400 793//400
f 795//401 797//401 798//401 796//401
f 797//402 799//402 800//402 798//402
f 799//403 801//403 802//403 800//403
f 801//404 803//404 804//404 802//404
f 803//405 805//405 806//405 804//405
f 805//406 807//406 808//406 806//406
f 807//407 809//407 810//407 808//407
f 809//408 811//408 812//408 810//408
f 811//409 813//409 814//409 812//409
f 813//410 815//410 816//410 814//410
f 815//411 817//411 818//411 816//411
f 817//412 819//412 820//412 818//412
f 819//413 821//413 822//413 820//413
f 821//414 823//414 824//414 822//414
f 823//415 825//415 826//415 824//415
f 825//416 827//416 828//416 826//416
f 827//417 829//417 830//417 828//417
f 829//418 831//418 832//418 830//418
f 831//419 833//419 834//419 832//419
f 833//420 835//420 836//420 834//420
f 835//421 837//421 838//421 836//421
f 837//422 839//422 840//422 838//422
f 839//423 841//423 842//423 840//423
f 841//424 843//424 844//424 842//424
f 843//425 845//425 846//425 844//425
f 845//426 847//426 848//426 846//426
f 847//427 791//427 794//427 848//427
f 838//369 840//369 842//369
f 836//369 838//369 842//369
f 836//369 842//369 844//369
f 834//369 836//369 844//369
f 832//369 834//369 844//369
f 832//369 844//369 846//369
f 830//369 832//369 846//369
f 828//369 830//369 846//369
f 828//369 846//369 848//369
f 826//369 828//369 848//369
f 824//369 826//369 848//369
f 822//369 824//369 848//369
f 822//369 848//369 794//369
f 820//369 822//369 794//369
f 818//369 820//369 794//369
f 816//369 818//369 794//369
f 814//369 816//369 794//369
f 812//369 814//369 794//369
f 810//369 812//369 794//369
f 808//369 810//369 794//369
f 806//369 808//369 794//369
f 804//369 806//369 794//369
f 802//369 804//369 794//369
f 800//369 802//369 794//369
f 798//369 800//369 794//369
f 796//369 798//369 794//369
