# Blender 4.2.2 LTS
# www.blender.org
mtllib ScissorsHalf.mtl
o ScissorsHalf
v 0.020115 0.000000 0.007383
v 0.019577 0.000000 0.008843
v 0.019577 0.001150 0.008843
v 0.020115 0.001150 0.007383
v 0.018919 0.000000 0.010250
v 0.018919 0.001150 0.010250
v 0.018149 0.000000 0.011599
v 0.018149 0.001150 0.011599
v 0.017274 0.000000 0.012884
v 0.017274 0.001150 0.012884
v 0.016303 0.000000 0.014100
v 0.016303 0.001150 0.014100
v 0.015245 0.000000 0.015241
v 0.015245 0.001150 0.015241
v 0.014107 0.000000 0.016301
v 0.014107 0.001150 0.016301
v 0.012898 0.000000 0.017274
v 0.012898 0.001150 0.017274
v 0.011450 0.000000 0.018254
v 0.011450 0.001150 0.018254
v 0.009921 0.000000 0.019103
v 0.009921 0.001150 0.019103
v 0.008325 0.000000 0.019817
v 0.008325 0.001150 0.019817
v 0.006674 0.000000 0.020394
v 0.006674 0.001150 0.020394
v 0.004979 0.000000 0.020831
v 0.004979 0.001150 0.020831
v 0.003255 0.000000 0.021125
v 0.003255 0.001150 0.021125
v 0.001512 0.000000 0.021275
v 0.001512 0.001150 0.021275
v -0.000236 0.000000 0.021276
v -0.000236 0.001150 0.021276
v -0.002038 0.000000 0.021123
v -0.002038 0.001150 0.021123
v -0.003819 0.000000 0.020807
v -0.003819 0.001150 0.020807
v -0.005565 0.000000 0.020335
v -0.005565 0.001150 0.020335
v -0.007264 0.000000 0.019713
v -0.007264 0.001150 0.019713
v -0.008903 0.000000 0.018945
v -0.008903 0.001150 0.018945
v -0.010468 0.000000 0.018039
v -0.010468 0.001150 0.018039
v -0.011948 0.000000 0.016999
v -0.011948 0.001150 0.016999
v -0.013329 0.000000 0.015831
v -0.013329 0.001150 0.015831
v -0.014568 0.000000 0.014598
v -0.014568 0.001150 0.014598
v -0.015693 0.000000 0.013261
v -0.015693 0.001150 0.013261
v -0.016697 0.000000 0.011832
v -0.016697 0.001150 0.011832
v -0.017576 0.000000 0.010322
v -0.017576 0.001150 0.010322
v -0.018324 0.000000 0.008742
v -0.018324 0.001150 0.008742
v -0.018935 0.000000 0.007104
v -0.018935 0.001150 0.007104
v -0.019406 0.000000 0.005421
v -0.019406 0.001150 0.005421
v -0.019729 0.000000 0.003703
v -0.019729 0.001150 0.003703
v -0.019924 0.000000 0.001824
v -0.019924 0.001150 0.001824
v -0.019943 0.000000 -0.000067
v -0.019943 0.001150 -0.000067
v -0.019790 0.000000 -0.001952
v -0.019790 0.001150 -0.001952
v -0.019466 0.000000 -0.003816
v -0.019466 0.001150 -0.003816
v -0.018973 0.000000 -0.005642
v -0.018973 0.001150 -0.005642
v -0.018314 0.000000 -0.007414
v -0.018314 0.001150 -0.007414
v -0.017490 0.000000 -0.009116
v -0.017490 0.001150 -0.009116
v -0.017017 0.000000 -0.009935
v -0.017017 0.001150 -0.009935
v -0.016504 0.000000 -0.010730
v -0.016504 0.001150 -0.010730
v -0.015889 0.000000 -0.011624
v -0.015889 0.001150 -0.011624
v -0.015224 0.000000 -0.012479
v -0.015224 0.001150 -0.012479
v -0.014511 0.000000 -0.013295
v -0.014511 0.001150 -0.013295
v -0.013755 0.000000 -0.014071
v -0.013755 0.001150 -0.014071
v -0.012958 0.000000 -0.014806
v -0.012958 0.001150 -0.014806
v -0.012124 0.000000 -0.015500
v -0.012124 0.001150 -0.015500
v -0.011258 0.000000 -0.016152
v -0.011258 0.001150 -0.016152
v -0.010362 0.000000 -0.016762
v -0.010362 0.001150 -0.016762
v -0.009119 0.000000 -0.017483
v -0.009119 0.001150 -0.017483
v -0.007828 0.000000 -0.018113
v -0.007828 0.001150 -0.018113
v -0.006496 0.000000 -0.018652
v -0.006496 0.001150 -0.018652
v -0.005130 0.000000 -0.019098
v -0.005130 0.001150 -0.019098
v -0.003737 0.000000 -0.019450
v -0.003737 0.001150 -0.019450
v -0.002323 0.000000 -0.019706
v -0.002323 0.001150 -0.019706
v -0.000895 0.000000 -0.019865
v -0.000895 0.001150 -0.019865
v 0.000541 0.000000 -0.019925
v 0.000541 0.001150 -0.019925
v 0.002454 0.000000 -0.019849
v 0.002454 0.001150 -0.019849
v 0.003406 0.000000 -0.019743
v 0.003406 0.001150 -0.019743
v 0.004353 0.000000 -0.019591
v 0.004353 0.001150 -0.019591
v 0.005629 0.000000 -0.019324
v 0.005629 0.001150 -0.019324
v 0.006883 0.000000 -0.018972
v 0.006883 0.001150 -0.018972
v 0.008111 0.000000 -0.018538
v 0.008111 0.001150 -0.018538
v 0.009309 0.000000 -0.018026
v 0.009309 0.001150 -0.018026
v 0.010473 0.000000 -0.017439
v 0.010473 0.001150 -0.017439
v 0.011597 0.000000 -0.016781
v 0.011597 0.001150 -0.016781
v 0.012679 0.000000 -0.016053
v 0.012679 0.001150 -0.016053
v 0.013713 0.000000 -0.015260
v 0.013713 0.001150 -0.015260
v 0.014696 0.000000 -0.014404
v 0.014696 0.001150 -0.014404
v 0.015623 0.000000 -0.013489
v 0.015623 0.001150 -0.013489
v 0.016490 0.000000 -0.012518
v 0.016490 0.001150 -0.012518
v 0.017294 0.000000 -0.011493
v 0.017294 0.001150 -0.011493
v 0.018029 0.000000 -0.010419
v 0.018029 0.001150 -0.010419
v 0.018691 0.000000 -0.009298
v 0.018691 0.001150 -0.009298
v 0.019277 0.000000 -0.008134
v 0.019277 0.001150 -0.008134
v 0.019781 0.000000 -0.006929
v 0.019781 0.001150 -0.006929
v 0.018804 0.000000 -0.006883
v 0.018804 0.001150 -0.006883
v 0.017827 0.000000 -0.006903
v 0.017827 0.001150 -0.006903
v 0.015871 0.000000 -0.006964
v 0.015871 0.001150 -0.006964
v 0.015285 0.000000 -0.006980
v 0.015285 0.001150 -0.006980
v 0.014997 0.000000 -0.007019
v 0.014997 0.001150 -0.007019
v 0.014727 0.000000 -0.007125
v 0.014727 0.001150 -0.007125
v 0.013199 0.000000 -0.008169
v 0.013199 0.001150 -0.008169
v 0.011635 0.000000 -0.009158
v 0.011635 0.001150 -0.009158
v 0.010026 0.000000 -0.010072
v 0.010026 0.001150 -0.010072
v 0.008367 0.000000 -0.010891
v 0.008367 0.001150 -0.010891
v 0.007663 0.000000 -0.011138
v 0.007663 0.001150 -0.011138
v 0.006925 0.000000 -0.011218
v 0.006925 0.001150 -0.011218
v 0.006555 0.000000 -0.011192
v 0.006555 0.001150 -0.011192
v 0.006191 0.000000 -0.011119
v 0.006191 0.001150 -0.011119
v 0.005839 0.000000 -0.010998
v 0.005839 0.001150 -0.010998
v 0.005503 0.000000 -0.010828
v 0.005503 0.001150 -0.010828
v 0.004527 0.000000 -0.010218
v 0.004527 0.001150 -0.010218
v 0.003596 0.000000 -0.009538
v 0.003596 0.001150 -0.009538
v 0.001783 0.000000 -0.008114
v 0.001783 0.001150 -0.008114
v 0.001333 0.000000 -0.007734
v 0.001333 0.001150 -0.007734
v 0.000915 0.000000 -0.007314
v 0.000915 0.001150 -0.007314
v 0.000490 0.000000 -0.006908
v 0.000490 0.001150 -0.006908
v 0.000017 0.000000 -0.006567
v 0.000017 0.001150 -0.006567
v -0.003685 0.000000 -0.007661
v -0.003685 0.001150 -0.007661
v -0.007373 0.000000 -0.008805
v -0.007373 0.001150 -0.008805
v -0.014738 0.000000 -0.011133
v -0.014738 0.001150 -0.011133
v -0.015141 0.000000 -0.010934
v -0.015141 0.001150 -0.010934
v -0.015470 0.000000 -0.010662
v -0.015470 0.001150 -0.010662
v -0.015733 0.000000 -0.010332
v -0.015733 0.001150 -0.010332
v -0.015937 0.000000 -0.009957
v -0.015937 0.001150 -0.009957
v -0.016208 0.000000 -0.009124
v -0.016208 0.001150 -0.009124
v -0.016348 0.000000 -0.008269
v -0.016348 0.001150 -0.008269
v -0.016286 0.000000 -0.007863
v -0.016286 0.001150 -0.007863
v -0.016145 0.000000 -0.007494
v -0.016145 0.001150 -0.007494
v -0.015940 0.000000 -0.007156
v -0.015940 0.001150 -0.007156
v -0.015685 0.000000 -0.006846
v -0.015685 0.001150 -0.006846
v -0.015082 0.000000 -0.006291
v -0.015082 0.001150 -0.006291
v -0.014451 0.000000 -0.005796
v -0.014451 0.001150 -0.005796
v -0.012802 0.000000 -0.004850
v -0.012802 0.001150 -0.004850
v -0.011086 0.000000 -0.004035
v -0.011086 0.001150 -0.004035
v -0.007585 0.000000 -0.002547
v -0.007585 0.001150 -0.002547
v -0.005297 0.000000 -0.001626
v -0.005297 0.001150 -0.001626
v -0.004160 0.000000 -0.001151
v -0.004160 0.001150 -0.001151
v -0.003059 0.000000 -0.000598
v -0.003059 0.001150 -0.000598
v -0.003036 0.000000 -0.000322
v -0.003036 0.001150 -0.000322
v -0.003925 0.000000 -0.000114
v -0.003925 0.001150 -0.000114
v -0.004830 0.000000 0.000009
v -0.004830 0.001150 0.000009
v -0.006647 0.000000 0.000201
v -0.006647 0.001150 0.000201
v -0.017654 0.000000 0.001466
v -0.017654 0.001150 0.001466
v -0.018061 0.000000 0.001599
v -0.018061 0.001150 0.001599
v -0.018379 0.000000 0.001832
v -0.018379 0.001150 0.001832
v -0.018616 0.000000 0.002145
v -0.018616 0.001150 0.002145
v -0.018781 0.000000 0.002516
v -0.018781 0.001150 0.002516
v -0.018882 0.000000 0.002924
v -0.018882 0.001150 0.002924
v -0.018927 0.000000 0.003348
v -0.018927 0.001150 0.003348
v -0.018884 0.000000 0.004158
v -0.018884 0.001150 0.004158
v -0.018595 0.000000 0.004862
v -0.018595 0.001150 0.004862
v -0.018387 0.000000 0.005191
v -0.018387 0.001150 0.005191
v -0.018139 0.000000 0.005489
v -0.018139 0.001150 0.005489
v -0.017854 0.000000 0.005745
v -0.017854 0.001150 0.005745
v -0.017534 0.000000 0.005948
v -0.017534 0.001150 0.005948
v -0.017181 0.000000 0.006085
v -0.017181 0.001150 0.006085
v -0.016797 0.000000 0.006147
v -0.016797 0.001150 0.006147
v -0.015687 0.000000 0.006261
v -0.015687 0.001150 0.006261
v -0.014574 0.000000 0.006322
v -0.014574 0.001150 0.006322
v -0.012343 0.000000 0.006322
v -0.012343 0.001150 0.006322
v -0.007884 0.000000 0.006067
v -0.007884 0.001150 0.006067
v -0.007760 0.000000 0.006911
v -0.007760 0.001150 0.006911
v -0.007554 0.000000 0.007749
v -0.007554 0.001150 0.007749
v -0.007401 0.000000 0.008147
v -0.007401 0.001150 0.008147
v -0.007205 0.000000 0.008523
v -0.007205 0.001150 0.008523
v -0.006958 0.000000 0.008869
v -0.006958 0.001150 0.008869
v -0.006653 0.000000 0.009178
v -0.006653 0.001150 0.009178
v -0.006132 0.000000 0.009544
v -0.006132 0.001150 0.009544
v -0.005548 0.000000 0.009784
v -0.005548 0.001150 0.009784
v -0.004926 0.000000 0.009917
v -0.004926 0.001150 0.009917
v -0.004290 0.000000 0.009960
v -0.004290 0.001150 0.009960
v -0.004329 0.000000 0.010451
v -0.004329 0.001150 0.010451
v -0.004295 0.000000 0.010944
v -0.004295 0.001150 0.010944
v -0.004188 0.000000 0.011426
v -0.004188 0.001150 0.011426
v -0.004011 0.000000 0.011885
v -0.004011 0.001150 0.011885
v -0.003765 0.000000 0.012306
v -0.003765 0.001150 0.012306
v -0.003451 0.000000 0.012676
v -0.003451 0.001150 0.012676
v -0.003072 0.000000 0.012984
v -0.003072 0.001150 0.012984
v -0.002628 0.000000 0.013214
v -0.002628 0.001150 0.013214
v -0.002027 0.000000 0.013398
v -0.002027 0.001150 0.013398
v -0.001416 0.000000 0.013526
v -0.001416 0.001150 0.013526
v -0.000171 0.000000 0.013639
v -0.000171 0.001150 0.013639
v 0.001084 0.000000 0.013606
v 0.001084 0.001150 0.013606
v 0.002329 0.000000 0.013479
v 0.002329 0.001150 0.013479
v 0.002756 0.000000 0.013408
v 0.002756 0.001150 0.013408
v 0.003161 0.000000 0.013279
v 0.003161 0.001150 0.013279
v 0.003917 0.000000 0.012891
v 0.003917 0.001150 0.012891
v 0.005308 0.000000 0.011886
v 0.005308 0.001150 0.011886
v 0.006747 0.000000 0.012212
v 0.006747 0.001150 0.012212
v 0.008213 0.000000 0.012464
v 0.008213 0.001150 0.012464
v 0.008949 0.000000 0.012529
v 0.008949 0.001150 0.012529
v 0.009684 0.000000 0.012534
v 0.009684 0.001150 0.012534
v 0.010415 0.000000 0.012466
v 0.010415 0.001150 0.012466
v 0.011138 0.000000 0.012312
v 0.011138 0.001150 0.012312
v 0.011818 0.000000 0.011921
v 0.011818 0.001150 0.011921
v 0.012443 0.000000 0.011461
v 0.012443 0.001150 0.011461
v 0.013025 0.000000 0.010948
v 0.013025 0.001150 0.010948
v 0.013577 0.000000 0.010396
v 0.013577 0.001150 0.010396
v 0.015721 0.000000 0.008120
v 0.015721 0.001150 0.008120
v 0.016180 0.000000 0.007759
v 0.016180 0.001150 0.007759
v 0.016687 0.000000 0.007525
v 0.016687 0.001150 0.007525
v 0.017232 0.000000 0.007392
v 0.017232 0.001150 0.007392
v 0.017803 0.000000 0.007337
v 0.017803 0.001150 0.007337
v 0.024635 0.000000 0.000552
v 0.024635 0.001150 0.000552
v 0.024603 0.000000 -0.000690
v 0.024603 0.001150 -0.000690
v 0.024510 0.000000 -0.001916
v 0.024510 0.001150 -0.001916
v 0.024356 0.000000 -0.003123
v 0.024356 0.001150 -0.003123
v 0.024144 0.000000 -0.004312
v 0.024144 0.001150 -0.004312
v 0.023874 0.000000 -0.005479
v 0.023874 0.001150 -0.005479
v 0.023548 0.000000 -0.006625
v 0.023548 0.001150 -0.006625
v 0.023168 0.000000 -0.007746
v 0.023168 0.001150 -0.007746
v 0.022735 0.000000 -0.008842
v 0.022735 0.001150 -0.008842
v 0.022252 0.000000 -0.009911
v 0.022252 0.001150 -0.009911
v 0.021718 0.000000 -0.010952
v 0.021718 0.001150 -0.010952
v 0.021136 0.000000 -0.011962
v 0.021136 0.001150 -0.011962
v 0.020507 0.000000 -0.012942
v 0.020507 0.001150 -0.012942
v 0.019834 0.000000 -0.013888
v 0.019834 0.001150 -0.013888
v 0.019116 0.000000 -0.014800
v 0.019116 0.001150 -0.014800
v 0.018357 0.000000 -0.015675
v 0.018357 0.001150 -0.015675
v 0.017557 0.000000 -0.016513
v 0.017557 0.001150 -0.016513
v 0.016718 0.000000 -0.017313
v 0.016718 0.001150 -0.017313
v 0.015841 0.000000 -0.018071
v 0.015841 0.001150 -0.018071
v 0.014928 0.000000 -0.018788
v 0.014928 0.001150 -0.018788
v 0.013981 0.000000 -0.019460
v 0.013981 0.001150 -0.019460
v 0.013000 0.000000 -0.020088
v 0.013000 0.001150 -0.020088
v 0.011988 0.000000 -0.020669
v 0.011988 0.001150 -0.020669
v 0.010946 0.000000 -0.021202
v 0.010946 0.001150 -0.021202
v 0.009876 0.000000 -0.021686
v 0.009876 0.001150 -0.021686
v 0.008779 0.000000 -0.022118
v 0.008779 0.001150 -0.022118
v 0.007656 0.000000 -0.022497
v 0.007656 0.001150 -0.022497
v 0.006510 0.000000 -0.022822
v 0.006510 0.001150 -0.022822
v 0.005341 0.000000 -0.023092
v 0.005341 0.001150 -0.023092
v 0.004151 0.000000 -0.023304
v 0.004151 0.001150 -0.023304
v 0.002942 0.000000 -0.023458
v 0.002942 0.001150 -0.023458
v 0.001715 0.000000 -0.023551
v 0.001715 0.001150 -0.023551
v 0.000472 0.000000 -0.023582
v 0.000472 0.001150 -0.023582
v -0.000772 0.000000 -0.023551
v -0.000772 0.001150 -0.023551
v -0.001999 0.000000 -0.023458
v -0.001999 0.001150 -0.023458
v -0.003208 0.000000 -0.023304
v -0.003208 0.001150 -0.023304
v -0.004397 0.000000 -0.023092
v -0.004397 0.001150 -0.023092
v -0.005566 0.000000 -0.022822
v -0.005566 0.001150 -0.022822
v -0.006713 0.000000 -0.022497
v -0.006713 0.001150 -0.022497
v -0.007835 0.000000 -0.022118
v -0.007835 0.001150 -0.022118
v -0.008932 0.000000 -0.021686
v -0.008932 0.001150 -0.021686
v -0.010002 0.000000 -0.021202
v -0.010002 0.001150 -0.021202
v -0.011044 0.000000 -0.020669
v -0.011044 0.001150 -0.020669
v -0.012056 0.000000 -0.020088
v -0.012056 0.001150 -0.020088
v -0.013036 0.000000 -0.019460
v -0.013036 0.001150 -0.019460
v -0.013983 0.000000 -0.018788
v -0.013983 0.001150 -0.018788
v -0.014895 0.000000 -0.018071
v -0.014895 0.001150 -0.018071
v -0.015772 0.000000 -0.017313
v -0.015772 0.001150 -0.017313
v -0.016611 0.000000 -0.016513
v -0.016611 0.001150 -0.016513
v -0.017411 0.000000 -0.015675
v -0.017411 0.001150 -0.015675
v -0.018170 0.000000 -0.014800
v -0.018170 0.001150 -0.014800
v -0.018887 0.000000 -0.013888
v -0.018887 0.001150 -0.013888
v -0.019560 0.000000 -0.012942
v -0.019560 0.001150 -0.012942
v -0.020189 0.000000 -0.011962
v -0.020189 0.001150 -0.011962
v -0.020770 0.000000 -0.010952
v -0.020770 0.001150 -0.010952
v -0.021304 0.000000 -0.009911
v -0.021304 0.001150 -0.009911
v -0.021788 0.000000 -0.008842
v -0.021788 0.001150 -0.008842
v -0.022220 0.000000 -0.007746
v -0.022220 0.001150 -0.007746
v -0.022600 0.000000 -0.006625
v -0.022600 0.001150 -0.006625
v -0.022925 0.000000 -0.005479
v -0.022925 0.001150 -0.005479
v -0.023195 0.000000 -0.004312
v -0.023195 0.001150 -0.004312
v -0.023407 0.000000 -0.003123
v -0.023407 0.001150 -0.003123
v -0.023561 0.000000 -0.001916
v -0.023561 0.001150 -0.001916
v -0.023654 0.000000 -0.000690
v -0.023654 0.001150 -0.000690
v -0.023686 0.000000 0.000552
v -0.023686 0.001150 0.000552
v -0.023654 0.000000 0.001794
v -0.023654 0.001150 0.001794
v -0.023561 0.000000 0.003020
v -0.023561 0.001150 0.003020
v -0.023407 0.000000 0.004227
v -0.023407 0.001150 0.004227
v -0.023195 0.000000 0.005416
v -0.023195 0.001150 0.005416
v -0.022925 0.000000 0.006584
v -0.022925 0.001150 0.006584
v -0.022600 0.000000 0.007729
v -0.022600 0.001150 0.007729
v -0.022220 0.000000 0.008850
v -0.022220 0.001150 0.008850
v -0.021788 0.000000 0.009946
v -0.021788 0.001150 0.009946
v -0.021304 0.000000 0.011015
v -0.021304 0.001150 0.011015
v -0.020770 0.000000 0.012056
v -0.020770 0.001150 0.012056
v -0.020189 0.000000 0.013066
v -0.020189 0.001150 0.013066
v -0.019560 0.000000 0.014046
v -0.019560 0.001150 0.014046
v -0.018887 0.000000 0.014992
v -0.018887 0.001150 0.014992
v -0.018170 0.000000 0.015904
v -0.018170 0.001150 0.015904
v -0.017411 0.000000 0.016779
v -0.017411 0.001150 0.016779
v -0.016611 0.000000 0.017618
v -0.016611 0.001150 0.017618
v -0.015772 0.000000 0.018417
v -0.015772 0.001150 0.018417
v -0.014895 0.000000 0.019175
v -0.014895 0.001150 0.019175
v -0.013983 0.000000 0.019892
v -0.013983 0.001150 0.019892
v -0.013036 0.000000 0.020565
v -0.013036 0.001150 0.020565
v -0.012056 0.000000 0.021192
v -0.012056 0.001150 0.021192
v -0.011044 0.000000 0.021773
v -0.011044 0.001150 0.021773
v -0.010002 0.000000 0.022306
v -0.010002 0.001150 0.022306
v -0.008932 0.000000 0.022790
v -0.008932 0.001150 0.022790
v -0.007835 0.000000 0.023222
v -0.007835 0.001150 0.023222
v -0.006713 0.000000 0.023601
v -0.006713 0.001150 0.023601
v -0.005566 0.000000 0.023926
v -0.005566 0.001150 0.023926
v -0.004397 0.000000 0.024196
v -0.004397 0.001150 0.024196
v -0.003208 0.000000 0.024408
v -0.003208 0.001150 0.024408
v -0.001999 0.000000 0.024562
v -0.001999 0.001150 0.024562
v -0.000772 0.000000 0.024655
v -0.000772 0.001150 0.024655
v 0.000472 0.000000 0.024686
v 0.000472 0.001150 0.024686
v 0.001715 0.000000 0.024655
v 0.001715 0.001150 0.024655
v 0.002942 0.000000 0.024562
v 0.002942 0.001150 0.024562
v 0.004151 0.000000 0.024408
v 0.004151 0.001150 0.024408
v 0.005341 0.000000 0.024196
v 0.005341 0.001150 0.024196
v 0.006510 0.000000 0.023926
v 0.006510 0.001150 0.023926
v 0.007656 0.000000 0.023601
v 0.007656 0.001150 0.023601
v 0.008779 0.000000 0.023222
v 0.008779 0.001150 0.023222
v 0.009876 0.000000 0.022790
v 0.009876 0.001150 0.022790
v 0.010946 0.000000 0.022306
v 0.010946 0.001150 0.022306
v 0.011988 0.000000 0.021773
v 0.011988 0.001150 0.021773
v 0.013000 0.000000 0.021192
v 0.013000 0.001150 0.021192
v 0.013981 0.000000 0.020565
v 0.013981 0.001150 0.020565
v 0.014928 0.000000 0.019892
v 0.014928 0.001150 0.019892
v 0.015841 0.000000 0.019175
v 0.015841 0.001150 0.019175
v 0.016718 0.000000 0.018417
v 0.016718 0.001150 0.018417
v 0.017557 0.000000 0.017618
v 0.017557 0.001150 0.017618
v 0.018357 0.000000 0.016779
v 0.018357 0.001150 0.016779
v 0.019116 0.000000 0.015904
v 0.019116 0.001150 0.015904
v 0.019834 0.000000 0.014992
v 0.019834 0.001150 0.014992
v 0.020507 0.000000 0.014046
v 0.020507 0.001150 0.014046
v 0.021136 0.000000 0.013066
v 0.021136 0.001150 0.013066
v 0.021718 0.000000 0.012056
v 0.021718 0.001150 0.012056
v 0.022252 0.000000 0.011015
v 0.022252 0.001150 0.011015
v 0.022735 0.000000 0.009946
v 0.022735 0.001150 0.009946
v 0.023168 0.000000 0.008850
v 0.023168 0.001150 0.008850
v 0.023548 0.000000 0.007729
v 0.023548 0.001150 0.007729
v 0.023874 0.000000 0.006584
v 0.023874 0.001150 0.006584
v 0.024144 0.000000 0.005416
v 0.024144 0.001150 0.005416
v 0.024356 0.000000 0.004227
v 0.024356 0.001150 0.004227
v 0.024510 0.000000 0.003020
v 0.024510 0.001150 0.003020
v 0.024603 0.000000 0.001794
v 0.024603 0.001150 0.001794
vn -0.9384 -0.0000 -0.3456
vn -0.9058 -0.0000 -0.4237
vn -0.8684 -0.0000 -0.4959
vn -0.8267 -0.0000 -0.5626
vn -0.7815 -0.0000 -0.6239
vn -0.7331 -0.0000 -0.6801
vn -0.6816 -0.0000 -0.7317
vn -0.6270 -0.0000 -0.7790
vn -0.5605 -0.0000 -0.8281
vn -0.4854 -0.0000 -0.8743
vn -0.4084 -0.0000 -0.9128
vn -0.3298 -0.0000 -0.9441
vn -0.2498 -0.0000 -0.9683
vn -0.1683 -0.0000 -0.9857
vn -0.0854 -0.0000 -0.9963
vn -0.0009 -0.0000 -1.0000
vn 0.0849 -0.0000 -0.9964
vn 0.1745 -0.0000 -0.9847
vn 0.2609 -0.0000 -0.9654
vn 0.3440 -0.0000 -0.9390
vn 0.4241 -0.0000 -0.9056
vn 0.5011 -0.0000 -0.8654
vn 0.5750 -0.0000 -0.8181
vn 0.6457 -0.0000 -0.7636
vn 0.7052 -0.0000 -0.7090
vn 0.7653 -0.0000 -0.6437
vn 0.8183 -0.0000 -0.5748
vn 0.8644 -0.0000 -0.5029
vn 0.9038 -0.0000 -0.4279
vn 0.9367 -0.0000 -0.3500
vn 0.9631 -0.0000 -0.2691
vn 0.9827 -0.0000 -0.1851
vn 0.9947 -0.0000 -0.1027
vn 0.9999 -0.0000 -0.0102
vn 0.9967 -0.0000 0.0811
vn 0.9852 -0.0000 0.1712
vn 0.9655 -0.0000 0.2604
vn 0.9372 -0.0000 0.3487
vn 0.9000 -0.0000 0.4358
vn 0.8660 -0.0000 0.5001
vn 0.8402 -0.0000 0.5423
vn 0.8243 -0.0000 0.5662
vn 0.7893 -0.0000 0.6141
vn 0.7530 -0.0000 0.6581
vn 0.7158 -0.0000 0.6983
vn 0.6780 -0.0000 0.7351
vn 0.6399 -0.0000 0.7685
vn 0.6015 -0.0000 0.7988
vn 0.5631 -0.0000 0.8264
vn 0.5012 -0.0000 0.8653
vn 0.4388 -0.0000 0.8986
vn 0.3752 -0.0000 0.9270
vn 0.3105 -0.0000 0.9506
vn 0.2449 -0.0000 0.9696
vn 0.1782 -0.0000 0.9840
vn 0.1105 -0.0000 0.9939
vn 0.0418 -0.0000 0.9991
vn -0.0396 -0.0000 0.9992
vn -0.1105 -0.0000 0.9939
vn -0.1584 -0.0000 0.9874
vn -0.2052 -0.0000 0.9787
vn -0.2703 -0.0000 0.9628
vn -0.3329 -0.0000 0.9430
vn -0.3929 -0.0000 0.9196
vn -0.4504 -0.0000 0.8928
vn -0.5055 -0.0000 0.8628
vn -0.5582 -0.0000 0.8297
vn -0.6086 -0.0000 0.7935
vn -0.6566 -0.0000 0.7542
vn -0.7024 -0.0000 0.7118
vn -0.7459 -0.0000 0.6661
vn -0.7869 -0.0000 0.6171
vn -0.8253 -0.0000 0.5647
vn -0.8609 -0.0000 0.5088
vn -0.8934 -0.0000 0.4493
vn -0.9224 -0.0000 0.3863
vn -0.0468 -0.0000 -0.9989
vn 0.0203 -0.0000 -0.9998
vn 0.0309 -0.0000 -0.9995
vn 0.0284 -0.0000 -0.9996
vn 0.1317 -0.0000 -0.9913
vn 0.3655 -0.0000 -0.9308
vn 0.5643 -0.0000 -0.8256
vn 0.5345 -0.0000 -0.8452
vn 0.4942 -0.0000 -0.8694
vn 0.4425 -0.0000 -0.8968
vn 0.3312 -0.0000 -0.9436
vn 0.1080 -0.0000 -0.9941
vn -0.0711 -0.0000 -0.9975
vn -0.1964 -0.0000 -0.9805
vn -0.3245 -0.0000 -0.9459
vn -0.4526 -0.0000 -0.8917
vn -0.5296 -0.0000 -0.8482
vn -0.5902 -0.0000 -0.8073
vn -0.6176 -0.0000 -0.7865
vn -0.6454 -0.0000 -0.7638
vn -0.7087 -0.0000 -0.7055
vn -0.6909 -0.0000 -0.7229
vn -0.5850 -0.0000 -0.8110
vn 0.2835 -0.0000 -0.9590
vn 0.2962 -0.0000 -0.9551
vn 0.3014 -0.0000 -0.9535
vn -0.4429 -0.0000 -0.8966
vn -0.6365 -0.0000 -0.7713
vn -0.7825 -0.0000 -0.6226
vn -0.8778 -0.0000 -0.4790
vn -0.9512 -0.0000 -0.3085
vn -0.9867 -0.0000 -0.1624
vn -0.9885 -0.0000 0.1515
vn -0.9345 -0.0000 0.3560
vn -0.8548 -0.0000 0.5190
vn -0.7723 -0.0000 0.6352
vn -0.6768 -0.0000 0.7361
vn -0.6168 -0.0000 0.7871
vn -0.4980 -0.0000 0.8672
vn -0.4289 -0.0000 0.9033
vn -0.3910 -0.0000 0.9204
vn -0.3735 -0.0000 0.9276
vn -0.3856 -0.0000 0.9227
vn -0.4489 -0.0000 0.8936
vn -0.9965 -0.0000 0.0831
vn -0.2277 -0.0000 -0.9737
vn -0.1345 -0.0000 -0.9909
vn -0.1054 -0.0000 -0.9944
vn -0.1142 -0.0000 -0.9935
vn -0.3095 -0.0000 -0.9509
vn -0.5914 -0.0000 -0.8064
vn -0.7966 -0.0000 -0.6045
vn -0.9138 -0.0000 -0.4062
vn -0.9708 -0.0000 -0.2401
vn -0.9944 -0.0000 -0.1061
vn -0.9986 -0.0000 0.0533
vn -0.9250 -0.0000 0.3800
vn -0.8448 -0.0000 0.5350
vn -0.7692 -0.0000 0.6391
vn -0.6684 -0.0000 0.7438
vn -0.5349 -0.0000 0.8449
vn -0.3638 -0.0000 0.9315
vn -0.1587 -0.0000 0.9873
vn -0.1022 -0.0000 0.9948
vn -0.0550 -0.0000 0.9985
vn 0.0004 -0.0000 1.0000
vn 0.0571 -0.0000 0.9984
vn -0.9895 -0.0000 0.1445
vn -0.9709 -0.0000 0.2393
vn -0.9335 -0.0000 0.3585
vn -0.8864 -0.0000 0.4629
vn -0.8139 -0.0000 0.5810
vn -0.7117 -0.0000 0.7025
vn -0.5749 -0.0000 0.8182
vn -0.3809 -0.0000 0.9246
vn -0.2086 -0.0000 0.9780
vn -0.0669 -0.0000 0.9978
vn -0.9968 -0.0000 -0.0799
vn -0.9976 -0.0000 0.0696
vn -0.9764 -0.0000 0.2158
vn -0.9327 -0.0000 0.3607
vn -0.8632 -0.0000 0.5048
vn -0.7635 -0.0000 0.6459
vn -0.6293 -0.0000 0.7771
vn -0.4613 -0.0000 0.8872
vn -0.2925 -0.0000 0.9563
vn -0.2044 -0.0000 0.9789
vn -0.0906 -0.0000 0.9959
vn 0.0262 -0.0000 0.9997
vn 0.1017 -0.0000 0.9948
vn 0.1640 -0.0000 0.9865
vn 0.3027 -0.0000 0.9531
vn 0.4566 -0.0000 0.8897
vn 0.5859 -0.0000 0.8104
vn -0.2209 -0.0000 0.9753
vn -0.1698 -0.0000 0.9855
vn -0.0873 -0.0000 0.9962
vn -0.0070 -0.0000 1.0000
vn 0.0926 -0.0000 0.9957
vn 0.2091 -0.0000 0.9779
vn 0.4980 -0.0000 0.8672
vn 0.5926 -0.0000 0.8055
vn 0.6614 -0.0000 0.7500
vn 0.7071 -0.0000 0.7072
vn 0.7279 -0.0000 0.6856
vn 0.6181 -0.0000 0.7861
vn 0.4190 -0.0000 0.9080
vn 0.2364 -0.0000 0.9717
vn 0.0972 -0.0000 0.9953
vn -0.0203 -0.0000 0.9998
vn 0.9997 -0.0000 -0.0253
vn 0.9971 -0.0000 -0.0759
vn 0.9920 -0.0000 -0.1262
vn 0.9844 -0.0000 -0.1760
vn 0.9743 -0.0000 -0.2252
vn 0.9619 -0.0000 -0.2735
vn 0.9471 -0.0000 -0.3209
vn 0.9301 -0.0000 -0.3672
vn 0.9110 -0.0000 -0.4124
vn 0.8898 -0.0000 -0.4563
vn 0.8666 -0.0000 -0.4989
vn 0.8415 -0.0000 -0.5402
vn 0.8146 -0.0000 -0.5800
vn 0.7859 -0.0000 -0.6184
vn 0.7555 -0.0000 -0.6552
vn 0.7233 -0.0000 -0.6905
vn 0.6896 -0.0000 -0.7242
vn 0.6543 -0.0000 -0.7563
vn 0.6174 -0.0000 -0.7866
vn 0.5791 -0.0000 -0.8153
vn 0.5392 -0.0000 -0.8421
vn 0.4980 -0.0000 -0.8672
vn 0.4554 -0.0000 -0.8903
vn 0.4115 -0.0000 -0.9114
vn 0.3664 -0.0000 -0.9304
vn 0.3202 -0.0000 -0.9474
vn 0.2729 -0.0000 -0.9620
vn 0.2246 -0.0000 -0.9744
vn 0.1756 -0.0000 -0.9845
vn 0.1259 -0.0000 -0.9920
vn 0.0757 -0.0000 -0.9971
vn 0.0252 -0.0000 -0.9997
vn -0.0253 -0.0000 -0.9997
vn -0.0757 -0.0000 -0.9971
vn -0.1259 -0.0000 -0.9920
vn -0.1756 -0.0000 -0.9845
vn -0.2247 -0.0000 -0.9744
vn -0.2729 -0.0000 -0.9620
vn -0.3202 -0.0000 -0.9473
vn -0.3665 -0.0000 -0.9304
vn -0.4116 -0.0000 -0.9114
vn -0.4555 -0.0000 -0.8902
vn -0.4981 -0.0000 -0.8671
vn -0.5393 -0.0000 -0.8421
vn -0.5792 -0.0000 -0.8152
vn -0.6175 -0.0000 -0.7865
vn -0.6544 -0.0000 -0.7562
vn -0.6897 -0.0000 -0.7241
vn -0.7235 -0.0000 -0.6904
vn -0.7556 -0.0000 -0.6551
vn -0.7860 -0.0000 -0.6182
vn -0.8147 -0.0000 -0.5799
vn -0.8416 -0.0000 -0.5400
vn -0.8667 -0.0000 -0.4988
vn -0.8899 -0.0000 -0.4562
vn -0.9111 -0.0000 -0.4122
vn -0.9302 -0.0000 -0.3671
vn -0.9472 -0.0000 -0.3208
vn -0.9619 -0.0000 -0.2734
vn -0.9743 -0.0000 -0.2251
vn -0.9844 -0.0000 -0.1759
vn -0.9920 -0.0000 -0.1262
vn -0.9971 -0.0000 -0.0759
vn -0.9997 -0.0000 -0.0253
vn -0.9997 -0.0000 0.0253
vn -0.9971 -0.0000 0.0759
vn -0.9920 -0.0000 0.1262
vn -0.9844 -0.0000 0.1759
vn -0.9743 -0.0000 0.2251
vn -0.9619 -0.0000 0.2734
vn -0.9472 -0.0000 0.3208
vn -0.9302 -0.0000 0.3671
vn -0.9111 -0.0000 0.4122
vn -0.8899 -0.0000 0.4562
vn -0.8667 -0.0000 0.4988
vn -0.8416 -0.0000 0.5400
vn -0.8147 -0.0000 0.5799
vn -0.7860 -0.0000 0.6182
vn -0.7556 -0.0000 0.6551
vn -0.7235 -0.0000 0.6904
vn -0.6897 -0.0000 0.7241
vn -0.6544 -0.0000 0.7562
vn -0.6175 -0.0000 0.7865
vn -0.5792 -0.0000 0.8152
vn -0.5393 -0.0000 0.8421
vn -0.4981 -0.0000 0.8671
vn -0.4555 -0.0000 0.8902
vn -0.4116 -0.0000 0.9114
vn -0.3665 -0.0000 0.9304
vn -0.3202 -0.0000 0.9473
vn -0.2729 -0.0000 0.9620
vn -0.2247 -0.0000 0.9744
vn -0.1756 -0.0000 0.9845
vn -0.1259 -0.0000 0.9920
vn -0.0757 -0.0000 0.9971
vn -0.0253 -0.0000 0.9997
vn 0.0252 -0.0000 0.9997
vn 0.0757 -0.0000 0.9971
vn 0.1259 -0.0000 0.9920
vn 0.1756 -0.0000 0.9845
vn 0.2246 -0.0000 0.9744
vn 0.2729 -0.0000 0.9620
vn 0.3202 -0.0000 0.9474
vn 0.3664 -0.0000 0.9304
vn 0.4116 -0.0000 0.9114
vn 0.4554 -0.0000 0.8903
vn 0.5392 -0.0000 0.8421
vn 0.5791 -0.0000 0.8153
vn 0.6174 -0.0000 0.7866
vn 0.6543 -0.0000 0.7563
vn 0.6896 -0.0000 0.7242
vn 0.7233 -0.0000 0.6905
vn 0.7555 -0.0000 0.6552
vn 0.7859 -0.0000 0.6184
vn 0.8146 -0.0000 0.5800
vn 0.8415 -0.0000 0.5402
vn 0.8666 -0.0000 0.4989
vn 0.8898 -0.0000 0.4563
vn 0.9110 -0.0000 0.4124
vn 0.9301 -0.0000 0.3672
vn 0.9471 -0.0000 0.3209
vn 0.9619 -0.0000 0.2735
vn 0.9743 -0.0000 0.2252
vn 0.9844 -0.0000 0.1760
vn 0.9920 -0.0000 0.1262
vn 0.9971 -0.0000 0.0759
vn 0.9997 -0.0000 0.0253
vn -0.8340 -0.0000 -0.5518
vn -0.0000 1.0000 -0.0000
s 0
f 1//1 2//1 3//1 4//1
f 2//2 5//2 6//2 3//2
f 5//3 7//3 8//3 6//3
f 7//4 9//4 10//4 8//4
f 9//5 11//5 12//5 10//5
f 11//6 13//6 14//6 12//6
f 13//7 15//7 16//7 14//7
f 15//8 17//8 18//8 16//8
f 17//9 19//9 20//9 18//9
f 19//10 21//10 22//10 20//10
f 21//11 23//11 24//11 22//11
f 23//12 25//12 26//12 24//12
f 25//13 27//13 28//13 26//13
f 27//14 29//14 30//14 28//14
f 29//15 31//15 32//15 30//15
f 31//16 33//16 34//16 32//16
f 33//17 35//17 36//17 34//17
f 35//18 37//18 38//18 36//18
f 37//19 39//19 40//19 38//19
f 39//20 41//20 42//20 40//20
f 41//21 43//21 44//21 42//21
f 43//22 45//22 46//22 44//22
f 45//23 47//23 48//23 46//23
f 47//24 49//24 50//24 48//24
f 49//25 51//25 52//25 50//25
f 51//26 53//26 54//26 52//26
f 53//27 55//27 56//27 54//27
f 55//28 57//28 58//28 56//28
f 57//29 59//29 60//29 58//29
f 59//30 61//30 62//30 60//30
f 61//31 63//31 64//31 62//31
f 63//32 65//32 66//32 64//32
f 65//33 67//33 68//33 66//33
f 67//34 69//34 70//34 68//34
f 69//35 71//35 72//35 70//35
f 71//36 73//36 74//36 72//36
f 73//37 75//37 76//37 74//37
f 75//38 77//38 78//38 76//38
f 77//39 79//39 80//39 78//39
f 79//40 81//40 82//40 80//40
f 81//41 83//41 84//41 82//41
f 83//42 85//42 86//42 84//42
f 85//43 87//43 88//43 86//43
f 87//44 89//44 90//44 88//44
f 89//45 91//45 92//45 90//45
f 91//46 93//46 94//46 92//46
f 93//47 95//47 96//47 94//47
f 95//48 97//48 98//48 96//48
f 97//49 99//49 100//49 98//49
f 99//50 101//50 102//50 100//50
f 101//51 103//51 104//51 102//51
f 103//52 105//52 106//52 104//52
f 105//53 107//53 108//53 106//53
f 107//54 109//54 110//54 108//54
f 109//55 111//55 112//55 110//55
f 111//56 113//56 114//56 112//56
f 113//57 115//57 116//57 114//57
f 115//58 117//58 118//58 116//58
f 117//59 119//59 120//59 118//59
f 119//60 121//60 122//60 120//60
f 121//61 123//61 124//61 122//61
f 123//62 125//62 126//62 124//62
f 125//63 127//63 128//63 126//63
f 127//64 129//64 130//64 128//64
f 129//65 131//65 132//65 130//65
f 131//66 133//66 134//66 132//66
f 133//67 135//67 136//67 134//67
f 135//68 137//68 138//68 136//68
f 137//69 139//69 140//69 138//69
f 139//70 141//70 142//70 140//70
f 141//71 143//71 144//71 142//71
f 143//72 145//72 146//72 144//72
f 145//73 147//73 148//73 146//73
f 147//74 149//74 150//74 148//74
f 149//75 151//75 152//75 150//75
f 151//76 153//76 154//76 152//76
f 153//77 155//77 156//77 154//77
f 155//78 157//78 158//78 156//78
f 157//79 159//79 160//79 158//79
f 159//80 161//80 162//80 160//80
f 161//81 163//81 164//81 162//81
f 163//82 165//82 166//82 164//82
f 165//83 167//83 168//83 166//83
f 167//84 169//84 170//84 168//84
f 169//85 171//85 172//85 170//85
f 171//86 173//86 174//86 172//86
f 173//87 175//87 176//87 174//87
f 175//88 177//88 178//88 176//88
f 177//89 179//89 180//89 178//89
f 179//90 181//90 182//90 180//90
f 181//91 183//91 184//91 182//91
f 183//92 185//92 186//92 184//92
f 185//93 187//93 188//93 186//93
f 187//94 189//94 190//94 188//94
f 189//95 191//95 192//95 190//95
f 191//96 193//96 194//96 192//96
f 193//97 195//97 196//97 194//97
f 195//98 197//98 198//98 196//98
f 197//99 199//99 200//99 198//99
f 199//100 201//100 202//100 200//100
f 201//101 203//101 204//101 202//101
f 203//102 205//102 206//102 204//102
f 205//103 207//103 208//103 206//103
f 207//104 209//104 210//104 208//104
f 209//105 211//105 212//105 210//105
f 211//106 213//106 214//106 212//106
f 213//107 215//107 216//107 214//107
f 215//108 217//108 218//108 216//108
f 217//109 219//109 220//109 218//109
f 219//110 221//110 222//110 220//110
f 221//111 223//111 224//111 222//111
f 223//112 225//112 226//112 224//112
f 225//113 227//113 228//113 226//113
f 227//114 229//114 230//114 228//114
f 229//115 231//115 232//115 230//115
f 231//116 233//116 234//116 232//116
f 233//117 235//117 236//117 234//117
f 235//118 237//118 238//118 236//118
f 237//119 239//119 240//119 238//119
f 239//120 241//120 242//120 240//120
f 241//121 243//121 244//121 242//121
f 243//122 245//122 246//122 244//122
f 245//123 247//123 248//123 246//123
f 247//124 249//124 250//124 248//124
f 249//125 251//125 252//125 250//125
f 251//126 253//126 254//126 252//126
f 253//127 255//127 256//127 254//127
f 255//128 257//128 258//128 256//128
f 257//129 259//129 260//129 258//129
f 259//130 261//130 262//130 260//130
f 261//131 263//131 264//131 262//131
f 263//132 265//132 266//132 264//132
f 265//133 267//133 268//133 266//133
f 267//134 269//134 270//134 268//134
f 269//135 271//135 272//135 270//135
f 271//136 273//136 274//136 272//136
f 273//137 275//137 276//137 274//137
f 275//138 277//138 278//138 276//138
f 277//139 279//139 280//139 278//139
f 279//140 281//140 282//140 280//140
f 281//141 283//141 284//141 282//141
f 283//142 285//142 286//142 284//142
f 285//143 287//143 288//143 286//143
f 287//144 289//144 290//144 288//144
f 289//145 291//145 292//145 290//145
f 291//146 293//146 294//146 292//146
f 293//147 295//147 296//147 294//147
f 295//148 297//148 298//148 296//148
f 297//149 299//149 300//149 298//149
f 299//150 301//150 302//150 300//150
f 301//151 303//151 304//151 302//151
f 303//152 305//152 306//152 304//152
f 305//153 307//153 308//153 306//153
f 307//154 309//154 310//154 308//154
f 309//155 311//155 312//155 310//155
f 311//156 313//156 314//156 312//156
f 313//157 315//157 316//157 314//157
f 315//158 317//158 318//158 316//158
f 317//159 319//159 320//159 318//159
f 319//160 321//160 322//160 320//160
f 321//161 323//161 324//161 322//161
f 323//162 325//162 326//162 324//162
f 325//163 327//163 328//163 326//163
f 327//164 329//164 330//164 328//164
f 329//165 331//165 332//165 330//165
f 331//166 333//166 334//166 332//166
f 333//167 335//167 336//167 334//167
f 335//168 337//168 338//168 336//168
f 337//169 339//169 340//169 338//169
f 339//170 341//170 342//170 340//170
f 341//171 343//171 344//171 342//171
f 343//172 345//172 346//172 344//172
f 345//173 347//173 348//173 346//173
f 347//174 349//174 350//174 348//174
f 349//175 351//175 352//175 350//175
f 351//176 353//176 354//176 352//176
f 353//177 355//177 356//177 354//177
f 355//178 357//178 358//178 356//178
f 357//179 359//179 360//179 358//179
f 359//180 361//180 362//180 360//180
f 361//181 363//181 364//181 362//181
f 363//182 365//182 366//182 364//182
f 365//183 367//183 368//183 366//183
f 367//184 369//184 370//184 368//184
f 369//185 371//185 372//185 370//185
f 371//186 1//186 4//186 372//186
f 373//187 375//187 376//187 374//187
f 375//188 377//188 378//188 376//188
f 377//189 379//189 380//189 378//189
f 379//190 381//190 382//190 380//190
f 381//191 383//191 384//191 382//191
f 383//192 385//192 386//192 384//192
f 385//193 387//193 388//193 386//193
f 387//194 389//194 390//194 388//194
f 389//195 391//195 392//195 390//195
f 391//196 393//196 394//196 392//196
f 393//197 395//197 396//197 394//197
f 395//198 397//198 398//198 396//198
f 397//199 399//199 400//199 398//199
f 399//200 401//200 402//200 400//200
f 401//201 403//201 404//201 402//201
f 403//202 405//202 406//202 404//202
f 405//203 407//203 408//203 406//203
f 407//204 409//204 410//204 408//204
f 409//205 411//205 412//205 410//205
f 411//206 413//206 414//206 412//206
f 413//207 415//207 416//207 414//207
f 415//208 417//208 418//208 416//208
f 417//209 419//209 420//209 418//209
f 419//210 421//210 422//210 420//210
f 421//211 423//211 424//211 422//211
f 423//212 425//212 426//212 424//212
f 425//213 427//213 428//213 426//213
f 427//214 429//214 430//214 428//214
f 429//215 431//215 432//215 430//215
f 431//216 433//216 434//216 432//216
f 433//217 435//217 436//217 434//217
f 435//218 437//218 438//218 436//218
f 437//219 439//219 440//219 438//219
f 439//220 441//220 442//220 440//220
f 441//221 443//221 444//221 442//221
f 443//222 445//222 446//222 444//222
f 445//223 447//223 448//223 446//223
f 447//224 449//224 450//224 448//224
f 449//225 451//225 452//225 450//225
f 451//226 453//226 454//226 452//226
f 453//227 455//227 456//227 454//227
f 455//228 457//228 458//228 456//228
f 457//229 459//229 460//229 458//229
f 459//230 461//230 462//230 460//230
f 461//231 463//231 464//231 462//231
f 463//232 465//232 466//232 464//232
f 465//233 467//233 468//233 466//233
f 467//234 469//234 470//234 468//234
f 469//235 471//235 472//235 470//235
f 471//236 473//236 474//236 472//236
f 473//237 475//237 476//237 474//237
f 475//238 477//238 478//238 476//238
f 477//239 479//239 480//239 478//239
f 479//240 481//240 482//240 480//240
f 481//241 483//241 484//241 482//241
f 483//242 485//242 486//242 484//242
f 485//243 487//243 488//243 486//243
f 487//244 489//244 490//244 488//244
f 489//245 491//245 492//245 490//245
f 491//246 493//246 494//246 492//246
f 493//247 495//247 496//247 494//247
f 495//248 497//248 498//248 496//248
f 497//249 499//249 500//249 498//249
f 499//250 501//250 502//250 500//250
f 501//251 503//251 504//251 502//251
f 503//252 505//252 506//252 504//252
f 505//253 507//253 508//253 506//253
f 507//254 509//254 510//254 508//254
f 509//255 511//255 512//255 510//255
f 511//256 513//256 514//256 512//256
f 513//257 515//257 516//257 514//257
f 515//258 517//258 518//258 516//258
f 517//259 519//259 520//259 518//259
f 519//260 521//260 522//260 520//260
f 521//261 523//261 524//261 522//261
f 523//262 525//262 526//262 524//262
f 525//263 527//263 528//263 526//263
f 527//264 529//264 530//264 528//264
f 529//265 531//265 532//265 530//265
f 531//266 533//266 534//266 532//266
f 533//267 535//267 536//267 534//267
f 535//268 537//268 538//268 536//268
f 537//269 539//269 540//269 538//269
f 539//270 541//270 542//270 540//270
f 541//271 543//271 544//271 542//271
f 543//272 545//272 546//272 544//272
f 545//273 547//273 548//273 546//273
f 547//274 549//274 550//274 548//274
f 549//275 551//275 552//275 550//275
f 551//276 553//276 554//276 552//276
f 553//277 555//277 556//277 554//277
f 555//278 557//278 558//278 556//278
f 557//279 559//279 560//279 558//279
f 559//280 561//280 562//280 560//280
f 561//281 563//281 564//281 562//281
f 563//282 565//282 566//282 564//282
f 565//283 567//283 568//283 566//283
f 567//284 569//284 570//284 568//284
f 569//285 571//285 572//285 570//285
f 571//286 573//286 574//286 572//286
f 573//287 575//287 576//287 574//287
f 575//288 577//288 578//288 576//288
f 577//289 579//289 580//289 578//289
f 579//290 581//290 582//290 580//290
f 581//291 583//291 584//291 582//291
f 583//292 585//292 586//292 584//292
f 585//177 587//177 588//177 586//177
f 587//293 589//293 590//293 588//293
f 589//294 591//294 592//294 590//294
f 591//295 593//295 594//295 592//295
f 593//296 595//296 596//296 594//296
f 595//297 597//297 598//297 596//297
f 597//298 599//298 600//298 598//298
f 599//299 601//299 602//299 600//299
f 601//300 603//300 604//300 602//300
f 603//301 605//301 606//301 604//301
f 605//302 607//302 608//302 606//302
f 607//303 609//303 610//303 608//303
f 609//304 611//304 612//304 610//304
f 611//305 613//305 614//305 612//305
f 613//306 615//306 616//306 614//306
f 615//307 617//307 618//307 616//307
f 617//308 619//308 620//308 618//308
f 619//309 621//309 622//309 620//309
f 621//310 623//310 624//310 622//310
f 623//311 625//311 626//311 624//311
f 625//312 627//312 628//312 626//312
f 627//313 373//313 374//313 628//313
f 373//314 1//314 4//314 374//314
f 628//315 374//315 4//315
f 626//315 628//315 4//315
f 624//315 626//315 4//315
f 622//315 624//315 4//315
f 620//315 622//315 4//315
f 618//315 620//315 4//315
f 616//315 618//315 4//315
f 614//315 616//315 4//315
f 612//315 614//315 4//315
f 610//315 612//315 4//315
f 608//315 610//315 4//315
f 606//315 608//315 4//315
f 604//315 606//315 4//315
f 602//315 604//315 4//315
f 600//315 602//315 4//315
f 598//315 600//315 4//315
f 596//315 598//315 4//315
f 594//315 596//315 4//315
f 590//315 592//315 594//315
f 588//315 590//315 594//315
f 586//315 588//315 594//315
f 584//315 586//315 594//315
f 582//315 584//315 594//315
f 580//315 582//315 594//315
f 578//315 580//315 594//315
f 576//315 578//315 594//315
f 574//315 576//315 594//315
f 572//315 574//315 594//315
f 570//315 572//315 594//315
f 568//315 570//315 594//315
f 566//315 568//315 594//315
f 564//315 566//315 594//315
f 562//315 564//315 594//315
f 560//315 562//315 594//315
f 558//315 560//315 594//315
f 556//315 558//315 594//315
f 554//315 556//315 594//315
f 552//315 554//315 594//315
f 548//315 550//315 552//315
f 546//315 548//315 552//315
f 544//315 546//315 552//315
f 542//315 544//315 552//315
f 540//315 542//315 552//315
f 538//315 540//315 552//315
f 536//315 538//315 552//315
f 534//315 536//315 552//315
f 532//315 534//315 552//315
f 530//315 532//315 552//315
f 528//315 530//315 552//315
f 526//315 528//315 552//315
f 524//315 526//315 552//315
f 522//315 524//315 552//315
f 520//315 522//315 552//315
f 518//315 520//315 552//315
f 516//315 518//315 552//315
f 514//315 516//315 552//315
f 512//315 514//315 552//315
f 510//315 512//315 552//315
f 508//315 510//315 552//315
f 504//315 506//315 508//315
f 502//315 504//315 508//315
f 500//315 502//315 508//315
f 498//315 500//315 508//315
f 496//315 498//315 508//315
f 494//315 496//315 508//315
f 492//315 494//315 508//315
f 490//315 492//315 508//315
f 488//315 490//315 508//315
f 486//315 488//315 508//315
f 484//315 486//315 508//315
f 482//315 484//315 508//315
f 480//315 482//315 508//315
f 478//315 480//315 508//315
f 476//315 478//315 508//315
f 474//315 476//315 508//315
f 472//315 474//315 508//315
f 470//315 472//315 508//315
f 468//315 470//315 508//315
f 466//315 468//315 508//315
f 464//315 466//315 508//315
f 460//315 462//315 464//315
f 458//315 460//315 464//315
f 456//315 458//315 464//315
f 454//315 456//315 464//315
f 452//315 454//315 464//315
f 450//315 452//315 464//315
f 448//315 450//315 464//315
f 446//315 448//315 464//315
f 444//315 446//315 464//315
f 442//315 444//315 464//315
f 440//315 442//315 464//315
f 438//315 440//315 464//315
f 436//315 438//315 464//315
f 434//315 436//315 464//315
f 432//315 434//315 464//315
f 430//315 432//315 464//315
f 428//315 430//315 464//315
f 426//315 428//315 464//315
f 424//315 426//315 464//315
f 422//315 424//315 464//315
f 420//315 422//315 464//315
f 416//315 418//315 420//315
f 414//315 416//315 420//315
f 412//315 414//315 420//315
f 410//315 412//315 420//315
f 408//315 410//315 420//315
f 406//315 408//315 420//315
f 404//315 406//315 420//315
f 402//315 404//315 420//315
f 400//315 402//315 420//315
f 398//315 400//315 420//315
f 396//315 398//315 420//315
f 394//315 396//315 420//315
f 392//315 394//315 420//315
f 390//315 392//315 420//315
f 388//315 390//315 420//315
f 386//315 388//315 420//315
f 384//315 386//315 420//315
f 382//315 384//315 420//315
f 380//315 382//315 420//315
f 378//315 380//315 420//315
f 376//315 378//315 420//315
f 4//315 374//315 376//315
f 372//315 4//315 376//315
f 370//315 372//315 376//315
f 368//315 370//315 376//315
f 366//315 368//315 376//315
f 364//315 366//315 376//315
f 360//315 362//315 364//315
f 358//315 360//315 364//315
f 356//315 358//315 364//315
f 356//315 364//315 376//315
f 354//315 356//315 376//315
f 352//315 354//315 376//315
f 350//315 352//315 376//315
f 348//315 350//315 376//315
f 346//315 348//315 376//315
f 344//315 346//315 376//315
f 342//315 344//315 376//315
f 338//315 340//315 342//315
f 338//315 342//315 376//315
f 336//315 338//315 376//315
f 334//315 336//315 376//315
f 332//315 334//315 376//315
f 330//315 332//315 376//315
f 328//315 330//315 376//315
f 326//315 328//315 376//315
f 324//315 326//315 376//315
f 322//315 324//315 376//315
f 320//315 322//315 376//315
f 318//315 320//315 376//315
f 316//315 318//315 376//315
f 314//315 316//315 376//315
f 312//315 314//315 376//315
f 310//315 312//315 376//315
f 308//315 310//315 376//315
f 306//315 308//315 376//315
f 304//315 306//315 376//315
f 302//315 304//315 376//315
f 300//315 302//315 376//315
f 298//315 300//315 376//315
f 296//315 298//315 376//315
f 294//315 296//315 376//315
f 292//315 294//315 376//315
f 290//315 292//315 376//315
f 288//315 290//315 376//315
f 286//315 288//315 376//315
f 284//315 286//315 376//315
f 282//315 284//315 376//315
f 280//315 282//315 376//315
f 278//315 280//315 376//315
f 276//315 278//315 376//315
f 274//315 276//315 376//315
f 272//315 274//315 376//315
f 270//315 272//315 376//315
f 268//315 270//315 376//315
f 266//315 268//315 376//315
f 264//315 266//315 376//315
f 262//315 264//315 376//315
f 260//315 262//315 376//315
f 258//315 260//315 376//315
f 256//315 258//315 376//315
f 254//315 256//315 376//315
f 252//315 254//315 376//315
f 250//315 252//315 376//315
f 248//315 250//315 376//315
f 246//315 248//315 376//315
f 244//315 246//315 376//315
f 242//315 244//315 376//315
f 240//315 242//315 376//315
f 238//315 240//315 376//315
f 236//315 238//315 376//315
f 234//315 236//315 376//315
f 232//315 234//315 376//315
f 230//315 232//315 376//315
f 228//315 230//315 376//315
f 226//315 228//315 376//315
f 224//315 226//315 376//315
f 222//315 224//315 376//315
f 220//315 222//315 376//315
f 218//315 220//315 376//315
f 216//315 218//315 376//315
f 214//315 216//315 376//315
f 210//315 212//315 214//315
f 208//315 210//315 214//315
f 206//315 208//315 214//315
f 204//315 206//315 214//315
f 202//315 204//315 214//315
f 200//315 202//315 214//315
f 200//315 214//315 376//315
f 198//315 200//315 376//315
f 196//315 198//315 376//315
f 194//315 196//315 376//315
f 192//315 194//315 376//315
f 190//315 192//315 376//315
f 188//315 190//315 376//315
f 186//315 188//315 376//315
f 184//315 186//315 376//315
f 182//315 184//315 376//315
f 180//315 182//315 376//315
f 178//315 180//315 376//315
f 176//315 178//315 376//315
f 174//315 176//315 376//315
f 172//315 174//315 376//315
f 168//315 170//315 172//315
f 166//315 168//315 172//315
f 166//315 172//315 376//315
f 164//315 166//315 376//315
f 162//315 164//315 376//315
f 160//315 162//315 376//315
f 158//315 160//315 376//315
f 156//315 158//315 376//315
f 154//315 156//315 376//315
f 152//315 154//315 376//315
f 150//315 152//315 376//315
f 148//315 150//315 376//315
f 148//315 376//315 420//315
f 146//315 148//315 420//315
f 144//315 146//315 420//315
f 142//315 144//315 420//315
f 140//315 142//315 420//315
f 138//315 140//315 420//315
f 136//315 138//315 420//315
f 134//315 136//315 420//315
f 132//315 134//315 420//315
f 130//315 132//315 420//315
f 128//315 130//315 420//315
f 126//315 128//315 420//315
f 124//315 126//315 420//315
f 122//315 124//315 420//315
f 120//315 122//315 420//315
f 118//315 120//315 420//315
f 116//315 118//315 420//315
f 114//315 116//315 420//315
f 114//315 420//315 464//315
f 112//315 114//315 464//315
f 110//315 112//315 464//315
f 108//315 110//315 464//315
f 106//315 108//315 464//315
f 104//315 106//315 464//315
f 102//315 104//315 464//315
f 100//315 102//315 464//315
f 98//315 100//315 464//315
f 96//315 98//315 464//315
f 94//315 96//315 464//315
f 92//315 94//315 464//315
f 90//315 92//315 464//315
f 88//315 90//315 464//315
f 86//315 88//315 464//315
f 84//315 86//315 464//315
f 82//315 84//315 464//315
f 80//315 82//315 464//315
f 78//315 80//315 464//315
f 78//315 464//315 508//315
f 76//315 78//315 508//315
f 74//315 76//315 508//315
f 72//315 74//315 508//315
f 70//315 72//315 508//315
f 68//315 70//315 508//315
f 66//315 68//315 508//315
f 64//315 66//315 508//315
f 62//315 64//315 508//315
f 60//315 62//315 508//315
f 58//315 60//315 508//315
f 56//315 58//315 508//315
f 54//315 56//315 508//315
f 54//315 508//315 552//315
f 52//315 54//315 552//315
f 50//315 52//315 552//315
f 48//315 50//315 552//315
f 46//315 48//315 552//315
f 44//315 46//315 552//315
f 42//315 44//315 552//315
f 40//315 42//315 552//315
f 38//315 40//315 552//315
f 36//315 38//315 552//315
f 34//315 36//315 552//315
f 32//315 34//315 552//315
f 30//315 32//315 552//315
f 30//315 552//315 594//315
f 28//315 30//315 594//315
f 26//315 28//315 594//315
f 24//315 26//315 594//315
f 22//315 24//315 594//315
f 20//315 22//315 594//315
f 18//315 20//315 594//315
f 16//315 18//315 594//315
f 14//315 16//315 594//315
f 12//315 14//315 594//315
f 10//315 12//315 594//315
f 8//315 10//315 594//315
f 6//315 8//315 594//315
f 3//315 6//315 594//315
f 4//315 3//315 594//315
