# Blender 4.2.2 LTS
# www.blender.org
mtllib Hinges.mtl
o ModelComponent
v -0.370533 0.135566 -0.900955
v -0.332886 0.119268 -0.917130
v -0.332886 0.154926 -0.936584
v -0.370533 0.176098 -0.930511
v -0.332886 -0.000000 -0.949730
v -0.332886 0.154926 -0.962875
v -0.370533 -0.000000 -0.900955
v -0.332886 -0.000000 -0.912674
v -0.811783 0.119268 -0.917130
v -0.811783 0.154926 -0.936584
v -0.811783 -0.000000 -0.949730
v -0.811783 -0.000000 -0.917130
v -0.332886 -0.000000 -0.982323
v -0.370533 -0.000000 -1.000000
v -0.370533 0.135566 -1.000000
v -0.332886 0.119268 -0.982323
v -0.370533 0.176098 -0.970451
v -0.811783 0.154926 -0.962875
v -0.811783 0.119268 -0.982323
v -0.811783 -0.000000 -0.982323
v -0.774132 0.135566 -1.000000
v -0.774132 -0.000000 -1.000000
v -0.774132 0.176098 -0.970451
v -0.774132 0.176098 -0.930511
v -0.774132 0.135566 -0.900955
v -0.774132 -0.000000 -0.900955
v 0.404697 0.135566 -0.900955
v 0.442345 0.119268 -0.917130
v 0.442345 0.154926 -0.936584
v 0.404697 0.176098 -0.930511
v 0.442345 -0.000000 -0.949730
v 0.442345 0.154926 -0.962875
v 0.404697 -0.000000 -0.900955
v 0.442345 -0.000000 -0.912674
v 0.259542 0.119268 -0.917130
v 0.259542 0.154926 -0.936584
v 0.259542 -0.000000 -0.949730
v 0.259542 -0.000000 -0.917130
v 0.442345 -0.000000 -0.982323
v 0.404697 -0.000000 -1.000000
v 0.404697 0.135566 -1.000000
v 0.442345 0.119268 -0.982323
v 0.404697 0.176098 -0.970451
v 0.259542 0.154926 -0.962875
v 0.259542 0.119268 -0.982323
v 0.259542 -0.000000 -0.982323
v 0.297192 0.135566 -1.000000
v 0.297192 -0.000000 -1.000000
v 0.297192 0.176098 -0.970451
v 0.297192 0.176098 -0.930511
v 0.297192 0.135566 -0.900955
v 0.297192 -0.000000 -0.900955
v 0.900955 0.135566 -0.404697
v 0.930511 0.176098 -0.404697
v 0.936584 0.154926 -0.442345
v 0.917130 0.119268 -0.442345
v 0.949730 -0.000000 -0.442345
v 0.962875 0.154926 -0.442345
v 0.900955 -0.000000 -0.404697
v 0.912674 -0.000000 -0.442345
v 0.917130 0.119268 -0.259542
v 0.917130 -0.000000 -0.259542
v 0.949730 -0.000000 -0.259542
v 0.936584 0.154926 -0.259542
v 0.982323 -0.000000 -0.442345
v 0.982323 0.119268 -0.442345
v 1.000000 0.135566 -0.404697
v 1.000000 -0.000000 -0.404697
v 0.970451 0.176098 -0.404697
v 0.982323 -0.000000 -0.259542
v 0.982323 0.119268 -0.259542
v 0.962875 0.154926 -0.259542
v 1.000000 0.135566 -0.297192
v 1.000000 -0.000000 -0.297192
v 0.970451 0.176098 -0.297192
v 0.930511 0.176098 -0.297192
v 0.900955 0.135566 -0.297192
v 0.900955 -0.000000 -0.297192
v -0.900955 0.135566 0.370533
v -0.917130 0.119267 0.332886
v -0.936584 0.154926 0.332886
v -0.930511 0.176098 0.370533
v -0.949730 0.000000 0.332886
v -0.962875 0.154926 0.332886
v -0.900955 0.000000 0.370533
v -0.912674 0.000000 0.332886
v -0.917130 0.119267 0.811783
v -0.936584 0.154926 0.811783
v -0.949730 0.000000 0.811783
v -0.917130 0.000000 0.811783
v -0.982323 0.000000 0.332886
v -1.000000 0.000000 0.370533
v -1.000000 0.135566 0.370533
v -0.982323 0.119267 0.332886
v -0.970451 0.176098 0.370533
v -0.962875 0.154926 0.811783
v -0.982323 0.119267 0.811783
v -0.982323 0.000000 0.811783
v -1.000000 0.135566 0.774132
v -1.000000 0.000000 0.774132
v -0.970451 0.176098 0.774132
v -0.930511 0.176098 0.774132
v -0.900955 0.135566 0.774132
v -0.900955 0.000000 0.774132
v -0.900955 0.135566 -0.370533
v -0.930511 0.176098 -0.370533
v -0.936584 0.154926 -0.332886
v -0.917130 0.119268 -0.332886
v -0.949730 -0.000000 -0.332886
v -0.962875 0.154926 -0.332886
v -0.900955 -0.000000 -0.370533
v -0.912674 -0.000000 -0.332886
v -0.917130 0.119268 -0.811783
v -0.917130 -0.000000 -0.811783
v -0.949730 -0.000000 -0.811783
v -0.936584 0.154926 -0.811783
v -0.982323 -0.000000 -0.332886
v -0.982323 0.119268 -0.332886
v -1.000000 0.135566 -0.370533
v -1.000000 -0.000000 -0.370533
v -0.970451 0.176098 -0.370533
v -0.982323 -0.000000 -0.811783
v -0.982323 0.119268 -0.811783
v -0.962875 0.154926 -0.811783
v -1.000000 0.135566 -0.774132
v -1.000000 -0.000000 -0.774132
v -0.970451 0.176098 -0.774132
v -0.930511 0.176098 -0.774132
v -0.900955 0.135566 -0.774132
v -0.900955 -0.000000 -0.774132
v -0.370533 0.135566 0.900955
v -0.370533 0.176098 0.930511
v -0.332886 0.154926 0.936584
v -0.332886 0.119267 0.917130
v -0.332886 0.000000 0.949730
v -0.332886 0.154926 0.962875
v -0.370533 0.000000 0.900955
v -0.332886 0.000000 0.912674
v -0.811783 0.119267 0.917130
v -0.811783 0.000000 0.917130
v -0.811783 0.000000 0.949730
v -0.811783 0.154926 0.936584
v -0.332886 0.000000 0.982323
v -0.332886 0.119267 0.982323
v -0.370533 0.135566 1.000000
v -0.370533 0.000000 1.000000
v -0.370533 0.176098 0.970451
v -0.811783 0.000000 0.982323
v -0.811783 0.119267 0.982323
v -0.811783 0.154926 0.962875
v -0.774132 0.135566 1.000000
v -0.774132 0.000000 1.000000
v -0.774132 0.176098 0.970451
v -0.774132 0.176098 0.930511
v -0.774132 0.135566 0.900955
v -0.774132 0.000000 0.900955
v 0.370533 0.135566 0.900955
v 0.332886 0.119267 0.917130
v 0.332886 0.154926 0.936584
v 0.370533 0.176098 0.930511
v 0.332886 0.000000 0.949730
v 0.332886 0.154926 0.962875
v 0.370533 0.000000 0.900955
v 0.332886 0.000000 0.912674
v 0.811783 0.119267 0.917130
v 0.811783 0.154926 0.936584
v 0.811783 0.000000 0.949730
v 0.811783 0.000000 0.917130
v 0.332886 0.000000 0.982323
v 0.370533 0.000000 1.000000
v 0.370533 0.135566 1.000000
v 0.332886 0.119267 0.982323
v 0.370533 0.176098 0.970451
v 0.811783 0.154926 0.962875
v 0.811783 0.119267 0.982323
v 0.811783 0.000000 0.982323
v 0.774132 0.135566 1.000000
v 0.774132 0.000000 1.000000
v 0.774132 0.176098 0.970451
v 0.774132 0.176098 0.930511
v 0.774132 0.135566 0.900955
v 0.774132 0.000000 0.900955
v 0.900955 0.135566 0.370533
v 0.930511 0.176098 0.370533
v 0.936584 0.154926 0.332886
v 0.917130 0.119267 0.332886
v 0.949730 0.000000 0.332886
v 0.962875 0.154926 0.332886
v 0.900955 0.000000 0.370533
v 0.912674 0.000000 0.332886
v 0.917130 0.119267 0.811783
v 0.917130 0.000000 0.811783
v 0.949730 0.000000 0.811783
v 0.936584 0.154926 0.811783
v 0.982323 0.000000 0.332886
v 0.982323 0.119267 0.332886
v 1.000000 0.135566 0.370533
v 1.000000 0.000000 0.370533
v 0.970451 0.176098 0.370533
v 0.982323 0.000000 0.811783
v 0.982323 0.119267 0.811783
v 0.962875 0.154926 0.811783
v 1.000000 0.135566 0.774132
v 1.000000 0.000000 0.774132
v 0.970451 0.176098 0.774132
v 0.930511 0.176098 0.774132
v 0.900955 0.135566 0.774132
v 0.900955 0.000000 0.774132
vn 0.0296 0.1676 0.9854
vn 0.8018 0.0771 0.5926
vn 0.8648 0.4103 0.2894
vn 0.0372 0.8632 0.5035
vn 1.0000 -0.0000 -0.0000
vn 0.8627 0.4148 -0.2894
vn 0.8639 0.4108 0.2913
vn 0.0321 0.0014 0.9995
vn 0.7609 0.0113 0.6488
vn 0.0315 0.1668 0.9855
vn -0.7935 0.0696 0.6046
vn -0.8597 0.4167 0.2955
vn -1.0000 -0.0000 -0.0000
vn -0.7663 -0.0000 0.6425
vn 0.7778 -0.0000 -0.6285
vn 0.0398 -0.0000 -0.9992
vn 0.0348 0.1666 -0.9854
vn 0.8033 0.0690 -0.5916
vn 0.0347 0.1666 -0.9854
vn 0.0385 0.8628 -0.5041
vn 0.0385 0.8614 -0.5064
vn 0.0373 0.8618 0.5058
vn 0.8645 0.4090 0.2921
vn 0.8632 0.4130 -0.2902
vn -0.8627 0.4148 -0.2894
vn -0.8021 0.0691 -0.5932
vn -0.7765 -0.0000 -0.6301
vn 0.8006 0.0773 0.5942
vn 0.7596 0.0113 0.6503
vn 0.7765 -0.0000 -0.6301
vn 0.8021 0.0692 -0.5932
vn -0.0343 0.1646 -0.9858
vn 0.0343 0.1646 -0.9858
vn 0.0378 -0.0000 -0.9993
vn -0.0378 -0.0001 -0.9993
vn -0.0398 0.8611 -0.5069
vn 0.0398 0.8611 -0.5069
vn -0.0348 0.1666 -0.9854
vn -0.0387 0.8625 0.5046
vn 0.0387 0.8625 0.5046
vn 0.0399 0.8621 -0.5052
vn -0.0400 0.8621 -0.5052
vn -0.0322 0.1668 0.9855
vn 0.0385 0.8615 0.5063
vn -0.0385 0.8615 0.5063
vn -0.0346 -0.0000 0.9994
vn 0.0301 0.0014 0.9995
vn 0.0293 0.1656 0.9858
vn -0.0318 0.1648 0.9858
vn -0.0398 -0.0000 -0.9992
vn -0.7778 -0.0000 -0.6285
vn -0.8033 0.0689 -0.5916
vn -0.0385 0.8628 -0.5041
vn -0.8633 0.4130 -0.2901
vn -0.8602 0.4149 0.2964
vn -0.0371 0.8619 0.5058
vn -0.0385 0.8614 -0.5064
vn -0.7947 0.0694 0.6030
vn -0.0321 0.1668 0.9855
vn -0.0373 0.8632 0.5035
vn -0.8605 0.4162 0.2937
vn -0.7676 -0.0000 0.6409
vn -0.0366 -0.0000 0.9993
vn -0.0340 0.1660 0.9855
vn 0.0933 0.1715 0.9808
vn 0.8018 0.0770 0.5926
vn 0.1230 0.8551 0.5036
vn 0.0943 0.0044 0.9955
vn 0.0951 0.1705 0.9808
vn -0.8597 0.4167 0.2954
vn -0.7664 -0.0000 0.6424
vn 0.1175 -0.0000 -0.9931
vn 0.1114 0.1674 -0.9796
vn 0.1096 0.1683 -0.9796
vn 0.1270 0.8535 -0.5054
vn 0.1257 0.8529 -0.5068
vn 0.1217 0.8545 0.5050
vn 0.8632 0.4130 -0.2903
vn -0.1085 0.1666 -0.9800
vn 0.1085 0.1666 -0.9800
vn 0.1135 -0.0000 -0.9935
vn -0.1135 -0.0000 -0.9935
vn -0.1264 0.8526 -0.5071
vn 0.1264 0.8526 -0.5071
vn -0.1095 0.1683 -0.9796
vn -0.1230 0.8551 0.5036
vn -0.1270 0.8535 -0.5054
vn -0.1015 0.1689 0.9804
vn 0.1225 0.8542 0.5053
vn -0.1224 0.8542 0.5053
vn -0.1038 -0.0000 0.9946
vn 0.0923 0.0043 0.9957
vn 0.0923 0.1697 0.9812
vn -0.1005 0.1672 0.9808
vn -0.1175 -0.0000 -0.9931
vn -0.8033 0.0690 -0.5916
vn -0.1114 0.1674 -0.9796
vn -0.1096 0.1683 -0.9796
vn -0.8633 0.4130 -0.2902
vn -0.8603 0.4149 0.2962
vn -0.1216 0.8546 0.5049
vn -0.1257 0.8528 -0.5068
vn -0.8606 0.4162 0.2936
vn -0.7677 -0.0000 0.6408
vn -0.1079 -0.0000 0.9942
vn -0.1033 0.1679 0.9804
vn -0.9808 0.1715 -0.0933
vn -0.5036 0.8551 -0.1230
vn -0.2895 0.4103 -0.8648
vn -0.5926 0.0772 -0.8018
vn -0.0000 -0.0000 -1.0000
vn -0.2913 0.4108 -0.8639
vn 0.2894 0.4148 -0.8627
vn -0.9955 0.0045 -0.0943
vn -0.9808 0.1704 -0.0951
vn -0.6488 0.0108 -0.7609
vn -0.6046 0.0696 0.7935
vn -0.6425 -0.0000 0.7663
vn -0.0000 -0.0000 1.0000
vn -0.2954 0.4167 0.8597
vn 0.6285 -0.0000 -0.7778
vn 0.5916 0.0690 -0.8033
vn 0.9796 0.1675 -0.1114
vn 0.9931 0.0003 -0.1175
vn 0.5054 0.8535 -0.1270
vn 0.9796 0.1683 -0.1096
vn 0.5068 0.8529 -0.1257
vn 0.2902 0.4130 -0.8633
vn -0.2921 0.4090 -0.8645
vn -0.5050 0.8545 -0.1217
vn 0.6301 -0.0000 0.7765
vn 0.5932 0.0692 0.8021
vn 0.2894 0.4148 0.8627
vn -0.6503 0.0109 -0.7596
vn -0.5942 0.0774 -0.8006
vn 0.5932 0.0691 -0.8021
vn 0.6301 -0.0000 -0.7765
vn 0.9800 0.1665 0.1085
vn 0.9935 -0.0000 0.1135
vn 0.9935 -0.0000 -0.1135
vn 0.9800 0.1666 -0.1085
vn 0.5071 0.8526 0.1264
vn 0.9796 0.1682 0.1096
vn 0.9796 0.1683 -0.1095
vn 0.5071 0.8526 -0.1264
vn -0.5036 0.8551 0.1230
vn 0.5054 0.8535 0.1270
vn -0.9804 0.1689 0.1014
vn -0.5053 0.8542 0.1225
vn -0.5053 0.8542 -0.1224
vn -0.9946 -0.0000 0.1038
vn -0.9808 0.1672 0.1005
vn -0.9812 0.1697 -0.0923
vn -0.9957 0.0043 -0.0923
vn 0.9931 -0.0000 0.1175
vn 0.9796 0.1672 0.1114
vn 0.5916 0.0690 0.8033
vn 0.6285 -0.0000 0.7778
vn 0.2902 0.4130 0.8633
vn 0.5068 0.8529 0.1257
vn -0.5051 0.8544 0.1217
vn -0.2962 0.4149 0.8603
vn -0.6030 0.0694 0.7947
vn -0.2936 0.4163 0.8606
vn -0.9804 0.1689 0.1015
vn -0.6409 0.0002 0.7676
vn -0.9804 0.1679 0.1033
vn -0.9942 -0.0000 0.1079
vn 0.9854 0.1676 -0.0296
vn 0.5926 0.0771 -0.8018
vn 0.2894 0.4103 -0.8648
vn 0.5035 0.8632 -0.0372
vn -0.2894 0.4148 -0.8627
vn 0.2913 0.4108 -0.8639
vn 0.9995 0.0014 -0.0321
vn 0.6488 0.0113 -0.7609
vn 0.9855 0.1668 -0.0315
vn 0.6046 0.0696 0.7935
vn 0.2955 0.4167 0.8597
vn 0.6425 -0.0000 0.7663
vn -0.6285 0.0003 -0.7778
vn -0.9992 -0.0000 -0.0398
vn -0.9854 0.1666 -0.0348
vn -0.5916 0.0690 -0.8033
vn -0.9854 0.1666 -0.0347
vn -0.5041 0.8628 -0.0385
vn -0.5064 0.8614 -0.0385
vn 0.5058 0.8618 -0.0372
vn 0.2921 0.4090 -0.8645
vn -0.2902 0.4130 -0.8632
vn -0.2894 0.4148 0.8627
vn -0.5932 0.0691 0.8021
vn -0.6301 -0.0000 0.7765
vn 0.5942 0.0773 -0.8006
vn 0.6503 0.0113 -0.7596
vn -0.6301 -0.0000 -0.7765
vn -0.5932 0.0691 -0.8021
vn -0.9858 0.1646 0.0343
vn -0.9858 0.1646 -0.0343
vn -0.9993 -0.0000 -0.0378
vn -0.9993 0.0001 0.0378
vn -0.5069 0.8611 0.0398
vn -0.5069 0.8611 -0.0398
vn -0.9854 0.1666 0.0348
vn 0.5046 0.8625 0.0387
vn 0.5046 0.8625 -0.0387
vn -0.5052 0.8621 -0.0399
vn -0.5052 0.8621 0.0400
vn 0.9855 0.1668 0.0322
vn 0.5063 0.8615 -0.0385
vn 0.5063 0.8615 0.0385
vn 0.9994 -0.0000 0.0346
vn 0.9995 0.0014 -0.0301
vn 0.9858 0.1656 -0.0293
vn 0.9858 0.1648 0.0318
vn -0.9992 -0.0000 0.0398
vn -0.6285 -0.0000 0.7778
vn -0.5916 0.0689 0.8033
vn -0.5041 0.8628 0.0385
vn -0.2901 0.4130 0.8633
vn 0.2964 0.4149 0.8602
vn 0.5058 0.8619 0.0371
vn -0.5064 0.8614 0.0385
vn 0.6030 0.0694 0.7947
vn 0.9855 0.1668 0.0321
vn 0.5035 0.8632 0.0373
vn 0.2937 0.4162 0.8605
vn 0.6409 -0.0000 0.7676
vn 0.9993 -0.0000 0.0366
vn 0.9855 0.1660 0.0340
vn 0.9854 0.1676 0.0296
vn 0.5035 0.8632 0.0372
vn 0.2895 0.4103 0.8648
vn 0.5926 0.0771 0.8018
vn 0.2913 0.4108 0.8639
vn 0.9995 0.0016 0.0321
vn 0.9855 0.1668 0.0315
vn 0.6488 0.0108 0.7609
vn 0.6046 0.0696 -0.7935
vn 0.6425 -0.0000 -0.7663
vn 0.2955 0.4167 -0.8597
vn -0.6285 0.0001 0.7778
vn -0.5916 0.0690 0.8033
vn -0.5065 0.8614 0.0385
vn -0.2902 0.4130 0.8633
vn 0.2921 0.4090 0.8645
vn 0.5058 0.8618 0.0372
vn -0.5932 0.0690 -0.8021
vn 0.6503 0.0109 0.7596
vn 0.5942 0.0773 0.8006
vn -0.9993 -0.0000 0.0378
vn 0.9855 0.1668 -0.0322
vn 0.9994 -0.0000 -0.0346
vn 0.9858 0.1648 -0.0319
vn 0.9858 0.1656 0.0293
vn 0.9995 0.0014 0.0301
vn -0.5916 0.0689 -0.8033
vn -0.6285 -0.0000 -0.7778
vn -0.2902 0.4130 -0.8633
vn -0.5064 0.8615 -0.0385
vn 0.5059 0.8618 -0.0372
vn 0.2963 0.4149 -0.8603
vn 0.6030 0.0695 -0.7947
vn 0.2937 0.4162 -0.8605
vn 0.6409 -0.0001 -0.7676
vn 0.9855 0.1660 -0.0341
vn 0.9993 -0.0000 -0.0366
vn 0.0296 0.1676 -0.9854
vn 0.0372 0.8632 -0.5035
vn 0.8648 0.4103 -0.2894
vn 0.8018 0.0772 -0.5926
vn 0.8639 0.4108 -0.2913
vn 0.8627 0.4148 0.2894
vn 0.0321 0.0016 -0.9995
vn 0.0315 0.1668 -0.9855
vn 0.8018 0.0771 -0.5926
vn 0.7609 0.0108 -0.6488
vn -0.7935 0.0696 -0.6046
vn -0.7663 -0.0000 -0.6425
vn -0.8597 0.4167 -0.2955
vn 0.7778 -0.0000 0.6285
vn 0.8033 0.0690 0.5916
vn 0.0348 0.1666 0.9854
vn 0.0398 0.0005 0.9992
vn 0.0385 0.8628 0.5041
vn 0.0385 0.8614 0.5065
vn 0.8632 0.4130 0.2902
vn 0.8645 0.4090 -0.2921
vn 0.0372 0.8618 -0.5058
vn -0.7765 -0.0000 0.6301
vn -0.8021 0.0691 0.5932
vn -0.8627 0.4148 0.2894
vn 0.7596 0.0109 -0.6503
vn 0.8006 0.0773 -0.5942
vn 0.8021 0.0691 0.5932
vn 0.7765 -0.0000 0.6301
vn -0.0343 0.1646 0.9858
vn -0.0378 -0.0000 0.9993
vn 0.0378 -0.0000 0.9993
vn 0.0343 0.1646 0.9858
vn -0.0398 0.8611 0.5069
vn -0.0348 0.1666 0.9854
vn 0.0398 0.8611 0.5069
vn -0.0387 0.8625 -0.5046
vn -0.0399 0.8621 0.5052
vn 0.0400 0.8621 0.5052
vn 0.0387 0.8625 -0.5046
vn -0.0322 0.1668 -0.9855
vn -0.0385 0.8615 -0.5063
vn 0.0385 0.8615 -0.5063
vn -0.0346 -0.0000 -0.9994
vn -0.0319 0.1648 -0.9858
vn 0.0293 0.1656 -0.9858
vn 0.0301 0.0014 -0.9995
vn -0.0398 -0.0000 0.9992
vn -0.8033 0.0689 0.5916
vn -0.7778 -0.0000 0.6285
vn -0.0385 0.8628 0.5041
vn -0.8633 0.4130 0.2902
vn -0.0385 0.8615 0.5064
vn -0.0372 0.8618 -0.5059
vn -0.8603 0.4149 -0.2963
vn -0.7947 0.0695 -0.6030
vn -0.8605 0.4162 -0.2937
vn -0.0372 0.8632 -0.5035
vn -0.7676 0.0001 -0.6409
vn -0.0340 0.1660 -0.9855
vn -0.0366 -0.0000 -0.9993
vn -0.0296 0.1676 -0.9854
vn -0.8018 0.0771 -0.5926
vn -0.8648 0.4103 -0.2894
vn -0.8639 0.4108 -0.2913
vn -0.0321 0.0014 -0.9995
vn -0.7609 0.0113 -0.6488
vn -0.0315 0.1668 -0.9855
vn 0.7935 0.0696 -0.6046
vn 0.8597 0.4167 -0.2955
vn 0.7663 -0.0000 -0.6425
vn -0.7778 0.0003 0.6285
vn -0.8033 0.0690 0.5916
vn -0.0347 0.1666 0.9854
vn -0.0385 0.8614 0.5064
vn -0.0373 0.8618 -0.5058
vn -0.8645 0.4090 -0.2921
vn -0.8632 0.4130 0.2902
vn -0.8006 0.0773 -0.5942
vn -0.7596 0.0113 -0.6503
vn 0.0322 0.1668 -0.9855
vn 0.0346 -0.0000 -0.9994
vn -0.0301 0.0014 -0.9995
vn -0.0293 0.1656 -0.9858
vn 0.0318 0.1648 -0.9858
vn 0.0398 -0.0000 0.9992
vn 0.7778 0.0001 0.6285
vn 0.8033 0.0689 0.5916
vn 0.8633 0.4130 0.2901
vn 0.8602 0.4149 -0.2964
vn 0.0371 0.8619 -0.5058
vn 0.0385 0.8614 0.5064
vn 0.7947 0.0694 -0.6030
vn 0.0321 0.1668 -0.9855
vn 0.0373 0.8632 -0.5035
vn 0.8605 0.4162 -0.2937
vn 0.7676 -0.0000 -0.6409
vn 0.0366 -0.0000 -0.9993
vn 0.0340 0.1660 -0.9855
vn -0.9854 0.1676 -0.0296
vn -0.5035 0.8632 -0.0372
vn -0.9995 0.0016 -0.0321
vn -0.9855 0.1668 -0.0315
vn -0.5926 0.0771 -0.8018
vn -0.2955 0.4167 0.8597
vn 0.6285 -0.0001 -0.7778
vn 0.9854 0.1666 -0.0348
vn 0.9992 0.0006 -0.0398
vn 0.5041 0.8628 -0.0385
vn 0.5065 0.8614 -0.0385
vn -0.5058 0.8618 -0.0372
vn 0.5932 0.0691 0.8021
vn -0.5942 0.0773 -0.8006
vn 0.9858 0.1646 0.0343
vn 0.9993 -0.0000 0.0378
vn 0.9993 -0.0000 -0.0378
vn 0.9858 0.1646 -0.0343
vn 0.5069 0.8611 0.0398
vn 0.9854 0.1666 0.0348
vn 0.5069 0.8611 -0.0398
vn -0.5046 0.8625 0.0387
vn 0.5052 0.8621 0.0399
vn 0.5052 0.8621 -0.0400
vn -0.5046 0.8625 -0.0387
vn -0.9855 0.1668 0.0322
vn -0.5063 0.8615 0.0385
vn -0.5063 0.8615 -0.0385
vn -0.9994 0.0001 0.0346
vn -0.9858 0.1648 0.0319
vn -0.9858 0.1656 -0.0293
vn -0.9995 0.0014 -0.0301
vn 0.9992 -0.0000 0.0398
vn 0.5916 0.0689 0.8033
vn 0.5041 0.8628 0.0385
vn 0.5064 0.8615 0.0385
vn -0.5059 0.8618 0.0372
vn -0.2963 0.4149 0.8603
vn -0.6030 0.0695 0.7947
vn -0.2937 0.4162 0.8605
vn -0.5035 0.8632 0.0372
vn -0.6409 -0.0000 0.7676
vn -0.9855 0.1660 0.0340
vn -0.9993 -0.0000 0.0366
vt 0.922500 0.051000
vt 0.926400 0.034400
vt 0.940700 0.041100
vt 0.939900 0.051000
vt 0.946300 0.000300
vt 0.953400 0.041000
vt 0.900700 0.051000
vt 0.921000 0.007500
vt 0.927800 0.262500
vt 0.941000 0.259500
vt 0.946900 0.290100
vt 0.922100 0.286400
vt 0.974300 0.005400
vt 0.994900 0.051000
vt 0.970900 0.051000
vt 0.966700 0.034400
vt 0.953900 0.051000
vt 0.954200 0.259500
vt 0.966900 0.262900
vt 0.974000 0.285800
vt 0.970900 0.247100
vt 0.994900 0.247100
vt 0.953900 0.247100
vt 0.939900 0.247100
vt 0.922500 0.247100
vt 0.900700 0.247100
s 0
f 1/1/1 2/2/2 3/3/3 4/4/4
f 5/5/5 6/6/6 3/3/7
f 7/7/8 8/8/9 2/2/2 1/1/10
f 9/9/11 10/10/12 11/11/13 12/12/14
f 13/13/15 14/14/16 15/15/17 16/16/18
f 16/16/18 15/15/19 17/17/20 6/6/6
f 17/17/21 4/4/22 3/3/23 6/6/24
f 11/11/13 18/18/25 19/19/26 20/20/27
f 18/18/25 11/11/13 10/10/12
f 5/5/5 3/3/7 2/2/28 8/8/29
f 6/6/6 5/5/5 13/13/30 16/16/31
f 21/21/32 15/15/33 14/14/34 22/22/35
f 23/23/36 17/17/37 15/15/17 21/21/38
f 24/24/39 4/4/40 17/17/41 23/23/42
f 25/25/43 1/1/1 4/4/44 24/24/45
f 26/26/46 7/7/47 1/1/48 25/25/49
f 22/22/50 20/20/51 19/19/52 21/21/38
f 23/23/53 21/21/38 19/19/52 18/18/25
f 18/18/54 10/10/55 24/24/56 23/23/57
f 9/9/58 25/25/59 24/24/60 10/10/61
f 12/12/62 26/26/63 25/25/64 9/9/58
f 27/1/65 28/2/66 29/3/3 30/4/67
f 31/5/5 32/6/6 29/3/7
f 33/7/68 34/8/9 28/2/2 27/1/69
f 35/9/11 36/10/70 37/11/13 38/12/71
f 39/13/15 40/14/72 41/15/73 42/16/18
f 42/16/18 41/15/74 43/17/75 32/6/6
f 43/17/76 30/4/77 29/3/23 32/6/78
f 37/11/13 44/18/25 45/19/26 46/20/27
f 44/18/25 37/11/13 36/10/70
f 31/5/5 29/3/7 28/2/28 34/8/29
f 32/6/6 31/5/5 39/13/30 42/16/31
f 47/21/79 41/15/80 40/14/81 48/22/82
f 49/23/83 43/17/84 41/15/74 47/21/85
f 50/24/86 30/4/67 43/17/75 49/23/87
f 51/25/88 27/1/65 30/4/89 50/24/90
f 52/26/91 33/7/92 27/1/93 51/25/94
f 48/22/95 46/20/51 45/19/96 47/21/97
f 49/23/87 47/21/98 45/19/96 44/18/25
f 44/18/99 36/10/100 50/24/101 49/23/102
f 35/9/58 51/25/88 50/24/86 36/10/103
f 38/12/104 52/26/105 51/25/106 35/9/58
f 53/25/107 54/24/108 55/10/109 56/9/110
f 57/11/111 55/10/112 58/18/113
f 59/26/114 53/25/115 56/9/110 60/12/116
f 61/2/117 62/8/118 63/5/119 64/3/120
f 65/20/121 66/19/122 67/21/123 68/22/124
f 66/19/122 58/18/113 69/23/125 67/21/126
f 69/23/127 58/18/128 55/10/129 54/24/130
f 63/5/119 70/13/131 71/16/132 72/6/133
f 72/6/133 64/3/120 63/5/119
f 57/11/111 60/12/134 56/9/135 55/10/112
f 58/18/113 66/19/136 65/20/137 57/11/111
f 73/15/138 74/14/139 68/22/140 67/21/141
f 75/17/142 73/15/143 67/21/144 69/23/145
f 76/4/146 75/17/147 69/23/125 54/24/108
f 77/1/148 76/4/149 54/24/150 53/25/107
f 78/7/151 77/1/152 53/25/153 59/26/154
f 74/14/155 73/15/156 71/16/157 70/13/158
f 75/17/147 72/6/133 71/16/157 73/15/143
f 72/6/159 75/17/160 76/4/161 64/3/162
f 61/2/163 64/3/164 76/4/146 77/1/165
f 62/8/166 61/2/163 77/1/167 78/7/168
f 79/1/169 80/2/170 81/3/171 82/4/172
f 83/5/111 84/6/173 81/3/174
f 85/7/175 86/8/176 80/2/170 79/1/177
f 87/9/178 88/10/179 89/11/119 90/12/180
f 91/13/181 92/14/182 93/15/183 94/16/184
f 94/16/184 93/15/185 95/17/186 84/6/173
f 95/17/187 82/4/188 81/3/189 84/6/190
f 89/11/119 96/18/191 97/19/192 98/20/193
f 96/18/191 89/11/119 88/10/179
f 83/5/111 81/3/174 80/2/194 86/8/195
f 84/6/173 83/5/111 91/13/196 94/16/197
f 99/21/198 93/15/199 92/14/200 100/22/201
f 101/23/202 95/17/203 93/15/183 99/21/204
f 102/24/205 82/4/206 95/17/207 101/23/208
f 103/25/209 79/1/169 82/4/210 102/24/211
f 104/26/212 85/7/213 79/1/214 103/25/215
f 100/22/216 98/20/217 97/19/218 99/21/204
f 101/23/219 99/21/204 97/19/218 96/18/191
f 96/18/220 88/10/221 102/24/222 101/23/223
f 87/9/224 103/25/225 102/24/226 88/10/227
f 90/12/228 104/26/229 103/25/230 87/9/224
f 105/1/231 106/4/232 107/3/233 108/2/234
f 109/5/119 107/3/235 110/6/191
f 111/7/236 105/1/237 108/2/234 112/8/238
f 113/9/239 114/12/240 115/11/111 116/10/241
f 117/13/242 118/16/243 119/15/204 120/14/216
f 118/16/243 110/6/191 121/17/219 119/15/204
f 121/17/244 110/6/245 107/3/246 106/4/247
f 115/11/111 122/20/196 123/19/248 124/18/173
f 124/18/173 116/10/241 115/11/111
f 109/5/119 112/8/249 108/2/250 107/3/235
f 110/6/191 118/16/192 117/13/193 109/5/119
f 125/21/199 126/22/200 120/14/251 119/15/198
f 127/23/203 125/21/183 119/15/204 121/17/202
f 128/24/206 127/23/207 121/17/208 106/4/205
f 129/25/252 128/24/210 106/4/211 105/1/231
f 130/26/253 129/25/254 105/1/255 111/7/256
f 126/22/182 125/21/183 123/19/257 122/20/258
f 127/23/186 124/18/173 123/19/257 125/21/183
f 124/18/259 127/23/260 128/24/261 116/10/262
f 113/9/263 116/10/264 128/24/172 129/25/252
f 114/12/265 113/9/263 129/25/266 130/26/267
f 131/1/268 132/4/269 133/3/270 134/2/271
f 135/5/5 133/3/272 136/6/273
f 137/7/274 131/1/275 134/2/276 138/8/277
f 139/9/278 140/12/279 141/11/13 142/10/280
f 143/13/281 144/16/282 145/15/283 146/14/284
f 144/16/282 136/6/273 147/17/285 145/15/283
f 147/17/286 136/6/287 133/3/288 132/4/289
f 141/11/13 148/20/290 149/19/291 150/18/292
f 150/18/292 142/10/280 141/11/13
f 135/5/5 138/8/293 134/2/294 133/3/272
f 136/6/273 144/16/295 143/13/296 135/5/5
f 151/21/297 152/22/298 146/14/299 145/15/300
f 153/23/301 151/21/302 145/15/283 147/17/303
f 154/24/304 153/23/305 147/17/306 132/4/307
f 155/25/308 154/24/309 132/4/310 131/1/268
f 156/26/311 155/25/312 131/1/313 137/7/314
f 152/22/315 151/21/302 149/19/316 148/20/317
f 153/23/318 150/18/292 149/19/316 151/21/302
f 150/18/319 153/23/320 154/24/321 142/10/322
f 139/9/323 142/10/324 154/24/325 155/25/308
f 140/12/326 139/9/323 155/25/327 156/26/328
f 157/1/329 158/2/330 159/3/331 160/4/325
f 161/5/13 162/6/292 159/3/332
f 163/7/333 164/8/334 158/2/330 157/1/335
f 165/9/336 166/10/337 167/11/5 168/12/338
f 169/13/339 170/14/315 171/15/302 172/16/340
f 172/16/340 171/15/341 173/17/318 162/6/292
f 173/17/342 160/4/343 159/3/344 162/6/345
f 167/11/5 174/18/273 175/19/295 176/20/296
f 174/18/273 167/11/5 166/10/337
f 161/5/13 159/3/332 158/2/346 164/8/347
f 162/6/292 161/5/13 169/13/290 172/16/291
f 177/21/300 171/15/297 170/14/298 178/22/299
f 179/23/303 173/17/301 171/15/302 177/21/283
f 180/24/307 160/4/304 173/17/305 179/23/306
f 181/25/348 157/1/329 160/4/309 180/24/310
f 182/26/349 163/7/350 157/1/351 181/25/352
f 178/22/353 176/20/354 175/19/355 177/21/283
f 179/23/285 177/21/283 175/19/355 174/18/273
f 174/18/356 166/10/357 180/24/358 179/23/359
f 165/9/360 181/25/361 180/24/362 166/10/363
f 168/12/364 182/26/365 181/25/366 165/9/360
f 183/1/367 184/4/368 185/3/109 186/2/110
f 187/5/111 185/3/112 188/6/113
f 189/7/369 183/1/370 186/2/371 190/8/116
f 191/9/117 192/12/118 193/11/119 194/10/372
f 195/13/373 196/16/122 197/15/374 198/14/375
f 196/16/122 188/6/113 199/17/376 197/15/374
f 199/17/377 188/6/128 185/3/129 184/4/378
f 193/11/119 200/20/131 201/19/379 202/18/133
f 202/18/133 194/10/372 193/11/119
f 187/5/111 190/8/134 186/2/380 185/3/112
f 188/6/113 196/16/136 195/13/137 187/5/111
f 203/21/381 204/22/382 198/14/383 197/15/384
f 205/23/385 203/21/386 197/15/374 199/17/387
f 206/24/388 205/23/389 199/17/390 184/4/391
f 207/25/392 206/24/393 184/4/394 183/1/367
f 208/26/395 207/25/396 183/1/397 189/7/398
f 204/22/399 203/21/386 201/19/400 200/20/158
f 205/23/401 202/18/133 201/19/400 203/21/386
f 202/18/159 205/23/402 206/24/403 194/10/404
f 191/9/405 194/10/406 206/24/407 207/25/392
f 192/12/408 191/9/405 207/25/409 208/26/410
