# Blender 4.2.2 LTS
# www.blender.org
mtllib RectangleButton.mtl
o Cube
v -1.007430 -1.000000 0.000664
v -1.007430 1.000000 0.000664
v 1.007430 1.000000 0.000664
v 1.007429 -1.000000 0.000664
v -0.876249 -0.712389 1.980957
v -0.876248 0.712391 1.980957
v 0.876249 0.712390 1.980957
v 0.876248 -0.712390 1.980957
v -1.007430 -0.999999 1.616123
v -1.007429 1.000001 1.616123
v 1.007430 1.000000 1.616123
v 1.007430 -1.000000 1.616123
vn -0.0000 -0.0000 -1.0000
vn -0.0000 -0.0000 1.0000
vn -0.9410 -0.0000 0.3384
vn -0.0000 0.7853 0.6191
vn 0.9410 -0.0000 0.3384
vn -0.0000 -1.0000 -0.0000
vn -0.0000 -0.7853 0.6191
vn 1.0000 -0.0000 -0.0000
vn -0.0000 1.0000 -0.0000
vn -1.0000 -0.0000 -0.0000
s 0
usemtl Material
f 1//1 2//1 3//1 4//1
f 5//2 8//2 7//2 6//2
f 9//3 5//3 6//3 10//3
f 10//4 6//4 7//4 11//4
f 11//5 7//5 8//5 12//5
f 9//6 1//6 4//6 12//6
f 5//7 9//7 12//7 8//7
f 3//8 11//8 12//8 4//8
f 2//9 10//9 11//9 3//9
f 1//10 9//10 10//10 2//10
